<svg xmlns="http://www.w3.org/2000/svg" width="4rem" height="4rem"><path fill-rule="evenodd" clip-rule="evenodd" d="m29.268 12.765-.03.001a.475.475 0 0 1-.473-.446l-.19-3.135a.475.475 0 1 1 .948-.057l.19 3.134a.475.475 0 0 1-.445.503zm2.372 3.345a.475.475 0 0 0 .609-.284l2.043-5.604a.475.475 0 0 0-.893-.326l-2.042 5.605a.475.475 0 0 0 .284.609zm-4.819-.826a.475.475 0 0 1-.407-.23l-1.995-3.326a.475.475 0 1 1 .815-.489l1.995 3.325a.475.475 0 0 1-.407.72zm14.373 22.358 6.221 10.211a.474.474 0 1 1-.81.494l-5.973-9.802-7.6 4.724 3.794 6.295a.475.475 0 0 1-.814.491l-4.037-6.696a.475.475 0 0 1 .156-.649l1.106-.687-2.999-5.518c-.197.485-.378.882-.53 1.147l-2.809 4.862.771.545a.475.475 0 0 1 .104.675l-6.459 8.5a.475.475 0 0 1-.647.107l-7.41-5.035a.476.476 0 0 1-.13-.652l5.937-9.072a.476.476 0 0 1 .671-.127l.728.514c.465-2.288.626-4.346.473-6.117-.126-1.927-.834-3.655-2.23-5.449a12.23 12.23 0 0 0-.218-.247c-.756-.845-1.135-1.316-1.201-1.658-.081-.353.003-.854.38-1.142.28-.214.794-.369 1.647.109.378.22.728.462 1.052.71l-1.402-2.607c-.408-.577-.279-1.333.308-1.773a1.429 1.429 0 0 1 1.963.26l1.014 1.528-.943-2.829a1.446 1.446 0 0 1-.104-1.121c.123-.395.404-.716.771-.883.38-.191.85-.219 1.274-.069.394.14.712.424.874.78l1.414 3.871-.135-1.835c-.127-.752.417-1.492 1.244-1.642.845-.077 1.58.51 1.65 1.279l.74 9.541.802-1.336c.304-.477 1.208-1.9 2.599-1.065l.237.143c.449.269.651.79.491 1.27-.328 1.135-1.5 4.999-2.481 7.665l.001.002.002.003.001.001a.131.131 0 0 0 .008.008.08.08 0 0 1 .014.017l3.336 6.138 4.625-2.875-1.981-4.998a3.125 3.125 0 0 1 .896-3.578l3.897-3.232c.168-.145.162-.355.098-.503-.031-.072-.157-.31-.458-.274-.667.079-1.832.664-2.223.86l-.005.003-1.788.895a.474.474 0 0 1-.592-.711l4.56-6.032c.15-.177.15-.437.018-.592a.414.414 0 0 0-.335-.167.528.528 0 0 0-.405.202l-3.562 4.464a.474.474 0 0 1-.83-.404.463.463 0 0 1 .02-.263l2.754-6.744c.052-.115.054-.208.012-.294-.056-.117-.188-.212-.352-.253-.202-.046-.508.089-.6.274l-2.935 6.675a.474.474 0 0 1-.625.244.469.469 0 0 1-.276-.48.191.191 0 0 0-.002-.027c-.002-.013-.004-.026-.002-.039l.76-5.604a.487.487 0 0 1 .02-.087.269.269 0 0 0-.028-.218.345.345 0 0 0-.232-.164c-.215-.047-.433.07-.5.205l-1.462 6.043a.473.473 0 0 1-.061.141l-.002.004-.001.003a.466.466 0 0 1-.117.121l-.029.017a.464.464 0 0 1-.129.057c-.004 0-.007.003-.01.005l-.014.005c-.007.002-.014.001-.022 0h-.019a.223.223 0 0 0-.021.005.158.158 0 0 1-.037.006.33.33 0 0 1-.052-.006l-.018-.003a.169.169 0 0 0-.012-.001l-.016-.002-.007-.001h-.007a.149.149 0 0 1-.036-.017l-.024-.012-.015-.006a.381.381 0 0 1-.082-.039.303.303 0 0 1-.048-.045l-.016-.017-.014-.013c-.017-.017-.035-.034-.048-.055a.361.361 0 0 1-.035-.077l-.007-.019-.011-.025a.139.139 0 0 1-.016-.038l-.76-3.562a.494.494 0 0 1-.01-.098c0-.077-.08-.19-.19-.19a.29.29 0 0 0-.236.142l.094 5.12a.475.475 0 0 1-.467.484h-.009a.475.475 0 0 1-.475-.466l-.095-5.224a.474.474 0 0 1 .024-.159c.167-.5.645-.847 1.164-.847.598 0 1.107.49 1.137 1.083l.316 1.48.982-4.052a.44.44 0 0 1 .016-.055c.224-.597.94-.966 1.593-.82.356.072.673.297.858.616.169.29.212.633.122.948l-.31 2.29 1.595-3.628c.298-.599 1.028-.94 1.677-.795.453.112.81.39.99.764.165.341.167.726.004 1.083l-1.658 4.06 1.662-2.083c.284-.356.702-.56 1.147-.56.418 0 .807.186 1.067.512.423.493.424 1.286-.01 1.793l-3.318 4.39c.79-.397 1.784-.857 2.522-.944a1.381 1.381 0 0 1 1.435.842 1.364 1.364 0 0 1-.359 1.605l-3.9 3.235a2.178 2.178 0 0 0-.623 2.494l1.92 4.843 1.046-.65a.475.475 0 0 1 .657.156zM26.12 41.964l2.764-4.787c.838-1.455 2.767-7.673 3.375-9.772.03-.09-.035-.151-.073-.173l-.237-.143c-.267-.16-.597-.357-1.303.75l-1.56 2.602a.474.474 0 0 1-.881-.208l-.855-11.018a.449.449 0 0 0-.183-.3.568.568 0 0 0-.393-.119c-.224.043-.48.284-.429.589l.385 5.22a.11.11 0 0 1-.003.031l-.004.024a.469.469 0 0 1-.304.473.475.475 0 0 1-.609-.283l-2.564-7.03c-.042-.088-.161-.19-.313-.243a.706.706 0 0 0-.548.03.493.493 0 0 0-.274.308.493.493 0 0 0 .04.4.49.49 0 0 1 .044.095l2.069 6.208.06.091a.475.475 0 0 1-.133.659.463.463 0 0 1-.256.07.233.233 0 0 0-.021.004c-.01.002-.022.005-.033.005a.475.475 0 0 1-.45-.325l-.029-.085-2.936-4.427a.482.482 0 0 0-.622-.055c-.14.104-.238.284-.095.474.014.02.027.04.037.06l3.04 5.652a.15.15 0 0 1 .013.041l.008.027.006.02a.28.28 0 0 1 .022.145l-.001.015V27c-.002.026-.003.052-.01.078a.399.399 0 0 1-.027.07l-.006.015-.007.014a.377.377 0 0 1-.035.064.36.36 0 0 1-.055.058l-.012.01a.233.233 0 0 0-.019.02.147.147 0 0 1-.03.03.037.037 0 0 1-.011.005.042.042 0 0 0-.01.004l-.01.007a.018.018 0 0 1-.01.009.465.465 0 0 1-.125.045h-.009l-.003.001c-.004 0-.008 0-.012.002l-.015.002a.362.362 0 0 1-.06.006.264.264 0 0 1-.046-.005l-.01-.002-.01-.002a.228.228 0 0 0-.014-.001.46.46 0 0 1-.185-.074.464.464 0 0 1-.119-.116l-.003-.002-.002-.002a.025.025 0 0 1-.004-.004c-.012-.018-1.251-1.828-3.17-2.943-.394-.22-.576-.196-.599-.18-.025.02-.046.118-.03.177a.411.411 0 0 1 .009.048c.072.182.748.936.972 1.187.11.123.2.224.252.286 1.527 1.964 2.298 3.857 2.436 5.973.17 1.958-.022 4.245-.571 6.788l4.806 3.396zm-11.125-9.108a1.996 1.996 0 0 0 0-3.989c-1.1 0-1.995.895-1.995 1.995s.895 1.994 1.995 1.994zm0-3.04a1.046 1.046 0 0 1 0 2.09 1.046 1.046 0 0 1 0-2.09zm28.03.343a.477.477 0 0 1 .576-.378l2.17.504.388-2.213a.475.475 0 0 1 .936.164l-.475 2.707a.477.477 0 0 1-.575.38l-2.173-.504-.34 1.883a.475.475 0 1 1-.935-.168l.428-2.375zM14.663 20.033a1.14 1.14 0 1 0 0-2.28 1.14 1.14 0 0 0 0 2.28zm29.534-4.037a.95.95 0 1 1-1.9 0 .95.95 0 0 1 1.9 0z" fill="#fff"/></svg>