<svg xmlns="http://www.w3.org/2000/svg" width="30" fill="none" class="text-icon__icon" height="29"><path d="M19.315 2.806c.846 0 1.468.845 1.246 1.646l-2.402 8.319h3.826c.845 0 1.512.712 1.512 1.557 0 .49-.178.89-.534 1.201l-11.522 9.787c-.223.178-.49.267-.8.267-.846 0-1.469-.8-1.246-1.601l2.402-8.364h-3.87c-.801 0-1.469-.667-1.469-1.468 0-.445.178-.845.49-1.157l11.567-9.876c.222-.178.489-.311.8-.311Zm-1.601 3.781L9.66 13.483h3.56c.31 0 .622.178.845.444.178.267.267.623.178.935l-2.002 6.984 8.141-6.94h-3.604a1.12 1.12 0 0 1-.89-.4c-.177-.267-.266-.623-.177-.934l2.002-6.985Z" fill="#3D4148"/></svg>