<svg xmlns="http://www.w3.org/2000/svg" width="4rem" height="4rem" fill="#fff"><path fill-rule="evenodd" clip-rule="evenodd" d="M34.936 14.353a5.671 5.671 0 1 1-11.342 0 5.671 5.671 0 0 1 11.342 0zm-7.652-.288a.567.567 0 0 0-.802.802l1.531 1.531c.221.222.58.222.802 0l3.233-3.232a.567.567 0 1 0-.802-.802l-2.832 2.832-1.13-1.13zm24.18 20-5.671-8.847c-.015-.024-.035-.044-.053-.065l-.01-.011a.14.14 0 0 1-.009-.01l-.01-.013a.56.56 0 0 0-.157-.106l-.041-.016a.563.563 0 0 0-.197-.04H14.238a.562.562 0 0 0-.197.04l-.01.003-.03.013a.553.553 0 0 0-.168.118l-.008.01-.007.008a.445.445 0 0 0-.057.07L8.09 34.064a.569.569 0 0 0 .477.874h5.104v13.27c0 .314.254.567.567.567h31.078a.567.567 0 0 0 .567-.567V34.94h5.104a.566.566 0 0 0 .477-.874zm-36.916-7.973h10.789l-4.944 7.712H9.603l4.945-7.712zm6.155 8.847a.568.568 0 0 0 .477-.261l4.627-7.218v14.725l-11.002 5.243v-12.49h5.898zm24.045 12.703H26.941V27.46l4.627 7.218c.104.162.284.26.478.26h12.702v12.704zM32.355 33.804l-4.944-7.712h17.594l4.944 7.712H32.355zm10.693 9.698h-5.501v2.439h5.501v-2.439zm-3.124-25.174-1.701 2.325a.567.567 0 1 0 .915.67l1.701-2.326a.567.567 0 0 0-.915-.669zm-21.36-2.083c-.455-.417-1.132-.425-1.54-.017a.568.568 0 0 1-.803-.802c.838-.838 2.204-.845 3.109-.017.445.407.683.965.673 1.57a2.369 2.369 0 0 1-.638 1.557.564.564 0 0 1-.8.034.567.567 0 0 1-.035-.801c.214-.234.335-.522.34-.81a.924.924 0 0 0-.306-.714z"/><path fill-rule="evenodd" clip-rule="evenodd" d="M34.936 14.353a5.671 5.671 0 1 1-11.342 0 5.671 5.671 0 0 1 11.342 0zm-7.652-.288a.567.567 0 0 0-.802.802l1.531 1.531c.221.222.58.222.802 0l3.233-3.232a.567.567 0 1 0-.802-.802l-2.832 2.832-1.13-1.13zm24.18 20-5.671-8.847c-.015-.024-.035-.044-.053-.065l-.01-.011a.14.14 0 0 1-.009-.01l-.01-.013a.56.56 0 0 0-.157-.106l-.041-.016a.563.563 0 0 0-.197-.04H14.238a.562.562 0 0 0-.197.04l-.01.003-.03.013a.553.553 0 0 0-.168.118l-.008.01-.007.008a.445.445 0 0 0-.057.07L8.09 34.064a.569.569 0 0 0 .477.874h5.104v13.27c0 .314.254.567.567.567h31.078a.567.567 0 0 0 .567-.567V34.94h5.104a.566.566 0 0 0 .477-.874zm-36.916-7.973h10.789l-4.944 7.712H9.603l4.945-7.712zm6.155 8.847a.568.568 0 0 0 .477-.261l4.627-7.218v14.725l-11.002 5.243v-12.49h5.898zm24.045 12.703H26.941V27.46l4.627 7.218c.104.162.284.26.478.26h12.702v12.704zM32.355 33.804l-4.944-7.712h17.594l4.944 7.712H32.355zm10.693 9.698h-5.501v2.439h5.501v-2.439zm-3.124-25.174-1.701 2.325a.567.567 0 1 0 .915.67l1.701-2.326a.567.567 0 0 0-.915-.669zm-21.36-2.083c-.455-.417-1.132-.425-1.54-.017a.568.568 0 0 1-.803-.802c.838-.838 2.204-.845 3.109-.017.445.407.683.965.673 1.57a2.369 2.369 0 0 1-.638 1.557.564.564 0 0 1-.8.034.567.567 0 0 1-.035-.801c.214-.234.335-.522.34-.81a.924.924 0 0 0-.306-.714z" fill="inherit"/></svg>