<svg xmlns="http://www.w3.org/2000/svg" width="756" height="269" style="width:100%;height:100%;transform:translate3d(0,0,0);content-visibility:visible" class="st-current"><defs><clipPath id="a"><path d="M0 0h756v269H0z"/></clipPath><clipPath id="b"><path d="M0 0h712v188H0z"/></clipPath><clipPath id="c"><path d="M0 0h712v188H0z"/></clipPath><clipPath id="f"><path d="M0 0h40v40H0z"/></clipPath><clipPath id="d"><path d="M0 0h106v106H0z"/></clipPath><clipPath id="e"><path d="M0 0h50v50H0z"/></clipPath></defs><g clip-path="url(#a)"><g clip-path="url(#b)" transform="translate(25 36.5)" style="display:block"><g clip-path="url(#c)" style="display:block"><g style="display:block"><path fill="#FFF" d="M709 41v106c0 22.076-17.924 40-40 40H43c-22.076 0-40-17.924-40-40V41C3 18.924 20.924 1 43 1h626c22.076 0 40 17.924 40 40z"/><path stroke="#EBEEF4" d="M709 41v106c0 22.076-17.924 40-40 40H43c-22.076 0-40-17.924-40-40V41C3 18.924 20.924 1 43 1h626c22.076 0 40 17.924 40 40z" fill="none" stroke-width="2"/></g><g clip-path="url(#d)" transform="translate(43 41)" style="display:block"><path fill="#B3DF7E" d="M26.5-14.5v29c0 6.623-5.377 12-12 12h-29c-6.623 0-12-5.377-12-12v-29c0-6.623 5.377-12 12-12h29c6.623 0 12 5.377 12 12z" transform="matrix(2 0 0 2 53 53)" style="display:block"/><g clip-path="url(#e)" transform="translate(28 28)" style="display:block"><path fill="#334221" d="M1.895 8.11h-3.75V2.485h3.75V8.11zm-7.5 0c-.703 0-1.25-.547-1.25-1.25v-8.867L.02-7.827l6.875 5.82V6.86c0 .703-.586 1.25-1.25 1.25H3.77V2.173C3.77 1.314 3.066.61 2.207.61h-4.375c-.898 0-1.562.704-1.562 1.563V8.11h-1.875zm16.523-9.14L.605-9.78a.996.996 0 0 0-1.21 0l-10.313 8.75a.974.974 0 0 0-.117 1.328.974.974 0 0 0 1.328.117l.977-.82V6.86c0 1.758 1.367 3.125 3.125 3.125h11.25A3.109 3.109 0 0 0 8.77 6.86V-.405l.937.82a.974.974 0 0 0 1.328-.117.974.974 0 0 0-.117-1.328z" transform="matrix(2 0 0 2 25 25)" style="display:block"/></g></g><g clip-path="url(#f)" transform="translate(629 41)" style="display:block"><path fill="#79828F" d="M1-1.012a3.6 3.6 0 0 0 2.5 1c1.906 0 3.5-1.562 3.5-3.5 0-1.906-1.594-3.5-3.5-3.5-.781 0-1.5.282-2.094.688.375.688.594 1.5.594 2.312a5.016 5.016 0 0 1-1 3zm3.75 9h4.281c.531 0 .969-.406.969-.937 0-2.781-2.281-5.063-5.062-5.063H3.031c-.156 0-.281.032-.406.032C4.063 3.239 5 5.051 5 7.082c0 .344-.094.656-.25.906zm-12.688-3c.688-1.188 2-2 3.5-2h2.844c1.5 0 2.812.812 3.5 2 .25.406.406.812.5 1.25a.79.79 0 0 1 .032.25H-8.469c.062-.531.25-1.031.531-1.5zM-1.75-6.168C-1-5.699-.5-4.887-.5-4.012c0 .906-.5 1.719-1.25 2.188-.781.438-1.75.438-2.5 0A2.533 2.533 0 0 1-5.5-4.012c0-.875.469-1.687 1.25-2.156.75-.438 1.719-.438 2.5 0zM-5-7.449c-1.25.719-2 2.031-2 3.437 0 1.438.75 2.75 2 3.469a3.978 3.978 0 0 0 4 0 4.042 4.042 0 0 0 2-3.469C1-5.418.219-6.73-1-7.449a3.978 3.978 0 0 0-4 0zm-3 10.25a5.523 5.523 0 0 0-1.969 3.531c-.031.25-.031.5-.031.75 0 .5.406.906.906.906H3.062c.5 0 .907-.406.907-.906 0-.25 0-.5-.031-.75a5.523 5.523 0 0 0-1.969-3.531C1 1.989-.219 1.488-1.594 1.488h-2.844A5.554 5.554 0 0 0-8 2.801z" transform="matrix(2 0 0 2 20 20)" style="display:block"/></g><path d="M-1.912 3.944c.576.256 1.28.384 2.112.384.725 0 1.344-.101 1.856-.304.523-.203.917-.496 1.184-.88.267-.395.4-.859.4-1.392 0-.576-.149-1.035-.448-1.376a2.606 2.606 0 0 0-1.088-.784A12.398 12.398 0 0 0 .488-.904l-.4-.08c-.395-.085-.693-.16-.896-.224a1.194 1.194 0 0 1-.496-.288.692.692 0 0 1-.192-.512c0-.277.112-.501.336-.672.235-.171.581-.256 1.04-.256.565 0 .965.117 1.2.352.245.224.405.528.48.912h1.792a2.855 2.855 0 0 0-.464-1.344c-.256-.405-.64-.725-1.152-.96-.512-.235-1.141-.352-1.888-.352-.672 0-1.253.101-1.744.304-.491.192-.864.475-1.12.848a2.205 2.205 0 0 0-.368 1.264c0 .501.128.912.384 1.232.267.32.597.565.992.736A9.2 9.2 0 0 0-.568.52c.075.011.144.027.208.048.128.021.245.048.352.08.416.085.736.165.96.24.224.075.411.192.56.352.16.149.24.357.24.624a.956.956 0 0 1-.368.768c-.235.203-.64.304-1.216.304-.448 0-.816-.064-1.104-.192a1.596 1.596 0 0 1-.656-.544 1.848 1.848 0 0 1-.24-.832H-3.64c.021.565.171 1.072.448 1.52.288.448.715.8 1.28 1.056z" transform="matrix(2 0 0 2 462.824 66.824)" style="display:block"/><path d="M2.248-2.88H-2.28v1.472h4.528V-2.88zM-.104 5.184c.331.149.747.224 1.248.224.373 0 .752-.037 1.136-.112V3.888a4.346 4.346 0 0 1-.672.064c-.224 0-.4-.027-.528-.08a.544.544 0 0 1-.272-.304c-.053-.149-.08-.368-.08-.656v-8.32h-1.84v8.32c0 .629.085 1.125.256 1.488.171.363.421.624.752.784z" transform="matrix(2 0 0 2 449.345 64.408)" style="display:block"/><path d="M-1.8-3.968h-1.824v8.176H-1.8v-8.176zm3.216 1.76c.256.299.384.741.384 1.328v5.088h1.824v-5.632c0-.896-.251-1.584-.752-2.064-.491-.48-1.141-.72-1.952-.72-.651 0-1.2.123-1.648.368-.437.245-.784.56-1.04.944h-.608v2.16h.576c0-.395.08-.736.24-1.024.171-.299.411-.523.72-.672a2.3 2.3 0 0 1 1.072-.24c.533 0 .928.155 1.184.464z" transform="matrix(2 0 0 2 435.527 66.584)" style="display:block"/><path d="M-2.136 3.784c.619.373 1.355.56 2.208.56 1.045 0 1.893-.245 2.544-.736.651-.501 1.088-1.173 1.312-2.016H2.072a2.177 2.177 0 0 1-.32.592c-.139.203-.347.373-.624.512-.277.128-.619.192-1.024.192-.48 0-.891-.107-1.232-.32a2.24 2.24 0 0 1-.768-.896A2.96 2.96 0 0 1-2.152.424V-.632c0-.459.091-.859.272-1.2.181-.341.437-.608.768-.8A2.307 2.307 0 0 1 .04-2.92c.416 0 .784.091 1.104.272.32.171.565.416.736.736.171.309.256.672.256 1.088h-5.184V.488h7.056c.011-.107.016-.283.016-.528 0-.896-.155-1.664-.464-2.304a3.22 3.22 0 0 0-1.344-1.472C1.619-4.168.904-4.344.072-4.344c-.843 0-1.573.187-2.192.56a3.644 3.644 0 0 0-1.408 1.536c-.331.651-.496 1.397-.496 2.24 0 .843.16 1.595.48 2.256.331.651.8 1.163 1.408 1.536z" transform="matrix(2 0 0 2 417.555 66.824)" style="display:block"/><path d="M-4.032-3.968h-1.824v8.176h1.824v-8.176zM-1.2-2.24c.192.288.288.741.288 1.36v5.088H.912V-.736c0-.395.069-.736.208-1.024.149-.299.352-.523.608-.672a1.8 1.8 0 0 1 .944-.24c.523 0 .875.144 1.056.432.192.288.288.741.288 1.36v5.088h1.84v-5.632c0-.885-.219-1.568-.656-2.048-.427-.491-1.045-.736-1.856-.736-.597 0-1.109.128-1.536.384a3.889 3.889 0 0 0-1.152 1.04H.624c-.171-.459-.437-.811-.8-1.056-.363-.245-.821-.368-1.376-.368-.555 0-1.04.123-1.456.368-.405.245-.736.56-.992.944h-.672v2.16h.64c0-.395.069-.736.208-1.024.149-.299.357-.523.624-.672.267-.16.576-.24.928-.24.533 0 .891.144 1.072.432z" transform="matrix(2 0 0 2 395.202 66.584)" style="display:block"/><path d="M-2.136 3.784c.619.373 1.355.56 2.208.56 1.045 0 1.893-.245 2.544-.736.651-.501 1.088-1.173 1.312-2.016H2.072a2.177 2.177 0 0 1-.32.592c-.139.203-.347.373-.624.512-.277.128-.619.192-1.024.192-.48 0-.891-.107-1.232-.32a2.24 2.24 0 0 1-.768-.896A2.96 2.96 0 0 1-2.152.424V-.632c0-.459.091-.859.272-1.2.181-.341.437-.608.768-.8A2.307 2.307 0 0 1 .04-2.92c.416 0 .784.091 1.104.272.32.171.565.416.736.736.171.309.256.672.256 1.088h-5.184V.488h7.056c.011-.107.016-.283.016-.528 0-.896-.155-1.664-.464-2.304a3.22 3.22 0 0 0-1.344-1.472C1.619-4.168.904-4.344.072-4.344c-.843 0-1.573.187-2.192.56a3.644 3.644 0 0 0-1.408 1.536c-.331.651-.496 1.397-.496 2.24 0 .843.16 1.595.48 2.256.331.651.8 1.163 1.408 1.536z" transform="matrix(2 0 0 2 372.766 66.824)" style="display:block"/><path d="M-1.984-4.088h-1.92l2.88 8.176h2.048l2.88-8.176H2.032L.048 2.168H.016l-2-6.256z" transform="matrix(2 0 0 2 356.287 66.824)" style="display:block"/><path d="M1.256 2.52c-.341.235-.757.352-1.248.352-.747 0-1.317-.261-1.712-.784-.384-.523-.576-1.216-.576-2.08 0-.565.085-1.067.256-1.504.171-.437.427-.773.768-1.008.341-.245.763-.368 1.264-.368.736 0 1.296.261 1.68.784.395.523.592 1.216.592 2.08 0 .576-.085 1.083-.256 1.52a2.225 2.225 0 0 1-.768 1.008zM-2.232 3.8c.629.363 1.371.544 2.224.544.853 0 1.589-.181 2.208-.544a3.702 3.702 0 0 0 1.44-1.536c.341-.661.512-1.419.512-2.272 0-.853-.171-1.605-.512-2.256A3.587 3.587 0 0 0 2.2-3.8C1.581-4.163.851-4.344.008-4.344c-.853 0-1.595.187-2.224.56a3.587 3.587 0 0 0-1.44 1.536c-.331.651-.496 1.403-.496 2.256 0 .853.165 1.611.496 2.272A3.629 3.629 0 0 0-2.232 3.8z" transform="matrix(2 0 0 2 339.546 66.824)" style="display:block"/><path d="M-.544-4.008h-1.824v8.176h1.824v-8.176zm.032 1.504h-1.312l1.28 2.56c0-.501.101-.939.304-1.312.213-.384.501-.677.864-.88.363-.213.768-.32 1.216-.32.16 0 .336.016.528.048v-1.696a3.755 3.755 0 0 0-.736-.064c-.501 0-.928.149-1.28.448-.352.288-.64.693-.864 1.216z" transform="matrix(2 0 0 2 325.836 66.664)" style="display:block"/><path d="M1.136 1.192c-.32.245-.704.368-1.152.368-.437 0-.816-.112-1.136-.336-.32-.224-.565-.549-.736-.976-.16-.437-.24-.949-.24-1.536 0-.597.08-1.109.24-1.536.171-.437.416-.768.736-.992.32-.224.699-.336 1.136-.336.448 0 .832.123 1.152.368.32.245.56.587.72 1.024.16.427.24.917.24 1.472a4.26 4.26 0 0 1-.24 1.472c-.16.427-.4.763-.72 1.008zM-2.16-5.384h-1.824V5.624h1.824V-5.384zm1.008 8.08c.427.224.928.336 1.504.336.704 0 1.328-.176 1.872-.528.555-.352.987-.853 1.296-1.504.309-.651.464-1.413.464-2.288 0-.885-.155-1.653-.464-2.304-.309-.651-.741-1.152-1.296-1.504-.544-.352-1.168-.528-1.872-.528-.565 0-1.061.117-1.488.352a3.038 3.038 0 0 0-.992.816h-.448v6.288h.448c.235.341.56.629.976.864z" transform="matrix(2 0 0 2 310.408 69.416)" style="display:block"/><path d="M-4.032-3.968h-1.824v8.176h1.824v-8.176zM-1.2-2.24c.192.288.288.741.288 1.36v5.088H.912V-.736c0-.395.069-.736.208-1.024.149-.299.352-.523.608-.672a1.8 1.8 0 0 1 .944-.24c.523 0 .875.144 1.056.432.192.288.288.741.288 1.36v5.088h1.84v-5.632c0-.885-.219-1.568-.656-2.048-.427-.491-1.045-.736-1.856-.736-.597 0-1.109.128-1.536.384a3.889 3.889 0 0 0-1.152 1.04H.624c-.171-.459-.437-.811-.8-1.056-.363-.245-.821-.368-1.376-.368-.555 0-1.04.123-1.456.368-.405.245-.736.56-.992.944h-.672v2.16h.64c0-.395.069-.736.208-1.024.149-.299.357-.523.624-.672.267-.16.576-.24.928-.24.533 0 .891.144 1.072.432z" transform="matrix(2 0 0 2 287.336 66.584)" style="display:block"/><path d="M1.032-5.72h-2.064V5.72h2.064V-5.72z" transform="matrix(2 0 0 2 269.884 63.56)" style="display:block"/><path d="M-2.136 3.784c.619.373 1.355.56 2.208.56 1.045 0 1.893-.245 2.544-.736.651-.501 1.088-1.173 1.312-2.016H2.072a2.177 2.177 0 0 1-.32.592c-.139.203-.347.373-.624.512-.277.128-.619.192-1.024.192-.48 0-.891-.107-1.232-.32a2.24 2.24 0 0 1-.768-.896A2.96 2.96 0 0 1-2.152.424V-.632c0-.459.091-.859.272-1.2.181-.341.437-.608.768-.8A2.307 2.307 0 0 1 .04-2.92c.416 0 .784.091 1.104.272.32.171.565.416.736.736.171.309.256.672.256 1.088h-5.184V.488h7.056c.011-.107.016-.283.016-.528 0-.896-.155-1.664-.464-2.304a3.22 3.22 0 0 0-1.344-1.472C1.619-4.168.904-4.344.072-4.344c-.843 0-1.573.187-2.192.56a3.644 3.644 0 0 0-1.408 1.536c-.331.651-.496 1.397-.496 2.24 0 .843.16 1.595.48 2.256.331.651.8 1.163 1.408 1.536z" transform="matrix(2 0 0 2 249.892 66.824)" style="display:block"/><path d="M-4.032-3.968h-1.824v8.176h1.824v-8.176zM-1.2-2.24c.192.288.288.741.288 1.36v5.088H.912V-.736c0-.395.069-.736.208-1.024.149-.299.352-.523.608-.672a1.8 1.8 0 0 1 .944-.24c.523 0 .875.144 1.056.432.192.288.288.741.288 1.36v5.088h1.84v-5.632c0-.885-.219-1.568-.656-2.048-.427-.491-1.045-.736-1.856-.736-.597 0-1.109.128-1.536.384a3.889 3.889 0 0 0-1.152 1.04H.624c-.171-.459-.437-.811-.8-1.056-.363-.245-.821-.368-1.376-.368-.555 0-1.04.123-1.456.368-.405.245-.736.56-.992.944h-.672v2.16h.64c0-.395.069-.736.208-1.024.149-.299.357-.523.624-.672.267-.16.576-.24.928-.24.533 0 .891.144 1.072.432z" transform="matrix(2 0 0 2 227.54 66.584)" style="display:block"/><path d="M1.256 2.52c-.341.235-.757.352-1.248.352-.747 0-1.317-.261-1.712-.784-.384-.523-.576-1.216-.576-2.08 0-.565.085-1.067.256-1.504.171-.437.427-.773.768-1.008.341-.245.763-.368 1.264-.368.736 0 1.296.261 1.68.784.395.523.592 1.216.592 2.08 0 .576-.085 1.083-.256 1.52a2.225 2.225 0 0 1-.768 1.008zM-2.232 3.8c.629.363 1.371.544 2.224.544.853 0 1.589-.181 2.208-.544a3.702 3.702 0 0 0 1.44-1.536c.341-.661.512-1.419.512-2.272 0-.853-.171-1.605-.512-2.256A3.587 3.587 0 0 0 2.2-3.8C1.581-4.163.851-4.344.008-4.344c-.853 0-1.595.187-2.224.56a3.587 3.587 0 0 0-1.44 1.536c-.331.651-.496 1.403-.496 2.256 0 .853.165 1.611.496 2.272A3.629 3.629 0 0 0-2.232 3.8z" transform="matrix(2 0 0 2 204.859 66.824)" style="display:block"/><path d="M-2.576-5.72H-4.64V5.72h2.064V.712h5.168V5.72H4.64V-5.72H2.592v4.704h-5.168V-5.72z" transform="matrix(2 0 0 2 184.456 63.56)" style="display:block"/><g class="43" font-size="22" font-family="PP Neue Montreal" aria-label="$7,431.43" style="display:block" stroke-linejoin="round"><g style="display:inherit"><g style="display:block"><path d="M185.36 126.86h2.86V88.58h-2.86v38.28zm1.94-3.78c2.5 0 4.62-.38 6.36-1.12 1.74-.76 3.08-1.8 3.98-3.18.9-1.36 1.36-2.94 1.36-4.72 0-1.82-.42-3.32-1.26-4.52-.82-1.18-1.94-2.12-3.34-2.8-1.38-.7-3.18-1.38-5.38-2.06-.42-.12-.86-.26-1.36-.44-.1-.02-.2-.06-.32-.08-1.6-.48-2.82-.86-3.6-1.16-.8-.32-1.4-.7-1.84-1.18-.42-.46-.62-1.06-.62-1.8 0-1.08.44-1.92 1.34-2.48.88-.58 2.08-.86 3.58-.86 1.84 0 3.28.4 4.28 1.18 1.02.8 1.64 2 1.84 3.62h6.06c-.14-3.06-1.28-5.46-3.4-7.22-2.12-1.76-5-2.64-8.6-2.64-2.3 0-4.28.36-5.98 1.08-1.7.72-3.02 1.74-3.92 3.1-.92 1.34-1.36 2.92-1.36 4.74 0 1.7.42 3.12 1.26 4.24.86 1.1 1.98 2 3.36 2.7 1.38.68 3.06 1.32 5.06 1.86.32.1.82.24 1.54.44 1.58.44 2.8.86 3.66 1.22.88.36 1.56.84 2.08 1.4.5.58.78 1.28.8 2.14-.02 1.14-.48 2.02-1.36 2.62-.88.6-2.24.9-4.08.9-1.38 0-2.6-.18-3.66-.54-1.06-.38-1.9-.98-2.54-1.82-.62-.82-.98-1.9-1.06-3.22h-6.08c.02 2.26.6 4.18 1.74 5.76 1.12 1.58 2.68 2.78 4.66 3.6 1.98.82 4.24 1.24 6.8 1.24z"/></g></g><g style="display:inherit"><g style="display:block"><path d="M205.524 122.46h6.86c0-3.26.4-6.48 1.18-9.7.8-3.22 1.98-6.2 3.54-8.96 1.58-2.76 3.46-5.04 5.66-6.86v-4.88h-21.96v5.32h15.06v.04c-1.8 1.58-3.5 3.72-5.1 6.42-1.58 2.7-2.86 5.7-3.82 8.96-.96 3.28-1.42 6.5-1.42 9.66z"/></g></g><g style="display:inherit"><g style="display:block"><path d="M225.632 126.46v2.86c1.96-.34 3.44-1.12 4.46-2.32 1-1.22 1.52-2.72 1.52-4.54v-5.98h-6.04v5.98h2.86c0 1.24-.22 2.16-.7 2.8-.46.62-1.16 1.02-2.1 1.2z"/></g></g><g style="display:inherit"><g style="display:block"><path d="m239.836 110.54 8.94-11.1v11.1h-8.94zm8.94 11.92h6.46v-6.6h4.4v-5.32h-4.4V92.06h-6.46l-14.04 17.5v6.3h14.04v6.6z"/></g></g><g style="display:inherit"><g style="display:block"><path d="M274.648 123.16c2.34 0 4.38-.36 6.1-1.08 1.74-.72 3.08-1.78 4.06-3.18.96-1.42 1.44-3.12 1.44-5.1 0-1.86-.44-3.4-1.32-4.62-.88-1.24-2.26-2.14-4.12-2.74v-.08c1.4-.68 2.5-1.56 3.3-2.64.78-1.08 1.18-2.4 1.18-3.96 0-1.76-.48-3.26-1.46-4.52-.96-1.24-2.26-2.2-3.9-2.88-1.66-.68-3.46-1-5.46-1-2.38 0-4.44.42-6.2 1.26-1.76.86-3.1 2.04-4.02 3.52-.9 1.5-1.36 3.24-1.36 5.2h6.34c0-1.52.44-2.68 1.3-3.48.86-.78 2.14-1.18 3.8-1.18.98 0 1.78.16 2.42.46.64.3 1.12.74 1.44 1.3.3.56.46 1.2.46 1.94 0 .9-.2 1.66-.62 2.26-.42.6-1 1.06-1.74 1.36-.74.32-1.6.46-2.58.46h-1.8v4.62h1.98c1.2 0 2.22.16 3.04.44.82.3 1.46.78 1.94 1.46.46.68.7 1.54.7 2.6 0 .9-.16 1.68-.5 2.3-.34.64-.9 1.12-1.7 1.46-.8.34-1.78.5-3 .5-1.42 0-2.6-.24-3.5-.7-.88-.48-1.54-1.14-1.92-2.02-.4-.88-.6-1.98-.6-3.26h-6.34c0 2.4.5 4.44 1.48 6.12.98 1.66 2.42 2.94 4.3 3.84 1.9.9 4.18 1.34 6.86 1.34z"/></g></g><g style="display:inherit"><g style="display:block"><path d="M294.84 101.26v21.2h6.46v-30.4h-5.28c-.06 1.22-.38 2.24-.96 3.02-.6.76-1.44 1.36-2.58 1.76-1.12.38-2.46.6-4.02.62v5.12c1.46 0 2.74-.12 3.84-.32 1.1-.2 1.94-.54 2.54-1z"/></g></g><g style="display:inherit"><g style="display:block"><path d="M306.14 122.46h5.94v-5.98h-5.94v5.98z"/></g></g><g style="display:inherit"><g style="display:block"><path d="m320.268 110.54 8.94-11.1v11.1h-8.94zm8.94 11.92h6.46v-6.6h4.4v-5.32h-4.4V92.06h-6.46l-14.04 17.5v6.3h14.04v6.6z"/></g></g><g style="display:inherit"><g style="display:block"><path d="M355.08 123.16c2.34 0 4.38-.36 6.1-1.08 1.74-.72 3.08-1.78 4.06-3.18.96-1.42 1.44-3.12 1.44-5.1 0-1.86-.44-3.4-1.32-4.62-.88-1.24-2.26-2.14-4.12-2.74v-.08c1.4-.68 2.5-1.56 3.3-2.64.78-1.08 1.18-2.4 1.18-3.96 0-1.76-.48-3.26-1.46-4.52-.96-1.24-2.26-2.2-3.9-2.88-1.66-.68-3.46-1-5.46-1-2.38 0-4.44.42-6.2 1.26-1.76.86-3.1 2.04-4.02 3.52-.9 1.5-1.36 3.24-1.36 5.2h6.34c0-1.52.44-2.68 1.3-3.48.86-.78 2.14-1.18 3.8-1.18.98 0 1.78.16 2.42.46.64.3 1.12.74 1.44 1.3.3.56.46 1.2.46 1.94 0 .9-.2 1.66-.62 2.26-.42.6-1 1.06-1.74 1.36-.74.32-1.6.46-2.58.46h-1.8v4.62h1.98c1.2 0 2.22.16 3.04.44.82.3 1.46.78 1.94 1.46.46.68.7 1.54.7 2.6 0 .9-.16 1.68-.5 2.3-.34.64-.9 1.12-1.7 1.46-.8.34-1.78.5-3 .5-1.42 0-2.6-.24-3.5-.7-.88-.48-1.54-1.14-1.92-2.02-.4-.88-.6-1.98-.6-3.26h-6.34c0 2.4.5 4.44 1.48 6.12.98 1.66 2.42 2.94 4.3 3.84 1.9.9 4.18 1.34 6.86 1.34z"/></g></g></g></g></g></g></svg>