<svg xmlns="http://www.w3.org/2000/svg" xmlns:xlink="http://www.w3.org/1999/xlink" viewBox="0 0 756 269" width="756" height="269" preserveAspectRatio="xMidYMid meet" style="width: 100%; height: 100%; transform: translate3d(0px, 0px, 0px); content-visibility: visible;" class="st-current"><defs><clipPath id="__lottie_element_96"><rect width="756" height="269" x="0" y="0"></rect></clipPath><clipPath id="__lottie_element_98"><path d="M0,0 L712,0 L712,188 L0,188z"></path></clipPath><clipPath id="__lottie_element_102"><path d="M0,0 L712,0 L712,188 L0,188z"></path></clipPath><clipPath id="__lottie_element_158"><path d="M0,0 L40,0 L40,40 L0,40z"></path></clipPath><clipPath id="__lottie_element_168"><path d="M0,0 L106,0 L106,106 L0,106z"></path></clipPath><clipPath id="__lottie_element_172"><path d="M0,0 L50,0 L50,50 L0,50z"></path></clipPath></defs><g clip-path="url(#__lottie_element_96)"><g clip-path="url(#__lottie_element_98)" transform="matrix(1,0,0,1,25,36.5)" opacity="1" style="display: block;"><g clip-path="url(#__lottie_element_102)" transform="matrix(1,0,0,1,0,0)" opacity="1" style="display: block;"><g transform="matrix(1,0,0,1,356,94)" opacity="1" style="display: block;"><g opacity="1" transform="matrix(2,0,0,2,0,0)"><path fill="#FFFFFF" fill-opacity="1" d=" M176.5,-26.5 C176.5,-26.5 176.5,26.5 176.5,26.5 C176.5,37.53799819946289 167.53799438476562,46.5 156.5,46.5 C156.5,46.5 -156.5,46.5 -156.5,46.5 C-167.53799438476562,46.5 -176.5,37.53799819946289 -176.5,26.5 C-176.5,26.5 -176.5,-26.5 -176.5,-26.5 C-176.5,-37.53799819946289 -167.53799438476562,-46.5 -156.5,-46.5 C-156.5,-46.5 156.5,-46.5 156.5,-46.5 C167.53799438476562,-46.5 176.5,-37.53799819946289 176.5,-26.5z"></path><path stroke-linecap="butt" stroke-linejoin="miter" fill-opacity="0" stroke-miterlimit="4" stroke="#EBEEF4" stroke-opacity="1" stroke-width="1" d=" M176.5,-26.5 C176.5,-26.5 176.5,26.5 176.5,26.5 C176.5,37.53799819946289 167.53799438476562,46.5 156.5,46.5 C156.5,46.5 -156.5,46.5 -156.5,46.5 C-167.53799438476562,46.5 -176.5,37.53799819946289 -176.5,26.5 C-176.5,26.5 -176.5,-26.5 -176.5,-26.5 C-176.5,-37.53799819946289 -167.53799438476562,-46.5 -156.5,-46.5 C-156.5,-46.5 156.5,-46.5 156.5,-46.5 C167.53799438476562,-46.5 176.5,-37.53799819946289 176.5,-26.5z" class=""></path></g></g><g clip-path="url(#__lottie_element_168)" transform="matrix(1,0,0,1,43,41)" opacity="1" style="display: block;"><g transform="matrix(1,0,0,1,53,53)" opacity="1" style="display: block;"><g opacity="1" transform="matrix(2,0,0,2,0,0)"><path fill="#B3DF7E" fill-opacity="1" d=" M26.5,-14.5 C26.5,-14.5 26.5,14.5 26.5,14.5 C26.5,21.122800827026367 21.122800827026367,26.5 14.5,26.5 C14.5,26.5 -14.5,26.5 -14.5,26.5 C-21.122800827026367,26.5 -26.5,21.122800827026367 -26.5,14.5 C-26.5,14.5 -26.5,-14.5 -26.5,-14.5 C-26.5,-21.122800827026367 -21.122800827026367,-26.5 -14.5,-26.5 C-14.5,-26.5 14.5,-26.5 14.5,-26.5 C21.122800827026367,-26.5 26.5,-21.122800827026367 26.5,-14.5z"></path></g></g><g clip-path="url(#__lottie_element_172)" transform="matrix(1,0,0,1,28,28)" opacity="1" style="display: block;"><g transform="matrix(1,0,0,1,25,25)" opacity="1" style="display: block;"><g opacity="1" transform="matrix(2,0,0,2,0,0)"></g></g><g transform="matrix(1,0,0,1,25,25)" opacity="1" style="display: block;"><g opacity="1" transform="matrix(2,0,0,2,0,0)"><path fill="#334221" fill-opacity="1" d=" M1.8949999809265137,8.109999656677246 C1.8949999809265137,8.109999656677246 -1.8550000190734863,8.109999656677246 -1.8550000190734863,8.109999656677246 C-1.8550000190734863,8.109999656677246 -1.8550000190734863,2.484999895095825 -1.8550000190734863,2.484999895095825 C-1.8550000190734863,2.484999895095825 1.8949999809265137,2.484999895095825 1.8949999809265137,2.484999895095825 C1.8949999809265137,2.484999895095825 1.8949999809265137,8.109999656677246 1.8949999809265137,8.109999656677246z M-5.605000019073486,8.109999656677246 C-6.308000087738037,8.109999656677246 -6.855000019073486,7.563000202178955 -6.855000019073486,6.860000133514404 C-6.855000019073486,6.860000133514404 -6.855000019073486,-2.006999969482422 -6.855000019073486,-2.006999969482422 C-6.855000019073486,-2.006999969482422 0.019999999552965164,-7.827000141143799 0.019999999552965164,-7.827000141143799 C0.019999999552965164,-7.827000141143799 6.894999980926514,-2.006999969482422 6.894999980926514,-2.006999969482422 C6.894999980926514,-2.006999969482422 6.894999980926514,6.860000133514404 6.894999980926514,6.860000133514404 C6.894999980926514,7.563000202178955 6.309000015258789,8.109999656677246 5.644999980926514,8.109999656677246 C5.644999980926514,8.109999656677246 3.7699999809265137,8.109999656677246 3.7699999809265137,8.109999656677246 C3.7699999809265137,8.109999656677246 3.7699999809265137,2.1730000972747803 3.7699999809265137,2.1730000972747803 C3.7699999809265137,1.3140000104904175 3.065999984741211,0.6100000143051147 2.2070000171661377,0.6100000143051147 C2.2070000171661377,0.6100000143051147 -2.1679999828338623,0.6100000143051147 -2.1679999828338623,0.6100000143051147 C-3.065999984741211,0.6100000143051147 -3.7300000190734863,1.3140000104904175 -3.7300000190734863,2.1730000972747803 C-3.7300000190734863,2.1730000972747803 -3.7300000190734863,8.109999656677246 -3.7300000190734863,8.109999656677246 C-3.7300000190734863,8.109999656677246 -5.605000019073486,8.109999656677246 -5.605000019073486,8.109999656677246z M10.918000221252441,-1.0299999713897705 C10.918000221252441,-1.0299999713897705 0.6050000190734863,-9.779999732971191 0.6050000190734863,-9.779999732971191 C0.2529999911785126,-10.053000450134277 -0.2529999911785126,-10.053000450134277 -0.6050000190734863,-9.779999732971191 C-0.6050000190734863,-9.779999732971191 -10.918000221252441,-1.0299999713897705 -10.918000221252441,-1.0299999713897705 C-11.309000015258789,-0.6779999732971191 -11.347000122070312,-0.09300000220537186 -11.03499984741211,0.2980000078678131 C-10.682999610900879,0.6890000104904175 -10.097999572753906,0.7269999980926514 -9.706999778747559,0.41499999165534973 C-9.706999778747559,0.41499999165534973 -8.729999542236328,-0.4050000011920929 -8.729999542236328,-0.4050000011920929 C-8.729999542236328,-0.4050000011920929 -8.729999542236328,6.860000133514404 -8.729999542236328,6.860000133514404 C-8.729999542236328,8.618000030517578 -7.36299991607666,9.984999656677246 -5.605000019073486,9.984999656677246 C-5.605000019073486,9.984999656677246 5.644999980926514,9.984999656677246 5.644999980926514,9.984999656677246 C7.363999843597412,9.984999656677246 8.770000457763672,8.618000030517578 8.770000457763672,6.860000133514404 C8.770000457763672,6.860000133514404 8.770000457763672,-0.4050000011920929 8.770000457763672,-0.4050000011920929 C8.770000457763672,-0.4050000011920929 9.706999778747559,0.41499999165534973 9.706999778747559,0.41499999165534973 C10.097999572753906,0.7269999980926514 10.682999610900879,0.6890000104904175 11.03499984741211,0.2980000078678131 C11.347000122070312,-0.09300000220537186 11.309000015258789,-0.6779999732971191 10.918000221252441,-1.0299999713897705z"></path></g></g></g></g><g clip-path="url(#__lottie_element_158)" transform="matrix(1,0,0,1,629,41)" opacity="1" style="display: block;"><g transform="matrix(1,0,0,1,20,20)" opacity="1" style="display: block;"><g opacity="1" transform="matrix(2,0,0,2,0,0)"></g></g><g transform="matrix(1,0,0,1,20,20)" opacity="1" style="display: block;"><g opacity="1" transform="matrix(2,0,0,2,0,0)"><path fill="#79828F" fill-opacity="1" d=" M1,-1.0119999647140503 C1.656000018119812,-0.3869999945163727 2.5309998989105225,-0.012000000104308128 3.5,-0.012000000104308128 C5.406000137329102,-0.012000000104308128 7,-1.5740000009536743 7,-3.51200008392334 C7,-5.418000221252441 5.406000137329102,-7.01200008392334 3.5,-7.01200008392334 C2.7190001010894775,-7.01200008392334 2,-6.730000019073486 1.406000018119812,-6.323999881744385 C1.781000018119812,-5.636000156402588 2,-4.823999881744385 2,-4.01200008392334 C2,-2.88700008392334 1.625,-1.8559999465942383 1,-1.0119999647140503z M4.75,7.98799991607666 C4.75,7.98799991607666 9.031000137329102,7.98799991607666 9.031000137329102,7.98799991607666 C9.562000274658203,7.98799991607666 10,7.581999778747559 10,7.051000118255615 C10,4.269999980926514 7.718999862670898,1.9880000352859497 4.938000202178955,1.9880000352859497 C4.938000202178955,1.9880000352859497 3.0309998989105225,1.9880000352859497 3.0309998989105225,1.9880000352859497 C2.875,1.9880000352859497 2.75,2.0199999809265137 2.625,2.0199999809265137 C4.063000202178955,3.239000082015991 5,5.051000118255615 5,7.081999778747559 C5,7.426000118255615 4.906000137329102,7.73799991607666 4.75,7.98799991607666z M-7.938000202178955,4.98799991607666 C-7.25,3.799999952316284 -5.938000202178955,2.98799991607666 -4.438000202178955,2.98799991607666 C-4.438000202178955,2.98799991607666 -1.593999981880188,2.98799991607666 -1.593999981880188,2.98799991607666 C-0.09399999678134918,2.98799991607666 1.218000054359436,3.799999952316284 1.906000018119812,4.98799991607666 C2.1559998989105225,5.394000053405762 2.312000036239624,5.800000190734863 2.4059998989105225,6.23799991607666 C2.437000036239624,6.331999778747559 2.437999963760376,6.426000118255615 2.437999963760376,6.48799991607666 C2.437999963760376,6.48799991607666 0.9380000233650208,6.48799991607666 0.9380000233650208,6.48799991607666 C0.9380000233650208,6.48799991607666 -6.938000202178955,6.48799991607666 -6.938000202178955,6.48799991607666 C-6.938000202178955,6.48799991607666 -8.468999862670898,6.48799991607666 -8.468999862670898,6.48799991607666 C-8.406999588012695,5.956999778747559 -8.218999862670898,5.456999778747559 -7.938000202178955,4.98799991607666z M-1.75,-6.168000221252441 C-1,-5.698999881744385 -0.5,-4.88700008392334 -0.5,-4.01200008392334 C-0.5,-3.1059999465942383 -1,-2.2929999828338623 -1.75,-1.8240000009536743 C-2.5309998989105225,-1.3860000371932983 -3.5,-1.3860000371932983 -4.25,-1.8240000009536743 C-5.031000137329102,-2.2929999828338623 -5.5,-3.1059999465942383 -5.5,-4.01200008392334 C-5.5,-4.88700008392334 -5.031000137329102,-5.698999881744385 -4.25,-6.168000221252441 C-3.5,-6.605999946594238 -2.5309998989105225,-6.605999946594238 -1.75,-6.168000221252441z M-5,-7.448999881744385 C-6.25,-6.730000019073486 -7,-5.418000221252441 -7,-4.01200008392334 C-7,-2.5739998817443848 -6.25,-1.2619999647140503 -5,-0.5429999828338623 C-3.7809998989105225,0.17599999904632568 -2.25,0.17599999904632568 -1,-0.5429999828338623 C0.21899999678134918,-1.2619999647140503 1,-2.5739998817443848 1,-4.01200008392334 C1,-5.418000221252441 0.21899999678134918,-6.730000019073486 -1,-7.448999881744385 C-2.25,-8.168000221252441 -3.7809998989105225,-8.168000221252441 -5,-7.448999881744385z M-8,2.8010001182556152 C-9.062000274658203,3.6760001182556152 -9.781000137329102,4.926000118255615 -9.968999862670898,6.331999778747559 C-10,6.581999778747559 -10,6.831999778747559 -10,7.081999778747559 C-10,7.581999778747559 -9.593999862670898,7.98799991607666 -9.093999862670898,7.98799991607666 C-9.093999862670898,7.98799991607666 -8.468999862670898,7.98799991607666 -8.468999862670898,7.98799991607666 C-8.468999862670898,7.98799991607666 2.437999963760376,7.98799991607666 2.437999963760376,7.98799991607666 C2.437999963760376,7.98799991607666 3.062000036239624,7.98799991607666 3.062000036239624,7.98799991607666 C3.562000036239624,7.98799991607666 3.9690001010894775,7.581999778747559 3.9690001010894775,7.081999778747559 C3.9690001010894775,6.831999778747559 3.9690001010894775,6.581999778747559 3.937999963760376,6.331999778747559 C3.75,4.926000118255615 3.0309998989105225,3.6760001182556152 1.968999981880188,2.8010001182556152 C1,1.9889999628067017 -0.21899999678134918,1.4880000352859497 -1.593999981880188,1.4880000352859497 C-1.593999981880188,1.4880000352859497 -3,1.4880000352859497 -3,1.4880000352859497 C-3,1.4880000352859497 -4.438000202178955,1.4880000352859497 -4.438000202178955,1.4880000352859497 C-5.7820000648498535,1.4880000352859497 -7.031000137329102,1.9889999628067017 -8,2.8010001182556152z"></path></g></g></g><g transform="matrix(1,0,0,1,462.82403564453125,66.8239974975586)" opacity="1" style="display: block;"><g opacity="1" transform="matrix(2,0,0,2,0,0)"><path fill="rgb(0,0,0)" fill-opacity="1" d=" M-1.9119999408721924,3.944000005722046 C-1.3359999656677246,4.199999809265137 -0.6320000290870667,4.328000068664551 0.20000000298023224,4.328000068664551 C0.925000011920929,4.328000068664551 1.5440000295639038,4.2270002365112305 2.055999994277954,4.02400016784668 C2.5789999961853027,3.821000099182129 2.9730000495910645,3.5280001163482666 3.240000009536743,3.1440000534057617 C3.506999969482422,2.749000072479248 3.640000104904175,2.2850000858306885 3.640000104904175,1.7519999742507935 C3.640000104904175,1.1759999990463257 3.490999937057495,0.7170000076293945 3.191999912261963,0.37599998712539673 C2.9040000438690186,0.024000000208616257 2.5409998893737793,-0.2370000034570694 2.1040000915527344,-0.40799999237060547 C1.6770000457763672,-0.5789999961853027 1.1390000581741333,-0.7440000176429749 0.4880000054836273,-0.9039999842643738 C0.328000009059906,-0.9359999895095825 0.19499999284744263,-0.9629999995231628 0.08799999952316284,-0.984000027179718 C-0.3070000112056732,-1.069000005722046 -0.6050000190734863,-1.1440000534057617 -0.8080000281333923,-1.2079999446868896 C-1.0110000371932983,-1.2719999551773071 -1.1759999990463257,-1.3680000305175781 -1.3040000200271606,-1.496000051498413 C-1.4320000410079956,-1.6239999532699585 -1.496000051498413,-1.7949999570846558 -1.496000051498413,-2.007999897003174 C-1.496000051498413,-2.2850000858306885 -1.3839999437332153,-2.509000062942505 -1.159999966621399,-2.680000066757202 C-0.925000011920929,-2.8510000705718994 -0.5789999961853027,-2.936000108718872 -0.11999999731779099,-2.936000108718872 C0.4449999928474426,-2.936000108718872 0.8450000286102295,-2.819000005722046 1.0800000429153442,-2.5840001106262207 C1.3250000476837158,-2.359999895095825 1.4850000143051147,-2.055999994277954 1.559999942779541,-1.6720000505447388 C1.559999942779541,-1.6720000505447388 3.3519999980926514,-1.6720000505447388 3.3519999980926514,-1.6720000505447388 C3.309000015258789,-2.1630001068115234 3.1549999713897705,-2.6110000610351562 2.888000011444092,-3.0160000324249268 C2.631999969482422,-3.4210000038146973 2.247999906539917,-3.740999937057495 1.7359999418258667,-3.9760000705718994 C1.2239999771118164,-4.210999965667725 0.5950000286102295,-4.328000068664551 -0.15199999511241913,-4.328000068664551 C-0.8240000009536743,-4.328000068664551 -1.4049999713897705,-4.2270002365112305 -1.8960000276565552,-4.02400016784668 C-2.38700008392334,-3.8320000171661377 -2.759999990463257,-3.5490000247955322 -3.0160000324249268,-3.1760001182556152 C-3.260999917984009,-2.812999963760376 -3.384000062942505,-2.3919999599456787 -3.384000062942505,-1.9119999408721924 C-3.384000062942505,-1.4110000133514404 -3.25600004196167,-1 -3,-0.6800000071525574 C-2.7330000400543213,-0.36000001430511475 -2.4030001163482666,-0.11500000208616257 -2.007999897003174,0.0560000017285347 C-1.6130000352859497,0.22699999809265137 -1.1330000162124634,0.38100001215934753 -0.5680000185966492,0.5199999809265137 C-0.49300000071525574,0.531000018119812 -0.42399999499320984,0.546999990940094 -0.36000001430511475,0.5680000185966492 C-0.23199999332427979,0.5889999866485596 -0.11500000208616257,0.6159999966621399 -0.00800000037997961,0.6480000019073486 C0.40799999237060547,0.7329999804496765 0.7279999852180481,0.8130000233650208 0.9520000219345093,0.8880000114440918 C1.1759999990463257,0.9629999995231628 1.3630000352859497,1.0800000429153442 1.5119999647140503,1.2400000095367432 C1.6720000505447388,1.3890000581741333 1.7519999742507935,1.597000002861023 1.7519999742507935,1.8639999628067017 C1.7519999742507935,2.1730000972747803 1.628999948501587,2.428999900817871 1.3839999437332153,2.631999969482422 C1.1490000486373901,2.8350000381469727 0.7440000176429749,2.936000108718872 0.1679999977350235,2.936000108718872 C-0.2800000011920929,2.936000108718872 -0.6480000019073486,2.871999979019165 -0.9359999895095825,2.74399995803833 C-1.2239999771118164,2.6050000190734863 -1.4429999589920044,2.4240000247955322 -1.5920000076293945,2.200000047683716 C-1.7309999465942383,1.965000033378601 -1.8109999895095825,1.687999963760376 -1.8320000171661377,1.3680000305175781 C-1.8320000171661377,1.3680000305175781 -3.640000104904175,1.3680000305175781 -3.640000104904175,1.3680000305175781 C-3.61899995803833,1.9329999685287476 -3.4690001010894775,2.440000057220459 -3.191999912261963,2.888000011444092 C-2.9040000438690186,3.3359999656677246 -2.4769999980926514,3.687999963760376 -1.9119999408721924,3.944000005722046z"></path></g></g><g transform="matrix(1,0,0,1,449.34503173828125,64.40799713134766)" opacity="1" style="display: block;"><g opacity="1" transform="matrix(2,0,0,2,0,0)"><path fill="rgb(0,0,0)" fill-opacity="1" d=" M2.247999906539917,-2.880000114440918 C2.247999906539917,-2.880000114440918 -2.2799999713897705,-2.880000114440918 -2.2799999713897705,-2.880000114440918 C-2.2799999713897705,-2.880000114440918 -2.2799999713897705,-1.4079999923706055 -2.2799999713897705,-1.4079999923706055 C-2.2799999713897705,-1.4079999923706055 2.247999906539917,-1.4079999923706055 2.247999906539917,-1.4079999923706055 C2.247999906539917,-1.4079999923706055 2.247999906539917,-2.880000114440918 2.247999906539917,-2.880000114440918z M-0.10400000214576721,5.184000015258789 C0.22699999809265137,5.333000183105469 0.6430000066757202,5.4079999923706055 1.1440000534057617,5.4079999923706055 C1.5169999599456787,5.4079999923706055 1.8960000276565552,5.370999813079834 2.2799999713897705,5.296000003814697 C2.2799999713897705,5.296000003814697 2.2799999713897705,3.888000011444092 2.2799999713897705,3.888000011444092 C2.013000011444092,3.930999994277954 1.7890000343322754,3.9519999027252197 1.6080000400543213,3.9519999027252197 C1.3839999437332153,3.9519999027252197 1.2079999446868896,3.924999952316284 1.0800000429153442,3.871999979019165 C0.9520000219345093,3.808000087738037 0.8610000014305115,3.7070000171661377 0.8080000281333923,3.568000078201294 C0.7549999952316284,3.4189999103546143 0.7279999852180481,3.200000047683716 0.7279999852180481,2.9119999408721924 C0.7279999852180481,2.9119999408721924 0.7279999852180481,-5.4079999923706055 0.7279999852180481,-5.4079999923706055 C0.7279999852180481,-5.4079999923706055 -1.1119999885559082,-5.4079999923706055 -1.1119999885559082,-5.4079999923706055 C-1.1119999885559082,-5.4079999923706055 -1.1119999885559082,2.9119999408721924 -1.1119999885559082,2.9119999408721924 C-1.1119999885559082,3.5409998893737793 -1.0269999504089355,4.0370001792907715 -0.8560000061988831,4.400000095367432 C-0.6850000023841858,4.763000011444092 -0.4350000023841858,5.02400016784668 -0.10400000214576721,5.184000015258789z"></path></g></g><g transform="matrix(1,0,0,1,435.52703857421875,66.58399963378906)" opacity="1" style="display: block;"><g opacity="1" transform="matrix(2,0,0,2,0,0)"><path fill="rgb(0,0,0)" fill-opacity="1" d=" M-1.7999999523162842,-3.9679999351501465 C-1.7999999523162842,-3.9679999351501465 -3.624000072479248,-3.9679999351501465 -3.624000072479248,-3.9679999351501465 C-3.624000072479248,-3.9679999351501465 -3.624000072479248,4.208000183105469 -3.624000072479248,4.208000183105469 C-3.624000072479248,4.208000183105469 -1.7999999523162842,4.208000183105469 -1.7999999523162842,4.208000183105469 C-1.7999999523162842,4.208000183105469 -1.7999999523162842,-3.9679999351501465 -1.7999999523162842,-3.9679999351501465z M1.4160000085830688,-2.2079999446868896 C1.6720000505447388,-1.909000039100647 1.7999999523162842,-1.4670000076293945 1.7999999523162842,-0.8799999952316284 C1.7999999523162842,-0.8799999952316284 1.7999999523162842,4.208000183105469 1.7999999523162842,4.208000183105469 C1.7999999523162842,4.208000183105469 3.624000072479248,4.208000183105469 3.624000072479248,4.208000183105469 C3.624000072479248,4.208000183105469 3.624000072479248,-1.4240000247955322 3.624000072479248,-1.4240000247955322 C3.624000072479248,-2.319999933242798 3.372999906539917,-3.007999897003174 2.871999979019165,-3.48799991607666 C2.38100004196167,-3.9679999351501465 1.7309999465942383,-4.208000183105469 0.9200000166893005,-4.208000183105469 C0.26899999380111694,-4.208000183105469 -0.2800000011920929,-4.085000038146973 -0.7279999852180481,-3.8399999141693115 C-1.1649999618530273,-3.5950000286102295 -1.5119999647140503,-3.2799999713897705 -1.7680000066757202,-2.8959999084472656 C-1.7680000066757202,-2.8959999084472656 -2.375999927520752,-2.8959999084472656 -2.375999927520752,-2.8959999084472656 C-2.375999927520752,-2.8959999084472656 -2.375999927520752,-0.7360000014305115 -2.375999927520752,-0.7360000014305115 C-2.375999927520752,-0.7360000014305115 -1.7999999523162842,-0.7360000014305115 -1.7999999523162842,-0.7360000014305115 C-1.7999999523162842,-1.13100004196167 -1.7200000286102295,-1.472000002861023 -1.559999942779541,-1.7599999904632568 C-1.3890000581741333,-2.059000015258789 -1.1490000486373901,-2.2829999923706055 -0.8399999737739563,-2.431999921798706 C-0.531000018119812,-2.5920000076293945 -0.17299999296665192,-2.671999931335449 0.23199999332427979,-2.671999931335449 C0.7649999856948853,-2.671999931335449 1.159999966621399,-2.5169999599456787 1.4160000085830688,-2.2079999446868896z"></path></g></g><g transform="matrix(1,0,0,1,417.55499267578125,66.8239974975586)" opacity="1" style="display: block;"><g opacity="1" transform="matrix(2,0,0,2,0,0)"><path fill="rgb(0,0,0)" fill-opacity="1" d=" M-2.135999917984009,3.7839999198913574 C-1.5169999599456787,4.1570000648498535 -0.781000018119812,4.343999862670898 0.07199999690055847,4.343999862670898 C1.1169999837875366,4.343999862670898 1.965000033378601,4.098999977111816 2.615999937057495,3.6080000400543213 C3.2669999599456787,3.1070001125335693 3.7039999961853027,2.434999942779541 3.927999973297119,1.5920000076293945 C3.927999973297119,1.5920000076293945 2.072000026702881,1.5920000076293945 2.072000026702881,1.5920000076293945 C2.007999897003174,1.784000039100647 1.9010000228881836,1.9809999465942383 1.7519999742507935,2.184000015258789 C1.6130000352859497,2.38700008392334 1.4049999713897705,2.556999921798706 1.128000020980835,2.696000099182129 C0.8510000109672546,2.8239998817443848 0.5090000033378601,2.888000011444092 0.10400000214576721,2.888000011444092 C-0.37599998712539673,2.888000011444092 -0.7870000004768372,2.7809998989105225 -1.128000020980835,2.568000078201294 C-1.4589999914169312,2.3440001010894775 -1.715000033378601,2.0450000762939453 -1.8960000276565552,1.6720000505447388 C-2.066999912261963,1.2990000247955322 -2.1519999504089355,0.8830000162124634 -2.1519999504089355,0.42399999499320984 C-2.1519999504089355,0.07199999690055847 -2.1519999504089355,-0.2800000011920929 -2.1519999504089355,-0.6320000290870667 C-2.1519999504089355,-1.090999960899353 -2.061000108718872,-1.4910000562667847 -1.8799999952316284,-1.8320000171661377 C-1.6990000009536743,-2.1730000972747803 -1.4429999589920044,-2.440000057220459 -1.1119999885559082,-2.631999969482422 C-0.7710000276565552,-2.8239998817443848 -0.3869999945163727,-2.9200000762939453 0.03999999910593033,-2.9200000762939453 C0.4560000002384186,-2.9200000762939453 0.8240000009536743,-2.8289999961853027 1.1440000534057617,-2.6480000019073486 C1.4639999866485596,-2.4769999980926514 1.7089999914169312,-2.2320001125335693 1.8799999952316284,-1.9119999408721924 C2.0510001182556152,-1.6030000448226929 2.135999917984009,-1.2400000095367432 2.135999917984009,-0.8240000009536743 C2.135999917984009,-0.8240000009536743 -3.0480000972747803,-0.8240000009536743 -3.0480000972747803,-0.8240000009536743 C-3.0480000972747803,-0.8240000009536743 -3.0480000972747803,0.4880000054836273 -3.0480000972747803,0.4880000054836273 C-3.0480000972747803,0.4880000054836273 4.007999897003174,0.4880000054836273 4.007999897003174,0.4880000054836273 C4.019000053405762,0.38100001215934753 4.02400016784668,0.20499999821186066 4.02400016784668,-0.03999999910593033 C4.02400016784668,-0.9359999895095825 3.86899995803833,-1.7039999961853027 3.559999942779541,-2.3440001010894775 C3.260999917984009,-2.9839999675750732 2.812999963760376,-3.4749999046325684 2.2160000801086426,-3.815999984741211 C1.61899995803833,-4.168000221252441 0.9039999842643738,-4.343999862670898 0.07199999690055847,-4.343999862670898 C-0.7710000276565552,-4.343999862670898 -1.5010000467300415,-4.1570000648498535 -2.119999885559082,-3.7839999198913574 C-2.7279999256134033,-3.4210000038146973 -3.197000026702881,-2.9089999198913574 -3.5280001163482666,-2.247999906539917 C-3.8589999675750732,-1.597000002861023 -4.02400016784668,-0.8510000109672546 -4.02400016784668,-0.00800000037997961 C-4.02400016784668,0.8349999785423279 -3.864000082015991,1.5870000123977661 -3.5439999103546143,2.247999906539917 C-3.2130000591278076,2.8989999294281006 -2.74399995803833,3.4110000133514404 -2.135999917984009,3.7839999198913574z"></path></g></g><g transform="matrix(1,0,0,1,395.2020263671875,66.58399963378906)" opacity="1" style="display: block;"><g opacity="1" transform="matrix(2,0,0,2,0,0)"><path fill="rgb(0,0,0)" fill-opacity="1" d=" M-4.0320000648498535,-3.9679999351501465 C-4.0320000648498535,-3.9679999351501465 -5.855999946594238,-3.9679999351501465 -5.855999946594238,-3.9679999351501465 C-5.855999946594238,-3.9679999351501465 -5.855999946594238,4.208000183105469 -5.855999946594238,4.208000183105469 C-5.855999946594238,4.208000183105469 -4.0320000648498535,4.208000183105469 -4.0320000648498535,4.208000183105469 C-4.0320000648498535,4.208000183105469 -4.0320000648498535,-3.9679999351501465 -4.0320000648498535,-3.9679999351501465z M-1.2000000476837158,-2.240000009536743 C-1.0080000162124634,-1.9520000219345093 -0.9120000004768372,-1.4989999532699585 -0.9120000004768372,-0.8799999952316284 C-0.9120000004768372,-0.8799999952316284 -0.9120000004768372,4.208000183105469 -0.9120000004768372,4.208000183105469 C-0.9120000004768372,4.208000183105469 0.9120000004768372,4.208000183105469 0.9120000004768372,4.208000183105469 C0.9120000004768372,4.208000183105469 0.9120000004768372,-0.7360000014305115 0.9120000004768372,-0.7360000014305115 C0.9120000004768372,-1.13100004196167 0.9810000061988831,-1.472000002861023 1.1200000047683716,-1.7599999904632568 C1.2690000534057617,-2.059000015258789 1.472000002861023,-2.2829999923706055 1.7280000448226929,-2.431999921798706 C1.9950000047683716,-2.5920000076293945 2.309000015258789,-2.671999931335449 2.671999931335449,-2.671999931335449 C3.194999933242798,-2.671999931335449 3.546999931335449,-2.5280001163482666 3.7279999256134033,-2.240000009536743 C3.9200000762939453,-1.9520000219345093 4.015999794006348,-1.4989999532699585 4.015999794006348,-0.8799999952316284 C4.015999794006348,-0.8799999952316284 4.015999794006348,4.208000183105469 4.015999794006348,4.208000183105469 C4.015999794006348,4.208000183105469 5.855999946594238,4.208000183105469 5.855999946594238,4.208000183105469 C5.855999946594238,4.208000183105469 5.855999946594238,-1.4240000247955322 5.855999946594238,-1.4240000247955322 C5.855999946594238,-2.309000015258789 5.63700008392334,-2.992000102996826 5.199999809265137,-3.4719998836517334 C4.7729997634887695,-3.9630000591278076 4.15500020980835,-4.208000183105469 3.3440001010894775,-4.208000183105469 C2.746999979019165,-4.208000183105469 2.234999895095825,-4.079999923706055 1.8079999685287476,-3.8239998817443848 C1.38100004196167,-3.5789999961853027 0.996999979019165,-3.2320001125335693 0.656000018119812,-2.7839999198913574 C0.656000018119812,-2.7839999198913574 0.6240000128746033,-2.7839999198913574 0.6240000128746033,-2.7839999198913574 C0.453000009059906,-3.243000030517578 0.18700000643730164,-3.5950000286102295 -0.17599999904632568,-3.8399999141693115 C-0.5389999747276306,-4.085000038146973 -0.996999979019165,-4.208000183105469 -1.5520000457763672,-4.208000183105469 C-2.1070001125335693,-4.208000183105469 -2.5920000076293945,-4.085000038146973 -3.007999897003174,-3.8399999141693115 C-3.4130001068115234,-3.5950000286102295 -3.74399995803833,-3.2799999713897705 -4,-2.8959999084472656 C-4,-2.8959999084472656 -4.671999931335449,-2.8959999084472656 -4.671999931335449,-2.8959999084472656 C-4.671999931335449,-2.8959999084472656 -4.671999931335449,-0.7360000014305115 -4.671999931335449,-0.7360000014305115 C-4.671999931335449,-0.7360000014305115 -4.0320000648498535,-0.7360000014305115 -4.0320000648498535,-0.7360000014305115 C-4.0320000648498535,-1.13100004196167 -3.9630000591278076,-1.472000002861023 -3.8239998817443848,-1.7599999904632568 C-3.674999952316284,-2.059000015258789 -3.4670000076293945,-2.2829999923706055 -3.200000047683716,-2.431999921798706 C-2.933000087738037,-2.5920000076293945 -2.624000072479248,-2.671999931335449 -2.2720000743865967,-2.671999931335449 C-1.7389999628067017,-2.671999931335449 -1.38100004196167,-2.5280001163482666 -1.2000000476837158,-2.240000009536743z"></path></g></g><g transform="matrix(1,0,0,1,372.7659912109375,66.8239974975586)" opacity="1" style="display: block;"><g opacity="1" transform="matrix(2,0,0,2,0,0)"><path fill="rgb(0,0,0)" fill-opacity="1" d=" M-2.135999917984009,3.7839999198913574 C-1.5169999599456787,4.1570000648498535 -0.781000018119812,4.343999862670898 0.07199999690055847,4.343999862670898 C1.1169999837875366,4.343999862670898 1.965000033378601,4.098999977111816 2.615999937057495,3.6080000400543213 C3.2669999599456787,3.1070001125335693 3.7039999961853027,2.434999942779541 3.927999973297119,1.5920000076293945 C3.927999973297119,1.5920000076293945 2.072000026702881,1.5920000076293945 2.072000026702881,1.5920000076293945 C2.007999897003174,1.784000039100647 1.9010000228881836,1.9809999465942383 1.7519999742507935,2.184000015258789 C1.6130000352859497,2.38700008392334 1.4049999713897705,2.556999921798706 1.128000020980835,2.696000099182129 C0.8510000109672546,2.8239998817443848 0.5090000033378601,2.888000011444092 0.10400000214576721,2.888000011444092 C-0.37599998712539673,2.888000011444092 -0.7870000004768372,2.7809998989105225 -1.128000020980835,2.568000078201294 C-1.4589999914169312,2.3440001010894775 -1.715000033378601,2.0450000762939453 -1.8960000276565552,1.6720000505447388 C-2.066999912261963,1.2990000247955322 -2.1519999504089355,0.8830000162124634 -2.1519999504089355,0.42399999499320984 C-2.1519999504089355,0.07199999690055847 -2.1519999504089355,-0.2800000011920929 -2.1519999504089355,-0.6320000290870667 C-2.1519999504089355,-1.090999960899353 -2.061000108718872,-1.4910000562667847 -1.8799999952316284,-1.8320000171661377 C-1.6990000009536743,-2.1730000972747803 -1.4429999589920044,-2.440000057220459 -1.1119999885559082,-2.631999969482422 C-0.7710000276565552,-2.8239998817443848 -0.3869999945163727,-2.9200000762939453 0.03999999910593033,-2.9200000762939453 C0.4560000002384186,-2.9200000762939453 0.8240000009536743,-2.8289999961853027 1.1440000534057617,-2.6480000019073486 C1.4639999866485596,-2.4769999980926514 1.7089999914169312,-2.2320001125335693 1.8799999952316284,-1.9119999408721924 C2.0510001182556152,-1.6030000448226929 2.135999917984009,-1.2400000095367432 2.135999917984009,-0.8240000009536743 C2.135999917984009,-0.8240000009536743 -3.0480000972747803,-0.8240000009536743 -3.0480000972747803,-0.8240000009536743 C-3.0480000972747803,-0.8240000009536743 -3.0480000972747803,0.4880000054836273 -3.0480000972747803,0.4880000054836273 C-3.0480000972747803,0.4880000054836273 4.007999897003174,0.4880000054836273 4.007999897003174,0.4880000054836273 C4.019000053405762,0.38100001215934753 4.02400016784668,0.20499999821186066 4.02400016784668,-0.03999999910593033 C4.02400016784668,-0.9359999895095825 3.86899995803833,-1.7039999961853027 3.559999942779541,-2.3440001010894775 C3.260999917984009,-2.9839999675750732 2.812999963760376,-3.4749999046325684 2.2160000801086426,-3.815999984741211 C1.61899995803833,-4.168000221252441 0.9039999842643738,-4.343999862670898 0.07199999690055847,-4.343999862670898 C-0.7710000276565552,-4.343999862670898 -1.5010000467300415,-4.1570000648498535 -2.119999885559082,-3.7839999198913574 C-2.7279999256134033,-3.4210000038146973 -3.197000026702881,-2.9089999198913574 -3.5280001163482666,-2.247999906539917 C-3.8589999675750732,-1.597000002861023 -4.02400016784668,-0.8510000109672546 -4.02400016784668,-0.00800000037997961 C-4.02400016784668,0.8349999785423279 -3.864000082015991,1.5870000123977661 -3.5439999103546143,2.247999906539917 C-3.2130000591278076,2.8989999294281006 -2.74399995803833,3.4110000133514404 -2.135999917984009,3.7839999198913574z"></path></g></g><g transform="matrix(1,0,0,1,356.2869873046875,66.8239974975586)" opacity="1" style="display: block;"><g opacity="1" transform="matrix(2,0,0,2,0,0)"><path fill="rgb(0,0,0)" fill-opacity="1" d=" M-1.9839999675750732,-4.0879998207092285 C-1.9839999675750732,-4.0879998207092285 -3.9040000438690186,-4.0879998207092285 -3.9040000438690186,-4.0879998207092285 C-3.9040000438690186,-4.0879998207092285 -1.0240000486373901,4.0879998207092285 -1.0240000486373901,4.0879998207092285 C-1.0240000486373901,4.0879998207092285 1.0240000486373901,4.0879998207092285 1.0240000486373901,4.0879998207092285 C1.0240000486373901,4.0879998207092285 3.9040000438690186,-4.0879998207092285 3.9040000438690186,-4.0879998207092285 C3.9040000438690186,-4.0879998207092285 2.0320000648498535,-4.0879998207092285 2.0320000648498535,-4.0879998207092285 C2.0320000648498535,-4.0879998207092285 0.04800000041723251,2.1679999828338623 0.04800000041723251,2.1679999828338623 C0.04800000041723251,2.1679999828338623 0.01600000075995922,2.1679999828338623 0.01600000075995922,2.1679999828338623 C0.01600000075995922,2.1679999828338623 -1.9839999675750732,-4.0879998207092285 -1.9839999675750732,-4.0879998207092285z"></path></g></g><g transform="matrix(1,0,0,1,339.5460205078125,66.8239974975586)" opacity="1" style="display: block;"><g opacity="1" transform="matrix(2,0,0,2,0,0)"><path fill="rgb(0,0,0)" fill-opacity="1" d=" M1.25600004196167,2.5199999809265137 C0.9150000214576721,2.755000114440918 0.49900001287460327,2.871999979019165 0.00800000037997961,2.871999979019165 C-0.7390000224113464,2.871999979019165 -1.309000015258789,2.6110000610351562 -1.7039999961853027,2.0880000591278076 C-2.0880000591278076,1.565000057220459 -2.2799999713897705,0.871999979019165 -2.2799999713897705,0.00800000037997961 C-2.2799999713897705,-0.5569999814033508 -2.194999933242798,-1.059000015258789 -2.0239999294281006,-1.496000051498413 C-1.8530000448226929,-1.9329999685287476 -1.597000002861023,-2.2690000534057617 -1.25600004196167,-2.503999948501587 C-0.9150000214576721,-2.749000072479248 -0.49300000071525574,-2.871999979019165 0.00800000037997961,-2.871999979019165 C0.7440000176429749,-2.871999979019165 1.3040000200271606,-2.6110000610351562 1.687999963760376,-2.0880000591278076 C2.0829999446868896,-1.565000057220459 2.2799999713897705,-0.871999979019165 2.2799999713897705,-0.00800000037997961 C2.2799999713897705,0.5680000185966492 2.194999933242798,1.0750000476837158 2.0239999294281006,1.5119999647140503 C1.8530000448226929,1.9390000104904175 1.597000002861023,2.2750000953674316 1.25600004196167,2.5199999809265137z M-2.2320001125335693,3.799999952316284 C-1.6030000448226929,4.163000106811523 -0.8610000014305115,4.343999862670898 -0.00800000037997961,4.343999862670898 C0.8450000286102295,4.343999862670898 1.5809999704360962,4.163000106811523 2.200000047683716,3.799999952316284 C2.8289999961853027,3.427000045776367 3.309000015258789,2.9149999618530273 3.640000104904175,2.2639999389648438 C3.9809999465942383,1.6030000448226929 4.1519999504089355,0.8450000286102295 4.1519999504089355,-0.00800000037997961 C4.1519999504089355,-0.8610000014305115 3.9809999465942383,-1.6130000352859497 3.640000104904175,-2.2639999389648438 C3.309000015258789,-2.924999952316284 2.8289999961853027,-3.437000036239624 2.200000047683716,-3.799999952316284 C1.5809999704360962,-4.163000106811523 0.8510000109672546,-4.343999862670898 0.00800000037997961,-4.343999862670898 C-0.8450000286102295,-4.343999862670898 -1.5870000123977661,-4.1570000648498535 -2.2160000801086426,-3.7839999198913574 C-2.8450000286102295,-3.4210000038146973 -3.325000047683716,-2.9089999198913574 -3.6559998989105225,-2.247999906539917 C-3.986999988555908,-1.597000002861023 -4.1519999504089355,-0.8450000286102295 -4.1519999504089355,0.00800000037997961 C-4.1519999504089355,0.8610000014305115 -3.986999988555908,1.61899995803833 -3.6559998989105225,2.2799999713897705 C-3.325000047683716,2.930999994277954 -2.8510000705718994,3.437000036239624 -2.2320001125335693,3.799999952316284z"></path></g></g><g transform="matrix(1,0,0,1,325.83599853515625,66.66400146484375)" opacity="1" style="display: block;"><g opacity="1" transform="matrix(2,0,0,2,0,0)"><path fill="rgb(0,0,0)" fill-opacity="1" d=" M-0.5440000295639038,-4.007999897003174 C-0.5440000295639038,-4.007999897003174 -2.368000030517578,-4.007999897003174 -2.368000030517578,-4.007999897003174 C-2.368000030517578,-4.007999897003174 -2.368000030517578,4.168000221252441 -2.368000030517578,4.168000221252441 C-2.368000030517578,4.168000221252441 -0.5440000295639038,4.168000221252441 -0.5440000295639038,4.168000221252441 C-0.5440000295639038,4.168000221252441 -0.5440000295639038,-4.007999897003174 -0.5440000295639038,-4.007999897003174z M-0.5120000243186951,-2.503999948501587 C-0.5120000243186951,-2.503999948501587 -1.8240000009536743,-2.503999948501587 -1.8240000009536743,-2.503999948501587 C-1.8240000009536743,-2.503999948501587 -0.5440000295639038,0.0560000017285347 -0.5440000295639038,0.0560000017285347 C-0.5440000295639038,-0.4449999928474426 -0.4429999887943268,-0.8830000162124634 -0.23999999463558197,-1.25600004196167 C-0.027000000700354576,-1.6399999856948853 0.26100000739097595,-1.9329999685287476 0.6240000128746033,-2.135999917984009 C0.9869999885559082,-2.3489999771118164 1.3919999599456787,-2.4560000896453857 1.840000033378601,-2.4560000896453857 C2,-2.4560000896453857 2.1760001182556152,-2.440000057220459 2.368000030517578,-2.4079999923706055 C2.368000030517578,-2.4079999923706055 2.368000030517578,-4.104000091552734 2.368000030517578,-4.104000091552734 C2.1549999713897705,-4.146999835968018 1.909000039100647,-4.168000221252441 1.6319999694824219,-4.168000221252441 C1.13100004196167,-4.168000221252441 0.7039999961853027,-4.019000053405762 0.35199999809265137,-3.7200000286102295 C0,-3.431999921798706 -0.2879999876022339,-3.0269999504089355 -0.5120000243186951,-2.503999948501587z"></path></g></g><g transform="matrix(1,0,0,1,310.40802001953125,69.41600036621094)" opacity="1" style="display: block;"><g opacity="1" transform="matrix(2,0,0,2,0,0)"><path fill="rgb(0,0,0)" fill-opacity="1" d=" M1.1360000371932983,1.1920000314712524 C0.8159999847412109,1.437000036239624 0.4320000112056732,1.559999942779541 -0.01600000075995922,1.559999942779541 C-0.453000009059906,1.559999942779541 -0.8320000171661377,1.4479999542236328 -1.1519999504089355,1.2239999771118164 C-1.472000002861023,1 -1.7170000076293945,0.675000011920929 -1.8880000114440918,0.24799999594688416 C-2.0480000972747803,-0.1889999955892563 -2.128000020980835,-0.7009999752044678 -2.128000020980835,-1.2879999876022339 C-2.128000020980835,-1.8849999904632568 -2.0480000972747803,-2.3970000743865967 -1.8880000114440918,-2.8239998817443848 C-1.7170000076293945,-3.260999917984009 -1.472000002861023,-3.5920000076293945 -1.1519999504089355,-3.815999984741211 C-0.8320000171661377,-4.039999961853027 -0.453000009059906,-4.1519999504089355 -0.01600000075995922,-4.1519999504089355 C0.4320000112056732,-4.1519999504089355 0.8159999847412109,-4.0289998054504395 1.1360000371932983,-3.7839999198913574 C1.4559999704360962,-3.5390000343322754 1.6959999799728394,-3.197000026702881 1.8559999465942383,-2.759999990463257 C2.0160000324249268,-2.3329999446868896 2.0959999561309814,-1.843000054359436 2.0959999561309814,-1.2879999876022339 C2.0959999561309814,-0.7440000176429749 2.0160000324249268,-0.2529999911785126 1.8559999465942383,0.18400000035762787 C1.6959999799728394,0.6110000014305115 1.4559999704360962,0.9470000267028809 1.1360000371932983,1.1920000314712524z M-2.1600000858306885,-5.383999824523926 C-2.1600000858306885,-5.383999824523926 -3.9839999675750732,-5.383999824523926 -3.9839999675750732,-5.383999824523926 C-3.9839999675750732,-5.383999824523926 -3.9839999675750732,5.624000072479248 -3.9839999675750732,5.624000072479248 C-3.9839999675750732,5.624000072479248 -2.1600000858306885,5.624000072479248 -2.1600000858306885,5.624000072479248 C-2.1600000858306885,5.624000072479248 -2.1600000858306885,-5.383999824523926 -2.1600000858306885,-5.383999824523926z M-1.1519999504089355,2.696000099182129 C-0.7250000238418579,2.9200000762939453 -0.2240000069141388,3.0320000648498535 0.35199999809265137,3.0320000648498535 C1.055999994277954,3.0320000648498535 1.6799999475479126,2.8559999465942383 2.2239999771118164,2.503999948501587 C2.7790000438690186,2.1519999504089355 3.2109999656677246,1.6510000228881836 3.5199999809265137,1 C3.8289999961853027,0.3490000069141388 3.9839999675750732,-0.4129999876022339 3.9839999675750732,-1.2879999876022339 C3.9839999675750732,-2.1730000972747803 3.8289999961853027,-2.940999984741211 3.5199999809265137,-3.5920000076293945 C3.2109999656677246,-4.243000030517578 2.7790000438690186,-4.74399995803833 2.2239999771118164,-5.0960001945495605 C1.6799999475479126,-5.447999954223633 1.055999994277954,-5.624000072479248 0.35199999809265137,-5.624000072479248 C-0.21299999952316284,-5.624000072479248 -0.7089999914169312,-5.506999969482422 -1.1360000371932983,-5.271999835968018 C-1.5520000457763672,-5.047999858856201 -1.8830000162124634,-4.776000022888184 -2.128000020980835,-4.455999851226807 C-2.128000020980835,-4.455999851226807 -2.5759999752044678,-4.455999851226807 -2.5759999752044678,-4.455999851226807 C-2.5759999752044678,-4.455999851226807 -2.5759999752044678,1.8320000171661377 -2.5759999752044678,1.8320000171661377 C-2.5759999752044678,1.8320000171661377 -2.128000020980835,1.8320000171661377 -2.128000020980835,1.8320000171661377 C-1.8930000066757202,2.1730000972747803 -1.5679999589920044,2.4609999656677246 -1.1519999504089355,2.696000099182129z"></path></g></g><g transform="matrix(1,0,0,1,287.33599853515625,66.58399963378906)" opacity="1" style="display: block;"><g opacity="1" transform="matrix(2,0,0,2,0,0)"><path fill="rgb(0,0,0)" fill-opacity="1" d=" M-4.0320000648498535,-3.9679999351501465 C-4.0320000648498535,-3.9679999351501465 -5.855999946594238,-3.9679999351501465 -5.855999946594238,-3.9679999351501465 C-5.855999946594238,-3.9679999351501465 -5.855999946594238,4.208000183105469 -5.855999946594238,4.208000183105469 C-5.855999946594238,4.208000183105469 -4.0320000648498535,4.208000183105469 -4.0320000648498535,4.208000183105469 C-4.0320000648498535,4.208000183105469 -4.0320000648498535,-3.9679999351501465 -4.0320000648498535,-3.9679999351501465z M-1.2000000476837158,-2.240000009536743 C-1.0080000162124634,-1.9520000219345093 -0.9120000004768372,-1.4989999532699585 -0.9120000004768372,-0.8799999952316284 C-0.9120000004768372,-0.8799999952316284 -0.9120000004768372,4.208000183105469 -0.9120000004768372,4.208000183105469 C-0.9120000004768372,4.208000183105469 0.9120000004768372,4.208000183105469 0.9120000004768372,4.208000183105469 C0.9120000004768372,4.208000183105469 0.9120000004768372,-0.7360000014305115 0.9120000004768372,-0.7360000014305115 C0.9120000004768372,-1.13100004196167 0.9810000061988831,-1.472000002861023 1.1200000047683716,-1.7599999904632568 C1.2690000534057617,-2.059000015258789 1.472000002861023,-2.2829999923706055 1.7280000448226929,-2.431999921798706 C1.9950000047683716,-2.5920000076293945 2.309000015258789,-2.671999931335449 2.671999931335449,-2.671999931335449 C3.194999933242798,-2.671999931335449 3.546999931335449,-2.5280001163482666 3.7279999256134033,-2.240000009536743 C3.9200000762939453,-1.9520000219345093 4.015999794006348,-1.4989999532699585 4.015999794006348,-0.8799999952316284 C4.015999794006348,-0.8799999952316284 4.015999794006348,4.208000183105469 4.015999794006348,4.208000183105469 C4.015999794006348,4.208000183105469 5.855999946594238,4.208000183105469 5.855999946594238,4.208000183105469 C5.855999946594238,4.208000183105469 5.855999946594238,-1.4240000247955322 5.855999946594238,-1.4240000247955322 C5.855999946594238,-2.309000015258789 5.63700008392334,-2.992000102996826 5.199999809265137,-3.4719998836517334 C4.7729997634887695,-3.9630000591278076 4.15500020980835,-4.208000183105469 3.3440001010894775,-4.208000183105469 C2.746999979019165,-4.208000183105469 2.234999895095825,-4.079999923706055 1.8079999685287476,-3.8239998817443848 C1.38100004196167,-3.5789999961853027 0.996999979019165,-3.2320001125335693 0.656000018119812,-2.7839999198913574 C0.656000018119812,-2.7839999198913574 0.6240000128746033,-2.7839999198913574 0.6240000128746033,-2.7839999198913574 C0.453000009059906,-3.243000030517578 0.18700000643730164,-3.5950000286102295 -0.17599999904632568,-3.8399999141693115 C-0.5389999747276306,-4.085000038146973 -0.996999979019165,-4.208000183105469 -1.5520000457763672,-4.208000183105469 C-2.1070001125335693,-4.208000183105469 -2.5920000076293945,-4.085000038146973 -3.007999897003174,-3.8399999141693115 C-3.4130001068115234,-3.5950000286102295 -3.74399995803833,-3.2799999713897705 -4,-2.8959999084472656 C-4,-2.8959999084472656 -4.671999931335449,-2.8959999084472656 -4.671999931335449,-2.8959999084472656 C-4.671999931335449,-2.8959999084472656 -4.671999931335449,-0.7360000014305115 -4.671999931335449,-0.7360000014305115 C-4.671999931335449,-0.7360000014305115 -4.0320000648498535,-0.7360000014305115 -4.0320000648498535,-0.7360000014305115 C-4.0320000648498535,-1.13100004196167 -3.9630000591278076,-1.472000002861023 -3.8239998817443848,-1.7599999904632568 C-3.674999952316284,-2.059000015258789 -3.4670000076293945,-2.2829999923706055 -3.200000047683716,-2.431999921798706 C-2.933000087738037,-2.5920000076293945 -2.624000072479248,-2.671999931335449 -2.2720000743865967,-2.671999931335449 C-1.7389999628067017,-2.671999931335449 -1.38100004196167,-2.5280001163482666 -1.2000000476837158,-2.240000009536743z"></path></g></g><g transform="matrix(1,0,0,1,269.8840026855469,63.55999755859375)" opacity="1" style="display: block;"><g opacity="1" transform="matrix(2,0,0,2,0,0)"><path fill="rgb(0,0,0)" fill-opacity="1" d=" M1.031999945640564,-5.71999979019165 C1.031999945640564,-5.71999979019165 -1.031999945640564,-5.71999979019165 -1.031999945640564,-5.71999979019165 C-1.031999945640564,-5.71999979019165 -1.031999945640564,5.71999979019165 -1.031999945640564,5.71999979019165 C-1.031999945640564,5.71999979019165 1.031999945640564,5.71999979019165 1.031999945640564,5.71999979019165 C1.031999945640564,5.71999979019165 1.031999945640564,-5.71999979019165 1.031999945640564,-5.71999979019165z"></path></g></g><g transform="matrix(1,0,0,1,249.8920135498047,66.8239974975586)" opacity="1" style="display: block;"><g opacity="1" transform="matrix(2,0,0,2,0,0)"><path fill="rgb(0,0,0)" fill-opacity="1" d=" M-2.135999917984009,3.7839999198913574 C-1.5169999599456787,4.1570000648498535 -0.781000018119812,4.343999862670898 0.07199999690055847,4.343999862670898 C1.1169999837875366,4.343999862670898 1.965000033378601,4.098999977111816 2.615999937057495,3.6080000400543213 C3.2669999599456787,3.1070001125335693 3.7039999961853027,2.434999942779541 3.927999973297119,1.5920000076293945 C3.927999973297119,1.5920000076293945 2.072000026702881,1.5920000076293945 2.072000026702881,1.5920000076293945 C2.007999897003174,1.784000039100647 1.9010000228881836,1.9809999465942383 1.7519999742507935,2.184000015258789 C1.6130000352859497,2.38700008392334 1.4049999713897705,2.556999921798706 1.128000020980835,2.696000099182129 C0.8510000109672546,2.8239998817443848 0.5090000033378601,2.888000011444092 0.10400000214576721,2.888000011444092 C-0.37599998712539673,2.888000011444092 -0.7870000004768372,2.7809998989105225 -1.128000020980835,2.568000078201294 C-1.4589999914169312,2.3440001010894775 -1.715000033378601,2.0450000762939453 -1.8960000276565552,1.6720000505447388 C-2.066999912261963,1.2990000247955322 -2.1519999504089355,0.8830000162124634 -2.1519999504089355,0.42399999499320984 C-2.1519999504089355,0.07199999690055847 -2.1519999504089355,-0.2800000011920929 -2.1519999504089355,-0.6320000290870667 C-2.1519999504089355,-1.090999960899353 -2.061000108718872,-1.4910000562667847 -1.8799999952316284,-1.8320000171661377 C-1.6990000009536743,-2.1730000972747803 -1.4429999589920044,-2.440000057220459 -1.1119999885559082,-2.631999969482422 C-0.7710000276565552,-2.8239998817443848 -0.3869999945163727,-2.9200000762939453 0.03999999910593033,-2.9200000762939453 C0.4560000002384186,-2.9200000762939453 0.8240000009536743,-2.8289999961853027 1.1440000534057617,-2.6480000019073486 C1.4639999866485596,-2.4769999980926514 1.7089999914169312,-2.2320001125335693 1.8799999952316284,-1.9119999408721924 C2.0510001182556152,-1.6030000448226929 2.135999917984009,-1.2400000095367432 2.135999917984009,-0.8240000009536743 C2.135999917984009,-0.8240000009536743 -3.0480000972747803,-0.8240000009536743 -3.0480000972747803,-0.8240000009536743 C-3.0480000972747803,-0.8240000009536743 -3.0480000972747803,0.4880000054836273 -3.0480000972747803,0.4880000054836273 C-3.0480000972747803,0.4880000054836273 4.007999897003174,0.4880000054836273 4.007999897003174,0.4880000054836273 C4.019000053405762,0.38100001215934753 4.02400016784668,0.20499999821186066 4.02400016784668,-0.03999999910593033 C4.02400016784668,-0.9359999895095825 3.86899995803833,-1.7039999961853027 3.559999942779541,-2.3440001010894775 C3.260999917984009,-2.9839999675750732 2.812999963760376,-3.4749999046325684 2.2160000801086426,-3.815999984741211 C1.61899995803833,-4.168000221252441 0.9039999842643738,-4.343999862670898 0.07199999690055847,-4.343999862670898 C-0.7710000276565552,-4.343999862670898 -1.5010000467300415,-4.1570000648498535 -2.119999885559082,-3.7839999198913574 C-2.7279999256134033,-3.4210000038146973 -3.197000026702881,-2.9089999198913574 -3.5280001163482666,-2.247999906539917 C-3.8589999675750732,-1.597000002861023 -4.02400016784668,-0.8510000109672546 -4.02400016784668,-0.00800000037997961 C-4.02400016784668,0.8349999785423279 -3.864000082015991,1.5870000123977661 -3.5439999103546143,2.247999906539917 C-3.2130000591278076,2.8989999294281006 -2.74399995803833,3.4110000133514404 -2.135999917984009,3.7839999198913574z"></path></g></g><g transform="matrix(1,0,0,1,227.54000854492188,66.58399963378906)" opacity="1" style="display: block;"><g opacity="1" transform="matrix(2,0,0,2,0,0)"><path fill="rgb(0,0,0)" fill-opacity="1" d=" M-4.0320000648498535,-3.9679999351501465 C-4.0320000648498535,-3.9679999351501465 -5.855999946594238,-3.9679999351501465 -5.855999946594238,-3.9679999351501465 C-5.855999946594238,-3.9679999351501465 -5.855999946594238,4.208000183105469 -5.855999946594238,4.208000183105469 C-5.855999946594238,4.208000183105469 -4.0320000648498535,4.208000183105469 -4.0320000648498535,4.208000183105469 C-4.0320000648498535,4.208000183105469 -4.0320000648498535,-3.9679999351501465 -4.0320000648498535,-3.9679999351501465z M-1.2000000476837158,-2.240000009536743 C-1.0080000162124634,-1.9520000219345093 -0.9120000004768372,-1.4989999532699585 -0.9120000004768372,-0.8799999952316284 C-0.9120000004768372,-0.8799999952316284 -0.9120000004768372,4.208000183105469 -0.9120000004768372,4.208000183105469 C-0.9120000004768372,4.208000183105469 0.9120000004768372,4.208000183105469 0.9120000004768372,4.208000183105469 C0.9120000004768372,4.208000183105469 0.9120000004768372,-0.7360000014305115 0.9120000004768372,-0.7360000014305115 C0.9120000004768372,-1.13100004196167 0.9810000061988831,-1.472000002861023 1.1200000047683716,-1.7599999904632568 C1.2690000534057617,-2.059000015258789 1.472000002861023,-2.2829999923706055 1.7280000448226929,-2.431999921798706 C1.9950000047683716,-2.5920000076293945 2.309000015258789,-2.671999931335449 2.671999931335449,-2.671999931335449 C3.194999933242798,-2.671999931335449 3.546999931335449,-2.5280001163482666 3.7279999256134033,-2.240000009536743 C3.9200000762939453,-1.9520000219345093 4.015999794006348,-1.4989999532699585 4.015999794006348,-0.8799999952316284 C4.015999794006348,-0.8799999952316284 4.015999794006348,4.208000183105469 4.015999794006348,4.208000183105469 C4.015999794006348,4.208000183105469 5.855999946594238,4.208000183105469 5.855999946594238,4.208000183105469 C5.855999946594238,4.208000183105469 5.855999946594238,-1.4240000247955322 5.855999946594238,-1.4240000247955322 C5.855999946594238,-2.309000015258789 5.63700008392334,-2.992000102996826 5.199999809265137,-3.4719998836517334 C4.7729997634887695,-3.9630000591278076 4.15500020980835,-4.208000183105469 3.3440001010894775,-4.208000183105469 C2.746999979019165,-4.208000183105469 2.234999895095825,-4.079999923706055 1.8079999685287476,-3.8239998817443848 C1.38100004196167,-3.5789999961853027 0.996999979019165,-3.2320001125335693 0.656000018119812,-2.7839999198913574 C0.656000018119812,-2.7839999198913574 0.6240000128746033,-2.7839999198913574 0.6240000128746033,-2.7839999198913574 C0.453000009059906,-3.243000030517578 0.18700000643730164,-3.5950000286102295 -0.17599999904632568,-3.8399999141693115 C-0.5389999747276306,-4.085000038146973 -0.996999979019165,-4.208000183105469 -1.5520000457763672,-4.208000183105469 C-2.1070001125335693,-4.208000183105469 -2.5920000076293945,-4.085000038146973 -3.007999897003174,-3.8399999141693115 C-3.4130001068115234,-3.5950000286102295 -3.74399995803833,-3.2799999713897705 -4,-2.8959999084472656 C-4,-2.8959999084472656 -4.671999931335449,-2.8959999084472656 -4.671999931335449,-2.8959999084472656 C-4.671999931335449,-2.8959999084472656 -4.671999931335449,-0.7360000014305115 -4.671999931335449,-0.7360000014305115 C-4.671999931335449,-0.7360000014305115 -4.0320000648498535,-0.7360000014305115 -4.0320000648498535,-0.7360000014305115 C-4.0320000648498535,-1.13100004196167 -3.9630000591278076,-1.472000002861023 -3.8239998817443848,-1.7599999904632568 C-3.674999952316284,-2.059000015258789 -3.4670000076293945,-2.2829999923706055 -3.200000047683716,-2.431999921798706 C-2.933000087738037,-2.5920000076293945 -2.624000072479248,-2.671999931335449 -2.2720000743865967,-2.671999931335449 C-1.7389999628067017,-2.671999931335449 -1.38100004196167,-2.5280001163482666 -1.2000000476837158,-2.240000009536743z"></path></g></g><g transform="matrix(1,0,0,1,204.8590087890625,66.8239974975586)" opacity="1" style="display: block;"><g opacity="1" transform="matrix(2,0,0,2,0,0)"><path fill="rgb(0,0,0)" fill-opacity="1" d=" M1.25600004196167,2.5199999809265137 C0.9150000214576721,2.755000114440918 0.49900001287460327,2.871999979019165 0.00800000037997961,2.871999979019165 C-0.7390000224113464,2.871999979019165 -1.309000015258789,2.6110000610351562 -1.7039999961853027,2.0880000591278076 C-2.0880000591278076,1.565000057220459 -2.2799999713897705,0.871999979019165 -2.2799999713897705,0.00800000037997961 C-2.2799999713897705,-0.5569999814033508 -2.194999933242798,-1.059000015258789 -2.0239999294281006,-1.496000051498413 C-1.8530000448226929,-1.9329999685287476 -1.597000002861023,-2.2690000534057617 -1.25600004196167,-2.503999948501587 C-0.9150000214576721,-2.749000072479248 -0.49300000071525574,-2.871999979019165 0.00800000037997961,-2.871999979019165 C0.7440000176429749,-2.871999979019165 1.3040000200271606,-2.6110000610351562 1.687999963760376,-2.0880000591278076 C2.0829999446868896,-1.565000057220459 2.2799999713897705,-0.871999979019165 2.2799999713897705,-0.00800000037997961 C2.2799999713897705,0.5680000185966492 2.194999933242798,1.0750000476837158 2.0239999294281006,1.5119999647140503 C1.8530000448226929,1.9390000104904175 1.597000002861023,2.2750000953674316 1.25600004196167,2.5199999809265137z M-2.2320001125335693,3.799999952316284 C-1.6030000448226929,4.163000106811523 -0.8610000014305115,4.343999862670898 -0.00800000037997961,4.343999862670898 C0.8450000286102295,4.343999862670898 1.5809999704360962,4.163000106811523 2.200000047683716,3.799999952316284 C2.8289999961853027,3.427000045776367 3.309000015258789,2.9149999618530273 3.640000104904175,2.2639999389648438 C3.9809999465942383,1.6030000448226929 4.1519999504089355,0.8450000286102295 4.1519999504089355,-0.00800000037997961 C4.1519999504089355,-0.8610000014305115 3.9809999465942383,-1.6130000352859497 3.640000104904175,-2.2639999389648438 C3.309000015258789,-2.924999952316284 2.8289999961853027,-3.437000036239624 2.200000047683716,-3.799999952316284 C1.5809999704360962,-4.163000106811523 0.8510000109672546,-4.343999862670898 0.00800000037997961,-4.343999862670898 C-0.8450000286102295,-4.343999862670898 -1.5870000123977661,-4.1570000648498535 -2.2160000801086426,-3.7839999198913574 C-2.8450000286102295,-3.4210000038146973 -3.325000047683716,-2.9089999198913574 -3.6559998989105225,-2.247999906539917 C-3.986999988555908,-1.597000002861023 -4.1519999504089355,-0.8450000286102295 -4.1519999504089355,0.00800000037997961 C-4.1519999504089355,0.8610000014305115 -3.986999988555908,1.61899995803833 -3.6559998989105225,2.2799999713897705 C-3.325000047683716,2.930999994277954 -2.8510000705718994,3.437000036239624 -2.2320001125335693,3.799999952316284z"></path></g></g><g transform="matrix(1,0,0,1,184.4560089111328,63.55999755859375)" opacity="1" style="display: block;"><g opacity="1" transform="matrix(2,0,0,2,0,0)"><path fill="rgb(0,0,0)" fill-opacity="1" d=" M-2.5759999752044678,-5.71999979019165 C-2.5759999752044678,-5.71999979019165 -4.639999866485596,-5.71999979019165 -4.639999866485596,-5.71999979019165 C-4.639999866485596,-5.71999979019165 -4.639999866485596,5.71999979019165 -4.639999866485596,5.71999979019165 C-4.639999866485596,5.71999979019165 -2.5759999752044678,5.71999979019165 -2.5759999752044678,5.71999979019165 C-2.5759999752044678,5.71999979019165 -2.5759999752044678,0.7120000123977661 -2.5759999752044678,0.7120000123977661 C-2.5759999752044678,0.7120000123977661 2.5920000076293945,0.7120000123977661 2.5920000076293945,0.7120000123977661 C2.5920000076293945,0.7120000123977661 2.5920000076293945,5.71999979019165 2.5920000076293945,5.71999979019165 C2.5920000076293945,5.71999979019165 4.639999866485596,5.71999979019165 4.639999866485596,5.71999979019165 C4.639999866485596,5.71999979019165 4.639999866485596,-5.71999979019165 4.639999866485596,-5.71999979019165 C4.639999866485596,-5.71999979019165 2.5920000076293945,-5.71999979019165 2.5920000076293945,-5.71999979019165 C2.5920000076293945,-5.71999979019165 2.5920000076293945,-1.0160000324249268 2.5920000076293945,-1.0160000324249268 C2.5920000076293945,-1.0160000324249268 -2.5759999752044678,-1.0160000324249268 -2.5759999752044678,-1.0160000324249268 C-2.5759999752044678,-1.0160000324249268 -2.5759999752044678,-5.71999979019165 -2.5759999752044678,-5.71999979019165z"></path></g></g><g class="43" transform="matrix(2,0,0,2,385,119)" opacity="1" fill="rgb(0,0,0)" font-size="22" font-family="PP Neue Montreal" font-style="normal" font-weight="normal" aria-label="$7,431.43" style="display: block;"><g stroke-linecap="butt" stroke-linejoin="round" stroke-miterlimit="4" transform="matrix(1,0,0,1,-106,1.7300000190734863)" opacity="1" style="display: inherit;"><g><g transform="matrix(1,0,0,1,0,0)" opacity="1" style="display: block;"><path d=" M6.18,2.2 C6.18,2.2 7.61,2.2 7.61,2.2 C7.61,2.2 7.61,-16.94 7.61,-16.94 C7.61,-16.94 6.18,-16.94 6.18,-16.94 C6.18,-16.94 6.18,2.2 6.18,2.2z M7.15,0.31 C8.4,0.31 9.46,0.12 10.33,-0.25 C11.2,-0.63 11.87,-1.15 12.32,-1.84 C12.77,-2.52 13,-3.31 13,-4.2 C13,-5.11 12.79,-5.86 12.37,-6.46 C11.96,-7.05 11.4,-7.52 10.7,-7.86 C10.01,-8.21 9.11,-8.55 8.01,-8.89 C7.8,-8.95 7.58,-9.02 7.33,-9.11 C7.28,-9.12 7.23,-9.14 7.17,-9.15 C6.37,-9.39 5.76,-9.58 5.37,-9.73 C4.97,-9.89 4.67,-10.08 4.45,-10.32 C4.24,-10.55 4.14,-10.85 4.14,-11.22 C4.14,-11.76 4.36,-12.18 4.81,-12.46 C5.25,-12.75 5.85,-12.89 6.6,-12.89 C7.52,-12.89 8.24,-12.69 8.74,-12.3 C9.25,-11.9 9.56,-11.3 9.66,-10.49 C9.66,-10.49 12.69,-10.49 12.69,-10.49 C12.62,-12.02 12.05,-13.22 10.99,-14.1 C9.93,-14.98 8.49,-15.42 6.69,-15.42 C5.54,-15.42 4.55,-15.24 3.7,-14.88 C2.85,-14.52 2.19,-14.01 1.74,-13.33 C1.28,-12.66 1.06,-11.87 1.06,-10.96 C1.06,-10.11 1.27,-9.4 1.69,-8.84 C2.12,-8.29 2.68,-7.84 3.37,-7.49 C4.06,-7.15 4.9,-6.83 5.9,-6.56 C6.06,-6.51 6.31,-6.44 6.67,-6.34 C7.46,-6.12 8.07,-5.91 8.5,-5.73 C8.94,-5.55 9.28,-5.31 9.54,-5.03 C9.79,-4.74 9.93,-4.39 9.94,-3.96 C9.93,-3.39 9.7,-2.95 9.26,-2.65 C8.82,-2.35 8.14,-2.2 7.22,-2.2 C6.53,-2.2 5.92,-2.29 5.39,-2.47 C4.86,-2.66 4.44,-2.96 4.12,-3.38 C3.81,-3.79 3.63,-4.33 3.59,-4.99 C3.59,-4.99 0.55,-4.99 0.55,-4.99 C0.56,-3.86 0.85,-2.9 1.42,-2.11 C1.98,-1.32 2.76,-0.72 3.75,-0.31 C4.74,0.1 5.87,0.31 7.15,0.31z"></path><g opacity="1" transform="matrix(0.2199999988079071,0,0,0.2199999988079071,0,0)"></g></g></g></g><g stroke-linecap="butt" stroke-linejoin="round" stroke-miterlimit="4" transform="matrix(1,0,0,1,-92.33800506591797,1.7300000190734863)" opacity="1" style="display: inherit;"><g><g transform="matrix(1,0,0,1,0,0)" opacity="1" style="display: block;"><path d=" M2.6,0 C2.6,0 6.03,0 6.03,0 C6.03,-1.63 6.23,-3.24 6.62,-4.85 C7.02,-6.46 7.61,-7.95 8.39,-9.33 C9.18,-10.71 10.12,-11.85 11.22,-12.76 C11.22,-12.76 11.22,-15.2 11.22,-15.2 C11.22,-15.2 0.24,-15.2 0.24,-15.2 C0.24,-15.2 0.24,-12.54 0.24,-12.54 C0.24,-12.54 7.77,-12.54 7.77,-12.54 C7.77,-12.54 7.77,-12.52 7.77,-12.52 C6.87,-11.73 6.02,-10.66 5.22,-9.31 C4.43,-7.96 3.79,-6.46 3.31,-4.83 C2.83,-3.19 2.6,-1.58 2.6,0z"></path><g opacity="1" transform="matrix(0.2199999988079071,0,0,0.2199999988079071,0,0)"></g></g></g></g><g stroke-linecap="butt" stroke-linejoin="round" stroke-miterlimit="4" transform="matrix(1,0,0,1,-80.63400268554688,1.7300000190734863)" opacity="1" style="display: inherit;"><g><g transform="matrix(1,0,0,1,0,0)" opacity="1" style="display: block;"><path d=" M0.95,2 C0.95,2 0.95,3.43 0.95,3.43 C1.93,3.26 2.67,2.87 3.18,2.27 C3.68,1.66 3.94,0.91 3.94,0 C3.94,0 3.94,-2.99 3.94,-2.99 C3.94,-2.99 0.92,-2.99 0.92,-2.99 C0.92,-2.99 0.92,0 0.92,0 C0.92,0 2.35,0 2.35,0 C2.35,0.62 2.24,1.08 2,1.4 C1.77,1.71 1.42,1.91 0.95,2z"></path><g opacity="1" transform="matrix(0.2199999988079071,0,0,0.2199999988079071,0,0)"></g></g></g></g><g stroke-linecap="butt" stroke-linejoin="round" stroke-miterlimit="4" transform="matrix(1,0,0,1,-75.77200317382812,1.7300000190734863)" opacity="1" style="display: inherit;"><g><g transform="matrix(1,0,0,1,0,0)" opacity="1" style="display: block;"><path d=" M3.19,-5.96 C3.19,-5.96 7.66,-11.51 7.66,-11.51 C7.66,-11.51 7.66,-5.96 7.66,-5.96 C7.66,-5.96 3.19,-5.96 3.19,-5.96z M7.66,0 C7.66,0 10.89,0 10.89,0 C10.89,0 10.89,-3.3 10.89,-3.3 C10.89,-3.3 13.09,-3.3 13.09,-3.3 C13.09,-3.3 13.09,-5.96 13.09,-5.96 C13.09,-5.96 10.89,-5.96 10.89,-5.96 C10.89,-5.96 10.89,-15.2 10.89,-15.2 C10.89,-15.2 7.66,-15.2 7.66,-15.2 C7.66,-15.2 0.64,-6.45 0.64,-6.45 C0.64,-6.45 0.64,-3.3 0.64,-3.3 C0.64,-3.3 7.66,-3.3 7.66,-3.3 C7.66,-3.3 7.66,0 7.66,0z"></path><g opacity="1" transform="matrix(0.2199999988079071,0,0,0.2199999988079071,0,0)"></g></g></g></g><g stroke-linecap="butt" stroke-linejoin="round" stroke-miterlimit="4" transform="matrix(1,0,0,1,-62.06600570678711,1.7300000190734863)" opacity="1" style="display: inherit;"><g><g transform="matrix(1,0,0,1,0,0)" opacity="1" style="display: block;"><path d=" M6.89,0.35 C8.06,0.35 9.08,0.17 9.94,-0.19 C10.81,-0.55 11.48,-1.08 11.97,-1.78 C12.45,-2.49 12.69,-3.34 12.69,-4.33 C12.69,-5.26 12.47,-6.03 12.03,-6.64 C11.59,-7.26 10.9,-7.71 9.97,-8.01 C9.97,-8.01 9.97,-8.05 9.97,-8.05 C10.67,-8.39 11.22,-8.83 11.62,-9.37 C12.01,-9.91 12.21,-10.57 12.21,-11.35 C12.21,-12.23 11.97,-12.98 11.48,-13.61 C11,-14.23 10.35,-14.71 9.53,-15.05 C8.7,-15.39 7.8,-15.55 6.8,-15.55 C5.61,-15.55 4.58,-15.34 3.7,-14.92 C2.82,-14.49 2.15,-13.9 1.69,-13.16 C1.24,-12.41 1.01,-11.54 1.01,-10.56 C1.01,-10.56 4.18,-10.56 4.18,-10.56 C4.18,-11.32 4.4,-11.9 4.83,-12.3 C5.26,-12.69 5.9,-12.89 6.73,-12.89 C7.22,-12.89 7.62,-12.81 7.94,-12.66 C8.26,-12.51 8.5,-12.29 8.66,-12.01 C8.81,-11.73 8.89,-11.41 8.89,-11.04 C8.89,-10.59 8.79,-10.21 8.58,-9.91 C8.37,-9.61 8.08,-9.38 7.71,-9.23 C7.34,-9.07 6.91,-9 6.42,-9 C6.42,-9 5.52,-9 5.52,-9 C5.52,-9 5.52,-6.69 5.52,-6.69 C5.52,-6.69 6.51,-6.69 6.51,-6.69 C7.11,-6.69 7.62,-6.61 8.03,-6.47 C8.44,-6.32 8.76,-6.08 9,-5.74 C9.23,-5.4 9.35,-4.97 9.35,-4.44 C9.35,-3.99 9.27,-3.6 9.1,-3.29 C8.93,-2.97 8.65,-2.73 8.25,-2.56 C7.85,-2.39 7.36,-2.31 6.75,-2.31 C6.04,-2.31 5.45,-2.43 5,-2.66 C4.56,-2.9 4.23,-3.23 4.04,-3.67 C3.84,-4.11 3.74,-4.66 3.74,-5.3 C3.74,-5.3 0.57,-5.3 0.57,-5.3 C0.57,-4.1 0.82,-3.08 1.31,-2.24 C1.8,-1.41 2.52,-0.77 3.46,-0.32 C4.41,0.13 5.55,0.35 6.89,0.35z"></path><g opacity="1" transform="matrix(0.2199999988079071,0,0,0.2199999988079071,0,0)"></g></g></g></g><g stroke-linecap="butt" stroke-linejoin="round" stroke-miterlimit="4" transform="matrix(1,0,0,1,-48.58000183105469,1.7300000190734863)" opacity="1" style="display: inherit;"><g><g transform="matrix(1,0,0,1,0,0)" opacity="1" style="display: block;"><path d=" M3.5,-10.6 C3.5,-10.6 3.5,0 3.5,0 C3.5,0 6.73,0 6.73,0 C6.73,0 6.73,-15.2 6.73,-15.2 C6.73,-15.2 4.09,-15.2 4.09,-15.2 C4.06,-14.59 3.9,-14.08 3.61,-13.69 C3.31,-13.31 2.89,-13.01 2.32,-12.81 C1.76,-12.62 1.09,-12.51 0.31,-12.5 C0.31,-12.5 0.31,-9.94 0.31,-9.94 C1.04,-9.94 1.68,-10 2.23,-10.1 C2.78,-10.2 3.2,-10.37 3.5,-10.6z"></path><g opacity="1" transform="matrix(0.2199999988079071,0,0,0.2199999988079071,0,0)"></g></g></g></g><g stroke-linecap="butt" stroke-linejoin="round" stroke-miterlimit="4" transform="matrix(1,0,0,1,-40.32999801635742,1.7300000190734863)" opacity="1" style="display: inherit;"><g><g transform="matrix(1,0,0,1,0,0)" opacity="1" style="display: block;"><path d=" M0.9,0 C0.9,0 3.87,0 3.87,0 C3.87,0 3.87,-2.99 3.87,-2.99 C3.87,-2.99 0.9,-2.99 0.9,-2.99 C0.9,-2.99 0.9,0 0.9,0z"></path><g opacity="1" transform="matrix(0.2199999988079071,0,0,0.2199999988079071,0,0)"></g></g></g></g><g stroke-linecap="butt" stroke-linejoin="round" stroke-miterlimit="4" transform="matrix(1,0,0,1,-35.555999755859375,1.7300000190734863)" opacity="1" style="display: inherit;"><g><g transform="matrix(1,0,0,1,0,0)" opacity="1" style="display: block;"><path d=" M3.19,-5.96 C3.19,-5.96 7.66,-11.51 7.66,-11.51 C7.66,-11.51 7.66,-5.96 7.66,-5.96 C7.66,-5.96 3.19,-5.96 3.19,-5.96z M7.66,0 C7.66,0 10.89,0 10.89,0 C10.89,0 10.89,-3.3 10.89,-3.3 C10.89,-3.3 13.09,-3.3 13.09,-3.3 C13.09,-3.3 13.09,-5.96 13.09,-5.96 C13.09,-5.96 10.89,-5.96 10.89,-5.96 C10.89,-5.96 10.89,-15.2 10.89,-15.2 C10.89,-15.2 7.66,-15.2 7.66,-15.2 C7.66,-15.2 0.64,-6.45 0.64,-6.45 C0.64,-6.45 0.64,-3.3 0.64,-3.3 C0.64,-3.3 7.66,-3.3 7.66,-3.3 C7.66,-3.3 7.66,0 7.66,0z"></path><g opacity="1" transform="matrix(0.2199999988079071,0,0,0.2199999988079071,0,0)"></g></g></g></g><g stroke-linecap="butt" stroke-linejoin="round" stroke-miterlimit="4" transform="matrix(1,0,0,1,-21.85000228881836,1.7300000190734863)" opacity="1" style="display: inherit;"><g><g transform="matrix(1,0,0,1,0,0)" opacity="1" style="display: block;"><path d=" M6.89,0.35 C8.06,0.35 9.08,0.17 9.94,-0.19 C10.81,-0.55 11.48,-1.08 11.97,-1.78 C12.45,-2.49 12.69,-3.34 12.69,-4.33 C12.69,-5.26 12.47,-6.03 12.03,-6.64 C11.59,-7.26 10.9,-7.71 9.97,-8.01 C9.97,-8.01 9.97,-8.05 9.97,-8.05 C10.67,-8.39 11.22,-8.83 11.62,-9.37 C12.01,-9.91 12.21,-10.57 12.21,-11.35 C12.21,-12.23 11.97,-12.98 11.48,-13.61 C11,-14.23 10.35,-14.71 9.53,-15.05 C8.7,-15.39 7.8,-15.55 6.8,-15.55 C5.61,-15.55 4.58,-15.34 3.7,-14.92 C2.82,-14.49 2.15,-13.9 1.69,-13.16 C1.24,-12.41 1.01,-11.54 1.01,-10.56 C1.01,-10.56 4.18,-10.56 4.18,-10.56 C4.18,-11.32 4.4,-11.9 4.83,-12.3 C5.26,-12.69 5.9,-12.89 6.73,-12.89 C7.22,-12.89 7.62,-12.81 7.94,-12.66 C8.26,-12.51 8.5,-12.29 8.66,-12.01 C8.81,-11.73 8.89,-11.41 8.89,-11.04 C8.89,-10.59 8.79,-10.21 8.58,-9.91 C8.37,-9.61 8.08,-9.38 7.71,-9.23 C7.34,-9.07 6.91,-9 6.42,-9 C6.42,-9 5.52,-9 5.52,-9 C5.52,-9 5.52,-6.69 5.52,-6.69 C5.52,-6.69 6.51,-6.69 6.51,-6.69 C7.11,-6.69 7.62,-6.61 8.03,-6.47 C8.44,-6.32 8.76,-6.08 9,-5.74 C9.23,-5.4 9.35,-4.97 9.35,-4.44 C9.35,-3.99 9.27,-3.6 9.1,-3.29 C8.93,-2.97 8.65,-2.73 8.25,-2.56 C7.85,-2.39 7.36,-2.31 6.75,-2.31 C6.04,-2.31 5.45,-2.43 5,-2.66 C4.56,-2.9 4.23,-3.23 4.04,-3.67 C3.84,-4.11 3.74,-4.66 3.74,-5.3 C3.74,-5.3 0.57,-5.3 0.57,-5.3 C0.57,-4.1 0.82,-3.08 1.31,-2.24 C1.8,-1.41 2.52,-0.77 3.46,-0.32 C4.41,0.13 5.55,0.35 6.89,0.35z"></path><g opacity="1" transform="matrix(0.2199999988079071,0,0,0.2199999988079071,0,0)"></g></g></g></g></g></g></g></g></svg>