<svg xmlns="http://www.w3.org/2000/svg" width="30" fill="none" class="text-icon__icon" height="29"><path d="m15.49 2.939 10.098 5.605c.49.267.8.757.8 1.29 0 .846-.71 1.513-1.556 1.513H5.124A1.5 1.5 0 0 1 3.61 9.835c0-.534.267-1.024.756-1.29l10.1-5.606a1.047 1.047 0 0 1 1.022 0Zm-1.736 6.273c-.133-.178-.178-.445-.178-.712 0-.756.623-1.424 1.424-1.424.756 0 1.424.668 1.424 1.424 0 .267-.09.534-.223.712h6.228L15 5.119 7.526 9.212h6.228ZM6.458 12.77h2.136v7.118h2.847V12.77h2.135v7.118h2.848V12.77h2.135v7.118h2.847V12.77h2.136v7.118h.355c.579 0 1.068.49 1.068 1.068 0 .622-.49 1.067-1.067 1.067H6.457c-.623 0-1.067-.445-1.067-1.067 0-.579.444-1.068 1.067-1.068V12.77ZM5.035 23.448H25.32c.578 0 1.068.49 1.068 1.068 0 .622-.49 1.067-1.068 1.067H5.035c-.623 0-1.068-.445-1.068-1.067 0-.579.445-1.068 1.068-1.068Z" fill="#3D4148"/></svg>