<svg xmlns="http://www.w3.org/2000/svg" width="30" fill="none" class="text-icon__icon" height="29"><path d="m12.598 4.719.622-1.691c.045-.133.178-.222.356-.222.134 0 .267.089.312.222l.623 1.69 1.69.623a.335.335 0 0 1 .223.312c0 .178-.09.311-.223.356l-1.69.622-.623 1.647a.335.335 0 0 1-.312.222c-.178 0-.311-.089-.356-.222l-.622-1.647-1.646-.622c-.134-.045-.223-.178-.223-.356 0-.134.09-.267.223-.312l1.646-.622Zm10.098.222-4.893 4.894 1.557 1.557 4.893-4.894-1.557-1.557ZM5.746 21.935l1.513 1.513 10.588-10.544-1.557-1.557L5.747 21.935ZM21.184 3.473a2.121 2.121 0 0 1 3.025 0l1.512 1.512c.846.846.846 2.18 0 3.026L8.771 24.96a2.122 2.122 0 0 1-3.025 0l-1.512-1.513a2.122 2.122 0 0 1 0-3.025l16.95-16.95ZM2.499 8.055l2.536-.979.934-2.491c.044-.222.267-.356.49-.356.177 0 .4.134.444.356l.979 2.491 2.491.98c.223.044.356.266.356.444 0 .222-.133.445-.356.49l-2.491.934-.979 2.535c-.044.178-.267.312-.445.312-.222 0-.445-.134-.49-.312l-.933-2.535-2.536-.935c-.178-.044-.312-.267-.312-.489 0-.178.134-.4.312-.445Zm15.66 11.389 2.535-.979.935-2.491c.044-.223.267-.356.489-.356.178 0 .4.133.445.356l.979 2.491 2.491.979c.222.044.356.267.356.445 0 .222-.134.445-.356.49l-2.491.933-.98 2.536c-.044.178-.266.312-.444.312-.222 0-.445-.134-.49-.312l-.934-2.535-2.535-.935c-.178-.044-.312-.267-.312-.49 0-.177.134-.4.312-.444Z" fill="#3D4148"/></svg>