<svg xmlns="http://www.w3.org/2000/svg" width="329" height="176" style="width:100%;height:100%;transform:translate3d(0,0,0);content-visibility:visible"><defs><clipPath id="a"><path d="M0 0h329v176H0z"/></clipPath><clipPath id="b"><path d="M0 0h329v176H0z"/></clipPath></defs><g clip-path="url(#a)"><path fill="#FFF" d="M105.937-30.728v61.456c0 11.037-8.962 20-20 20H-85.937c-11.038 0-20-8.963-20-20v-61.456c0-11.037 8.962-20 20-20H85.937c11.038 0 20 8.963 20 20z" transform="matrix(1.17 0 0 1.17 160.437 88.227)" style="display:block"/><g clip-path="url(#b)" transform="translate(-18.31 -10.068) scale(1.11412)" style="display:block"><path fill="#1E8574" d="M-1.869 3.311c.541.327 1.185.49 1.932.49.915 0 1.657-.215 2.226-.644.569-.439.952-1.027 1.148-1.764H1.813a1.88 1.88 0 0 1-.28.518 1.395 1.395 0 0 1-.546.448c-.243.112-.541.168-.896.168-.42 0-.779-.093-1.078-.28a1.966 1.966 0 0 1-.672-.784A2.604 2.604 0 0 1-1.883.371v-.924c0-.401.079-.751.238-1.05.159-.299.383-.532.672-.7a2.022 2.022 0 0 1 1.008-.252c.364 0 .686.079.966.238.28.149.495.364.644.644.149.271.224.588.224.952h-4.536V.427h6.174c.009-.093.014-.247.014-.462 0-.784-.135-1.456-.406-2.016a2.814 2.814 0 0 0-1.176-1.288C1.416-3.647.791-3.801.063-3.801c-.737 0-1.377.163-1.918.49a3.177 3.177 0 0 0-1.232 1.344c-.289.569-.434 1.223-.434 1.96 0 .737.14 1.395.42 1.974.289.569.7 1.017 1.232 1.344z" transform="translate(259.812 54.316)" style="display:block"/><path fill="#1E8574" d="M-1.736-3.577h-1.68l2.52 7.154H.896l2.52-7.154H1.778L.042 1.897H.014l-1.75-5.474z" transform="translate(252.729 54.316)" style="display:block"/><path fill="#1E8574" d="M.861-4.963H-.861v1.61H.861v-1.61zM.805-2.191H-.791v7.154H.805v-7.154z" transform="translate(247.755 52.93)" style="display:block"/><path fill="#1E8574" d="M-1.673 3.451c.504.224 1.12.336 1.848.336.635 0 1.176-.089 1.624-.266.457-.177.803-.434 1.036-.77.233-.345.35-.751.35-1.218 0-.504-.131-.905-.392-1.204a2.27 2.27 0 0 0-.952-.686A10.946 10.946 0 0 0 .427-.791l-.35-.07a9.524 9.524 0 0 1-.784-.196 1.049 1.049 0 0 1-.434-.252.605.605 0 0 1-.168-.448c0-.243.098-.439.294-.588.205-.149.509-.224.91-.224.495 0 .845.103 1.05.308.215.196.355.462.42.798h1.568a2.503 2.503 0 0 0-.406-1.176c-.224-.355-.56-.635-1.008-.84-.448-.205-.999-.308-1.652-.308-.588 0-1.097.089-1.526.266-.429.168-.756.415-.98.742a1.923 1.923 0 0 0-.322 1.106c0 .439.112.798.336 1.078.233.28.523.495.868.644.345.149.765.285 1.26.406a.99.99 0 0 1 .182.042c.112.019.215.042.308.07.364.075.644.145.84.21.196.065.359.168.49.308.14.131.21.313.21.546a.833.833 0 0 1-.322.672c-.205.177-.56.266-1.064.266-.392 0-.714-.056-.966-.168a1.396 1.396 0 0 1-.574-.476 1.63 1.63 0 0 1-.21-.728h-1.582c.019.495.149.938.392 1.33.252.392.625.7 1.12.924z" transform="translate(242.798 54.316)" style="display:block"/><path fill="#1E8574" d="M-1.673 3.451c.504.224 1.12.336 1.848.336.635 0 1.176-.089 1.624-.266.457-.177.803-.434 1.036-.77.233-.345.35-.751.35-1.218 0-.504-.131-.905-.392-1.204a2.27 2.27 0 0 0-.952-.686A10.946 10.946 0 0 0 .427-.791l-.35-.07a9.524 9.524 0 0 1-.784-.196 1.049 1.049 0 0 1-.434-.252.605.605 0 0 1-.168-.448c0-.243.098-.439.294-.588.205-.149.509-.224.91-.224.495 0 .845.103 1.05.308.215.196.355.462.42.798h1.568a2.503 2.503 0 0 0-.406-1.176c-.224-.355-.56-.635-1.008-.84-.448-.205-.999-.308-1.652-.308-.588 0-1.097.089-1.526.266-.429.168-.756.415-.98.742a1.923 1.923 0 0 0-.322 1.106c0 .439.112.798.336 1.078.233.28.523.495.868.644.345.149.765.285 1.26.406a.99.99 0 0 1 .182.042c.112.019.215.042.308.07.364.075.644.145.84.21.196.065.359.168.49.308.14.131.21.313.21.546a.833.833 0 0 1-.322.672c-.205.177-.56.266-1.064.266-.392 0-.714-.056-.966-.168a1.396 1.396 0 0 1-.574-.476 1.63 1.63 0 0 1-.21-.728h-1.582c.019.495.149.938.392 1.33.252.392.625.7 1.12.924z" transform="translate(235.895 54.316)" style="display:block"/><path fill="#1E8574" d="M-1.869 3.311c.541.327 1.185.49 1.932.49.915 0 1.657-.215 2.226-.644.569-.439.952-1.027 1.148-1.764H1.813a1.88 1.88 0 0 1-.28.518 1.395 1.395 0 0 1-.546.448c-.243.112-.541.168-.896.168-.42 0-.779-.093-1.078-.28a1.966 1.966 0 0 1-.672-.784A2.604 2.604 0 0 1-1.883.371v-.924c0-.401.079-.751.238-1.05.159-.299.383-.532.672-.7a2.022 2.022 0 0 1 1.008-.252c.364 0 .686.079.966.238.28.149.495.364.644.644.149.271.224.588.224.952h-4.536V.427h6.174c.009-.093.014-.247.014-.462 0-.784-.135-1.456-.406-2.016a2.814 2.814 0 0 0-1.176-1.288C1.416-3.647.791-3.801.063-3.801c-.737 0-1.377.163-1.918.49a3.177 3.177 0 0 0-1.232 1.344c-.289.569-.434 1.223-.434 1.96 0 .737.14 1.395.42 1.974.289.569.7 1.017 1.232 1.344z" transform="translate(228.592 54.316)" style="display:block"/><path fill="#1E8574" d="M-.476-3.507h-1.596v7.154h1.596v-7.154zm.028 1.316h-1.148l1.12 2.24c0-.439.089-.821.266-1.148.187-.336.439-.593.756-.77.317-.187.672-.28 1.064-.28.14 0 .294.014.462.042v-1.484a3.335 3.335 0 0 0-.644-.056c-.439 0-.812.131-1.12.392-.308.252-.56.607-.756 1.064z" transform="translate(222.832 54.246)" style="display:block"/><path fill="#1E8574" d="M1.001.511C.73.679.404.763.021.763c-.588 0-1.036-.201-1.344-.602-.308-.401-.462-.938-.462-1.61 0-.448.065-.835.196-1.162.14-.336.341-.597.602-.784.271-.187.607-.28 1.008-.28.383 0 .709.084.98.252.271.168.476.42.616.756.14.327.21.733.21 1.218 0 .476-.07.882-.21 1.218-.14.327-.345.574-.616.742zm-2.94 1.12c.476.28 1.017.42 1.624.42.513 0 .943-.098 1.288-.294.345-.196.625-.448.84-.756h.182v-4.942h-.182a2.625 2.625 0 0 0-.854-.728c-.345-.196-.77-.294-1.274-.294-.607 0-1.148.14-1.624.42-.467.28-.835.686-1.106 1.218-.261.523-.392 1.148-.392 1.876s.131 1.353.392 1.876c.271.523.639.924 1.106 1.204zm.252 3.024c.476.205 1.05.308 1.722.308 1.083 0 1.918-.261 2.506-.784.597-.513.896-1.321.896-2.422v-6.51H1.841v6.58c0 .663-.149 1.143-.448 1.442-.289.299-.742.448-1.358.448-.495 0-.877-.093-1.148-.28a1.255 1.255 0 0 1-.504-.756h-1.638c.065.429.224.817.476 1.162.261.345.625.616 1.092.812z" transform="translate(215.933 55.492)" style="display:block"/><path fill="#1E8574" d="M1.001.511C.73.679.404.763.021.763c-.588 0-1.036-.201-1.344-.602-.308-.401-.462-.938-.462-1.61 0-.448.065-.835.196-1.162.14-.336.341-.597.602-.784.271-.187.607-.28 1.008-.28.383 0 .709.084.98.252.271.168.476.42.616.756.14.327.21.733.21 1.218 0 .476-.07.882-.21 1.218-.14.327-.345.574-.616.742zm-2.94 1.12c.476.28 1.017.42 1.624.42.513 0 .943-.098 1.288-.294.345-.196.625-.448.84-.756h.182v-4.942h-.182a2.625 2.625 0 0 0-.854-.728c-.345-.196-.77-.294-1.274-.294-.607 0-1.148.14-1.624.42-.467.28-.835.686-1.106 1.218-.261.523-.392 1.148-.392 1.876s.131 1.353.392 1.876c.271.523.639.924 1.106 1.204zm.252 3.024c.476.205 1.05.308 1.722.308 1.083 0 1.918-.261 2.506-.784.597-.513.896-1.321.896-2.422v-6.51H1.841v6.58c0 .663-.149 1.143-.448 1.442-.289.299-.742.448-1.358.448-.495 0-.877-.093-1.148-.28a1.255 1.255 0 0 1-.504-.756h-1.638c.065.429.224.817.476 1.162.261.345.625.616 1.092.812z" transform="translate(207.991 55.492)" style="display:block"/><path fill="#1E8574" d="m-.014-3.353 1.512 4.564H-1.54l1.498-4.564h.028zm.952-1.652H-.966l-3.738 10.01H-2.8l.77-2.324h3.99l.784 2.324h1.96L.938-5.005z" transform="translate(199.831 52.888)" style="display:block"/><path fill="#1E8574" d="M-1.869 3.311c.541.327 1.185.49 1.932.49.915 0 1.657-.215 2.226-.644.569-.439.952-1.027 1.148-1.764H1.813a1.88 1.88 0 0 1-.28.518 1.395 1.395 0 0 1-.546.448c-.243.112-.541.168-.896.168-.42 0-.779-.093-1.078-.28a1.966 1.966 0 0 1-.672-.784A2.604 2.604 0 0 1-1.883.371v-.924c0-.401.079-.751.238-1.05.159-.299.383-.532.672-.7a2.022 2.022 0 0 1 1.008-.252c.364 0 .686.079.966.238.28.149.495.364.644.644.149.271.224.588.224.952h-4.536V.427h6.174c.009-.093.014-.247.014-.462 0-.784-.135-1.456-.406-2.016a2.814 2.814 0 0 0-1.176-1.288C1.416-3.647.791-3.801.063-3.801c-.737 0-1.377.163-1.918.49a3.177 3.177 0 0 0-1.232 1.344c-.289.569-.434 1.223-.434 1.96 0 .737.14 1.395.42 1.974.289.569.7 1.017 1.232 1.344z" transform="translate(188.897 54.316)" style="display:block"/><path fill="#1E8574" d="M1.967-2.52h-3.962v1.288h3.962V-2.52zM-.091 4.536c.289.131.653.196 1.092.196.327 0 .658-.033.994-.098V3.402a3.868 3.868 0 0 1-.588.056c-.196 0-.35-.023-.462-.07a.48.48 0 0 1-.238-.266C.66 2.991.637 2.8.637 2.548v-7.28h-1.61v7.28c0 .551.075.985.224 1.302.149.317.369.546.658.686z" transform="translate(182.842 53.259)" style="display:block"/><path fill="#1E8574" d="M.413 2.366c-.299.14-.639.21-1.022.21s-.667-.079-.854-.238c-.187-.168-.28-.415-.28-.742 0-.233.051-.425.154-.574.112-.159.285-.294.518-.406.233-.112.546-.21.938-.294C.231.247.539.173.791.098c.252-.075.439-.154.56-.238v.91c0 .364-.084.686-.252.966a1.601 1.601 0 0 1-.686.63zm-3.192.868c.42.373.985.56 1.694.56.551 0 1.031-.103 1.442-.308.411-.205.737-.495.98-.868h.028c.047.373.163.639.35.798.187.159.467.238.84.238.252 0 .532-.033.84-.098V2.66c-.056 0-.112.005-.168.014a.253.253 0 0 1-.252-.168c-.047-.112-.07-.294-.07-.546v-3.15c0-.924-.243-1.587-.728-1.988-.485-.411-1.157-.616-2.016-.616-1.064 0-1.862.229-2.394.686-.532.457-.817 1.055-.854 1.792h1.596c.028-.299.093-.541.196-.728a.89.89 0 0 1 .49-.406c.224-.084.523-.126.896-.126.448 0 .77.079.966.238.196.149.294.359.294.63a.663.663 0 0 1-.182.49c-.121.112-.28.201-.476.266a8.061 8.061 0 0 1-.826.21 2.96 2.96 0 0 0-.35.07c-.635.121-1.162.271-1.582.448a2.3 2.3 0 0 0-.98.728c-.233.317-.35.728-.35 1.232 0 .616.205 1.115.616 1.498z" transform="translate(177.084 54.309)" style="display:block"/><path fill="#1E8574" d="M-.476-3.507h-1.596v7.154h1.596v-7.154zm.028 1.316h-1.148l1.12 2.24c0-.439.089-.821.266-1.148.187-.336.439-.593.756-.77.317-.187.672-.28 1.064-.28.14 0 .294.014.462.042v-1.484a3.335 3.335 0 0 0-.644-.056c-.439 0-.812.131-1.12.392-.308.252-.56.607-.756 1.064z" transform="translate(171.395 54.246)" style="display:block"/><path fill="#1E8574" d="M-1.869 3.311c.541.327 1.185.49 1.932.49.915 0 1.657-.215 2.226-.644.569-.439.952-1.027 1.148-1.764H1.813a1.88 1.88 0 0 1-.28.518 1.395 1.395 0 0 1-.546.448c-.243.112-.541.168-.896.168-.42 0-.779-.093-1.078-.28a1.966 1.966 0 0 1-.672-.784A2.604 2.604 0 0 1-1.883.371v-.924c0-.401.079-.751.238-1.05.159-.299.383-.532.672-.7a2.022 2.022 0 0 1 1.008-.252c.364 0 .686.079.966.238.28.149.495.364.644.644.149.271.224.588.224.952h-4.536V.427h6.174c.009-.093.014-.247.014-.462 0-.784-.135-1.456-.406-2.016a2.814 2.814 0 0 0-1.176-1.288C1.416-3.647.791-3.801.063-3.801c-.737 0-1.377.163-1.918.49a3.177 3.177 0 0 0-1.232 1.344c-.289.569-.434 1.223-.434 1.96 0 .737.14 1.395.42 1.974.289.569.7 1.017 1.232 1.344z" transform="translate(164.758 54.316)" style="display:block"/><path fill="#1E8574" d="M3.486-5.11h-1.61V4.9h1.61V-5.11zM1.008 3.528c-.28.196-.611.294-.994.294-.401 0-.742-.107-1.022-.322a1.984 1.984 0 0 1-.616-.882 3.73 3.73 0 0 1-.21-1.288c0-.485.07-.915.21-1.288.14-.383.345-.681.616-.896.28-.215.621-.322 1.022-.322.383 0 .714.098.994.294.28.196.49.485.63.868.149.373.224.821.224 1.344 0 .513-.075.961-.224 1.344-.14.373-.35.658-.63.854zm-2.968 1.12a3.016 3.016 0 0 0 1.652.462c.495 0 .924-.098 1.288-.294.373-.205.663-.448.868-.728h.406v-5.502h-.406a2.375 2.375 0 0 0-.854-.742C.63-2.361.196-2.464-.308-2.464c-.616 0-1.167.154-1.652.462-.476.308-.849.747-1.12 1.316-.271.569-.406 1.241-.406 2.016 0 .765.135 1.433.406 2.002.271.569.644 1.008 1.12 1.316z" transform="translate(156.699 52.993)" style="display:block"/><path fill="#1E8574" d="M1.099 2.205C.8 2.41.436 2.513.007 2.513c-.653 0-1.153-.229-1.498-.686-.336-.457-.504-1.064-.504-1.82 0-.495.075-.933.224-1.316.149-.383.373-.677.672-.882.299-.215.667-.322 1.106-.322.644 0 1.134.229 1.47.686.345.457.518 1.064.518 1.82 0 .504-.075.947-.224 1.33a1.945 1.945 0 0 1-.672.882zm-3.052 1.12c.551.317 1.199.476 1.946.476.747 0 1.391-.159 1.932-.476a3.239 3.239 0 0 0 1.26-1.344c.299-.579.448-1.241.448-1.988 0-.747-.149-1.405-.448-1.974a3.124 3.124 0 0 0-1.26-1.344C1.384-3.642.744-3.801.007-3.801c-.747 0-1.395.163-1.946.49a3.124 3.124 0 0 0-1.26 1.344c-.289.569-.434 1.227-.434 1.974 0 .747.145 1.409.434 1.988a3.175 3.175 0 0 0 1.246 1.33z" transform="translate(148.876 54.316)" style="display:block"/><path fill="#1E8574" d="M-2.681-5.005h-2.31v10.01h1.736v-7.378h.028l2.534 7.378H.693l2.534-7.378h.028v7.378h1.736v-10.01H2.695L.021 2.485h-.028l-2.674-7.49z" transform="translate(139.147 52.888)" style="display:block"/><path fill="#1E8574" d="M-1.024 1.88c.299.187.656.28 1.072.28.496 0 .896-.125 1.2-.376.309-.256.52-.589.632-1h-.648c-.032.117-.091.24-.176.368a1.056 1.056 0 0 1-.384.32 1.264 1.264 0 0 1-.616.136c-.293 0-.539-.069-.736-.208a1.313 1.313 0 0 1-.44-.552A1.865 1.865 0 0 1-1.264.12v-.424c0-.251.053-.475.16-.672.112-.197.267-.352.464-.464.197-.112.416-.168.656-.168.245 0 .461.053.648.16.192.107.339.253.44.44.101.187.152.392.152.616h-2.904v.56h3.576c.005-.043.008-.149.008-.32 0-.4-.075-.749-.224-1.048a1.608 1.608 0 0 0-.656-.704C.773-2.075.437-2.16.048-2.16c-.4 0-.749.088-1.048.264a1.79 1.79 0 0 0-.696.752c-.16.325-.24.704-.24 1.136 0 .416.077.789.232 1.12.155.325.381.581.68.768z" transform="translate(242.826 65.299)" style="display:block"/><path fill="#1E8574" d="M-2.104-1.984h-.64v4.08h.64v-4.08zm1.632.696c.101.16.152.392.152.696v2.688h.64V-.448c0-.208.043-.395.128-.56a.927.927 0 0 1 .36-.384c.16-.096.344-.144.552-.144.293 0 .491.083.592.248.101.16.152.392.152.696v2.688h.64V-.752c0-.432-.104-.763-.312-.992-.203-.235-.507-.352-.912-.352-.288 0-.541.064-.76.192a1.832 1.832 0 0 0-.56.512H.184a1.03 1.03 0 0 0-.392-.528c-.176-.117-.408-.176-.696-.176-.277 0-.512.056-.704.168a1.677 1.677 0 0 0-.48.432h-.272v1.048h.256c0-.208.043-.395.128-.56a.927.927 0 0 1 .36-.384c.16-.096.344-.144.552-.144.293 0 .491.083.592.248z" transform="translate(237.467 65.243)" style="display:block"/><path fill="#1E8574" d="M.74 1.392C.543 1.531.297 1.6.004 1.6c-.437 0-.768-.149-.992-.448C-1.212.848-1.324.464-1.324 0c0-.299.048-.568.144-.808.096-.245.243-.437.44-.576.203-.144.451-.216.744-.216.432 0 .76.152.984.456.224.299.336.68.336 1.144 0 .299-.048.571-.144.816a1.29 1.29 0 0 1-.44.576zm-1.808.496c.304.181.661.272 1.072.272a2 2 0 0 0 1.056-.272c.304-.181.536-.435.696-.76.16-.331.24-.707.24-1.128 0-.421-.08-.795-.24-1.12a1.765 1.765 0 0 0-.696-.768A2 2 0 0 0 .004-2.16c-.411 0-.768.091-1.072.272a1.778 1.778 0 0 0-.688.768c-.16.325-.24.699-.24 1.12 0 .421.08.797.24 1.128.16.325.389.579.688.76z" transform="translate(232.026 65.299)" style="display:block"/><path fill="#1E8574" d="M-.948 1.88c.299.181.645.272 1.04.272.331 0 .627-.069.888-.208A1.65 1.65 0 0 0 1.884.536h-.672a1.394 1.394 0 0 1-.128.512.973.973 0 0 1-.36.392c-.165.101-.376.152-.632.152-.304 0-.555-.075-.752-.224a1.368 1.368 0 0 1-.424-.592A2.31 2.31 0 0 1-1.212 0c0-.277.043-.536.128-.776A1.31 1.31 0 0 1-.66-1.36c.197-.155.448-.232.752-.232.256 0 .464.051.624.152a.919.919 0 0 1 .36.384c.08.155.125.317.136.488h.672a1.784 1.784 0 0 0-.288-.816 1.586 1.586 0 0 0-.624-.56 1.814 1.814 0 0 0-.88-.208c-.395 0-.741.091-1.04.272a1.842 1.842 0 0 0-.696.76c-.16.325-.24.699-.24 1.12 0 .421.08.795.24 1.12.165.325.397.579.696.76z" transform="translate(227.703 65.299)" style="display:block"/><path fill="#1E8574" d="M-1.044-1.984h-.64v4.08h.64v-4.08zm1.872.712c.144.171.216.397.216.68v2.688h.64V-.752c0-.443-.128-.776-.384-1-.256-.229-.584-.344-.984-.344-.32 0-.592.059-.816.176-.224.112-.4.253-.528.424H-1.3v1.048h.256a1.025 1.025 0 0 1 .576-.944c.181-.096.389-.144.624-.144.304 0 .528.088.672.264z" transform="translate(223.462 65.243)" style="display:block"/><path fill="#1E8574" d="M.36-2.86h-.72v5.72h.72v-5.72z" transform="translate(220.422 64.479)" style="display:block"/><path fill="#1E8574" d="M1.888-2.916h-.64v5.72h.64v-5.72zM.672 2.164a1.131 1.131 0 0 1-.656.192c-.267 0-.493-.075-.68-.224a1.332 1.332 0 0 1-.416-.584 2.236 2.236 0 0 1-.136-.784c0-.277.045-.536.136-.776a1.33 1.33 0 0 1 .416-.592c.187-.149.413-.224.68-.224.251 0 .469.067.656.2.187.128.328.312.424.552.101.24.152.52.152.84 0 .32-.051.6-.152.84-.096.24-.237.427-.424.56zm-1.656.496c.283.171.595.256.936.256.299 0 .552-.056.76-.168.208-.117.381-.267.52-.448h.192V-.748h-.192a1.425 1.425 0 0 0-.512-.464c-.208-.117-.464-.176-.768-.176-.341 0-.653.088-.936.264a1.814 1.814 0 0 0-.664.744c-.16.325-.24.707-.24 1.144 0 .437.08.819.24 1.144.165.325.387.576.664.752z" transform="translate(215.411 64.535)" style="display:block"/><path fill="#1E8574" d="M-1.024 1.88c.299.187.656.28 1.072.28.496 0 .896-.125 1.2-.376.309-.256.52-.589.632-1h-.648c-.032.117-.091.24-.176.368a1.056 1.056 0 0 1-.384.32 1.264 1.264 0 0 1-.616.136c-.293 0-.539-.069-.736-.208a1.313 1.313 0 0 1-.44-.552A1.865 1.865 0 0 1-1.264.12v-.424c0-.251.053-.475.16-.672.112-.197.267-.352.464-.464.197-.112.416-.168.656-.168.245 0 .461.053.648.16.192.107.339.253.44.44.101.187.152.392.152.616h-2.904v.56h3.576c.005-.043.008-.149.008-.32 0-.4-.075-.749-.224-1.048a1.608 1.608 0 0 0-.656-.704C.773-2.075.437-2.16.048-2.16c-.4 0-.749.088-1.048.264a1.79 1.79 0 0 0-.696.752c-.16.325-.24.704-.24 1.136 0 .416.077.789.232 1.12.155.325.381.581.68.768z" transform="translate(211.099 65.299)" style="display:block"/><path fill="#1E8574" d="M-1.84-2.04-.392-.048-1.968 2.04h.76L-.024.392h.016L1.2 2.04h.768L.376-.048l1.44-1.992h-.76L.008-.496h-.016L-1.072-2.04h-.768z" transform="translate(207.21 65.299)" style="display:block"/><path fill="#1E8574" d="M.384-2.82h-.768v.768h.768v-.768zM.32-1.26h-.64v4.08h.64v-4.08z" transform="translate(204.512 64.519)" style="display:block"/><path fill="#1E8574" d="M1.94-2.86h-3.88v5.72h.72V.276h2.552v-.64H-1.22V-2.22h3.16v-.64z" transform="translate(201.658 64.479)" style="display:block"/><path fill="#1E8574" d="M2.176 2.212a.623.623 0 0 1-.4.128.609.609 0 0 1-.544-.28c-.123-.192-.184-.448-.184-.768 0-.213.027-.397.08-.552a.759.759 0 0 1 .24-.36.626.626 0 0 1 .408-.136c.24 0 .421.096.544.288.123.187.184.44.184.76 0 .213-.027.397-.08.552a.79.79 0 0 1-.248.368zM.8 2.428c.229.299.555.448.976.448.288 0 .531-.069.728-.208a1.29 1.29 0 0 0 .44-.576c.096-.24.144-.507.144-.8 0-.453-.115-.829-.344-1.128-.224-.304-.547-.456-.968-.456A1.2 1.2 0 0 0 .608.492c-.096.24-.144.507-.144.8 0 .453.112.832.336 1.136zm-2.176-2.8a.623.623 0 0 1-.4.128.609.609 0 0 1-.544-.28c-.123-.192-.184-.448-.184-.768 0-.213.027-.397.08-.552a.759.759 0 0 1 .24-.36.626.626 0 0 1 .408-.136c.24 0 .421.096.544.288.123.187.184.44.184.76 0 .213-.027.397-.08.552a.79.79 0 0 1-.248.368zm-1.376.216c.229.299.555.448.976.448.288 0 .531-.069.728-.208a1.29 1.29 0 0 0 .44-.576c.096-.24.144-.507.144-.8 0-.453-.115-.829-.344-1.128-.224-.304-.547-.456-.968-.456a1.2 1.2 0 0 0-1.168.784c-.096.24-.144.507-.144.8 0 .453.112.832.336 1.136zm4.608-2.608h-.64l-3.08 5.528h.64l3.08-5.528z" transform="translate(194.156 64.575)" style="display:block"/><path fill="#1E8574" d="M.808 1.94c-.203.197-.472.296-.808.296-.491 0-.843-.205-1.056-.616-.213-.416-.32-.955-.32-1.616 0-.421.043-.797.128-1.128.091-.336.237-.605.44-.808.203-.203.472-.304.808-.304.491 0 .843.208 1.056.624.213.416.32.955.32 1.616 0 .421-.045.8-.136 1.136a1.7 1.7 0 0 1-.432.8zm-2.016.56c.32.251.723.376 1.208.376s.885-.125 1.2-.376c.32-.256.555-.6.704-1.032.149-.432.224-.92.224-1.464 0-.544-.075-1.032-.224-1.464-.149-.437-.384-.781-.704-1.032-.315-.256-.715-.384-1.2-.384s-.888.128-1.208.384c-.315.251-.547.595-.696 1.032-.149.432-.224.92-.224 1.464 0 .544.075 1.032.224 1.464.149.432.381.776.696 1.032z" transform="translate(188.403 64.575)" style="display:block"/><path fill="#1E8574" d="M-1.764 1.9a2.24 2.24 0 0 0-.192.92h3.832v-.64h-2.96v-.016c.043-.171.125-.325.248-.464.123-.144.264-.272.424-.384.16-.112.363-.24.608-.384L.284.884l.08-.048C.695.649.969.471 1.188.3c.219-.171.4-.376.544-.616a1.6 1.6 0 0 0 .224-.848c0-.341-.08-.637-.24-.888a1.528 1.528 0 0 0-.64-.568c-.267-.133-.56-.2-.88-.2-.443 0-.813.091-1.112.272a1.688 1.688 0 0 0-.664.728 2.42 2.42 0 0 0-.216 1.048h.752c0-.277.037-.52.112-.728.075-.208.2-.373.376-.496.181-.123.427-.184.736-.184.267 0 .475.051.624.152a.814.814 0 0 1 .312.376c.059.149.088.315.088.496 0 .235-.043.429-.128.584a1.294 1.294 0 0 1-.368.4 8.502 8.502 0 0 1-.744.456l-.272.16a4.527 4.527 0 0 0-.888.664c-.245.24-.435.504-.568.792z" transform="translate(183.635 64.519)" style="display:block"/><path fill="#1E8574" d="M-.088.284c-.053.091-.152.16-.296.208v.4C-.101.807.096.679.208.508.325.337.384.127.384-.124v-.768h-.768v.768h.368c.005.187-.019.323-.072.408z" transform="translate(179.16 67.463)" style="display:block"/><path fill="#1E8574" d="M-.888 1.968c.272.123.6.184.984.184.341 0 .635-.051.88-.152.251-.101.44-.245.568-.432.128-.192.192-.416.192-.672 0-.283-.075-.507-.224-.672a1.273 1.273 0 0 0-.536-.376 6.206 6.206 0 0 0-.984-.272 5.201 5.201 0 0 1-.488-.12.86.86 0 0 1-.296-.176.437.437 0 0 1-.112-.312c0-.171.067-.307.2-.408.139-.101.347-.152.624-.152.336 0 .573.069.712.208a.956.956 0 0 1 .272.512h.672a1.321 1.321 0 0 0-.232-.648 1.283 1.283 0 0 0-.56-.464c-.24-.112-.531-.168-.872-.168-.309 0-.576.048-.8.144a1.037 1.037 0 0 0-.688 1c0 .251.067.453.2.608.139.155.307.272.504.352a5.805 5.805 0 0 0 .848.24l.16.032c.208.043.371.085.488.128a.763.763 0 0 1 .312.2.517.517 0 0 1 .128.368.63.63 0 0 1-.216.48c-.144.128-.395.192-.752.192-.267 0-.485-.04-.656-.12a.844.844 0 0 1-.368-.32A1.064 1.064 0 0 1-1.064.68h-.672c.011.283.085.536.224.76.144.224.352.4.624.528z" transform="translate(176.46 65.299)" style="display:block"/><path fill="#1E8574" d="M-1.024 1.88c.299.187.656.28 1.072.28.496 0 .896-.125 1.2-.376.309-.256.52-.589.632-1h-.648c-.032.117-.091.24-.176.368a1.056 1.056 0 0 1-.384.32 1.264 1.264 0 0 1-.616.136c-.293 0-.539-.069-.736-.208a1.313 1.313 0 0 1-.44-.552A1.865 1.865 0 0 1-1.264.12v-.424c0-.251.053-.475.16-.672.112-.197.267-.352.464-.464.197-.112.416-.168.656-.168.245 0 .461.053.648.16.192.107.339.253.44.44.101.187.152.392.152.616h-2.904v.56h3.576c.005-.043.008-.149.008-.32 0-.4-.075-.749-.224-1.048a1.608 1.608 0 0 0-.656-.704C.773-2.075.437-2.16.048-2.16c-.4 0-.749.088-1.048.264a1.79 1.79 0 0 0-.696.752c-.16.325-.24.704-.24 1.136 0 .416.077.789.232 1.12.155.325.381.581.68.768z" transform="translate(172.373 65.299)" style="display:block"/><path fill="#1E8574" d="M.384-2.82h-.768v.768h.768v-.768zM.32-1.26h-.64v4.08h.64v-4.08z" transform="translate(169.402 64.519)" style="display:block"/><path fill="#1E8574" d="M1.02-1.38h-2.04v.56h2.04v-.56zM.044 2.644a1.4 1.4 0 0 0 .552.096c.128 0 .269-.013.424-.04v-.544a2.893 2.893 0 0 1-.336.024.7.7 0 0 1-.288-.048.273.273 0 0 1-.136-.16 1.054 1.054 0 0 1-.04-.336V-2.74h-.64v4.344c0 .299.04.531.12.696.085.165.2.28.344.344z" transform="translate(167.391 64.639)" style="display:block"/><path fill="#1E8574" d="M.384-2.82h-.768v.768h.768v-.768zM.32-1.26h-.64v4.08h.64v-4.08z" transform="translate(165.473 64.519)" style="display:block"/><path fill="#1E8574" d="M1.684-2.096h-.64v4.08h.64v-4.08zM-1.3 1.76c.256.224.584.336.984.336.32 0 .592-.056.816-.168.224-.117.4-.261.528-.432h.032V.448h-.016a1.052 1.052 0 0 1-.576.952 1.37 1.37 0 0 1-.624.136c-.304 0-.528-.085-.672-.256-.144-.176-.216-.405-.216-.688v-2.688h-.64V.752c0 .443.128.779.384 1.008z" transform="translate(162.539 65.355)" style="display:block"/><path fill="#1E8574" d="M1.888-2.692h-.64v5.496h.64v-5.496zM.672.748A1.131 1.131 0 0 1 .016.94c-.267 0-.493-.075-.68-.224A1.332 1.332 0 0 1-1.08.132a2.236 2.236 0 0 1-.136-.784c0-.277.045-.536.136-.776a1.33 1.33 0 0 1 .416-.592c.187-.149.413-.224.68-.224.251 0 .469.067.656.2.187.128.328.312.424.552.101.24.152.52.152.84 0 .32-.051.6-.152.84C1 .428.859.615.672.748zm-1.656.496c.283.171.595.256.936.256.299 0 .552-.056.76-.168.208-.117.381-.267.52-.448h.192v-3.048h-.192a1.425 1.425 0 0 0-.512-.464c-.208-.117-.464-.176-.768-.176-.341 0-.653.088-.936.264a1.814 1.814 0 0 0-.664.744c-.16.325-.24.707-.24 1.144 0 .437.08.819.24 1.144.165.325.387.576.664.752z" transform="translate(158.083 65.951)" style="display:block"/><path fill="#1E8574" d="M1.932-2.86h-3.96v5.72h4.056v-.64h-3.336v-2h2.856v-.64h-2.856v-1.8h3.24v-.64z" transform="translate(153.817 64.479)" style="display:block"/><path fill="#1E8574" d="M2.176 2.212a.623.623 0 0 1-.4.128.609.609 0 0 1-.544-.28c-.123-.192-.184-.448-.184-.768 0-.213.027-.397.08-.552a.759.759 0 0 1 .24-.36.626.626 0 0 1 .408-.136c.24 0 .421.096.544.288.123.187.184.44.184.76 0 .213-.027.397-.08.552a.79.79 0 0 1-.248.368zM.8 2.428c.229.299.555.448.976.448.288 0 .531-.069.728-.208a1.29 1.29 0 0 0 .44-.576c.096-.24.144-.507.144-.8 0-.453-.115-.829-.344-1.128-.224-.304-.547-.456-.968-.456A1.2 1.2 0 0 0 .608.492c-.096.24-.144.507-.144.8 0 .453.112.832.336 1.136zm-2.176-2.8a.623.623 0 0 1-.4.128.609.609 0 0 1-.544-.28c-.123-.192-.184-.448-.184-.768 0-.213.027-.397.08-.552a.759.759 0 0 1 .24-.36.626.626 0 0 1 .408-.136c.24 0 .421.096.544.288.123.187.184.44.184.76 0 .213-.027.397-.08.552a.79.79 0 0 1-.248.368zm-1.376.216c.229.299.555.448.976.448.288 0 .531-.069.728-.208a1.29 1.29 0 0 0 .44-.576c.096-.24.144-.507.144-.8 0-.453-.115-.829-.344-1.128-.224-.304-.547-.456-.968-.456a1.2 1.2 0 0 0-1.168.784c-.096.24-.144.507-.144.8 0 .453.112.832.336 1.136zm4.608-2.608h-.64l-3.08 5.528h.64l3.08-5.528z" transform="translate(146.226 64.575)" style="display:block"/><path fill="#1E8574" d="M.808 1.94c-.203.197-.472.296-.808.296-.491 0-.843-.205-1.056-.616-.213-.416-.32-.955-.32-1.616 0-.421.043-.797.128-1.128.091-.336.237-.605.44-.808.203-.203.472-.304.808-.304.491 0 .843.208 1.056.624.213.416.32.955.32 1.616 0 .421-.045.8-.136 1.136a1.7 1.7 0 0 1-.432.8zm-2.016.56c.32.251.723.376 1.208.376s.885-.125 1.2-.376c.32-.256.555-.6.704-1.032.149-.432.224-.92.224-1.464 0-.544-.075-1.032-.224-1.464-.149-.437-.384-.781-.704-1.032-.315-.256-.715-.384-1.2-.384s-.888.128-1.208.384c-.315.251-.547.595-.696 1.032-.149.432-.224.92-.224 1.464 0 .544.075 1.032.224 1.464.149.432.381.776.696 1.032z" transform="translate(140.474 64.575)" style="display:block"/><path fill="#1E8574" d="M.56-.58A1.575 1.575 0 0 1 0-.492c-.331 0-.587-.069-.768-.208-.181-.144-.272-.365-.272-.664 0-.197.04-.36.12-.488a.773.773 0 0 1 .36-.288c.155-.064.341-.096.56-.096.331 0 .587.072.768.216.181.144.272.363.272.656a.88.88 0 0 1-.128.496.728.728 0 0 1-.352.288zm.152 2.696c-.197.08-.435.12-.712.12-.277 0-.515-.04-.712-.12a.988.988 0 0 1-.456-.352 1.057 1.057 0 0 1-.152-.576c0-.224.051-.413.152-.568A.988.988 0 0 1-.712.268c.197-.08.435-.12.712-.12.277 0 .515.04.712.12.197.08.347.197.448.352.107.155.16.344.16.568 0 .224-.053.416-.16.576a.936.936 0 0 1-.448.352zm-1.784.576c.315.123.672.184 1.072.184s.755-.061 1.064-.184a1.64 1.64 0 0 0 .736-.56c.181-.251.272-.557.272-.92 0-.352-.093-.635-.28-.848a2.139 2.139 0 0 0-.744-.528V-.18c.219-.117.397-.272.536-.464s.208-.432.208-.72a1.45 1.45 0 0 0-.224-.808 1.386 1.386 0 0 0-.632-.52A2.25 2.25 0 0 0 0-2.876a2.25 2.25 0 0 0-.936.184 1.386 1.386 0 0 0-.632.52 1.45 1.45 0 0 0-.224.808c0 .288.067.528.2.72.139.192.32.347.544.464v.016a2.34 2.34 0 0 0-.52.304 1.388 1.388 0 0 0-.368.448 1.342 1.342 0 0 0-.136.624c0 .363.088.669.264.92.181.245.427.432.736.56z" transform="translate(135.596 64.575)" style="display:block"/><path fill="#DFEFFF" d="M46.194-2.247v4.494c0 1.104-.896 2-2 2h-88.388c-1.104 0-2-.896-2-2v-4.494c0-1.104.896-2 2-2h88.388c1.104 0 2 .896 2 2z" transform="translate(179.398 78.032)" style="display:block"/><path fill="#DFEFFF" d="M46.194-2.247v4.494c0 1.104-.896 2-2 2h-88.388c-1.104 0-2-.896-2-2v-4.494c0-1.104.896-2 2-2h88.388c1.104 0 2 .896 2 2z" transform="translate(179.398 90.389)" style="display:block"/><path fill="#DFEFFF" d="M46.194-2.247v4.494c0 1.104-.896 2-2 2h-88.388c-1.104 0-2-.896-2-2v-4.494c0-1.104.896-2 2-2h88.388c1.104 0 2 .896 2 2z" transform="translate(179.398 102.746)" style="display:block"/><path fill="#DFEFFF" d="M46.194-2.247v4.494c0 1.104-.896 2-2 2h-88.388c-1.104 0-2-.896-2-2v-4.494c0-1.104.896-2 2-2h88.388c1.104 0 2 .896 2 2z" transform="translate(179.398 115.103)" style="display:block"/></g><g style="display:block"><path stroke="#8DADCC" stroke-width="14" d="M0-37.034c20.44 0 37.034 16.595 37.034 37.034 0 20.44-16.595 37.034-37.034 37.034-20.44 0-37.034-16.595-37.034-37.034 0-20.44 16.595-37.034 37.034-37.034z" fill="none" transform="matrix(.77148 0 0 .85007 78.311 90.094)"/><path stroke="#AFD9FF" stroke-width="14" d="M0-37.034c20.44 0 37.034 16.595 37.034 37.034 0 20.44-16.595 37.034-37.034 37.034-16.445 0-30.402-10.743-35.228-25.589" fill="none" transform="matrix(.77148 0 0 .85007 78.311 90.094)"/><path stroke="#C0E0FF" stroke-width="14" d="M0-37.034c20.44 0 37.034 16.595 37.034 37.034 0 20.44-16.595 37.034-37.034 37.034" fill="none" transform="matrix(.77148 0 0 .85007 78.311 90.094)"/><path stroke="#D0E8FF" stroke-width="14" d="M0-37.034c20.44 0 37.034 16.595 37.034 37.034 0 12.308-6.018 23.223-15.269 29.958" fill="none" transform="matrix(.77148 0 0 .85007 78.311 90.094)"/><path stroke="#EEF7FF" stroke-width="14" d="M0-37.034c20.44 0 37.034 16.595 37.034 37.034 0 3.994-.634 7.841-1.806 11.445" fill="none" transform="matrix(.77148 0 0 .85007 78.311 90.094)"/><path stroke="#F7FAFF" stroke-width="14" d="M0-37.034a36.853 36.853 0 0 1 21.765 7.076" fill="none" transform="matrix(.77148 0 0 .85007 78.311 90.094)"/></g></g></svg>