<svg xmlns="http://www.w3.org/2000/svg" viewBox="20 10 45 50" width="4rem" height="4rem" class="mx-auto -mt-1 tablet-sm:mt-0 fill-white"><path d="M58.355 52.175h-3.908v-3.997l1.83-1.652a.443.443 0 0 0 .03-.63.453.453 0 0 0-.635-.03l-1.225 1.106v-2.56a.448.448 0 0 0-.45-.446c-.248 0-.449.2-.449.446v4.493l-2.031-2.497a.45.45 0 0 0-.632-.067.445.445 0 0 0-.067.627l2.73 3.357v1.85h-2.793c-.385-2.342-2.416-4.06-4.889-4.06-.513 0-1.024.085-1.527.245v-3.815h3.954c.12 0 .234-.047.318-.13l4.493-4.462a.442.442 0 0 0 0-.63l-4.493-4.461a.453.453 0 0 0-.319-.131h-3.953v-3.166h6.2c.248 0 .45-.2.45-.446v-8.922a.449.449 0 0 0-.45-.446h-6.2v-4.238a.448.448 0 0 0-.45-.446h-4.672c-.248 0-.45.2-.45.446v4.238h-4.403a.45.45 0 0 0-.317.13l-4.493 4.461a.443.443 0 0 0 0 .631l4.493 4.461c.085.083.199.13.317.13h4.404v3.168h-6.65c-.248 0-.45.2-.45.446V44.1c0 .247.202.446.45.446h6.65v3.226a5.316 5.316 0 0 0-2.382-.55 5.438 5.438 0 0 0-4.813 2.953 3.81 3.81 0 0 0-1.477-.276 4.055 4.055 0 0 0-3.649 2.276h-2.192a.447.447 0 0 0-.449.446c0 .246.201.446.45.446h34.1a.448.448 0 1 0 0-.893l-.001.001Zm-12.49-3.168c1.973 0 3.601 1.332 3.974 3.168h-5.501v-2.867a4.187 4.187 0 0 1 1.527-.301Zm-15.36-22.35 4.044-4.014h15.54v8.03h-15.54l-4.043-4.015-.001-.001Zm2.061 8.968h15.54l4.043 4.014-4.044 4.015H32.566v-8.03.001Zm3.82 12.49c.865 0 1.682.238 2.38.685v3.374h-6.855c.035-.377.124-.746.267-1.14l.004-.004a.439.439 0 0 0 .063-.175 4.523 4.523 0 0 1 4.14-2.74h.001Zm-6.29 2.676c.43 0 .814.071 1.145.21-.12.381-.197.775-.228 1.174H27.48a3.16 3.16 0 0 1 2.615-1.384h.001Z" fill="inherit"/></svg>