<svg xmlns="http://www.w3.org/2000/svg" viewBox="-9 -7 65 65" width="4rem" height="4rem" fill="#fff"><path d="M23.7 33.9c-.1-.1-.3-.2-.5-.2C17.4 32.5 12 30.4 7 27.2c-.1-.1-.2-.2-.3-.2-.1 0-.2 0-.4.1-.1.1-.2.1-.3.3-.1.1-.1.2-.1.4V39c0 .1 0 .2.1.4s.2.2.3.3c.3.2 8.1 5 16.9 5 .2 0 .4-.1.5-.2.1-.1.2-.3.2-.5v-9.5c-.1-.3-.1-.5-.2-.6zm-1.3 9.2c-7.1-.2-13.6-3.8-15-4.5v-9.5c4.6 2.8 9.7 4.8 15 5.9v8.1zM44 29.9l-.3-.3c-.1-.1-.2-.1-.4-.1-.1 0-.3 0-.4.1-4.9 3.2-10.4 5.4-16.2 6.5-.2 0-.3.1-.5.2-.1.1-.2.3-.2.5v7c0 .2.1.4.2.5.1.1.3.2.5.2 8.7 0 16.5-4.8 16.9-5l.3-.3c.1-.1.1-.2.1-.4v-8.7c.1.1.1-.1 0-.2zm-1.4 8.7c-1.4.8-7.9 4.3-15 4.5v-5.6c5.3-1.1 10.4-3 15-5.9v7z"/><path d="M20.4 39.7c0 .2-.1.4-.2.5-.1.1-.3.2-.5.2-4-.1-7.7-1.4-10.9-3.7-.2-.1-.3-.3-.3-.5s0-.4.1-.5c.1-.2.3-.3.5-.3s.4 0 .5.1c0 0 4.4 3.4 10 3.4.2 0 .4.1.5.2.2.2.3.4.3.6zm17-1.7c0 .2-.1.4-.3.5-1.9 1.4-4.3 2.2-6.6 2.2h-.2c-.2 0-.4-.1-.5-.2-.1-.1-.2-.3-.2-.5s.1-.4.2-.5c.1-.1.3-.2.5-.2h.1c2.1 0 4.1-.6 5.8-1.8.1-.1.3-.2.5-.2s.4.1.5.3c.2 0 .2.2.2.4zm-17-1.5c0 .2-.1.4-.2.5-.1.1-.3.2-.5.2h-.3c-1 0-2-.1-2.9-.3-.2 0-.4-.1-.5-.3-.1-.2-.1-.4-.1-.5 0-.2.2-.4.3-.5.2-.1.4-.1.5-.1 1 .2 1.9.3 2.9.3.2 0 .4.1.5.2.2.1.3.3.3.5zm-5.2-.7c0 .2-.1.3-.2.4-.1.1-.3.2-.5.2h-.2c-2-.6-3.8-1.6-5.5-2.8-.2-.1-.3-.3-.3-.5s0-.4.1-.5c.1-.2.3-.3.5-.3s.4 0 .5.2c1.5 1.1 3.2 2 5 2.6.2 0 .3.2.4.3.2 0 .2.2.2.4zm26.3.3c-.1-.4-.2-.7-.5-.9-.2-.3-.6-.4-.9-.5-.4-.1-.7 0-1 .1-.3.1-.6.4-.8.7-.2.3-.3.7-.3 1 0 .5.2.9.5 1.3.3.3.8.5 1.3.5.4 0 .7-.1 1-.3.3-.2.5-.5.7-.8.1-.4.1-.7 0-1.1zm-1.5.6s-.1.1-.2.1h-.2c-.1 0-.1-.1-.2-.1 0-.1-.1-.1-.1-.2s0-.2.1-.2c.1-.1.2-.1.2-.1.1 0 .1 0 .2.1.1 0 .1.1.1.2v.2c.2-.1.1 0 .1 0zm4-25.1-.3-.3c-.3-.2-8.1-5-16.9-5-.2 0-.4.1-.5.2-.1.1-.2.3-.2.5v9.5c0 .2.1.3.2.5.1.1.3.2.5.2 5.8 1.1 11.2 3.3 16.2 6.5.1.1.2.1.4.1.1 0 .2 0 .4-.1.1-.1.2-.1.3-.3.1-.1.1-.2.1-.4V12c-.1-.1-.1-.2-.2-.4zm-1.4 10.3c-4.6-2.8-9.7-4.8-15-5.9V7.9c7.1.2 13.6 3.8 15 4.5v9.5zM18 26.4c-.1-1 0-2 .3-3s.8-1.9 1.5-2.6c.7-.8 1.5-1.4 2.4-1.8.9-.4 1.9-.6 2.9-.6s2 .2 2.9.6c.9.4 1.7 1 2.4 1.8s1.2 1.6 1.5 2.6c.3 1 .4 2 .3 3 0 .2-.1.3-.2.5-.1.1-.3.2-.5.2h-.1c-.1 0-.2 0-.3-.1-.1 0-.2-.1-.2-.2-.1-.1-.1-.2-.1-.3v-.3c.1-.8 0-1.6-.2-2.4-.2-.8-.6-1.5-1.2-2.1-.5-.6-1.2-1.1-1.9-1.4-.7-.3-1.5-.5-2.3-.5s-1.6.2-2.3.5c-.7.3-1.4.8-1.9 1.4-.5.6-.9 1.3-1.2 2.1-.2.8-.3 1.6-.2 2.4 0 .2 0 .4-.2.5-.3.2-.4.3-.6.3-.2 0-.4 0-.5-.2-.2-.1-.3-.2-.3-.4z"/><path d="M33.3 21.9c-.2 0-.4 0-.6.1-.2.1-.3.3-.3.5s0 .4.1.6c.1.2.3.3.5.3 4.1.7 4.9 1.7 4.9 1.9 0 .8-4.4 2.6-13 2.6S12 26 12 25.3c0-.2.9-1.2 4.9-1.9.2 0 .4-.1.5-.3.1-.2.2-.4.1-.6 0-.2-.1-.4-.3-.5-.2-.1-.4-.2-.6-.1-2.8.5-6.1 1.5-6.1 3.4 0 2.4 5.1 3.3 8.2 3.7.6 1.1 1.5 2 2.6 2.7 1.1.7 2.3 1 3.6 1s2.5-.3 3.6-1c1.1-.6 2-1.6 2.6-2.7 3.1-.4 8.2-1.3 8.2-3.7.1-1.9-3.2-2.9-6-3.4zm-10.8 8.7c-.7-.3-1.3-.8-1.8-1.4 2.8.2 5.8.2 8.6 0-.5.6-1.1 1.1-1.8 1.4-1.6.7-3.4.7-5 0zm1.1-24c-.1-.1-.3-.2-.5-.2-8.7 0-16.5 4.8-16.9 5-.1 0-.2.1-.2.2s-.1.3-.1.4v8.7c0 .1 0 .3.1.4l.3.3c.1.1.2.1.4.1.1 0 .3 0 .4-.1 4.9-3.2 10.4-5.4 16.2-6.5.2 0 .3-.1.5-.2.1-.1.2-.3.2-.5v-7c-.2-.3-.2-.4-.4-.6zm-1.2 6.9c-5.3 1.1-10.4 3-15 5.9v-6.9c1.4-.8 7.9-4.3 15-4.5v5.5zm19.1 1.3c0 .2 0 .4-.1.6-.1.1-.3.2-.5.3h-.1c-.2 0-.3-.1-.5-.2 0 0-4.4-3.4-10-3.4-.2 0-.4-.1-.5-.2-.1-.1-.2-.3-.2-.5s.1-.4.2-.5c.1-.1.3-.2.5-.2 4 .1 7.7 1.4 10.9 3.7.2 0 .3.2.3.4z"/><path d="M20.4 11.1c0 .2-.1.4-.2.5-.1.1-.3.2-.5.2h-.1c-2.1 0-4.1.6-5.8 1.8-.1.1-.3.2-.5.2h-.1c-.2 0-.4-.1-.5-.3-.1-.2-.2-.3-.2-.5s.1-.4.3-.5c2-1.4 4.4-2.2 6.8-2.2h.3c.1 0 .2.1.2.2l.2.2c.1.2.1.3.1.4zM34.1 15c0 .2-.2.4-.3.5-.1.1-.2.1-.4.1h-.2c-1-.2-1.9-.3-2.9-.3-.2 0-.4-.1-.5-.2-.1-.1-.2-.3-.2-.5s.1-.4.2-.5c.1-.1.3-.2.5-.2 1.1 0 2.2.1 3.2.3.2 0 .3.1.5.3.1.1.1.3.1.5zm7.4 3c0 .2 0 .4-.1.5-.1.2-.3.3-.5.3h-.1c-.2 0-.3-.1-.5-.2-1.5-1.1-3.2-2-5-2.6-.2-.1-.3-.2-.4-.4-.1-.2-.1-.4 0-.5.1-.2.2-.3.4-.4.2-.1.4-.1.5 0 2 .6 3.8 1.6 5.5 2.8.1.1.2.3.2.5zm-30-4.7c-.3-.3-.8-.5-1.3-.5-.4 0-.7.1-1 .3-.3.2-.5.5-.7.8-.1.3-.2.7-.1 1 .1.4.2.7.5.9.2.3.6.4.9.5h.4c.2 0 .5 0 .7-.1.3-.1.6-.4.8-.7.2-.3.3-.7.3-1 .1-.4-.1-.9-.5-1.2zm-.9 1.2c0 .1 0 .2-.1.2-.1.1-.3.1-.4 0 0 0-.1-.1-.1-.2v-.2c0-.1 0-.1.1-.2 0 0 .1-.1.2-.1h.2c.1 0 .1.1.2.1-.1.3-.1.4-.1.4z"/></svg>