<svg xmlns="http://www.w3.org/2000/svg" xmlns:xlink="http://www.w3.org/1999/xlink" viewBox="0 0 329 176" width="329" height="176" preserveAspectRatio="xMidYMid meet" style="width: 100%; height: 100%; transform: translate3d(0px, 0px, 0px); content-visibility: visible;"><defs><clipPath id="__lottie_element_1958"><rect width="329" height="176" x="0" y="0"></rect></clipPath></defs><g clip-path="url(#__lottie_element_1958)"><g transform="matrix(1.1699999570846558,0,0,1.1699999570846558,-458.5142822265625,-408.2035827636719)" opacity="1" style="display: block;"><g opacity="1" transform="matrix(1,0,0,1,532.43701171875,424.72698974609375)"><path fill="#032E57" fill-opacity="1" d=" M105.93699645996094,-30.727500915527344 C105.93699645996094,-30.727500915527344 105.93699645996094,30.727500915527344 105.93699645996094,30.727500915527344 C105.93699645996094,41.765499114990234 96.9749984741211,50.727500915527344 85.93699645996094,50.727500915527344 C85.93699645996094,50.727500915527344 -85.93699645996094,50.727500915527344 -85.93699645996094,50.727500915527344 C-96.9749984741211,50.727500915527344 -105.93699645996094,41.765499114990234 -105.93699645996094,30.727500915527344 C-105.93699645996094,30.727500915527344 -105.93699645996094,-30.727500915527344 -105.93699645996094,-30.727500915527344 C-105.93699645996094,-41.765499114990234 -96.9749984741211,-50.727500915527344 -85.93699645996094,-50.727500915527344 C-85.93699645996094,-50.727500915527344 85.93699645996094,-50.727500915527344 85.93699645996094,-50.727500915527344 C96.9749984741211,-50.727500915527344 105.93699645996094,-41.765499114990234 105.93699645996094,-30.727500915527344z"></path></g></g><g transform="matrix(1.1699999570846558,0,0,1.1699999570846558,61.843196868896484,73.54389953613281)" opacity="0.7000000000000001" fill="#C3D8EA" font-size="18" font-family="PPNeueMontreal" font-style="normal" font-weight="500" aria-label="Total Portfolio Value" style="display: block;"><g stroke-linecap="butt" stroke-linejoin="round" stroke-miterlimit="4" transform="matrix(1,0,0,1,0,0)" opacity="1" style="display: inherit;" fill="#C3D8EA"><g fill="#C3D8EA"><g transform="matrix(1,0,0,1,0,0)" opacity="1" style="display: block;" fill="#C3D8EA"><path d=" M0.29,-12.91 C0.29,-12.91 0.29,-11.37 0.29,-11.37 C0.29,-11.37 4.64,-11.37 4.64,-11.37 C4.64,-11.37 4.64,0 4.64,0 C4.64,0 6.41,0 6.41,0 C6.41,0 6.41,-11.37 6.41,-11.37 C6.41,-11.37 10.76,-11.37 10.76,-11.37 C10.76,-11.37 10.76,-12.91 10.76,-12.91 C10.76,-12.91 0.29,-12.91 0.29,-12.91z" fill="#C3D8EA"></path><g opacity="1" transform="matrix(0.18000000715255737,0,0,0.18000000715255737,0,0)" fill="#C3D8EA"></g></g></g></g><g stroke-linecap="butt" stroke-linejoin="round" stroke-miterlimit="4" transform="matrix(1,0,0,1,10.598400115966797,0)" opacity="1" style="display: inherit;" fill="#C3D8EA"><g fill="#C3D8EA"><g transform="matrix(1,0,0,1,0,0)" opacity="1" style="display: block;" fill="#C3D8EA"><path d=" M4.93,-9.69 C3.58,-9.69 2.51,-9.22 1.71,-8.28 C0.92,-7.34 0.52,-6.09 0.52,-4.5 C0.52,-3.03 0.9,-1.85 1.65,-0.98 C2.41,-0.1 3.43,0.33 4.72,0.33 C6.26,0.33 7.4,-0.16 8.13,-1.15 C8.86,-2.14 9.23,-3.39 9.23,-4.91 C9.23,-6.48 8.81,-7.67 7.98,-8.47 C7.15,-9.28 6.13,-9.69 4.93,-9.69z M4.86,-1.03 C3.92,-1.03 3.23,-1.36 2.8,-2.03 C2.36,-2.7 2.14,-3.53 2.14,-4.53 C2.14,-5.57 2.36,-6.46 2.8,-7.2 C3.23,-7.94 3.93,-8.31 4.88,-8.31 C5.96,-8.31 6.72,-7.87 7.16,-7.01 C7.44,-6.46 7.58,-5.74 7.58,-4.86 C7.58,-3.89 7.38,-3.01 7,-2.22 C6.61,-1.42 5.9,-1.03 4.86,-1.03z" fill="#C3D8EA"></path><g opacity="1" transform="matrix(0.18000000715255737,0,0,0.18000000715255737,0,0)" fill="#C3D8EA"></g></g></g></g><g stroke-linecap="butt" stroke-linejoin="round" stroke-miterlimit="4" transform="matrix(1,0,0,1,20.214000701904297,0)" opacity="1" style="display: inherit;" fill="#C3D8EA"><g fill="#C3D8EA"><g transform="matrix(1,0,0,1,0,0)" opacity="1" style="display: block;" fill="#C3D8EA"><path d=" M1.48,-9.41 C1.48,-9.41 0.2,-9.41 0.2,-9.41 C0.2,-9.41 0.2,-8.12 0.2,-8.12 C0.2,-8.12 1.48,-8.12 1.48,-8.12 C1.48,-8.12 1.48,-1.89 1.48,-1.89 C1.48,-1.29 1.61,-0.8 1.87,-0.42 C2.14,-0.04 2.64,0.15 3.38,0.15 C3.6,0.15 3.82,0.14 4.01,0.11 C4.21,0.09 4.4,0.05 4.58,0 C4.58,0 4.58,-1.26 4.58,-1.26 C4.46,-1.24 4.36,-1.23 4.27,-1.23 C4.18,-1.22 4.1,-1.22 4.03,-1.22 C3.74,-1.22 3.53,-1.25 3.41,-1.32 C3.19,-1.43 3.08,-1.65 3.08,-1.98 C3.08,-1.98 3.08,-8.12 3.08,-8.12 C3.08,-8.12 4.58,-8.12 4.58,-8.12 C4.58,-8.12 4.58,-9.41 4.58,-9.41 C4.58,-9.41 3.08,-9.41 3.08,-9.41 C3.08,-9.41 3.08,-12.04 3.08,-12.04 C3.08,-12.04 1.48,-12.04 1.48,-12.04 C1.48,-12.04 1.48,-9.41 1.48,-9.41z" fill="#C3D8EA"></path><g opacity="1" transform="matrix(0.18000000715255737,0,0,0.18000000715255737,0,0)" fill="#C3D8EA"></g></g></g></g><g stroke-linecap="butt" stroke-linejoin="round" stroke-miterlimit="4" transform="matrix(1,0,0,1,24.818401336669922,0)" opacity="1" style="display: inherit;" fill="#C3D8EA"><g fill="#C3D8EA"><g transform="matrix(1,0,0,1,0,0)" opacity="1" style="display: block;" fill="#C3D8EA"><path d=" M3.68,-5.38 C2.8,-5.27 2.08,-4.97 1.54,-4.49 C0.99,-4.01 0.72,-3.34 0.72,-2.47 C0.72,-1.67 1,-1.01 1.55,-0.48 C2.1,0.05 2.82,0.32 3.69,0.32 C4.42,0.32 5.08,0.16 5.69,-0.15 C6.29,-0.46 6.75,-0.83 7.08,-1.25 C7.13,-0.87 7.22,-0.58 7.35,-0.38 C7.59,0.01 7.99,0.2 8.53,0.2 C8.76,0.2 8.93,0.19 9.06,0.18 C9.19,0.16 9.38,0.11 9.62,0.04 C9.62,0.04 9.62,-1.12 9.62,-1.12 C9.52,-1.11 9.43,-1.09 9.34,-1.09 C9.25,-1.08 9.18,-1.07 9.11,-1.07 C8.89,-1.07 8.75,-1.12 8.68,-1.22 C8.61,-1.32 8.58,-1.45 8.58,-1.62 C8.58,-1.62 8.58,-7.04 8.58,-7.04 C8.58,-7.93 8.24,-8.59 7.55,-9.01 C6.86,-9.43 5.96,-9.64 4.86,-9.64 C3.9,-9.64 3.06,-9.41 2.34,-8.96 C1.62,-8.5 1.24,-7.69 1.21,-6.53 C1.21,-6.53 2.69,-6.53 2.69,-6.53 C2.75,-7.02 2.87,-7.39 3.07,-7.63 C3.41,-8.08 4,-8.31 4.82,-8.31 C5.53,-8.31 6.08,-8.18 6.47,-7.94 C6.85,-7.7 7.04,-7.3 7.04,-6.76 C7.04,-6.5 7,-6.29 6.93,-6.15 C6.81,-5.9 6.57,-5.74 6.21,-5.7 C6.21,-5.7 3.68,-5.38 3.68,-5.38z M2.37,-2.5 C2.37,-3.1 2.62,-3.54 3.11,-3.82 C3.4,-3.98 3.83,-4.1 4.4,-4.18 C4.4,-4.18 5.36,-4.3 5.36,-4.3 C5.65,-4.33 5.95,-4.39 6.25,-4.48 C6.55,-4.56 6.8,-4.66 7,-4.78 C7,-4.78 7,-3.51 7,-3.51 C7,-2.54 6.56,-1.84 5.68,-1.41 C5.16,-1.16 4.62,-1.03 4.06,-1.03 C3.6,-1.03 3.21,-1.16 2.87,-1.42 C2.54,-1.69 2.37,-2.05 2.37,-2.5z" fill="#C3D8EA"></path><g opacity="1" transform="matrix(0.18000000715255737,0,0,0.18000000715255737,0,0)" fill="#C3D8EA"></g></g></g></g><g stroke-linecap="butt" stroke-linejoin="round" stroke-miterlimit="4" transform="matrix(1,0,0,1,34.43400192260742,0)" opacity="1" style="display: inherit;" fill="#C3D8EA"><g fill="#C3D8EA"><g transform="matrix(1,0,0,1,0,0)" opacity="1" style="display: block;" fill="#C3D8EA"><path d=" M1.2,0 C1.2,0 2.79,0 2.79,0 C2.79,0 2.79,-12.91 2.79,-12.91 C2.79,-12.91 1.2,-12.91 1.2,-12.91 C1.2,-12.91 1.2,0 1.2,0z" fill="#C3D8EA"></path><g opacity="1" transform="matrix(0.18000000715255737,0,0,0.18000000715255737,0,0)" fill="#C3D8EA"></g></g></g></g><g stroke-linecap="butt" stroke-linejoin="round" stroke-miterlimit="4" transform="matrix(1,0,0,1,38.03759765625,0)" opacity="1" style="display: inherit;" fill="#C3D8EA"><g fill="#C3D8EA"><g style="display: none;" fill="#C3D8EA"></g></g></g><g stroke-linecap="butt" stroke-linejoin="round" stroke-miterlimit="4" transform="matrix(1,0,0,1,42.641998291015625,0)" opacity="1" style="display: inherit;" fill="#C3D8EA"><g fill="#C3D8EA"><g transform="matrix(1,0,0,1,0,0)" opacity="1" style="display: block;" fill="#C3D8EA"><path d=" M9.37,-9.2 C9.37,-8.36 9.13,-7.77 8.64,-7.44 C8.15,-7.1 7.52,-6.93 6.74,-6.93 C6.74,-6.93 3.29,-6.93 3.29,-6.93 C3.29,-6.93 3.29,-11.41 3.29,-11.41 C3.29,-11.41 6.74,-11.41 6.74,-11.41 C7.41,-11.41 7.94,-11.32 8.32,-11.14 C9.02,-10.8 9.37,-10.15 9.37,-9.2z M1.54,0 C1.54,0 3.29,0 3.29,0 C3.29,0 3.29,-5.46 3.29,-5.46 C3.29,-5.46 7.32,-5.46 7.32,-5.46 C8.61,-5.46 9.57,-5.83 10.2,-6.58 C10.82,-7.33 11.14,-8.2 11.14,-9.21 C11.14,-10.38 10.78,-11.29 10.08,-11.94 C9.38,-12.59 8.46,-12.91 7.32,-12.91 C7.32,-12.91 1.54,-12.91 1.54,-12.91 C1.54,-12.91 1.54,0 1.54,0z" fill="#C3D8EA"></path><g opacity="1" transform="matrix(0.18000000715255737,0,0,0.18000000715255737,0,0)" fill="#C3D8EA"></g></g></g></g><g stroke-linecap="butt" stroke-linejoin="round" stroke-miterlimit="4" transform="matrix(1,0,0,1,54.25199890136719,0)" opacity="1" style="display: inherit;" fill="#C3D8EA"><g fill="#C3D8EA"><g transform="matrix(1,0,0,1,0,0)" opacity="1" style="display: block;" fill="#C3D8EA"><path d=" M4.93,-9.69 C3.58,-9.69 2.51,-9.22 1.71,-8.28 C0.92,-7.34 0.52,-6.09 0.52,-4.5 C0.52,-3.03 0.9,-1.85 1.65,-0.98 C2.41,-0.1 3.43,0.33 4.72,0.33 C6.26,0.33 7.4,-0.16 8.13,-1.15 C8.86,-2.14 9.23,-3.39 9.23,-4.91 C9.23,-6.48 8.81,-7.67 7.98,-8.47 C7.15,-9.28 6.13,-9.69 4.93,-9.69z M4.86,-1.03 C3.92,-1.03 3.23,-1.36 2.8,-2.03 C2.36,-2.7 2.14,-3.53 2.14,-4.53 C2.14,-5.57 2.36,-6.46 2.8,-7.2 C3.23,-7.94 3.93,-8.31 4.88,-8.31 C5.96,-8.31 6.72,-7.87 7.16,-7.01 C7.44,-6.46 7.58,-5.74 7.58,-4.86 C7.58,-3.89 7.38,-3.01 7,-2.22 C6.61,-1.42 5.9,-1.03 4.86,-1.03z" fill="#C3D8EA"></path><g opacity="1" transform="matrix(0.18000000715255737,0,0,0.18000000715255737,0,0)" fill="#C3D8EA"></g></g></g></g><g stroke-linecap="butt" stroke-linejoin="round" stroke-miterlimit="4" transform="matrix(1,0,0,1,63.86760330200195,0)" opacity="1" style="display: inherit;" fill="#C3D8EA"><g fill="#C3D8EA"><g transform="matrix(1,0,0,1,0,0)" opacity="1" style="display: block;" fill="#C3D8EA"><path d=" M1.2,0 C1.2,0 2.79,0 2.79,0 C2.79,0 2.79,-5.41 2.79,-5.41 C2.79,-6.08 3,-6.67 3.43,-7.19 C3.86,-7.7 4.47,-7.95 5.26,-7.95 C5.36,-7.95 5.44,-7.95 5.52,-7.95 C5.6,-7.94 5.69,-7.93 5.78,-7.91 C5.78,-7.91 5.78,-9.58 5.78,-9.58 C5.61,-9.6 5.49,-9.61 5.42,-9.62 C5.35,-9.62 5.3,-9.62 5.27,-9.62 C4.65,-9.62 4.09,-9.4 3.61,-8.94 C3.13,-8.49 2.83,-8.1 2.71,-7.79 C2.71,-7.79 2.71,-9.41 2.71,-9.41 C2.71,-9.41 1.2,-9.41 1.2,-9.41 C1.2,-9.41 1.2,0 1.2,0z" fill="#C3D8EA"></path><g opacity="1" transform="matrix(0.18000000715255737,0,0,0.18000000715255737,0,0)" fill="#C3D8EA"></g></g></g></g><g stroke-linecap="butt" stroke-linejoin="round" stroke-miterlimit="4" transform="matrix(1,0,0,1,69.4655990600586,0)" opacity="1" style="display: inherit;" fill="#C3D8EA"><g fill="#C3D8EA"><g transform="matrix(1,0,0,1,0,0)" opacity="1" style="display: block;" fill="#C3D8EA"><path d=" M1.48,-9.41 C1.48,-9.41 0.2,-9.41 0.2,-9.41 C0.2,-9.41 0.2,-8.12 0.2,-8.12 C0.2,-8.12 1.48,-8.12 1.48,-8.12 C1.48,-8.12 1.48,-1.89 1.48,-1.89 C1.48,-1.29 1.61,-0.8 1.87,-0.42 C2.14,-0.04 2.64,0.15 3.38,0.15 C3.6,0.15 3.82,0.14 4.01,0.11 C4.21,0.09 4.4,0.05 4.58,0 C4.58,0 4.58,-1.26 4.58,-1.26 C4.46,-1.24 4.36,-1.23 4.27,-1.23 C4.18,-1.22 4.1,-1.22 4.03,-1.22 C3.74,-1.22 3.53,-1.25 3.41,-1.32 C3.19,-1.43 3.08,-1.65 3.08,-1.98 C3.08,-1.98 3.08,-8.12 3.08,-8.12 C3.08,-8.12 4.58,-8.12 4.58,-8.12 C4.58,-8.12 4.58,-9.41 4.58,-9.41 C4.58,-9.41 3.08,-9.41 3.08,-9.41 C3.08,-9.41 3.08,-12.04 3.08,-12.04 C3.08,-12.04 1.48,-12.04 1.48,-12.04 C1.48,-12.04 1.48,-9.41 1.48,-9.41z" fill="#C3D8EA"></path><g opacity="1" transform="matrix(0.18000000715255737,0,0,0.18000000715255737,0,0)" fill="#C3D8EA"></g></g></g></g><g stroke-linecap="butt" stroke-linejoin="round" stroke-miterlimit="4" transform="matrix(1,0,0,1,74.06999969482422,0)" opacity="1" style="display: inherit;" fill="#C3D8EA"><g fill="#C3D8EA"><g transform="matrix(1,0,0,1,0,0)" opacity="1" style="display: block;" fill="#C3D8EA"><path d=" M1.56,-10.85 C1.56,-10.85 1.56,-9.37 1.56,-9.37 C1.56,-9.37 0.25,-9.37 0.25,-9.37 C0.25,-9.37 0.25,-8.12 0.25,-8.12 C0.25,-8.12 1.56,-8.12 1.56,-8.12 C1.56,-8.12 1.56,0 1.56,0 C1.56,0 3.12,0 3.12,0 C3.12,0 3.12,-8.12 3.12,-8.12 C3.12,-8.12 4.7,-8.12 4.7,-8.12 C4.7,-8.12 4.7,-9.37 4.7,-9.37 C4.7,-9.37 3.12,-9.37 3.12,-9.37 C3.12,-10.39 3.17,-11.02 3.26,-11.27 C3.36,-11.52 3.65,-11.65 4.13,-11.65 C4.2,-11.65 4.27,-11.64 4.34,-11.64 C4.42,-11.64 4.54,-11.63 4.7,-11.62 C4.7,-11.62 4.7,-13.06 4.7,-13.06 C4.57,-13.07 4.45,-13.08 4.34,-13.09 C4.24,-13.09 4.13,-13.1 4.03,-13.1 C2.98,-13.1 2.27,-12.83 1.9,-12.29 C1.69,-11.98 1.58,-11.5 1.56,-10.85z" fill="#C3D8EA"></path><g opacity="1" transform="matrix(0.18000000715255737,0,0,0.18000000715255737,0,0)" fill="#C3D8EA"></g></g></g></g><g stroke-linecap="butt" stroke-linejoin="round" stroke-miterlimit="4" transform="matrix(1,0,0,1,78.3593978881836,0)" opacity="1" style="display: inherit;" fill="#C3D8EA"><g fill="#C3D8EA"><g transform="matrix(1,0,0,1,0,0)" opacity="1" style="display: block;" fill="#C3D8EA"><path d=" M4.93,-9.69 C3.58,-9.69 2.51,-9.22 1.71,-8.28 C0.92,-7.34 0.52,-6.09 0.52,-4.5 C0.52,-3.03 0.9,-1.85 1.65,-0.98 C2.41,-0.1 3.43,0.33 4.72,0.33 C6.26,0.33 7.4,-0.16 8.13,-1.15 C8.86,-2.14 9.23,-3.39 9.23,-4.91 C9.23,-6.48 8.81,-7.67 7.98,-8.47 C7.15,-9.28 6.13,-9.69 4.93,-9.69z M4.86,-1.03 C3.92,-1.03 3.23,-1.36 2.8,-2.03 C2.36,-2.7 2.14,-3.53 2.14,-4.53 C2.14,-5.57 2.36,-6.46 2.8,-7.2 C3.23,-7.94 3.93,-8.31 4.88,-8.31 C5.96,-8.31 6.72,-7.87 7.16,-7.01 C7.44,-6.46 7.58,-5.74 7.58,-4.86 C7.58,-3.89 7.38,-3.01 7,-2.22 C6.61,-1.42 5.9,-1.03 4.86,-1.03z" fill="#C3D8EA"></path><g opacity="1" transform="matrix(0.18000000715255737,0,0,0.18000000715255737,0,0)" fill="#C3D8EA"></g></g></g></g><g stroke-linecap="butt" stroke-linejoin="round" stroke-miterlimit="4" transform="matrix(1,0,0,1,87.9749984741211,0)" opacity="1" style="display: inherit;" fill="#C3D8EA"><g fill="#C3D8EA"><g transform="matrix(1,0,0,1,0,0)" opacity="1" style="display: block;" fill="#C3D8EA"><path d=" M1.2,0 C1.2,0 2.79,0 2.79,0 C2.79,0 2.79,-12.91 2.79,-12.91 C2.79,-12.91 1.2,-12.91 1.2,-12.91 C1.2,-12.91 1.2,0 1.2,0z" fill="#C3D8EA"></path><g opacity="1" transform="matrix(0.18000000715255737,0,0,0.18000000715255737,0,0)" fill="#C3D8EA"></g></g></g></g><g stroke-linecap="butt" stroke-linejoin="round" stroke-miterlimit="4" transform="matrix(1,0,0,1,91.57859802246094,0)" opacity="1" style="display: inherit;" fill="#C3D8EA"><g fill="#C3D8EA"><g transform="matrix(1,0,0,1,0,0)" opacity="1" style="display: block;" fill="#C3D8EA"><path d=" M1.16,-11.12 C1.16,-11.12 2.77,-11.12 2.77,-11.12 C2.77,-11.12 2.77,-12.91 2.77,-12.91 C2.77,-12.91 1.16,-12.91 1.16,-12.91 C1.16,-12.91 1.16,-11.12 1.16,-11.12z M1.16,0 C1.16,0 2.77,0 2.77,0 C2.77,0 2.77,-9.37 2.77,-9.37 C2.77,-9.37 1.16,-9.37 1.16,-9.37 C1.16,-9.37 1.16,0 1.16,0z" fill="#C3D8EA"></path><g opacity="1" transform="matrix(0.18000000715255737,0,0,0.18000000715255737,0,0)" fill="#C3D8EA"></g></g></g></g><g stroke-linecap="butt" stroke-linejoin="round" stroke-miterlimit="4" transform="matrix(1,0,0,1,95.18219757080078,0)" opacity="1" style="display: inherit;" fill="#C3D8EA"><g fill="#C3D8EA"><g transform="matrix(1,0,0,1,0,0)" opacity="1" style="display: block;" fill="#C3D8EA"><path d=" M4.93,-9.69 C3.58,-9.69 2.51,-9.22 1.71,-8.28 C0.92,-7.34 0.52,-6.09 0.52,-4.5 C0.52,-3.03 0.9,-1.85 1.65,-0.98 C2.41,-0.1 3.43,0.33 4.72,0.33 C6.26,0.33 7.4,-0.16 8.13,-1.15 C8.86,-2.14 9.23,-3.39 9.23,-4.91 C9.23,-6.48 8.81,-7.67 7.98,-8.47 C7.15,-9.28 6.13,-9.69 4.93,-9.69z M4.86,-1.03 C3.92,-1.03 3.23,-1.36 2.8,-2.03 C2.36,-2.7 2.14,-3.53 2.14,-4.53 C2.14,-5.57 2.36,-6.46 2.8,-7.2 C3.23,-7.94 3.93,-8.31 4.88,-8.31 C5.96,-8.31 6.72,-7.87 7.16,-7.01 C7.44,-6.46 7.58,-5.74 7.58,-4.86 C7.58,-3.89 7.38,-3.01 7,-2.22 C6.61,-1.42 5.9,-1.03 4.86,-1.03z" fill="#C3D8EA"></path><g opacity="1" transform="matrix(0.18000000715255737,0,0,0.18000000715255737,0,0)" fill="#C3D8EA"></g></g></g></g><g stroke-linecap="butt" stroke-linejoin="round" stroke-miterlimit="4" transform="matrix(1,0,0,1,104.79779815673828,0)" opacity="1" style="display: inherit;" fill="#C3D8EA"><g fill="#C3D8EA"><g style="display: none;" fill="#C3D8EA"></g></g></g><g stroke-linecap="butt" stroke-linejoin="round" stroke-miterlimit="4" transform="matrix(1,0,0,1,109.4021987915039,0)" opacity="1" style="display: inherit;" fill="#C3D8EA"><g fill="#C3D8EA"><g transform="matrix(1,0,0,1,0,0)" opacity="1" style="display: block;" fill="#C3D8EA"><path d=" M0.46,-12.91 C0.46,-12.91 5.16,0 5.16,0 C5.16,0 7.02,0 7.02,0 C7.02,0 11.73,-12.91 11.73,-12.91 C11.73,-12.91 9.77,-12.91 9.77,-12.91 C9.77,-12.91 6.1,-1.92 6.1,-1.92 C6.1,-1.92 2.4,-12.91 2.4,-12.91 C2.4,-12.91 0.46,-12.91 0.46,-12.91z" fill="#C3D8EA"></path><g opacity="1" transform="matrix(0.18000000715255737,0,0,0.18000000715255737,0,0)" fill="#C3D8EA"></g></g></g></g><g stroke-linecap="butt" stroke-linejoin="round" stroke-miterlimit="4" transform="matrix(1,0,0,1,121.01219940185547,0)" opacity="1" style="display: inherit;" fill="#C3D8EA"><g fill="#C3D8EA"><g transform="matrix(1,0,0,1,0,0)" opacity="1" style="display: block;" fill="#C3D8EA"><path d=" M3.68,-5.38 C2.8,-5.27 2.08,-4.97 1.54,-4.49 C0.99,-4.01 0.72,-3.34 0.72,-2.47 C0.72,-1.67 1,-1.01 1.55,-0.48 C2.1,0.05 2.82,0.32 3.69,0.32 C4.42,0.32 5.08,0.16 5.69,-0.15 C6.29,-0.46 6.75,-0.83 7.08,-1.25 C7.13,-0.87 7.22,-0.58 7.35,-0.38 C7.59,0.01 7.99,0.2 8.53,0.2 C8.76,0.2 8.93,0.19 9.06,0.18 C9.19,0.16 9.38,0.11 9.62,0.04 C9.62,0.04 9.62,-1.12 9.62,-1.12 C9.52,-1.11 9.43,-1.09 9.34,-1.09 C9.25,-1.08 9.18,-1.07 9.11,-1.07 C8.89,-1.07 8.75,-1.12 8.68,-1.22 C8.61,-1.32 8.58,-1.45 8.58,-1.62 C8.58,-1.62 8.58,-7.04 8.58,-7.04 C8.58,-7.93 8.24,-8.59 7.55,-9.01 C6.86,-9.43 5.96,-9.64 4.86,-9.64 C3.9,-9.64 3.06,-9.41 2.34,-8.96 C1.62,-8.5 1.24,-7.69 1.21,-6.53 C1.21,-6.53 2.69,-6.53 2.69,-6.53 C2.75,-7.02 2.87,-7.39 3.07,-7.63 C3.41,-8.08 4,-8.31 4.82,-8.31 C5.53,-8.31 6.08,-8.18 6.47,-7.94 C6.85,-7.7 7.04,-7.3 7.04,-6.76 C7.04,-6.5 7,-6.29 6.93,-6.15 C6.81,-5.9 6.57,-5.74 6.21,-5.7 C6.21,-5.7 3.68,-5.38 3.68,-5.38z M2.37,-2.5 C2.37,-3.1 2.62,-3.54 3.11,-3.82 C3.4,-3.98 3.83,-4.1 4.4,-4.18 C4.4,-4.18 5.36,-4.3 5.36,-4.3 C5.65,-4.33 5.95,-4.39 6.25,-4.48 C6.55,-4.56 6.8,-4.66 7,-4.78 C7,-4.78 7,-3.51 7,-3.51 C7,-2.54 6.56,-1.84 5.68,-1.41 C5.16,-1.16 4.62,-1.03 4.06,-1.03 C3.6,-1.03 3.21,-1.16 2.87,-1.42 C2.54,-1.69 2.37,-2.05 2.37,-2.5z" fill="#C3D8EA"></path><g opacity="1" transform="matrix(0.18000000715255737,0,0,0.18000000715255737,0,0)" fill="#C3D8EA"></g></g></g></g><g stroke-linecap="butt" stroke-linejoin="round" stroke-miterlimit="4" transform="matrix(1,0,0,1,130.6278076171875,0)" opacity="1" style="display: inherit;" fill="#C3D8EA"><g fill="#C3D8EA"><g transform="matrix(1,0,0,1,0,0)" opacity="1" style="display: block;" fill="#C3D8EA"><path d=" M1.2,0 C1.2,0 2.79,0 2.79,0 C2.79,0 2.79,-12.91 2.79,-12.91 C2.79,-12.91 1.2,-12.91 1.2,-12.91 C1.2,-12.91 1.2,0 1.2,0z" fill="#C3D8EA"></path><g opacity="1" transform="matrix(0.18000000715255737,0,0,0.18000000715255737,0,0)" fill="#C3D8EA"></g></g></g></g><g stroke-linecap="butt" stroke-linejoin="round" stroke-miterlimit="4" transform="matrix(1,0,0,1,134.2313995361328,0)" opacity="1" style="display: inherit;" fill="#C3D8EA"><g fill="#C3D8EA"><g transform="matrix(1,0,0,1,0,0)" opacity="1" style="display: block;" fill="#C3D8EA"><path d=" M1.13,-9.41 C1.13,-9.41 1.13,-3.01 1.13,-3.01 C1.13,-2.21 1.25,-1.57 1.51,-1.09 C1.99,-0.19 2.89,0.25 4.2,0.25 C5.05,0.25 5.77,0.01 6.36,-0.48 C6.66,-0.73 6.91,-1.03 7.11,-1.39 C7.11,-1.39 7.09,0 7.09,0 C7.09,0 8.59,0 8.59,0 C8.59,0 8.59,-9.41 8.59,-9.41 C8.59,-9.41 7,-9.41 7,-9.41 C7,-9.41 7,-4.79 7,-4.79 C7,-3.87 6.9,-3.15 6.69,-2.62 C6.3,-1.63 5.57,-1.14 4.5,-1.14 C3.75,-1.14 3.24,-1.42 2.96,-1.99 C2.82,-2.29 2.74,-2.68 2.74,-3.16 C2.74,-3.16 2.74,-9.41 2.74,-9.41 C2.74,-9.41 1.13,-9.41 1.13,-9.41z" fill="#C3D8EA"></path><g opacity="1" transform="matrix(0.18000000715255737,0,0,0.18000000715255737,0,0)" fill="#C3D8EA"></g></g></g></g><g stroke-linecap="butt" stroke-linejoin="round" stroke-miterlimit="4" transform="matrix(1,0,0,1,143.8470001220703,0)" opacity="1" style="display: inherit;" fill="#C3D8EA"><g fill="#C3D8EA"><g transform="matrix(1,0,0,1,0,0)" opacity="1" style="display: block;" fill="#C3D8EA"><path d=" M2.36,-5.46 C2.38,-6.27 2.64,-6.93 3.13,-7.46 C3.62,-7.98 4.22,-8.24 4.94,-8.24 C5.95,-8.24 6.67,-7.86 7.1,-7.1 C7.33,-6.69 7.48,-6.14 7.54,-5.46 C7.54,-5.46 2.36,-5.46 2.36,-5.46z M5.04,-9.62 C3.73,-9.62 2.66,-9.15 1.85,-8.21 C1.03,-7.27 0.62,-6.04 0.62,-4.53 C0.62,-2.99 1.03,-1.8 1.84,-0.94 C2.65,-0.09 3.63,0.33 4.8,0.33 C5.28,0.33 5.7,0.29 6.08,0.19 C6.78,0.03 7.37,-0.29 7.85,-0.76 C8.14,-1.03 8.4,-1.37 8.63,-1.8 C8.86,-2.22 8.99,-2.61 9.04,-2.95 C9.04,-2.95 7.48,-2.95 7.48,-2.95 C7.37,-2.54 7.17,-2.17 6.9,-1.85 C6.41,-1.3 5.76,-1.03 4.94,-1.03 C4.06,-1.03 3.41,-1.32 2.99,-1.9 C2.57,-2.48 2.35,-3.24 2.32,-4.2 C2.32,-4.2 9.17,-4.2 9.17,-4.2 C9.17,-5.15 9.12,-5.84 9.03,-6.28 C8.92,-6.91 8.71,-7.46 8.4,-7.94 C8.07,-8.43 7.6,-8.84 6.97,-9.15 C6.35,-9.47 5.71,-9.62 5.04,-9.62z" fill="#C3D8EA"></path><g opacity="1" transform="matrix(0.18000000715255737,0,0,0.18000000715255737,0,0)" fill="#C3D8EA"></g></g></g></g></g><g class="55" transform="matrix(1.1699999570846558,0,0,1.1699999570846558,61.25819778442383,116.83390045166016)" opacity="1" fill="#C3D8EA" font-size="32" font-family="PPNeueMontreal" font-style="normal" font-weight="500" aria-label="$43,892.55" style="display: block;"><g stroke-linecap="butt" stroke-linejoin="round" stroke-miterlimit="4" transform="matrix(1,0,0,1,0,0)" opacity="1" style="display: inherit;" fill="#C3D8EA"><g fill="#C3D8EA"><g transform="matrix(1,0,0,1,0,0)" opacity="1" style="display: block;" fill="#C3D8EA"><path d=" M1.44,-16.52 C1.44,-14.74 1.98,-13.36 3.05,-12.36 C4.13,-11.36 5.8,-10.65 8.06,-10.22 C8.06,-10.22 8.06,-1.7 8.06,-1.7 C6.3,-1.85 5.09,-2.51 4.44,-3.69 C4.08,-4.34 3.85,-5.39 3.77,-6.81 C3.77,-6.81 1,-6.81 1,-6.81 C1,-5.02 1.3,-3.6 1.89,-2.55 C2.97,-0.6 5.03,0.47 8.06,0.67 C8.06,0.67 8.06,3.7 8.06,3.7 C8.06,3.7 9.55,3.7 9.55,3.7 C9.55,3.7 9.55,0.67 9.55,0.67 C11.43,0.46 12.87,0.04 13.87,-0.61 C15.68,-1.78 16.58,-3.74 16.58,-6.52 C16.58,-8.43 15.88,-9.88 14.47,-10.86 C13.6,-11.45 11.96,-12.09 9.55,-12.77 C9.55,-12.77 9.55,-20.38 9.55,-20.38 C10.98,-20.32 12.03,-19.77 12.69,-18.72 C13.04,-18.15 13.26,-17.46 13.33,-16.67 C13.33,-16.67 16.06,-16.67 16.06,-16.67 C16.01,-18.44 15.43,-19.86 14.32,-20.93 C13.21,-22.01 11.62,-22.62 9.55,-22.77 C9.55,-22.77 9.55,-24.81 9.55,-24.81 C9.55,-24.81 8.06,-24.81 8.06,-24.81 C8.06,-24.81 8.06,-22.73 8.06,-22.73 C5.97,-22.71 4.34,-22.07 3.18,-20.8 C2.02,-19.53 1.44,-18.1 1.44,-16.52z M4.25,-16.7 C4.25,-17.56 4.54,-18.38 5.12,-19.16 C5.71,-19.94 6.69,-20.35 8.06,-20.41 C8.06,-20.41 8.06,-13.06 8.06,-13.06 C6.9,-13.29 5.97,-13.7 5.28,-14.28 C4.59,-14.86 4.25,-15.67 4.25,-16.7z M9.55,-1.62 C9.55,-1.62 9.55,-9.84 9.55,-9.84 C10.85,-9.49 11.78,-9.11 12.33,-8.72 C13.29,-8.04 13.77,-7.05 13.77,-5.75 C13.77,-4.93 13.59,-4.2 13.23,-3.58 C12.56,-2.36 11.33,-1.71 9.55,-1.62z" fill="#C3D8EA"></path><g opacity="1" transform="matrix(0.3199999928474426,0,0,0.3199999928474426,0,0)" fill="#C3D8EA"></g></g></g></g><g stroke-linecap="butt" stroke-linejoin="round" stroke-miterlimit="4" transform="matrix(1,0,0,1,18.72640037536621,0)" opacity="1" style="display: inherit;" fill="#C3D8EA"><g fill="#C3D8EA"><g transform="matrix(1,0,0,1,0,0)" opacity="1" style="display: block;" fill="#C3D8EA"><path d=" M13.44,0 C13.44,0 13.44,-5.47 13.44,-5.47 C13.44,-5.47 16.73,-5.47 16.73,-5.47 C16.73,-5.47 16.73,-7.92 16.73,-7.92 C16.73,-7.92 13.44,-7.92 13.44,-7.92 C13.44,-7.92 13.44,-22.44 13.44,-22.44 C13.44,-22.44 11.06,-22.44 11.06,-22.44 C11.06,-22.44 0.81,-8.22 0.81,-8.22 C0.81,-8.22 0.81,-5.47 0.81,-5.47 C0.81,-5.47 10.62,-5.47 10.62,-5.47 C10.62,-5.47 10.62,0 10.62,0 C10.62,0 13.44,0 13.44,0z M3.41,-7.92 C3.41,-7.92 10.58,-18.08 10.58,-18.08 C10.58,-18.08 10.58,-7.92 10.58,-7.92 C10.58,-7.92 3.41,-7.92 3.41,-7.92z" fill="#C3D8EA"></path><g opacity="1" transform="matrix(0.3199999928474426,0,0,0.3199999928474426,0,0)" fill="#C3D8EA"></g></g></g></g><g stroke-linecap="butt" stroke-linejoin="round" stroke-miterlimit="4" transform="matrix(1,0,0,1,37.45280075073242,0)" opacity="1" style="display: inherit;" fill="#C3D8EA"><g fill="#C3D8EA"><g transform="matrix(1,0,0,1,0,0)" opacity="1" style="display: block;" fill="#C3D8EA"><path d=" M8.31,0.61 C10.9,0.61 12.89,-0.06 14.3,-1.41 C15.7,-2.75 16.41,-4.49 16.41,-6.62 C16.41,-7.96 16.08,-9.09 15.41,-10.01 C14.75,-10.93 13.83,-11.55 12.66,-11.87 C13.39,-12.18 13.98,-12.59 14.44,-13.13 C15.18,-13.98 15.55,-15.09 15.55,-16.47 C15.55,-18.4 14.92,-19.87 13.67,-20.88 C12.42,-21.9 10.66,-22.41 8.38,-22.41 C5.49,-22.41 3.47,-21.36 2.33,-19.28 C1.66,-18.11 1.33,-16.7 1.33,-15.03 C1.33,-15.03 4.11,-15.03 4.11,-15.03 C4.16,-16.3 4.39,-17.28 4.78,-17.97 C5.5,-19.22 6.8,-19.84 8.67,-19.84 C9.72,-19.84 10.65,-19.54 11.44,-18.94 C12.23,-18.33 12.62,-17.47 12.62,-16.36 C12.62,-14.86 12.03,-13.82 10.84,-13.23 C10.17,-12.9 9.3,-12.73 8.25,-12.73 C8.02,-12.73 7.81,-12.74 7.61,-12.75 C7.41,-12.76 7.17,-12.78 6.87,-12.81 C6.87,-12.81 6.87,-10.33 6.87,-10.33 C7.07,-10.34 7.27,-10.35 7.46,-10.35 C7.65,-10.36 7.84,-10.36 8.03,-10.36 C9.71,-10.36 11.02,-10.05 11.96,-9.44 C12.9,-8.82 13.38,-7.74 13.38,-6.2 C13.38,-4.95 12.93,-3.93 12.03,-3.14 C11.14,-2.35 9.95,-1.95 8.47,-1.95 C6.56,-1.95 5.24,-2.54 4.52,-3.72 C4.1,-4.38 3.83,-5.43 3.7,-6.87 C3.7,-6.87 0.77,-6.87 0.77,-6.87 C0.77,-4.79 1.36,-3.02 2.55,-1.57 C3.75,-0.12 5.67,0.61 8.31,0.61z" fill="#C3D8EA"></path><g opacity="1" transform="matrix(0.3199999928474426,0,0,0.3199999928474426,0,0)" fill="#C3D8EA"></g></g></g></g><g stroke-linecap="butt" stroke-linejoin="round" stroke-miterlimit="4" transform="matrix(1,0,0,1,56.179203033447266,0)" opacity="1" style="display: inherit;" fill="#C3D8EA"><g fill="#C3D8EA"><g transform="matrix(1,0,0,1,0,0)" opacity="1" style="display: block;" fill="#C3D8EA"><path d=" M2.66,4.75 C3.89,4.53 4.75,3.95 5.25,3.02 C5.75,2.08 6,0.99 6,-0.25 C6,-0.25 6,-3.41 6,-3.41 C6,-3.41 2.66,-3.41 2.66,-3.41 C2.66,-3.41 2.66,0 2.66,0 C2.66,0 4.36,0 4.36,0 C4.38,0.07 4.39,0.14 4.4,0.2 C4.4,0.25 4.41,0.32 4.41,0.39 C4.41,0.83 4.33,1.29 4.17,1.76 C3.88,2.65 3.38,3.16 2.66,3.28 C2.66,3.28 2.66,4.75 2.66,4.75z" fill="#C3D8EA"></path><g opacity="1" transform="matrix(0.3199999928474426,0,0,0.3199999928474426,0,0)" fill="#C3D8EA"></g></g></g></g><g stroke-linecap="butt" stroke-linejoin="round" stroke-miterlimit="4" transform="matrix(1,0,0,1,65.99679565429688,0)" opacity="1" style="display: inherit;" fill="#C3D8EA"><g fill="#C3D8EA"><g transform="matrix(1,0,0,1,0,0)" opacity="1" style="display: block;" fill="#C3D8EA"><path d=" M4.87,-11.92 C3.6,-11.41 2.65,-10.67 2,-9.71 C1.35,-8.75 1.03,-7.6 1.03,-6.28 C1.03,-4.03 1.78,-2.31 3.29,-1.13 C4.79,0.05 6.64,0.64 8.81,0.64 C11.23,0.64 13.1,-0.04 14.42,-1.41 C15.74,-2.78 16.41,-4.45 16.41,-6.42 C16.41,-8.09 15.91,-9.44 14.92,-10.48 C14.38,-11.04 13.65,-11.53 12.72,-11.95 C13.55,-12.42 14.17,-12.9 14.56,-13.39 C15.27,-14.26 15.62,-15.39 15.62,-16.78 C15.62,-18.29 15.02,-19.61 13.8,-20.74 C12.58,-21.87 10.9,-22.44 8.76,-22.44 C6.54,-22.44 4.83,-21.84 3.62,-20.64 C2.42,-19.44 1.81,-18.01 1.81,-16.34 C1.81,-15.01 2.22,-13.93 3.05,-13.09 C3.48,-12.65 4.09,-12.26 4.87,-11.92z M8.87,-1.92 C7.25,-1.92 6.05,-2.35 5.27,-3.2 C4.5,-4.04 4.11,-5.05 4.11,-6.22 C4.11,-7.57 4.53,-8.63 5.38,-9.4 C6.23,-10.16 7.33,-10.55 8.67,-10.55 C10.06,-10.55 11.19,-10.17 12.08,-9.42 C12.96,-8.67 13.41,-7.57 13.41,-6.13 C13.41,-4.73 12.98,-3.68 12.12,-2.98 C11.26,-2.27 10.18,-1.92 8.87,-1.92z M8.7,-13 C7.63,-13 6.71,-13.3 5.94,-13.89 C5.16,-14.49 4.77,-15.31 4.77,-16.37 C4.77,-17.31 5.07,-18.13 5.67,-18.83 C6.27,-19.53 7.25,-19.87 8.6,-19.87 C9.96,-19.87 10.98,-19.53 11.64,-18.83 C12.31,-18.13 12.64,-17.36 12.64,-16.52 C12.64,-15.56 12.29,-14.74 11.6,-14.04 C10.9,-13.35 9.93,-13 8.7,-13z" fill="#C3D8EA"></path><g opacity="1" transform="matrix(0.3199999928474426,0,0,0.3199999928474426,0,0)" fill="#C3D8EA"></g></g></g></g><g stroke-linecap="butt" stroke-linejoin="round" stroke-miterlimit="4" transform="matrix(1,0,0,1,84.72319793701172,0)" opacity="1" style="display: inherit;" fill="#C3D8EA"><g fill="#C3D8EA"><g transform="matrix(1,0,0,1,0,0)" opacity="1" style="display: block;" fill="#C3D8EA"><path d=" M8.52,-10.02 C6.96,-10.02 5.83,-10.44 5.13,-11.3 C4.42,-12.16 4.06,-13.32 4.06,-14.77 C4.06,-16.31 4.47,-17.54 5.27,-18.46 C6.08,-19.38 7.17,-19.84 8.55,-19.84 C9.83,-19.84 10.88,-19.44 11.71,-18.63 C12.54,-17.83 12.95,-16.6 12.95,-14.96 C12.95,-13.13 12.49,-11.85 11.57,-11.12 C10.65,-10.38 9.63,-10.02 8.52,-10.02z M1.41,-5.42 C1.41,-3.69 1.97,-2.26 3.11,-1.11 C4.24,0.04 5.91,0.61 8.09,0.61 C11.35,0.61 13.67,-1.15 15.03,-4.67 C15.85,-6.78 16.27,-9.21 16.27,-11.94 C16.27,-14.37 15.92,-16.39 15.23,-18 C13.99,-20.94 11.74,-22.41 8.48,-22.41 C6.07,-22.41 4.24,-21.64 3,-20.1 C1.76,-18.56 1.14,-16.77 1.14,-14.74 C1.14,-12.63 1.77,-10.9 3.02,-9.56 C4.28,-8.22 5.98,-7.55 8.14,-7.55 C9.2,-7.55 10.2,-7.75 11.12,-8.15 C12.04,-8.55 12.81,-9.24 13.44,-10.23 C13.04,-6.81 12.37,-4.53 11.42,-3.41 C10.47,-2.29 9.33,-1.73 7.98,-1.73 C7.27,-1.73 6.62,-1.89 6.05,-2.2 C4.93,-2.8 4.33,-3.87 4.25,-5.42 C4.25,-5.42 1.41,-5.42 1.41,-5.42z" fill="#C3D8EA"></path><g opacity="1" transform="matrix(0.3199999928474426,0,0,0.3199999928474426,0,0)" fill="#C3D8EA"></g></g></g></g><g stroke-linecap="butt" stroke-linejoin="round" stroke-miterlimit="4" transform="matrix(1,0,0,1,103.44960021972656,0)" opacity="1" style="display: inherit;" fill="#C3D8EA"><g fill="#C3D8EA"><g transform="matrix(1,0,0,1,0,0)" opacity="1" style="display: block;" fill="#C3D8EA"><path d=" M1,0 C1,0 16.36,0 16.36,0 C16.36,0 16.36,-2.66 16.36,-2.66 C16.36,-2.66 4.14,-2.66 4.14,-2.66 C4.41,-3.76 5.07,-4.77 6.11,-5.67 C6.69,-6.18 7.49,-6.72 8.52,-7.28 C8.52,-7.28 10.66,-8.47 10.66,-8.47 C12.54,-9.52 13.85,-10.42 14.58,-11.16 C15.84,-12.43 16.47,-13.96 16.47,-15.75 C16.47,-17.45 15.88,-18.99 14.7,-20.38 C13.51,-21.76 11.64,-22.45 9.08,-22.45 C5.99,-22.45 3.84,-21.37 2.62,-19.2 C1.94,-17.97 1.58,-16.39 1.55,-14.44 C1.55,-14.44 4.41,-14.44 4.41,-14.44 C4.45,-15.83 4.67,-16.91 5.06,-17.7 C5.8,-19.16 7.14,-19.89 9.06,-19.89 C10.36,-19.89 11.41,-19.51 12.19,-18.74 C12.97,-17.97 13.36,-16.94 13.36,-15.63 C13.36,-14.52 12.93,-13.52 12.08,-12.66 C11.54,-12.1 10.59,-11.44 9.25,-10.66 C9.25,-10.66 6.25,-8.92 6.25,-8.92 C4.24,-7.76 2.89,-6.46 2.2,-5.03 C1.5,-3.6 1.1,-1.93 1,0z" fill="#C3D8EA"></path><g opacity="1" transform="matrix(0.3199999928474426,0,0,0.3199999928474426,0,0)" fill="#C3D8EA"></g></g></g></g><g stroke-linecap="butt" stroke-linejoin="round" stroke-miterlimit="4" transform="matrix(1,0,0,1,122.1760025024414,0)" opacity="1" style="display: inherit;" fill="#C3D8EA"><g fill="#C3D8EA"><g transform="matrix(1,0,0,1,0,0)" opacity="1" style="display: block;" fill="#C3D8EA"><path d=" M2.73,0 C2.73,0 6,0 6,0 C6,0 6,-3.41 6,-3.41 C6,-3.41 2.73,-3.41 2.73,-3.41 C2.73,-3.41 2.73,0 2.73,0z" fill="#C3D8EA"></path><g opacity="1" transform="matrix(0.3199999928474426,0,0,0.3199999928474426,0,0)" fill="#C3D8EA"></g></g></g></g><g stroke-linecap="butt" stroke-linejoin="round" stroke-miterlimit="4" transform="matrix(1,0,0,1,131.99359130859375,0)" opacity="1" style="display: inherit;" fill="#C3D8EA"><g fill="#C3D8EA"><g transform="matrix(1,0,0,1,0,0)" opacity="1" style="display: block;" fill="#C3D8EA"><path d=" M1.03,-5.7 C1.2,-3.58 1.98,-2 3.38,-0.98 C4.78,0.05 6.4,0.56 8.22,0.56 C11.08,0.56 13.17,-0.24 14.48,-1.86 C15.78,-3.47 16.44,-5.34 16.44,-7.45 C16.44,-9.48 15.72,-11.16 14.3,-12.48 C12.87,-13.81 11.13,-14.47 9.08,-14.47 C7.98,-14.47 7.02,-14.3 6.19,-13.95 C5.72,-13.76 5.22,-13.46 4.7,-13.06 C4.7,-13.06 5.66,-19.28 5.66,-19.28 C5.66,-19.28 15.17,-19.28 15.17,-19.28 C15.17,-19.28 15.17,-22 15.17,-22 C15.17,-22 3.55,-22 3.55,-22 C3.55,-22 1.84,-9.95 1.84,-9.95 C1.84,-9.95 4.28,-9.81 4.28,-9.81 C4.77,-10.48 5.36,-11 6.05,-11.38 C6.75,-11.75 7.58,-11.94 8.55,-11.94 C9.88,-11.94 11.02,-11.51 11.98,-10.66 C12.93,-9.8 13.41,-8.59 13.41,-7.03 C13.41,-5.74 13.01,-4.56 12.2,-3.5 C11.4,-2.44 10.17,-1.91 8.5,-1.91 C7.62,-1.91 6.85,-2.06 6.19,-2.38 C4.89,-2.99 4.14,-4.1 3.95,-5.7 C3.95,-5.7 1.03,-5.7 1.03,-5.7z" fill="#C3D8EA"></path><g opacity="1" transform="matrix(0.3199999928474426,0,0,0.3199999928474426,0,0)" fill="#C3D8EA"></g></g></g></g><g stroke-linecap="butt" stroke-linejoin="round" stroke-miterlimit="4" transform="matrix(1,0,0,1,150.72000122070312,0)" opacity="1" style="display: inherit;" fill="#C3D8EA"><g fill="#C3D8EA"><g transform="matrix(1,0,0,1,0,0)" opacity="1" style="display: block;" fill="#C3D8EA"><path d=" M1.03,-5.7 C1.2,-3.58 1.98,-2 3.38,-0.98 C4.78,0.05 6.4,0.56 8.22,0.56 C11.08,0.56 13.17,-0.24 14.48,-1.86 C15.78,-3.47 16.44,-5.34 16.44,-7.45 C16.44,-9.48 15.72,-11.16 14.3,-12.48 C12.87,-13.81 11.13,-14.47 9.08,-14.47 C7.98,-14.47 7.02,-14.3 6.19,-13.95 C5.72,-13.76 5.22,-13.46 4.7,-13.06 C4.7,-13.06 5.66,-19.28 5.66,-19.28 C5.66,-19.28 15.17,-19.28 15.17,-19.28 C15.17,-19.28 15.17,-22 15.17,-22 C15.17,-22 3.55,-22 3.55,-22 C3.55,-22 1.84,-9.95 1.84,-9.95 C1.84,-9.95 4.28,-9.81 4.28,-9.81 C4.77,-10.48 5.36,-11 6.05,-11.38 C6.75,-11.75 7.58,-11.94 8.55,-11.94 C9.88,-11.94 11.02,-11.51 11.98,-10.66 C12.93,-9.8 13.41,-8.59 13.41,-7.03 C13.41,-5.74 13.01,-4.56 12.2,-3.5 C11.4,-2.44 10.17,-1.91 8.5,-1.91 C7.62,-1.91 6.85,-2.06 6.19,-2.38 C4.89,-2.99 4.14,-4.1 3.95,-5.7 C3.95,-5.7 1.03,-5.7 1.03,-5.7z" fill="#C3D8EA"></path><g opacity="1" transform="matrix(0.3199999928474426,0,0,0.3199999928474426,0,0)" fill="#C3D8EA"></g></g></g></g></g></g></svg>