<svg xmlns="http://www.w3.org/2000/svg" width="329" height="176" style="width:100%;height:100%;transform:translate3d(0,0,0);content-visibility:visible"><defs><clipPath id="a"><path d="M0 0h329v176H0z"/></clipPath></defs><g clip-path="url(#a)"><path fill="#032E57" d="M105.937-30.728v61.456c0 11.037-8.962 20-20 20H-85.937c-11.038 0-20-8.963-20-20v-61.456c0-11.037 8.962-20 20-20H85.937c11.038 0 20 8.963 20 20z" transform="matrix(1.17 0 0 1.17 164.437 88.727)" style="display:block"/><g opacity=".7" fill="#C3D8EA" font-size="18" font-family="PPNeueMontreal" font-weight="500" aria-label="Total Portfolio Value" style="display:block" stroke-linejoin="round"><g style="display:inherit"><g style="display:block" opacity="1"><path d="M62.182 58.44v1.801h5.09v13.303h2.07V60.24h5.09v-1.802h-12.25z"/></g></g><g style="display:inherit"><g style="display:block" opacity="1"><path d="M80.011 62.207c-1.58 0-2.831.55-3.767 1.65-.924 1.1-1.392 2.562-1.392 4.422 0 1.72.444 3.1 1.322 4.118.889 1.03 2.082 1.533 3.592 1.533 1.802 0 3.135-.573 3.99-1.732.854-1.158 1.286-2.62 1.286-4.399 0-1.837-.491-3.229-1.462-4.165-.971-.948-2.165-1.427-3.569-1.427zm-.081 10.132c-1.1 0-1.908-.386-2.41-1.17-.515-.784-.773-1.755-.773-2.925 0-1.217.258-2.258.772-3.124.503-.866 1.322-1.299 2.434-1.299 1.264 0 2.153.515 2.668 1.521.327.644.49 1.486.49 2.516 0 1.135-.233 2.164-.678 3.088-.456.936-1.287 1.393-2.503 1.393z"/></g></g><g style="display:inherit"><g style="display:block" opacity="1"><path d="M87.225 62.534h-1.497v1.51h1.497v7.289c0 .702.152 1.275.456 1.72.316.444.901.666 1.767.666.258 0 .515-.011.737-.046a3.96 3.96 0 0 0 .667-.13V72.07c-.14.023-.257.035-.363.035-.105.011-.198.011-.28.011-.34 0-.585-.035-.726-.117-.257-.128-.386-.386-.386-.772v-7.184h1.755v-1.509h-1.755v-3.077h-1.872v3.077z"/></g></g><g style="display:inherit"><g style="display:block" opacity="1"><path d="M95.186 67.25c-1.03.128-1.872.479-2.503 1.04-.644.562-.96 1.346-.96 2.364 0 .936.328 1.708.971 2.328.644.62 1.486.936 2.504.936a5.07 5.07 0 0 0 2.34-.55c.702-.362 1.24-.795 1.626-1.287.059.445.164.784.316 1.018.281.457.749.679 1.38.679.27 0 .469-.012.62-.024.153-.023.375-.081.656-.163v-1.358c-.117.012-.222.036-.327.036-.106.011-.188.023-.27.023-.257 0-.42-.059-.503-.176-.082-.117-.117-.269-.117-.468v-6.34c0-1.042-.397-1.814-1.205-2.306-.807-.491-1.86-.737-3.147-.737-1.123 0-2.106.27-2.948.796-.843.538-1.287 1.486-1.323 2.843h1.732c.07-.574.21-1.006.445-1.287.397-.527 1.088-.796 2.047-.796.83 0 1.474.152 1.93.433.445.28.668.749.668 1.38 0 .305-.047.55-.13.714-.14.293-.42.48-.842.527l-2.96.374zm-1.532 3.369c0-.702.292-1.217.865-1.545.34-.187.843-.327 1.51-.42l1.123-.141a5.67 5.67 0 0 0 1.041-.21c.351-.094.644-.211.878-.352v1.486c0 1.135-.515 1.954-1.545 2.457a4.331 4.331 0 0 1-1.895.445c-.538 0-.995-.152-1.392-.457-.386-.315-.585-.737-.585-1.263z"/></g></g><g style="display:inherit"><g style="display:block" opacity="1"><path d="M103.535 73.544h1.86V58.439h-1.86v15.105z"/></g></g><g style="display:inherit"><g style="display:block" opacity="1"><path d="M122.697 62.78c0 .983-.28 1.673-.854 2.06-.573.397-1.31.596-2.223.596h-4.036v-5.242h4.036c.784 0 1.404.106 1.849.316.819.398 1.228 1.158 1.228 2.27zm-9.16 10.764h2.047v-6.388h4.715c1.509 0 2.632-.433 3.37-1.31.725-.878 1.1-1.896 1.1-3.078 0-1.369-.422-2.433-1.241-3.194-.82-.76-1.895-1.135-3.23-1.135h-6.762v15.105z"/></g></g><g style="display:inherit"><g style="display:block" opacity="1"><path d="M131.086 62.207c-1.58 0-2.831.55-3.767 1.65-.925 1.1-1.393 2.562-1.393 4.422 0 1.72.445 3.1 1.323 4.118.889 1.03 2.082 1.533 3.591 1.533 1.802 0 3.136-.573 3.99-1.732.854-1.158 1.287-2.62 1.287-4.399 0-1.837-.491-3.229-1.462-4.165-.971-.948-2.165-1.427-3.569-1.427zm-.082 10.132c-1.1 0-1.907-.386-2.41-1.17-.515-.784-.772-1.755-.772-2.925 0-1.217.257-2.258.772-3.124.503-.866 1.322-1.299 2.434-1.299 1.263 0 2.152.515 2.667 1.521.328.644.492 1.486.492 2.516 0 1.135-.234 2.164-.679 3.088-.456.936-1.287 1.393-2.504 1.393z"/></g></g><g style="display:inherit"><g style="display:block" opacity="1"><path d="M137.972 73.544h1.86v-6.33c0-.784.246-1.474.75-2.082.502-.597 1.216-.89 2.14-.89h.305c.093.012.199.024.304.047v-1.954c-.199-.023-.34-.035-.421-.047h-.176c-.725 0-1.38.258-1.942.796-.562.527-.913.983-1.053 1.346v-1.896h-1.767v11.01z"/></g></g><g style="display:inherit"><g style="display:block" opacity="1"><path d="M144.85 62.534h-1.498v1.51h1.498v7.289c0 .702.152 1.275.456 1.72.316.444.9.666 1.767.666.257 0 .514-.011.737-.046a3.96 3.96 0 0 0 .667-.13V72.07c-.14.023-.258.035-.363.035-.105.011-.2.011-.281.011-.34 0-.585-.035-.725-.117-.258-.128-.386-.386-.386-.772v-7.184h1.755v-1.509h-1.755v-3.077h-1.872v3.077z"/></g></g><g style="display:inherit"><g style="display:block" opacity="1"><path d="M150.33 60.85v1.731h-1.532v1.462h1.532v9.5h1.825v-9.5h1.85v-1.462h-1.85c0-1.193.059-1.93.164-2.223.117-.292.457-.445 1.018-.445.082 0 .164.012.246.012.093 0 .234.012.421.024v-1.685a30.59 30.59 0 0 1-.421-.035c-.117 0-.246-.012-.363-.012-1.228 0-2.059.316-2.492.948-.246.362-.374.924-.398 1.684z"/></g></g><g style="display:inherit"><g style="display:block" opacity="1"><path d="M159.292 62.207c-1.58 0-2.832.55-3.768 1.65-.924 1.1-1.392 2.562-1.392 4.422 0 1.72.445 3.1 1.322 4.118.89 1.03 2.083 1.533 3.592 1.533 1.802 0 3.136-.573 3.99-1.732.854-1.158 1.287-2.62 1.287-4.399 0-1.837-.492-3.229-1.463-4.165-.97-.948-2.164-1.427-3.568-1.427zm-.082 10.132c-1.1 0-1.907-.386-2.41-1.17-.515-.784-.773-1.755-.773-2.925 0-1.217.258-2.258.773-3.124.503-.866 1.322-1.299 2.433-1.299 1.264 0 2.153.515 2.668 1.521.327.644.491 1.486.491 2.516 0 1.135-.234 2.164-.678 3.088-.457.936-1.287 1.393-2.504 1.393z"/></g></g><g style="display:inherit"><g style="display:block" opacity="1"><path d="M166.178 73.544h1.86V58.439h-1.86v15.105z"/></g></g><g style="display:inherit"><g style="display:block" opacity="1"><path d="M170.347 60.534h1.884v-2.095h-1.884v2.095zm0 13.01h1.884V62.58h-1.884v10.963z"/></g></g><g style="display:inherit"><g style="display:block" opacity="1"><path d="M178.974 62.207c-1.579 0-2.83.55-3.767 1.65-.924 1.1-1.392 2.562-1.392 4.422 0 1.72.444 3.1 1.322 4.118.89 1.03 2.082 1.533 3.592 1.533 1.802 0 3.135-.573 3.99-1.732.854-1.158 1.286-2.62 1.286-4.399 0-1.837-.49-3.229-1.462-4.165-.971-.948-2.165-1.427-3.569-1.427zm-.081 10.132c-1.1 0-1.908-.386-2.41-1.17-.515-.784-.773-1.755-.773-2.925 0-1.217.258-2.258.772-3.124.503-.866 1.322-1.299 2.434-1.299 1.264 0 2.153.515 2.668 1.521.327.644.491 1.486.491 2.516 0 1.135-.234 2.164-.679 3.088-.456.936-1.287 1.393-2.503 1.393z"/></g></g><g style="display:inherit"><g style="display:block" opacity="1"><path d="m190.382 58.44 5.499 15.104h2.176l5.51-15.105h-2.292l-4.294 12.858-4.33-12.858h-2.269z"/></g></g><g style="display:inherit"><g style="display:block" opacity="1"><path d="M207.733 67.25c-1.03.128-1.872.479-2.504 1.04-.643.562-.96 1.346-.96 2.364 0 .936.328 1.708.972 2.328.643.62 1.486.936 2.504.936a5.07 5.07 0 0 0 2.34-.55c.702-.362 1.24-.795 1.626-1.287.059.445.164.784.316 1.018.28.457.749.679 1.38.679.27 0 .469-.012.62-.024.153-.023.375-.081.656-.163v-1.358c-.117.012-.222.036-.328.036-.105.011-.187.023-.269.023-.257 0-.421-.059-.503-.176-.082-.117-.117-.269-.117-.468v-6.34c0-1.042-.398-1.814-1.205-2.306-.807-.491-1.86-.737-3.147-.737-1.124 0-2.106.27-2.949.796-.842.538-1.287 1.486-1.322 2.843h1.732c.07-.574.21-1.006.444-1.287.398-.527 1.088-.796 2.048-.796.83 0 1.474.152 1.93.433.445.28.667.749.667 1.38 0 .305-.047.55-.128.714-.14.293-.422.48-.843.527l-2.96.374zm-1.533 3.369c0-.702.293-1.217.866-1.545.34-.187.843-.327 1.51-.42l1.123-.141a5.67 5.67 0 0 0 1.041-.21c.351-.094.643-.211.877-.352v1.486c0 1.135-.514 1.954-1.544 2.457a4.331 4.331 0 0 1-1.895.445c-.539 0-.995-.152-1.393-.457-.386-.315-.585-.737-.585-1.263z"/></g></g><g style="display:inherit"><g style="display:block" opacity="1"><path d="M216.082 73.544h1.86V58.439h-1.86v15.105z"/></g></g><g style="display:inherit"><g style="display:block" opacity="1"><path d="M220.216 62.534v7.488c0 .936.14 1.685.445 2.247.561 1.053 1.614 1.567 3.147 1.567.994 0 1.837-.28 2.527-.854.351-.292.644-.643.878-1.064l-.024 1.626h1.755v-11.01h-1.86v5.406c0 1.076-.117 1.918-.363 2.538-.456 1.159-1.31 1.732-2.562 1.732-.878 0-1.474-.328-1.802-.994-.164-.351-.257-.808-.257-1.37v-7.312h-1.884z"/></g></g><g style="display:inherit"><g style="display:block" opacity="1"><path d="M232.905 67.156c.024-.948.328-1.72.901-2.34a2.79 2.79 0 0 1 2.118-.913c1.182 0 2.024.445 2.527 1.334.27.48.445 1.123.515 1.919h-6.06zm3.136-4.868c-1.533 0-2.785.55-3.732 1.65-.96 1.1-1.44 2.54-1.44 4.306 0 1.802.48 3.194 1.428 4.2.948.995 2.094 1.486 3.463 1.486.562 0 1.053-.047 1.498-.164a4.254 4.254 0 0 0 2.07-1.111c.34-.316.644-.714.913-1.217.27-.492.421-.948.48-1.346h-1.825c-.129.48-.363.913-.679 1.287-.573.644-1.334.96-2.293.96-1.03 0-1.79-.34-2.282-1.018-.49-.679-.748-1.568-.783-2.691h8.014c0-1.112-.058-1.919-.164-2.434a5.167 5.167 0 0 0-.737-1.942c-.386-.573-.936-1.053-1.673-1.416a4.838 4.838 0 0 0-2.258-.55z"/></g></g></g><g class="55" fill="#C3D8EA" font-size="32" font-family="PPNeueMontreal" font-weight="500" aria-label="$43,892.55" style="display:block" stroke-linejoin="round"><g style="display:inherit"><g style="display:block"><path d="M62.943 97.506c0 2.082.632 3.697 1.884 4.867 1.263 1.17 3.217 2 5.861 2.504v9.968c-2.059-.176-3.475-.948-4.235-2.328-.421-.76-.69-1.99-.784-3.65h-3.24c0 2.094.35 3.755 1.04 4.983 1.264 2.282 3.674 3.534 7.22 3.768v3.545h1.743v-3.545c2.2-.246 3.884-.737 5.054-1.498 2.118-1.369 3.17-3.662 3.17-6.914 0-2.235-.818-3.932-2.468-5.078-1.018-.69-2.937-1.44-5.756-2.235v-8.904c1.673.07 2.901.714 3.673 1.943.41.666.667 1.474.75 2.398h3.193c-.058-2.07-.737-3.732-2.035-4.984-1.3-1.264-3.16-1.977-5.581-2.153v-2.387h-1.744v2.434c-2.445.023-4.352.772-5.71 2.258-1.356 1.486-2.035 3.159-2.035 5.008zm3.288-.211c0-1.006.339-1.966 1.018-2.878.69-.913 1.836-1.393 3.44-1.463v8.6c-1.358-.27-2.446-.75-3.253-1.428-.808-.678-1.205-1.626-1.205-2.831zm6.2 17.644v-9.618c1.522.41 2.61.854 3.253 1.31 1.123.796 1.685 1.954 1.685 3.475 0 .96-.21 1.814-.632 2.54-.784 1.427-2.223 2.187-4.305 2.293z"/></g></g><g style="display:inherit"><g style="display:block"><path d="M98.893 116.834v-6.4h3.85v-2.866h-3.85V90.579h-2.785l-11.992 16.638v3.217h11.477v6.4h3.3zm-11.735-9.266 8.389-11.888v11.888h-8.39z"/></g></g><g style="display:inherit"><g style="display:block"><path d="M114.8 117.548c3.031 0 5.36-.784 7.009-2.364 1.638-1.568 2.469-3.603 2.469-6.095 0-1.568-.386-2.89-1.17-3.967-.773-1.076-1.849-1.802-3.218-2.176.854-.363 1.545-.842 2.083-1.474.866-.995 1.298-2.293 1.298-3.908 0-2.258-.737-3.978-2.2-5.16-1.462-1.193-3.52-1.79-6.188-1.79-3.382 0-5.745 1.229-7.079 3.662-.784 1.37-1.17 3.019-1.17 4.973h3.253c.058-1.486.327-2.633.784-3.44.842-1.462 2.363-2.188 4.55-2.188 1.23 0 2.317.351 3.242 1.053.924.714 1.38 1.72 1.38 3.019 0 1.755-.69 2.972-2.082 3.662-.784.386-1.802.585-3.03.585-.27 0-.515-.012-.75-.024a17.949 17.949 0 0 1-.865-.07v2.902c.234-.012.468-.024.69-.024.222-.011.445-.011.667-.011 1.966 0 3.498.362 4.598 1.076 1.1.726 1.662 1.99 1.662 3.79 0 1.463-.527 2.657-1.58 3.581-1.041.924-2.434 1.392-4.165 1.392-2.235 0-3.78-.69-4.622-2.07-.491-.773-.807-2.001-.959-3.686h-3.428c0 2.434.69 4.505 2.082 6.201 1.404 1.697 3.65 2.55 6.74 2.55z"/></g></g><g style="display:inherit"><g style="display:block"><path d="M130.1 122.391c1.44-.257 2.445-.936 3.03-2.024.585-1.1.878-2.375.878-3.826v-3.697H130.1v3.99h1.99c.022.082.034.164.046.234 0 .058.012.14.012.222 0 .515-.094 1.053-.281 1.603-.34 1.041-.925 1.638-1.767 1.779v1.72z"/></g></g><g style="display:inherit"><g style="display:block"><path d="M144.172 102.888c-1.486.596-2.597 1.462-3.358 2.585-.76 1.123-1.134 2.469-1.134 4.013 0 2.633.877 4.645 2.644 6.026 1.755 1.38 3.92 2.07 6.458 2.07 2.832 0 5.02-.795 6.564-2.398 1.544-1.603 2.328-3.557 2.328-5.861 0-1.954-.585-3.534-1.743-4.75-.632-.656-1.486-1.23-2.574-1.72.97-.55 1.696-1.112 2.153-1.685.83-1.018 1.24-2.34 1.24-3.967 0-1.766-.702-3.31-2.13-4.633-1.427-1.322-3.393-1.989-5.896-1.989-2.598 0-4.598.702-6.014 2.106-1.404 1.404-2.118 3.077-2.118 5.031 0 1.556.48 2.82 1.45 3.803.504.514 1.218.97 2.13 1.369zm4.68 11.7c-1.895 0-3.3-.504-4.212-1.498-.9-.983-1.357-2.165-1.357-3.533 0-1.58.492-2.82 1.486-3.721.995-.89 2.282-1.346 3.85-1.346 1.626 0 2.948.445 3.989 1.323 1.03.877 1.556 2.164 1.556 3.849 0 1.638-.503 2.866-1.51 3.685-1.005.831-2.269 1.24-3.802 1.24zm-.199-12.964c-1.251 0-2.328-.351-3.229-1.041-.912-.702-1.369-1.662-1.369-2.902 0-1.1.351-2.06 1.053-2.878.702-.82 1.849-1.217 3.428-1.217 1.592 0 2.785.398 3.557 1.217.784.819 1.17 1.72 1.17 2.703 0 1.123-.41 2.082-1.217 2.901-.819.807-1.953 1.217-3.393 1.217z"/></g></g><g style="display:inherit"><g style="display:block"><path d="M170.353 105.11c-1.825 0-3.148-.49-3.967-1.497-.83-1.006-1.251-2.363-1.251-4.06 0-1.802.48-3.24 1.415-4.317.948-1.077 2.223-1.615 3.838-1.615 1.497 0 2.726.468 3.697 1.416.971.936 1.45 2.375 1.45 4.294 0 2.14-.537 3.638-1.614 4.493-1.076.865-2.27 1.287-3.568 1.287zm-8.319 5.383c0 2.024.655 3.697 1.989 5.042 1.322 1.346 3.276 2.013 5.827 2.013 3.814 0 6.528-2.06 8.12-6.178.959-2.469 1.45-5.312 1.45-8.506 0-2.843-.41-5.206-1.217-7.09-1.45-3.44-4.083-5.16-7.897-5.16-2.82 0-4.96.901-6.412 2.703-1.45 1.802-2.176 3.896-2.176 6.271 0 2.469.737 4.493 2.2 6.06 1.474 1.569 3.463 2.352 5.99 2.352 1.24 0 2.41-.234 3.487-.702 1.076-.468 1.977-1.275 2.714-2.433-.468 4.001-1.252 6.669-2.363 7.98-1.112 1.31-2.446 1.965-4.025 1.965-.83 0-1.591-.187-2.258-.55-1.31-.702-2.013-1.954-2.106-3.767h-3.323z"/></g></g><g style="display:inherit"><g style="display:block"><path d="M183.464 116.834h17.971v-3.112h-14.297c.316-1.287 1.088-2.469 2.305-3.522.679-.597 1.615-1.228 2.82-1.884l2.503-1.392c2.2-1.228 3.733-2.281 4.587-3.147 1.474-1.486 2.211-3.276 2.211-5.37 0-1.99-.69-3.791-2.07-5.418-1.393-1.614-3.581-2.422-6.576-2.422-3.615 0-6.131 1.264-7.558 3.803-.796 1.439-1.217 3.288-1.252 5.57h3.346c.047-1.627.304-2.89.76-3.815.866-1.708 2.434-2.562 4.68-2.562 1.521 0 2.75.444 3.663 1.345.912.901 1.368 2.106 1.368 3.639 0 1.299-.503 2.469-1.497 3.475-.632.655-1.743 1.427-3.311 2.34l-3.51 2.036c-2.352 1.357-3.931 2.878-4.739 4.55-.819 1.674-1.287 3.628-1.404 5.886z"/></g></g><g style="display:inherit"><g style="display:block"><path d="M207.398 116.834h3.826v-3.99h-3.826v3.99z"/></g></g><g style="display:inherit"><g style="display:block"><path d="M216.896 110.165c.199 2.48 1.111 4.329 2.75 5.522 1.637 1.205 3.533 1.802 5.662 1.802 3.346 0 5.792-.936 7.324-2.831 1.521-1.884 2.293-4.072 2.293-6.54 0-2.376-.842-4.341-2.503-5.886-1.673-1.556-3.71-2.328-6.108-2.328-1.287 0-2.41.199-3.381.608-.55.223-1.135.574-1.743 1.042l1.123-7.278h11.127v-3.182h-13.596l-2 14.098 2.854.164a6.32 6.32 0 0 1 2.071-1.837c.82-.433 1.79-.655 2.925-.655 1.556 0 2.89.503 4.013 1.498 1.112 1.006 1.673 2.422 1.673 4.247 0 1.51-.468 2.89-1.415 4.13-.936 1.24-2.375 1.86-4.33 1.86-1.029 0-1.93-.175-2.702-.55-1.521-.713-2.399-2.012-2.62-3.884h-3.417z"/></g></g><g style="display:inherit"><g style="display:block"><path d="M238.806 110.165c.199 2.48 1.111 4.329 2.75 5.522 1.637 1.205 3.533 1.802 5.662 1.802 3.346 0 5.791-.936 7.324-2.831 1.521-1.884 2.293-4.072 2.293-6.54 0-2.376-.842-4.341-2.503-5.886-1.674-1.556-3.71-2.328-6.108-2.328-1.287 0-2.41.199-3.381.608-.55.223-1.135.574-1.743 1.042l1.123-7.278h11.126v-3.182h-13.595l-2 14.098 2.854.164a6.32 6.32 0 0 1 2.071-1.837c.82-.433 1.79-.655 2.925-.655 1.556 0 2.89.503 4.013 1.498 1.112 1.006 1.673 2.422 1.673 4.247 0 1.51-.468 2.89-1.415 4.13-.936 1.24-2.376 1.86-4.33 1.86-1.029 0-1.93-.175-2.702-.55-1.521-.713-2.399-2.012-2.62-3.884h-3.417z"/></g></g></g></g></svg>