<svg xmlns="http://www.w3.org/2000/svg" viewBox="-8 -15 60 60" width="4rem" height="4rem" fill="#fff"><path class="summit-1_svg__prefix__st0" d="M37 28.8 24.9 16c-1.3-1.3-3.1-2.2-4.9-2.4h-.2V9.5h10c.4 0 .7-.3.7-.7V2c0-.4-.3-.7-.7-.7H18.9c-.5 0-.8.4-.8.7v11.6h-.2c-1.9.2-3.7 1.2-5 2.6L1 29.4v.1c-.2.3-.3.8.1 1.1.2.1.3.2.5.2s.4-.1.5-.2l6.4-7 .2.3c.1.1.1.2.2.2 0 0 .1.1.1.2 1.1 1.4 2.5 2.1 4 2 .4 0 .7-.1 1.1-.1h.3l1.2-.2c1.8-.2 2.3-.2 3-.1l.3.1c.2 0 .4.1.6.2 2.8 1.3 6.9 1.4 8.1-.3.2-.3.5-.6 1-1 0 0 .2-.2.4-.3.2-.1.3-.2.4-.3l.2-.2c.1 0 .2-.1.3-.2l.2-.2 5.9 6.2c.4.3.8.2 1.1 0 .2-.1.3-.3.3-.5-.1-.2-.2-.4-.4-.6zm-17.2-26h9.4v5.4h-9.4V2.8zm9 20c-.1 0-.2.1-.3.3l-.1.1s-.2.2-.4.3c-.2.1-.3.3-.4.3l-.2.2c-.4.4-.8.7-1 1.1-.3.4-1.1.6-2.2.6-1.3 0-2.9-.3-4.1-.8l-.2-.1c-.1 0-.2-.1-.3-.1-.1 0-.2-.1-.4-.1-1-.2-1.5-.2-3.2 0l-1.9.2c-.4 0-.8.1-1.2.1-1 .1-1.9-.4-2.7-1.4-.2-.3-.4-.5-.5-.8l-.1-.3 4.7-5.2c1.2-1.2 2.6-1.7 3.5-1.9l.3-.1v2.3c0 .3.3.6.8.6.4 0 .8-.3.8-.8v-2.1h.3c1.5.2 2.8.9 4 2l5.1 5.4-.3.2z"/></svg>