<svg xmlns="http://www.w3.org/2000/svg" width="756" height="269" style="width:100%;height:100%;transform:translate3d(0,0,0);content-visibility:visible"><defs><clipPath id="a"><path d="M0 0h756v269H0z"/></clipPath><clipPath id="b"><path d="M0 0h712v188H0z"/></clipPath><clipPath id="c"><path d="M0 0h713v188H0z"/></clipPath><clipPath id="f"><path d="M0 0h40v40H0z"/></clipPath><clipPath id="d"><path d="M0 0h106v106H0z"/></clipPath><clipPath id="e"><path d="M0 0h50v50H0z"/></clipPath></defs><g clip-path="url(#a)"><g clip-path="url(#b)" transform="translate(25 36.5)" style="display:block"><g clip-path="url(#c)" transform="translate(-.5)" style="display:block"><g style="display:block"><path fill="#FFF" d="M709.5 41v106c0 22.076-17.924 40-40 40h-626c-22.076 0-40-17.924-40-40V41c0-22.076 17.924-40 40-40h626c22.076 0 40 17.924 40 40z"/><path stroke="#EBEEF4" d="M709.5 41v106c0 22.076-17.924 40-40 40h-626c-22.076 0-40-17.924-40-40V41c0-22.076 17.924-40 40-40h626c22.076 0 40 17.924 40 40z" fill="none" stroke-width="2"/></g><g clip-path="url(#d)" transform="translate(43.5 41)" style="display:block"><path fill="#F6C9D6" d="M26.5-14.5v29c0 6.623-5.377 12-12 12h-29c-6.623 0-12-5.377-12-12v-29c0-6.623 5.377-12 12-12h29c6.623 0 12 5.377 12 12z" transform="matrix(2 0 0 2 53 53)" style="display:block"/><g clip-path="url(#e)" transform="translate(28 28)" style="display:block"><path fill="#733144" d="M-6.895-4.839h.04c0-1.523-1.29-2.812-2.813-2.812a2.826 2.826 0 0 0-2.812 2.812v8.477c0 1.211.469 2.422 1.367 3.32l2.656 2.617a.855.855 0 0 0 1.289 0 .855.855 0 0 0 0-1.289L-9.785 5.63a2.775 2.775 0 0 1-.82-1.992v-8.477c0-.508.39-.937.937-.937a.95.95 0 0 1 .938.937V.864c0 1.016.39 1.993 1.093 2.696l.625.625L-5.957 5.2l.625.625a.855.855 0 0 0 1.289 0 .855.855 0 0 0 0-1.289l-.625-.625-1.016-1.055a.86.86 0 0 1-.234-.585c0-.469.351-.821.82-.821.195 0 .43.079.586.235l2.383 2.382A3.962 3.962 0 0 1-.918 6.919v1.992c0 .547.391.938.938.938a.925.925 0 0 0 .937-.938V6.919c0-1.055.391-2.11 1.172-2.852l2.383-2.382c.156-.156.391-.274.586-.274.469 0 .859.391.859.86 0 .195-.117.429-.273.585L4.668 3.872l-.625.625c-.391.391-.391.976 0 1.328a.855.855 0 0 0 1.289 0l.625-.625 1.055-1.015.625-.625A3.812 3.812 0 0 0 8.73.864v-5.703a.95.95 0 0 1 .938-.937c.547 0 .937.429.937.937v8.477c0 .742-.273 1.445-.82 1.992L7.168 8.247c-.391.391-.391.976 0 1.328a.855.855 0 0 0 1.289 0l2.656-2.656c.898-.859 1.367-2.07 1.367-3.281v-8.477a2.826 2.826 0 0 0-2.812-2.812c-1.523 0-2.813 1.289-2.813 2.812V.2c-.469-.391-1.093-.664-1.757-.664-.703 0-1.406.312-1.914.82L.801 2.739a6.368 6.368 0 0 0-.821.977c-.195-.352-.469-.665-.781-.977L-3.184.356c-.508-.508-1.211-.82-1.914-.82-.703 0-1.328.273-1.797.664v-5.039zm2.032-4.18c-1.133 1.172-1.133 3.086 0 4.219L-.879-.737c.234.234.547.351.899.351.312 0 .625-.117.859-.351L4.863-4.8c1.133-1.133 1.133-3.047 0-4.219a2.994 2.994 0 0 0-4.179 0l-.664.704-.704-.704a2.994 2.994 0 0 0-4.179 0z" transform="matrix(2 0 0 2 25 25)" style="display:block"/></g></g><path d="M-2.136 3.784c.619.373 1.355.56 2.208.56 1.045 0 1.893-.245 2.544-.736.651-.501 1.088-1.173 1.312-2.016H2.072a2.177 2.177 0 0 1-.32.592c-.139.203-.347.373-.624.512-.277.128-.619.192-1.024.192-.48 0-.891-.107-1.232-.32a2.24 2.24 0 0 1-.768-.896A2.96 2.96 0 0 1-2.152.424V-.632c0-.459.091-.859.272-1.2.181-.341.437-.608.768-.8A2.307 2.307 0 0 1 .04-2.92c.416 0 .784.091 1.104.272.32.171.565.416.736.736.171.309.256.672.256 1.088h-5.184V.488h7.056c.011-.107.016-.283.016-.528 0-.896-.155-1.664-.464-2.304a3.22 3.22 0 0 0-1.344-1.472C1.619-4.168.904-4.344.072-4.344c-.843 0-1.573.187-2.192.56a3.644 3.644 0 0 0-1.408 1.536c-.331.651-.496 1.397-.496 2.24 0 .843.16 1.595.48 2.256.331.651.8 1.163 1.408 1.536z" transform="matrix(2 0 0 2 290.036 66.824)" style="display:block"/><path d="M-.544-4.008h-1.824v8.176h1.824v-8.176zm.032 1.504h-1.312l1.28 2.56c0-.501.101-.939.304-1.312.213-.384.501-.677.864-.88.363-.213.768-.32 1.216-.32.16 0 .336.016.528.048v-1.696a3.755 3.755 0 0 0-.736-.064c-.501 0-.928.149-1.28.448-.352.288-.64.693-.864 1.216z" transform="matrix(2 0 0 2 276.583 66.664)" style="display:block"/><path d="M.472 2.704c-.341.16-.731.24-1.168.24-.437 0-.763-.091-.976-.272-.213-.192-.32-.475-.32-.848 0-.267.059-.485.176-.656.128-.181.325-.336.592-.464C-.957.576-.6.464-.152.368A12.96 12.96 0 0 0 .904.112c.288-.085.501-.176.64-.272V.88c0 .416-.096.784-.288 1.104a1.838 1.838 0 0 1-.784.72zm-3.648.992c.48.427 1.125.64 1.936.64.629 0 1.179-.117 1.648-.352a2.804 2.804 0 0 0 1.12-.992h.032c.053.427.187.731.4.912.213.181.533.272.96.272.288 0 .608-.037.96-.112V3.04a1.13 1.13 0 0 0-.192.016.288.288 0 0 1-.288-.192c-.053-.128-.08-.336-.08-.624v-3.6c0-1.056-.277-1.813-.832-2.272-.555-.469-1.323-.704-2.304-.704-1.216 0-2.128.261-2.736.784-.608.523-.933 1.205-.976 2.048h1.824c.032-.341.107-.619.224-.832.117-.213.304-.368.56-.464.256-.096.597-.144 1.024-.144.512 0 .88.091 1.104.272.224.171.336.411.336.72 0 .235-.069.421-.208.56-.139.128-.32.229-.544.304a8.897 8.897 0 0 1-.944.24 3.245 3.245 0 0 0-.4.08c-.725.139-1.328.309-1.808.512a2.623 2.623 0 0 0-1.12.832c-.267.363-.4.832-.4 1.408 0 .704.235 1.275.704 1.712z" transform="matrix(2 0 0 2 261.429 66.808)" style="display:block"/><path d="M-2 3.784c.619.363 1.339.544 2.16.544.704 0 1.328-.139 1.872-.416a3.397 3.397 0 0 0 1.312-1.168 3.449 3.449 0 0 0 .56-1.696H2.032a2.78 2.78 0 0 1-.24.896 1.543 1.543 0 0 1-.592.672c-.267.171-.619.256-1.056.256-.491 0-.901-.128-1.232-.384a2.208 2.208 0 0 1-.704-1.024A4.493 4.493 0 0 1-2.016.008c0-.544.075-1.029.224-1.456.149-.437.384-.784.704-1.04.331-.256.741-.384 1.232-.384.437 0 .789.091 1.056.272.267.171.464.389.592.656.128.267.208.549.24.848h1.872a3.754 3.754 0 0 0-.592-1.664A3.276 3.276 0 0 0 2-3.912C1.456-4.189.832-4.328.128-4.328c-.811 0-1.52.187-2.128.56a3.644 3.644 0 0 0-1.408 1.536c-.331.651-.496 1.397-.496 2.24 0 .843.165 1.595.496 2.256.331.651.8 1.157 1.408 1.52z" transform="matrix(2 0 0 2 244.128 66.824)" style="display:block"/><path d="M2.224-2.4h-4.448v1.472h4.448V-2.4zM-.864-4.768c-.16.363-.24.859-.24 1.488v9.056H.72V-3.28c0-.288.027-.507.08-.656a.494.494 0 0 1 .256-.304c.117-.053.283-.08.496-.08.128 0 .352.016.672.048v-1.392a6.575 6.575 0 0 0-1.12-.112c-.501 0-.912.08-1.232.24-.32.149-.565.405-.736.768z" transform="matrix(2 0 0 2 224.225 63.448)" style="display:block"/><path d="M.912-5.72H-.912V5.72H.912V-5.72z" transform="matrix(2 0 0 2 215.433 63.56)" style="display:block"/><path d="M-2.136 3.784c.619.373 1.355.56 2.208.56 1.045 0 1.893-.245 2.544-.736.651-.501 1.088-1.173 1.312-2.016H2.072a2.177 2.177 0 0 1-.32.592c-.139.203-.347.373-.624.512-.277.128-.619.192-1.024.192-.48 0-.891-.107-1.232-.32a2.24 2.24 0 0 1-.768-.896A2.96 2.96 0 0 1-2.152.424V-.632c0-.459.091-.859.272-1.2.181-.341.437-.608.768-.8A2.307 2.307 0 0 1 .04-2.92c.416 0 .784.091 1.104.272.32.171.565.416.736.736.171.309.256.672.256 1.088h-5.184V.488h7.056c.011-.107.016-.283.016-.528 0-.896-.155-1.664-.464-2.304a3.22 3.22 0 0 0-1.344-1.472C1.619-4.168.904-4.344.072-4.344c-.843 0-1.573.187-2.192.56a3.644 3.644 0 0 0-1.408 1.536c-.331.651-.496 1.397-.496 2.24 0 .843.16 1.595.48 2.256.331.651.8 1.163 1.408 1.536z" transform="matrix(2 0 0 2 202.885 66.824)" style="display:block"/><path d="M-2.192 5.464c.768.331 1.637.496 2.608.496.928 0 1.712-.149 2.352-.448.64-.299 1.12-.709 1.44-1.232.32-.523.48-1.125.48-1.808 0-.736-.187-1.328-.56-1.776A3.339 3.339 0 0 0 2.736-.312c-.555-.235-1.301-.475-2.24-.72a1.49 1.49 0 0 1-.112-.032l-.128-.032a15.197 15.197 0 0 1-1.344-.4 2.026 2.026 0 0 1-.768-.512c-.192-.213-.288-.501-.288-.864 0-.448.171-.789.512-1.024.341-.235.837-.352 1.488-.352.747 0 1.317.165 1.712.496.405.331.651.816.736 1.456h2.112c-.043-.757-.261-1.408-.656-1.952-.395-.555-.928-.976-1.6-1.264C1.488-5.811.715-5.96-.16-5.96c-.832 0-1.557.123-2.176.368-.608.245-1.083.608-1.424 1.088-.341.48-.512 1.067-.512 1.76 0 .661.171 1.205.512 1.632.352.427.784.757 1.296.992A15.27 15.27 0 0 0-.512.536c.149.043.267.075.352.096.715.192 1.248.357 1.6.496.352.128.629.309.832.544.203.224.304.539.304.944a1.6 1.6 0 0 1-.224.848c-.139.245-.373.437-.704.576-.32.139-.747.208-1.28.208-.629 0-1.157-.096-1.584-.288a2.284 2.284 0 0 1-.992-.816c-.224-.352-.347-.779-.368-1.28h-2.112c.032.843.267 1.573.704 2.192.437.608 1.035 1.077 1.792 1.408z" transform="matrix(2 0 0 2 183.612 63.56)" style="display:block"/><path d="M1.815 4.565c-.455.455-1.056.682-1.804.682-1.129 0-1.929-.469-2.398-1.408-.455-.953-.682-2.229-.682-3.828 0-1.027.095-1.929.286-2.706.191-.777.513-1.393.968-1.848.455-.469 1.063-.704 1.826-.704 1.1 0 1.885.477 2.354 1.43.469.939.704 2.215.704 3.828 0 1.027-.095 1.929-.286 2.706-.191.777-.513 1.393-.968 1.848zm-5.412 2.354c.968.675 2.171 1.012 3.608 1.012 1.423 0 2.611-.337 3.564-1.012.968-.689 1.687-1.628 2.156-2.816.469-1.188.704-2.552.704-4.092 0-1.54-.235-2.904-.704-4.092-.469-1.203-1.188-2.141-2.156-2.816-.953-.689-2.141-1.034-3.564-1.034-1.437 0-2.64.345-3.608 1.034-.968.675-1.687 1.613-2.156 2.816-.455 1.188-.682 2.552-.682 4.092 0 1.54.227 2.904.682 4.092.469 1.188 1.188 2.127 2.156 2.816z" transform="matrix(2 0 0 2 334.481 119.798)" style="display:block"/><path d="M1.815 4.565c-.455.455-1.056.682-1.804.682-1.129 0-1.929-.469-2.398-1.408-.455-.953-.682-2.229-.682-3.828 0-1.027.095-1.929.286-2.706.191-.777.513-1.393.968-1.848.455-.469 1.063-.704 1.826-.704 1.1 0 1.885.477 2.354 1.43.469.939.704 2.215.704 3.828 0 1.027-.095 1.929-.286 2.706-.191.777-.513 1.393-.968 1.848zm-5.412 2.354c.968.675 2.171 1.012 3.608 1.012 1.423 0 2.611-.337 3.564-1.012.968-.689 1.687-1.628 2.156-2.816.469-1.188.704-2.552.704-4.092 0-1.54-.235-2.904-.704-4.092-.469-1.203-1.188-2.141-2.156-2.816-.953-.689-2.141-1.034-3.564-1.034-1.437 0-2.64.345-3.608 1.034-.968.675-1.687 1.613-2.156 2.816-.455 1.188-.682 2.552-.682 4.092 0 1.54.227 2.904.682 4.092.469 1.188 1.188 2.127 2.156 2.816z" transform="matrix(2 0 0 2 305.305 119.798)" style="display:block"/><path d="M1.496-1.496h-2.992v2.992h2.992v-2.992z" transform="matrix(2 0 0 2 287.093 132.008)" style="display:block"/><path d="M1.617 5.093c-.411.235-.902.352-1.474.352-.587 0-1.093-.117-1.518-.352a2.369 2.369 0 0 1-.968-.968 3.113 3.113 0 0 1-.33-1.452c0-.543.11-1.027.33-1.452.235-.425.565-.755.99-.99.44-.249.953-.374 1.54-.374.836 0 1.496.257 1.98.77s.726 1.188.726 2.024c0 .557-.11 1.049-.33 1.474a2.23 2.23 0 0 1-.946.968zm-6.182.682C-3.553 7.212-1.932 7.931.297 7.931c1.173 0 2.193-.227 3.058-.682.88-.469 1.547-1.115 2.002-1.936.469-.821.704-1.767.704-2.838 0-.983-.22-1.855-.66-2.618a4.599 4.599 0 0 0-1.804-1.826c-.777-.44-1.672-.66-2.684-.66-.543 0-1.049.066-1.518.198a3.915 3.915 0 0 0-1.21.528 4.67 4.67 0 0 0-.946.836l-.066-.044v-.242c0-.777.095-1.474.286-2.09.205-.616.528-1.1.968-1.452.455-.367 1.041-.55 1.76-.55.675 0 1.181.169 1.518.506.352.323.565.719.638 1.188h3.3a4.607 4.607 0 0 0-.946-2.134 4.788 4.788 0 0 0-1.892-1.496c-.763-.367-1.621-.55-2.574-.55-1.291 0-2.413.308-3.366.924-.939.601-1.665 1.511-2.178 2.728-.499 1.217-.748 2.691-.748 4.422 0 2.317.499 4.195 1.496 5.632z" transform="matrix(2 0 0 2 268.808 119.798)" style="display:block"/><path d="M-3.124 7.15c.909.411 2.002.616 3.278.616 1.1 0 2.09-.213 2.97-.638a4.82 4.82 0 0 0 2.068-1.87c.499-.836.748-1.833.748-2.992 0-1.027-.213-1.921-.638-2.684a4.347 4.347 0 0 0-1.76-1.804C2.794-2.647 1.929-2.86.946-2.86c-.704 0-1.335.103-1.892.308a4.856 4.856 0 0 0-1.474.88v-.044l.682-3.388h6.974v-2.662h-9.262L-5.742.682h3.124a2.97 2.97 0 0 1 1.166-.88 3.441 3.441 0 0 1 1.43-.308c.865 0 1.518.235 1.958.704.455.469.682 1.151.682 2.046 0 .616-.11 1.144-.33 1.584a2.27 2.27 0 0 1-.924.968c-.396.22-.865.33-1.408.33-.836 0-1.489-.22-1.958-.66-.455-.44-.711-.99-.77-1.65H-5.94c.029.968.279 1.826.748 2.574.484.748 1.173 1.335 2.068 1.76z" transform="matrix(2 0 0 2 241.528 120.128)" style="display:block"/><path d="M1.331-1.793c-.352.161-.792.242-1.32.242-.792 0-1.393-.176-1.804-.528-.411-.367-.616-.865-.616-1.496 0-.396.088-.748.264-1.056.176-.308.447-.543.814-.704.367-.176.814-.264 1.342-.264.777 0 1.371.183 1.782.55.425.367.638.858.638 1.474 0 .411-.095.77-.286 1.078-.176.293-.447.528-.814.704zm.176 6.93c-.425.205-.924.308-1.496.308-.587 0-1.093-.103-1.518-.308-.425-.22-.748-.506-.968-.858-.22-.367-.33-.792-.33-1.276 0-.469.11-.887.33-1.254a2.09 2.09 0 0 1 .968-.836C-1.082.708-.576.605.011.605c.572 0 1.071.103 1.496.308.425.191.748.469.968.836.22.367.33.785.33 1.254 0 .484-.11.909-.33 1.276-.22.352-.543.638-.968.858zm-4.642 2.266c.924.352 1.973.528 3.146.528 1.159 0 2.193-.176 3.102-.528.924-.352 1.657-.873 2.2-1.562.543-.704.814-1.562.814-2.574 0-.939-.264-1.716-.792-2.332C4.807.319 4.118-.172 3.267-.539v-.044c.645-.352 1.166-.785 1.562-1.298.396-.513.594-1.159.594-1.936 0-.851-.235-1.584-.704-2.2-.469-.631-1.115-1.107-1.936-1.43-.821-.323-1.745-.484-2.772-.484-1.041 0-1.973.161-2.794.484-.821.323-1.467.799-1.936 1.43-.469.616-.704 1.349-.704 2.2 0 .777.198 1.43.594 1.958.396.513.917.939 1.562 1.276v.044a6.438 6.438 0 0 0-1.452.858 3.802 3.802 0 0 0-1.012 1.232c-.264.499-.396 1.071-.396 1.716 0 1.012.271 1.87.814 2.574.543.689 1.269 1.21 2.178 1.562z" transform="matrix(2 0 0 2 214.578 119.798)" style="display:block"/><path d="M.814-9.57H-.594V9.57H.814V-9.57zm-3.85 16.632c.997.411 2.134.616 3.41.616 1.247 0 2.31-.191 3.19-.572.88-.381 1.54-.902 1.98-1.562.455-.675.682-1.467.682-2.376 0-.924-.213-1.679-.638-2.266C5.177.315 4.62-.147 3.916-.484c-.689-.352-1.584-.697-2.684-1.034a6.532 6.532 0 0 0-.682-.198 2.066 2.066 0 0 0-.154-.044 52.68 52.68 0 0 1-1.804-.594c-.396-.161-.704-.359-.924-.594-.205-.235-.308-.535-.308-.902 0-.543.22-.953.66-1.232.455-.293 1.056-.44 1.804-.44.909 0 1.621.205 2.134.616.513.396.821.99.924 1.782H5.94C5.852-4.635 5.273-5.83 4.202-6.71 3.146-7.59 1.723-8.03-.066-8.03c-1.144 0-2.141.176-2.992.528-.851.352-1.511.865-1.98 1.54-.455.675-.682 1.467-.682 2.376 0 .836.213 1.54.638 2.112.425.557.983 1.012 1.672 1.364.689.337 1.533.645 2.53.924.161.059.418.132.77.22.792.22 1.401.418 1.826.594.44.176.785.411 1.034.704.264.279.396.638.396 1.078 0 .557-.22.99-.66 1.298-.44.308-1.122.462-2.046.462-.689 0-1.298-.088-1.826-.264a2.786 2.786 0 0 1-1.276-.902c-.308-.425-.484-.968-.528-1.628h-3.036c.015 1.129.301 2.09.858 2.882.572.792 1.349 1.393 2.332 1.804z" transform="matrix(2 0 0 2 187.052 120.26)" style="display:block"/></g></g></g></svg>