<svg xmlns="http://www.w3.org/2000/svg" xmlns:xlink="http://www.w3.org/1999/xlink" viewBox="0 0 756 269" width="756" height="269" preserveAspectRatio="xMidYMid meet" style="width: 100%; height: 100%; transform: translate3d(0px, 0px, 0px); content-visibility: visible;"><defs><clipPath id="__lottie_element_214"><rect width="756" height="269" x="0" y="0"></rect></clipPath><clipPath id="__lottie_element_216"><path d="M0,0 L712,0 L712,188 L0,188z"></path></clipPath><clipPath id="__lottie_element_220"><path d="M0,0 L713,0 L713,188 L0,188z"></path></clipPath><clipPath id="__lottie_element_271"><path d="M0,0 L40,0 L40,40 L0,40z"></path></clipPath><clipPath id="__lottie_element_278"><path d="M0,0 L106,0 L106,106 L0,106z"></path></clipPath><clipPath id="__lottie_element_282"><path d="M0,0 L50,0 L50,50 L0,50z"></path></clipPath></defs><g clip-path="url(#__lottie_element_214)"><g clip-path="url(#__lottie_element_216)" transform="matrix(1,0,0,1,25,36.5)" opacity="1" style="display: block;"><g clip-path="url(#__lottie_element_220)" transform="matrix(1,0,0,1,-0.5,0)" opacity="1" style="display: block;"><g transform="matrix(1,0,0,1,356.5,94)" opacity="1" style="display: block;"><g opacity="1" transform="matrix(2,0,0,2,0,0)"><path fill="#FFFFFF" fill-opacity="1" d=" M176.5,-26.5 C176.5,-26.5 176.5,26.5 176.5,26.5 C176.5,37.53799819946289 167.53799438476562,46.5 156.5,46.5 C156.5,46.5 -156.5,46.5 -156.5,46.5 C-167.53799438476562,46.5 -176.5,37.53799819946289 -176.5,26.5 C-176.5,26.5 -176.5,-26.5 -176.5,-26.5 C-176.5,-37.53799819946289 -167.53799438476562,-46.5 -156.5,-46.5 C-156.5,-46.5 156.5,-46.5 156.5,-46.5 C167.53799438476562,-46.5 176.5,-37.53799819946289 176.5,-26.5z"></path><path stroke-linecap="butt" stroke-linejoin="miter" fill-opacity="0" stroke-miterlimit="4" stroke="#EBEEF4" stroke-opacity="1" stroke-width="1" d=" M176.5,-26.5 C176.5,-26.5 176.5,26.5 176.5,26.5 C176.5,37.53799819946289 167.53799438476562,46.5 156.5,46.5 C156.5,46.5 -156.5,46.5 -156.5,46.5 C-167.53799438476562,46.5 -176.5,37.53799819946289 -176.5,26.5 C-176.5,26.5 -176.5,-26.5 -176.5,-26.5 C-176.5,-37.53799819946289 -167.53799438476562,-46.5 -156.5,-46.5 C-156.5,-46.5 156.5,-46.5 156.5,-46.5 C167.53799438476562,-46.5 176.5,-37.53799819946289 176.5,-26.5z"></path></g></g><g clip-path="url(#__lottie_element_278)" transform="matrix(1,0,0,1,43.5,41)" opacity="1" style="display: block;"><g transform="matrix(1,0,0,1,53,53)" opacity="1" style="display: block;"><g opacity="1" transform="matrix(2,0,0,2,0,0)"><path fill="#F6C9D6" fill-opacity="1" d=" M26.5,-14.5 C26.5,-14.5 26.5,14.5 26.5,14.5 C26.5,21.122800827026367 21.122800827026367,26.5 14.5,26.5 C14.5,26.5 -14.5,26.5 -14.5,26.5 C-21.122800827026367,26.5 -26.5,21.122800827026367 -26.5,14.5 C-26.5,14.5 -26.5,-14.5 -26.5,-14.5 C-26.5,-21.122800827026367 -21.122800827026367,-26.5 -14.5,-26.5 C-14.5,-26.5 14.5,-26.5 14.5,-26.5 C21.122800827026367,-26.5 26.5,-21.122800827026367 26.5,-14.5z"></path></g></g><g clip-path="url(#__lottie_element_282)" transform="matrix(1,0,0,1,28,28)" opacity="1" style="display: block;"><g transform="matrix(1,0,0,1,25,25)" opacity="1" style="display: block;"><g opacity="1" transform="matrix(2,0,0,2,0,0)"></g></g><g transform="matrix(1,0,0,1,25,25)" opacity="1" style="display: block;"><g opacity="1" transform="matrix(2,0,0,2,0,0)"><path fill="#733144" fill-opacity="1" d=" M-6.894999980926514,-4.839000225067139 C-6.894999980926514,-4.839000225067139 -6.855000019073486,-4.839000225067139 -6.855000019073486,-4.839000225067139 C-6.855000019073486,-6.361999988555908 -8.145000457763672,-7.651000022888184 -9.668000221252441,-7.651000022888184 C-11.229999542236328,-7.651000022888184 -12.479999542236328,-6.361999988555908 -12.479999542236328,-4.839000225067139 C-12.479999542236328,-4.839000225067139 -12.479999542236328,3.638000011444092 -12.479999542236328,3.638000011444092 C-12.479999542236328,4.848999977111816 -12.01099967956543,6.059999942779541 -11.11299991607666,6.958000183105469 C-11.11299991607666,6.958000183105469 -8.456999778747559,9.574999809265137 -8.456999778747559,9.574999809265137 C-8.104999542236328,9.965999603271484 -7.519999980926514,9.965999603271484 -7.168000221252441,9.574999809265137 C-6.7769999504089355,9.222999572753906 -6.7769999504089355,8.637999534606934 -7.168000221252441,8.28600025177002 C-7.168000221252441,8.28600025177002 -9.78499984741211,5.630000114440918 -9.78499984741211,5.630000114440918 C-10.331999778747559,5.083000183105469 -10.604999542236328,4.380000114440918 -10.604999542236328,3.638000011444092 C-10.604999542236328,3.638000011444092 -10.604999542236328,-4.839000225067139 -10.604999542236328,-4.839000225067139 C-10.604999542236328,-5.3470001220703125 -10.21500015258789,-5.776000022888184 -9.668000221252441,-5.776000022888184 C-9.15999984741211,-5.776000022888184 -8.729999542236328,-5.3470001220703125 -8.729999542236328,-4.839000225067139 C-8.729999542236328,-4.839000225067139 -8.729999542236328,0.8640000224113464 -8.729999542236328,0.8640000224113464 C-8.729999542236328,1.8799999952316284 -8.34000015258789,2.8570001125335693 -7.63700008392334,3.559999942779541 C-7.63700008392334,3.559999942779541 -7.01200008392334,4.184999942779541 -7.01200008392334,4.184999942779541 C-7.01200008392334,4.184999942779541 -5.956999778747559,5.199999809265137 -5.956999778747559,5.199999809265137 C-5.956999778747559,5.199999809265137 -5.331999778747559,5.824999809265137 -5.331999778747559,5.824999809265137 C-4.980000019073486,6.216000080108643 -4.394999980926514,6.216000080108643 -4.043000221252441,5.824999809265137 C-3.6519999504089355,5.4730000495910645 -3.6519999504089355,4.888000011444092 -4.043000221252441,4.535999774932861 C-4.043000221252441,4.535999774932861 -4.668000221252441,3.9110000133514404 -4.668000221252441,3.9110000133514404 C-4.668000221252441,3.9110000133514404 -5.684000015258789,2.8559999465942383 -5.684000015258789,2.8559999465942383 C-5.840000152587891,2.700000047683716 -5.918000221252441,2.4660000801086426 -5.918000221252441,2.2709999084472656 C-5.918000221252441,1.8020000457763672 -5.566999912261963,1.4500000476837158 -5.0980000495910645,1.4500000476837158 C-4.9029998779296875,1.4500000476837158 -4.668000221252441,1.5290000438690186 -4.51200008392334,1.684999942779541 C-4.51200008392334,1.684999942779541 -2.128999948501587,4.066999912261963 -2.128999948501587,4.066999912261963 C-1.3480000495910645,4.809000015258789 -0.9179999828338623,5.863999843597412 -0.9179999828338623,6.919000148773193 C-0.9179999828338623,6.919000148773193 -0.9179999828338623,8.91100025177002 -0.9179999828338623,8.91100025177002 C-0.9179999828338623,9.458000183105469 -0.5270000100135803,9.848999977111816 0.019999999552965164,9.848999977111816 C0.527999997138977,9.848999977111816 0.9570000171661377,9.458000183105469 0.9570000171661377,8.91100025177002 C0.9570000171661377,8.91100025177002 0.9570000171661377,6.919000148773193 0.9570000171661377,6.919000148773193 C0.9570000171661377,5.863999843597412 1.3480000495910645,4.809000015258789 2.128999948501587,4.066999912261963 C2.128999948501587,4.066999912261963 4.51200008392334,1.684999942779541 4.51200008392334,1.684999942779541 C4.668000221252441,1.5290000438690186 4.9029998779296875,1.4110000133514404 5.0980000495910645,1.4110000133514404 C5.566999912261963,1.4110000133514404 5.956999778747559,1.8020000457763672 5.956999778747559,2.2709999084472656 C5.956999778747559,2.4660000801086426 5.840000152587891,2.700000047683716 5.684000015258789,2.8559999465942383 C5.684000015258789,2.8559999465942383 4.668000221252441,3.871999979019165 4.668000221252441,3.871999979019165 C4.668000221252441,3.871999979019165 4.043000221252441,4.497000217437744 4.043000221252441,4.497000217437744 C3.6519999504089355,4.888000011444092 3.6519999504089355,5.4730000495910645 4.043000221252441,5.824999809265137 C4.394999980926514,6.216000080108643 4.980000019073486,6.216000080108643 5.331999778747559,5.824999809265137 C5.331999778747559,5.824999809265137 5.956999778747559,5.199999809265137 5.956999778747559,5.199999809265137 C5.956999778747559,5.199999809265137 7.01200008392334,4.184999942779541 7.01200008392334,4.184999942779541 C7.01200008392334,4.184999942779541 7.63700008392334,3.559999942779541 7.63700008392334,3.559999942779541 C8.34000015258789,2.8570001125335693 8.729999542236328,1.8799999952316284 8.729999542236328,0.8640000224113464 C8.729999542236328,0.8640000224113464 8.729999542236328,-4.839000225067139 8.729999542236328,-4.839000225067139 C8.729999542236328,-5.3470001220703125 9.15999984741211,-5.776000022888184 9.668000221252441,-5.776000022888184 C10.21500015258789,-5.776000022888184 10.604999542236328,-5.3470001220703125 10.604999542236328,-4.839000225067139 C10.604999542236328,-4.839000225067139 10.604999542236328,3.638000011444092 10.604999542236328,3.638000011444092 C10.604999542236328,4.380000114440918 10.331999778747559,5.083000183105469 9.78499984741211,5.630000114440918 C9.78499984741211,5.630000114440918 7.168000221252441,8.246999740600586 7.168000221252441,8.246999740600586 C6.7769999504089355,8.637999534606934 6.7769999504089355,9.222999572753906 7.168000221252441,9.574999809265137 C7.519999980926514,9.965999603271484 8.104999542236328,9.965999603271484 8.456999778747559,9.574999809265137 C8.456999778747559,9.574999809265137 11.11299991607666,6.919000148773193 11.11299991607666,6.919000148773193 C12.01099967956543,6.059999942779541 12.479999542236328,4.848999977111816 12.479999542236328,3.638000011444092 C12.479999542236328,3.638000011444092 12.479999542236328,-4.839000225067139 12.479999542236328,-4.839000225067139 C12.479999542236328,-6.361999988555908 11.229999542236328,-7.651000022888184 9.668000221252441,-7.651000022888184 C8.145000457763672,-7.651000022888184 6.855000019073486,-6.361999988555908 6.855000019073486,-4.839000225067139 C6.855000019073486,-4.839000225067139 6.855000019073486,0.20000000298023224 6.855000019073486,0.20000000298023224 C6.386000156402588,-0.19099999964237213 5.76200008392334,-0.46399998664855957 5.0980000495910645,-0.46399998664855957 C4.394999980926514,-0.46399998664855957 3.691999912261963,-0.15199999511241913 3.184000015258789,0.35600000619888306 C3.184000015258789,0.35600000619888306 0.8009999990463257,2.739000082015991 0.8009999990463257,2.739000082015991 C0.48899999260902405,3.0510001182556152 0.21400000154972076,3.364000082015991 -0.019999999552965164,3.7160000801086426 C-0.2150000035762787,3.364000082015991 -0.48899999260902405,3.0510001182556152 -0.8009999990463257,2.739000082015991 C-0.8009999990463257,2.739000082015991 -3.184000015258789,0.35600000619888306 -3.184000015258789,0.35600000619888306 C-3.691999912261963,-0.15199999511241913 -4.394999980926514,-0.46399998664855957 -5.0980000495910645,-0.46399998664855957 C-5.801000118255615,-0.46399998664855957 -6.426000118255615,-0.19099999964237213 -6.894999980926514,0.20000000298023224 C-6.894999980926514,0.20000000298023224 -6.894999980926514,-4.839000225067139 -6.894999980926514,-4.839000225067139z M-4.86299991607666,-9.019000053405762 C-5.995999813079834,-7.8470001220703125 -5.995999813079834,-5.933000087738037 -4.86299991607666,-4.800000190734863 C-4.86299991607666,-4.800000190734863 -0.8790000081062317,-0.7369999885559082 -0.8790000081062317,-0.7369999885559082 C-0.6449999809265137,-0.503000020980835 -0.3319999873638153,-0.38600000739097595 0.019999999552965164,-0.38600000739097595 C0.3319999873638153,-0.38600000739097595 0.6449999809265137,-0.503000020980835 0.8790000081062317,-0.7369999885559082 C0.8790000081062317,-0.7369999885559082 4.86299991607666,-4.800000190734863 4.86299991607666,-4.800000190734863 C5.995999813079834,-5.933000087738037 5.995999813079834,-7.8470001220703125 4.86299991607666,-9.019000053405762 C3.690999984741211,-10.152000427246094 1.8559999465942383,-10.152000427246094 0.6840000152587891,-9.019000053405762 C0.6840000152587891,-9.019000053405762 0.019999999552965164,-8.3149995803833 0.019999999552965164,-8.3149995803833 C0.019999999552965164,-8.3149995803833 -0.6840000152587891,-9.019000053405762 -0.6840000152587891,-9.019000053405762 C-1.8559999465942383,-10.152000427246094 -3.690999984741211,-10.152000427246094 -4.86299991607666,-9.019000053405762z"></path></g></g></g></g><g clip-path="url(#__lottie_element_271)" transform="matrix(1,0,0,1,629.5,41)" opacity="1" style="display: block;"><g transform="matrix(1,0,0,1,20,20)" opacity="1" style="display: block;"><g opacity="1" transform="matrix(2,0,0,2,0,0)"></g></g></g><g transform="matrix(1,0,0,1,290.0360107421875,66.8239974975586)" opacity="1" style="display: block;"><g opacity="1" transform="matrix(2,0,0,2,0,0)"><path fill="rgb(0,0,0)" fill-opacity="1" d=" M-2.135999917984009,3.7839999198913574 C-1.5169999599456787,4.1570000648498535 -0.781000018119812,4.343999862670898 0.07199999690055847,4.343999862670898 C1.1169999837875366,4.343999862670898 1.965000033378601,4.098999977111816 2.615999937057495,3.6080000400543213 C3.2669999599456787,3.1070001125335693 3.7039999961853027,2.434999942779541 3.927999973297119,1.5920000076293945 C3.927999973297119,1.5920000076293945 2.072000026702881,1.5920000076293945 2.072000026702881,1.5920000076293945 C2.007999897003174,1.784000039100647 1.9010000228881836,1.9809999465942383 1.7519999742507935,2.184000015258789 C1.6130000352859497,2.38700008392334 1.4049999713897705,2.556999921798706 1.128000020980835,2.696000099182129 C0.8510000109672546,2.8239998817443848 0.5090000033378601,2.888000011444092 0.10400000214576721,2.888000011444092 C-0.37599998712539673,2.888000011444092 -0.7870000004768372,2.7809998989105225 -1.128000020980835,2.568000078201294 C-1.4589999914169312,2.3440001010894775 -1.715000033378601,2.0450000762939453 -1.8960000276565552,1.6720000505447388 C-2.066999912261963,1.2990000247955322 -2.1519999504089355,0.8830000162124634 -2.1519999504089355,0.42399999499320984 C-2.1519999504089355,0.07199999690055847 -2.1519999504089355,-0.2800000011920929 -2.1519999504089355,-0.6320000290870667 C-2.1519999504089355,-1.090999960899353 -2.061000108718872,-1.4910000562667847 -1.8799999952316284,-1.8320000171661377 C-1.6990000009536743,-2.1730000972747803 -1.4429999589920044,-2.440000057220459 -1.1119999885559082,-2.631999969482422 C-0.7710000276565552,-2.8239998817443848 -0.3869999945163727,-2.9200000762939453 0.03999999910593033,-2.9200000762939453 C0.4560000002384186,-2.9200000762939453 0.8240000009536743,-2.8289999961853027 1.1440000534057617,-2.6480000019073486 C1.4639999866485596,-2.4769999980926514 1.7089999914169312,-2.2320001125335693 1.8799999952316284,-1.9119999408721924 C2.0510001182556152,-1.6030000448226929 2.135999917984009,-1.2400000095367432 2.135999917984009,-0.8240000009536743 C2.135999917984009,-0.8240000009536743 -3.0480000972747803,-0.8240000009536743 -3.0480000972747803,-0.8240000009536743 C-3.0480000972747803,-0.8240000009536743 -3.0480000972747803,0.4880000054836273 -3.0480000972747803,0.4880000054836273 C-3.0480000972747803,0.4880000054836273 4.007999897003174,0.4880000054836273 4.007999897003174,0.4880000054836273 C4.019000053405762,0.38100001215934753 4.02400016784668,0.20499999821186066 4.02400016784668,-0.03999999910593033 C4.02400016784668,-0.9359999895095825 3.86899995803833,-1.7039999961853027 3.559999942779541,-2.3440001010894775 C3.260999917984009,-2.9839999675750732 2.812999963760376,-3.4749999046325684 2.2160000801086426,-3.815999984741211 C1.61899995803833,-4.168000221252441 0.9039999842643738,-4.343999862670898 0.07199999690055847,-4.343999862670898 C-0.7710000276565552,-4.343999862670898 -1.5010000467300415,-4.1570000648498535 -2.119999885559082,-3.7839999198913574 C-2.7279999256134033,-3.4210000038146973 -3.197000026702881,-2.9089999198913574 -3.5280001163482666,-2.247999906539917 C-3.8589999675750732,-1.597000002861023 -4.02400016784668,-0.8510000109672546 -4.02400016784668,-0.00800000037997961 C-4.02400016784668,0.8349999785423279 -3.864000082015991,1.5870000123977661 -3.5439999103546143,2.247999906539917 C-3.2130000591278076,2.8989999294281006 -2.74399995803833,3.4110000133514404 -2.135999917984009,3.7839999198913574z"></path></g></g><g transform="matrix(1,0,0,1,276.5830078125,66.66400146484375)" opacity="1" style="display: block;"><g opacity="1" transform="matrix(2,0,0,2,0,0)"><path fill="rgb(0,0,0)" fill-opacity="1" d=" M-0.5440000295639038,-4.007999897003174 C-0.5440000295639038,-4.007999897003174 -2.368000030517578,-4.007999897003174 -2.368000030517578,-4.007999897003174 C-2.368000030517578,-4.007999897003174 -2.368000030517578,4.168000221252441 -2.368000030517578,4.168000221252441 C-2.368000030517578,4.168000221252441 -0.5440000295639038,4.168000221252441 -0.5440000295639038,4.168000221252441 C-0.5440000295639038,4.168000221252441 -0.5440000295639038,-4.007999897003174 -0.5440000295639038,-4.007999897003174z M-0.5120000243186951,-2.503999948501587 C-0.5120000243186951,-2.503999948501587 -1.8240000009536743,-2.503999948501587 -1.8240000009536743,-2.503999948501587 C-1.8240000009536743,-2.503999948501587 -0.5440000295639038,0.0560000017285347 -0.5440000295639038,0.0560000017285347 C-0.5440000295639038,-0.4449999928474426 -0.4429999887943268,-0.8830000162124634 -0.23999999463558197,-1.25600004196167 C-0.027000000700354576,-1.6399999856948853 0.26100000739097595,-1.9329999685287476 0.6240000128746033,-2.135999917984009 C0.9869999885559082,-2.3489999771118164 1.3919999599456787,-2.4560000896453857 1.840000033378601,-2.4560000896453857 C2,-2.4560000896453857 2.1760001182556152,-2.440000057220459 2.368000030517578,-2.4079999923706055 C2.368000030517578,-2.4079999923706055 2.368000030517578,-4.104000091552734 2.368000030517578,-4.104000091552734 C2.1549999713897705,-4.146999835968018 1.909000039100647,-4.168000221252441 1.6319999694824219,-4.168000221252441 C1.13100004196167,-4.168000221252441 0.7039999961853027,-4.019000053405762 0.35199999809265137,-3.7200000286102295 C0,-3.431999921798706 -0.2879999876022339,-3.0269999504089355 -0.5120000243186951,-2.503999948501587z"></path></g></g><g transform="matrix(1,0,0,1,261.42901611328125,66.80799865722656)" opacity="1" style="display: block;"><g opacity="1" transform="matrix(2,0,0,2,0,0)"><path fill="rgb(0,0,0)" fill-opacity="1" d=" M0.47200000286102295,2.7039999961853027 C0.13099999725818634,2.864000082015991 -0.2590000033378601,2.944000005722046 -0.6959999799728394,2.944000005722046 C-1.1330000162124634,2.944000005722046 -1.4589999914169312,2.8529999256134033 -1.6720000505447388,2.671999931335449 C-1.8849999904632568,2.4800000190734863 -1.9919999837875366,2.197000026702881 -1.9919999837875366,1.8240000009536743 C-1.9919999837875366,1.5570000410079956 -1.9329999685287476,1.3389999866485596 -1.815999984741211,1.1679999828338623 C-1.687999963760376,0.9869999885559082 -1.4910000562667847,0.8320000171661377 -1.2239999771118164,0.7039999961853027 C-0.9570000171661377,0.5759999752044678 -0.6000000238418579,0.46399998664855957 -0.15199999511241913,0.36800000071525574 C0.2639999985694885,0.28299999237060547 0.6159999966621399,0.19699999690055847 0.9039999842643738,0.1120000034570694 C1.1920000314712524,0.027000000700354576 1.4049999713897705,-0.06400000303983688 1.5440000295639038,-0.1599999964237213 C1.5440000295639038,-0.1599999964237213 1.5440000295639038,0.8799999952316284 1.5440000295639038,0.8799999952316284 C1.5440000295639038,1.2960000038146973 1.4479999542236328,1.6640000343322754 1.25600004196167,1.9839999675750732 C1.0750000476837158,2.2929999828338623 0.8130000233650208,2.5329999923706055 0.47200000286102295,2.7039999961853027z M-3.1760001182556152,3.696000099182129 C-2.696000099182129,4.123000144958496 -2.0510001182556152,4.335999965667725 -1.2400000095367432,4.335999965667725 C-0.6110000014305115,4.335999965667725 -0.061000000685453415,4.218999862670898 0.40799999237060547,3.9839999675750732 C0.8769999742507935,3.749000072479248 1.2510000467300415,3.4189999103546143 1.527999997138977,2.992000102996826 C1.527999997138977,2.992000102996826 1.559999942779541,2.992000102996826 1.559999942779541,2.992000102996826 C1.6130000352859497,3.4189999103546143 1.746999979019165,3.7230000495910645 1.9600000381469727,3.9040000438690186 C2.1730000972747803,4.085000038146973 2.493000030517578,4.176000118255615 2.9200000762939453,4.176000118255615 C3.2079999446868896,4.176000118255615 3.5280001163482666,4.138999938964844 3.880000114440918,4.064000129699707 C3.880000114440918,4.064000129699707 3.880000114440918,3.0399999618530273 3.880000114440918,3.0399999618530273 C3.815999984741211,3.0399999618530273 3.752000093460083,3.0450000762939453 3.687999963760376,3.055999994277954 C3.5490000247955322,3.055999994277954 3.453000068664551,2.992000102996826 3.4000000953674316,2.864000082015991 C3.3469998836517334,2.7360000610351562 3.319999933242798,2.5280001163482666 3.319999933242798,2.240000009536743 C3.319999933242798,2.240000009536743 3.319999933242798,-1.3600000143051147 3.319999933242798,-1.3600000143051147 C3.319999933242798,-2.4159998893737793 3.0429999828338623,-3.1730000972747803 2.48799991607666,-3.631999969482422 C1.9329999685287476,-4.10099983215332 1.1649999618530273,-4.335999965667725 0.18400000035762787,-4.335999965667725 C-1.031999945640564,-4.335999965667725 -1.944000005722046,-4.074999809265137 -2.552000045776367,-3.552000045776367 C-3.1600000858306885,-3.0290000438690186 -3.484999895095825,-2.3469998836517334 -3.5280001163482666,-1.503999948501587 C-3.5280001163482666,-1.503999948501587 -1.7039999961853027,-1.503999948501587 -1.7039999961853027,-1.503999948501587 C-1.6720000505447388,-1.8450000286102295 -1.597000002861023,-2.122999906539917 -1.4800000190734863,-2.3359999656677246 C-1.3630000352859497,-2.5490000247955322 -1.1759999990463257,-2.7039999961853027 -0.9200000166893005,-2.799999952316284 C-0.6639999747276306,-2.8959999084472656 -0.3230000138282776,-2.944000005722046 0.10400000214576721,-2.944000005722046 C0.6159999966621399,-2.944000005722046 0.984000027179718,-2.8529999256134033 1.2079999446868896,-2.671999931335449 C1.4320000410079956,-2.500999927520752 1.5440000295639038,-2.260999917984009 1.5440000295639038,-1.9520000219345093 C1.5440000295639038,-1.7170000076293945 1.475000023841858,-1.531000018119812 1.3359999656677246,-1.3919999599456787 C1.1970000267028809,-1.2640000581741333 1.0160000324249268,-1.1629999876022339 0.7919999957084656,-1.0880000591278076 C0.5680000185966492,-1.0130000114440918 0.2529999911785126,-0.9330000281333923 -0.15199999511241913,-0.8479999899864197 C-0.3009999990463257,-0.8270000219345093 -0.4350000023841858,-0.800000011920929 -0.5519999861717224,-0.7680000066757202 C-1.2769999504089355,-0.6290000081062317 -1.8799999952316284,-0.45899999141693115 -2.359999895095825,-0.25600001215934753 C-2.8289999961853027,-0.06400000303983688 -3.203000068664551,0.21299999952316284 -3.4800000190734863,0.5759999752044678 C-3.746999979019165,0.9390000104904175 -3.880000114440918,1.4079999923706055 -3.880000114440918,1.9839999675750732 C-3.880000114440918,2.687999963760376 -3.6449999809265137,3.259000062942505 -3.1760001182556152,3.696000099182129z"></path></g></g><g transform="matrix(1,0,0,1,244.1280059814453,66.8239974975586)" opacity="1" style="display: block;"><g opacity="1" transform="matrix(2,0,0,2,0,0)"><path fill="rgb(0,0,0)" fill-opacity="1" d=" M-2,3.7839999198913574 C-1.38100004196167,4.146999835968018 -0.6610000133514404,4.328000068664551 0.1599999964237213,4.328000068664551 C0.8640000224113464,4.328000068664551 1.4880000352859497,4.189000129699707 2.0320000648498535,3.9119999408721924 C2.5869998931884766,3.624000072479248 3.0239999294281006,3.234999895095825 3.3440001010894775,2.74399995803833 C3.674999952316284,2.243000030517578 3.8610000610351562,1.6770000457763672 3.9040000438690186,1.0479999780654907 C3.9040000438690186,1.0479999780654907 2.0320000648498535,1.0479999780654907 2.0320000648498535,1.0479999780654907 C2,1.3680000305175781 1.9199999570846558,1.6670000553131104 1.7920000553131104,1.944000005722046 C1.6749999523162842,2.2109999656677246 1.4769999980926514,2.434999942779541 1.2000000476837158,2.615999937057495 C0.9330000281333923,2.7869999408721924 0.5809999704360962,2.871999979019165 0.14399999380111694,2.871999979019165 C-0.34700000286102295,2.871999979019165 -0.7570000290870667,2.74399995803833 -1.0880000591278076,2.48799991607666 C-1.4079999923706055,2.2320001125335693 -1.6430000066757202,1.8910000324249268 -1.7920000553131104,1.4639999866485596 C-1.940999984741211,1.0269999504089355 -2.0160000324249268,0.5410000085830688 -2.0160000324249268,0.00800000037997961 C-2.0160000324249268,-0.5360000133514404 -1.940999984741211,-1.0210000276565552 -1.7920000553131104,-1.4479999542236328 C-1.6430000066757202,-1.8849999904632568 -1.4079999923706055,-2.2320001125335693 -1.0880000591278076,-2.48799991607666 C-0.7570000290870667,-2.74399995803833 -0.34700000286102295,-2.871999979019165 0.14399999380111694,-2.871999979019165 C0.5809999704360962,-2.871999979019165 0.9330000281333923,-2.7809998989105225 1.2000000476837158,-2.5999999046325684 C1.4670000076293945,-2.428999900817871 1.6640000343322754,-2.2109999656677246 1.7920000553131104,-1.944000005722046 C1.9199999570846558,-1.6770000457763672 2,-1.3949999809265137 2.0320000648498535,-1.0959999561309814 C2.0320000648498535,-1.0959999561309814 3.9040000438690186,-1.0959999561309814 3.9040000438690186,-1.0959999561309814 C3.8289999961853027,-1.725000023841858 3.631999969482422,-2.2799999713897705 3.312000036239624,-2.759999990463257 C2.992000102996826,-3.250999927520752 2.555000066757202,-3.634999990463257 2,-3.9119999408721924 C1.4559999704360962,-4.189000129699707 0.8320000171661377,-4.328000068664551 0.12800000607967377,-4.328000068664551 C-0.6830000281333923,-4.328000068664551 -1.3919999599456787,-4.140999794006348 -2,-3.7679998874664307 C-2.6080000400543213,-3.4049999713897705 -3.0769999027252197,-2.8929998874664307 -3.4079999923706055,-2.2320001125335693 C-3.739000082015991,-1.5809999704360962 -3.9040000438690186,-0.8349999785423279 -3.9040000438690186,0.00800000037997961 C-3.9040000438690186,0.8510000109672546 -3.739000082015991,1.6030000448226929 -3.4079999923706055,2.2639999389648438 C-3.0769999027252197,2.9149999618530273 -2.6080000400543213,3.4210000038146973 -2,3.7839999198913574z"></path></g></g><g transform="matrix(1,0,0,1,224.22500610351562,63.447998046875)" opacity="1" style="display: block;"><g opacity="1" transform="matrix(2,0,0,2,0,0)"><path fill="rgb(0,0,0)" fill-opacity="1" d=" M2.2239999771118164,-2.4000000953674316 C2.2239999771118164,-2.4000000953674316 -2.2239999771118164,-2.4000000953674316 -2.2239999771118164,-2.4000000953674316 C-2.2239999771118164,-2.4000000953674316 -2.2239999771118164,-0.9279999732971191 -2.2239999771118164,-0.9279999732971191 C-2.2239999771118164,-0.9279999732971191 2.2239999771118164,-0.9279999732971191 2.2239999771118164,-0.9279999732971191 C2.2239999771118164,-0.9279999732971191 2.2239999771118164,-2.4000000953674316 2.2239999771118164,-2.4000000953674316z M-0.8640000224113464,-4.76800012588501 C-1.0240000486373901,-4.40500020980835 -1.1039999723434448,-3.9089999198913574 -1.1039999723434448,-3.2799999713897705 C-1.1039999723434448,-3.2799999713897705 -1.1039999723434448,5.776000022888184 -1.1039999723434448,5.776000022888184 C-1.1039999723434448,5.776000022888184 0.7200000286102295,5.776000022888184 0.7200000286102295,5.776000022888184 C0.7200000286102295,5.776000022888184 0.7200000286102295,-3.2799999713897705 0.7200000286102295,-3.2799999713897705 C0.7200000286102295,-3.568000078201294 0.746999979019165,-3.7869999408721924 0.800000011920929,-3.936000108718872 C0.8529999852180481,-4.085000038146973 0.9390000104904175,-4.186999797821045 1.055999994277954,-4.239999771118164 C1.1729999780654907,-4.293000221252441 1.3389999866485596,-4.320000171661377 1.5520000457763672,-4.320000171661377 C1.6799999475479126,-4.320000171661377 1.9040000438690186,-4.303999900817871 2.2239999771118164,-4.271999835968018 C2.2239999771118164,-4.271999835968018 2.2239999771118164,-5.664000034332275 2.2239999771118164,-5.664000034332275 C1.7970000505447388,-5.738999843597412 1.4240000247955322,-5.776000022888184 1.1039999723434448,-5.776000022888184 C0.6029999852180481,-5.776000022888184 0.19200000166893005,-5.696000099182129 -0.12800000607967377,-5.535999774932861 C-0.4480000138282776,-5.38700008392334 -0.6930000185966492,-5.13100004196167 -0.8640000224113464,-4.76800012588501z"></path></g></g><g transform="matrix(1,0,0,1,215.43301391601562,63.55999755859375)" opacity="1" style="display: block;"><g opacity="1" transform="matrix(2,0,0,2,0,0)"><path fill="rgb(0,0,0)" fill-opacity="1" d=" M0.9120000004768372,-5.71999979019165 C0.9120000004768372,-5.71999979019165 -0.9120000004768372,-5.71999979019165 -0.9120000004768372,-5.71999979019165 C-0.9120000004768372,-5.71999979019165 -0.9120000004768372,5.71999979019165 -0.9120000004768372,5.71999979019165 C-0.9120000004768372,5.71999979019165 0.9120000004768372,5.71999979019165 0.9120000004768372,5.71999979019165 C0.9120000004768372,5.71999979019165 0.9120000004768372,-5.71999979019165 0.9120000004768372,-5.71999979019165z"></path></g></g><g transform="matrix(1,0,0,1,202.885009765625,66.8239974975586)" opacity="1" style="display: block;"><g opacity="1" transform="matrix(2,0,0,2,0,0)"><path fill="rgb(0,0,0)" fill-opacity="1" d=" M-2.135999917984009,3.7839999198913574 C-1.5169999599456787,4.1570000648498535 -0.781000018119812,4.343999862670898 0.07199999690055847,4.343999862670898 C1.1169999837875366,4.343999862670898 1.965000033378601,4.098999977111816 2.615999937057495,3.6080000400543213 C3.2669999599456787,3.1070001125335693 3.7039999961853027,2.434999942779541 3.927999973297119,1.5920000076293945 C3.927999973297119,1.5920000076293945 2.072000026702881,1.5920000076293945 2.072000026702881,1.5920000076293945 C2.007999897003174,1.784000039100647 1.9010000228881836,1.9809999465942383 1.7519999742507935,2.184000015258789 C1.6130000352859497,2.38700008392334 1.4049999713897705,2.556999921798706 1.128000020980835,2.696000099182129 C0.8510000109672546,2.8239998817443848 0.5090000033378601,2.888000011444092 0.10400000214576721,2.888000011444092 C-0.37599998712539673,2.888000011444092 -0.7870000004768372,2.7809998989105225 -1.128000020980835,2.568000078201294 C-1.4589999914169312,2.3440001010894775 -1.715000033378601,2.0450000762939453 -1.8960000276565552,1.6720000505447388 C-2.066999912261963,1.2990000247955322 -2.1519999504089355,0.8830000162124634 -2.1519999504089355,0.42399999499320984 C-2.1519999504089355,0.07199999690055847 -2.1519999504089355,-0.2800000011920929 -2.1519999504089355,-0.6320000290870667 C-2.1519999504089355,-1.090999960899353 -2.061000108718872,-1.4910000562667847 -1.8799999952316284,-1.8320000171661377 C-1.6990000009536743,-2.1730000972747803 -1.4429999589920044,-2.440000057220459 -1.1119999885559082,-2.631999969482422 C-0.7710000276565552,-2.8239998817443848 -0.3869999945163727,-2.9200000762939453 0.03999999910593033,-2.9200000762939453 C0.4560000002384186,-2.9200000762939453 0.8240000009536743,-2.8289999961853027 1.1440000534057617,-2.6480000019073486 C1.4639999866485596,-2.4769999980926514 1.7089999914169312,-2.2320001125335693 1.8799999952316284,-1.9119999408721924 C2.0510001182556152,-1.6030000448226929 2.135999917984009,-1.2400000095367432 2.135999917984009,-0.8240000009536743 C2.135999917984009,-0.8240000009536743 -3.0480000972747803,-0.8240000009536743 -3.0480000972747803,-0.8240000009536743 C-3.0480000972747803,-0.8240000009536743 -3.0480000972747803,0.4880000054836273 -3.0480000972747803,0.4880000054836273 C-3.0480000972747803,0.4880000054836273 4.007999897003174,0.4880000054836273 4.007999897003174,0.4880000054836273 C4.019000053405762,0.38100001215934753 4.02400016784668,0.20499999821186066 4.02400016784668,-0.03999999910593033 C4.02400016784668,-0.9359999895095825 3.86899995803833,-1.7039999961853027 3.559999942779541,-2.3440001010894775 C3.260999917984009,-2.9839999675750732 2.812999963760376,-3.4749999046325684 2.2160000801086426,-3.815999984741211 C1.61899995803833,-4.168000221252441 0.9039999842643738,-4.343999862670898 0.07199999690055847,-4.343999862670898 C-0.7710000276565552,-4.343999862670898 -1.5010000467300415,-4.1570000648498535 -2.119999885559082,-3.7839999198913574 C-2.7279999256134033,-3.4210000038146973 -3.197000026702881,-2.9089999198913574 -3.5280001163482666,-2.247999906539917 C-3.8589999675750732,-1.597000002861023 -4.02400016784668,-0.8510000109672546 -4.02400016784668,-0.00800000037997961 C-4.02400016784668,0.8349999785423279 -3.864000082015991,1.5870000123977661 -3.5439999103546143,2.247999906539917 C-3.2130000591278076,2.8989999294281006 -2.74399995803833,3.4110000133514404 -2.135999917984009,3.7839999198913574z"></path></g></g><g transform="matrix(1,0,0,1,183.6120147705078,63.55999755859375)" opacity="1" style="display: block;"><g opacity="1" transform="matrix(2,0,0,2,0,0)"><path fill="rgb(0,0,0)" fill-opacity="1" d=" M-2.191999912261963,5.464000225067139 C-1.4240000247955322,5.795000076293945 -0.5550000071525574,5.960000038146973 0.41600000858306885,5.960000038146973 C1.343999981880188,5.960000038146973 2.128000020980835,5.810999870300293 2.7679998874664307,5.51200008392334 C3.4079999923706055,5.2129998207092285 3.888000011444092,4.802999973297119 4.208000183105469,4.28000020980835 C4.5279998779296875,3.756999969482422 4.688000202178955,3.1549999713897705 4.688000202178955,2.4719998836517334 C4.688000202178955,1.7359999418258667 4.500999927520752,1.1440000534057617 4.127999782562256,0.6959999799728394 C3.765000104904175,0.24799999594688416 3.3010001182556152,-0.08799999952316284 2.7360000610351562,-0.31200000643730164 C2.180999994277954,-0.546999990940094 1.434999942779541,-0.7870000004768372 0.4959999918937683,-1.031999945640564 C0.453000009059906,-1.0429999828338623 0.41600000858306885,-1.0529999732971191 0.3840000033378601,-1.0640000104904175 C0.3409999907016754,-1.0750000476837158 0.29899999499320984,-1.0850000381469727 0.25600001215934753,-1.0959999561309814 C-0.3199999928474426,-1.2450000047683716 -0.7680000066757202,-1.378999948501587 -1.0880000591278076,-1.496000051498413 C-1.4079999923706055,-1.6239999532699585 -1.6640000343322754,-1.7949999570846558 -1.8559999465942383,-2.007999897003174 C-2.0480000972747803,-2.2209999561309814 -2.1440000534057617,-2.509000062942505 -2.1440000534057617,-2.871999979019165 C-2.1440000534057617,-3.319999933242798 -1.9730000495910645,-3.6610000133514404 -1.6319999694824219,-3.8959999084472656 C-1.2910000085830688,-4.13100004196167 -0.7950000166893005,-4.248000144958496 -0.14399999380111694,-4.248000144958496 C0.6029999852180481,-4.248000144958496 1.1729999780654907,-4.083000183105469 1.5679999589920044,-3.752000093460083 C1.9730000495910645,-3.4210000038146973 2.2190001010894775,-2.936000108718872 2.303999900817871,-2.2960000038146973 C2.303999900817871,-2.2960000038146973 4.415999889373779,-2.2960000038146973 4.415999889373779,-2.2960000038146973 C4.373000144958496,-3.052999973297119 4.15500020980835,-3.7039999961853027 3.759999990463257,-4.248000144958496 C3.365000009536743,-4.802999973297119 2.8320000171661377,-5.223999977111816 2.1600000858306885,-5.51200008392334 C1.4880000352859497,-5.810999870300293 0.7149999737739563,-5.960000038146973 -0.1599999964237213,-5.960000038146973 C-0.9919999837875366,-5.960000038146973 -1.7170000076293945,-5.836999893188477 -2.3359999656677246,-5.5920000076293945 C-2.944000005722046,-5.3470001220703125 -3.4189999103546143,-4.984000205993652 -3.759999990463257,-4.504000186920166 C-4.10099983215332,-4.02400016784668 -4.271999835968018,-3.437000036239624 -4.271999835968018,-2.74399995803833 C-4.271999835968018,-2.0829999446868896 -4.10099983215332,-1.5390000343322754 -3.759999990463257,-1.1119999885559082 C-3.4079999923706055,-0.6850000023841858 -2.9760000705718994,-0.35499998927116394 -2.4639999866485596,-0.11999999731779099 C-1.940999984741211,0.10400000214576721 -1.2910000085830688,0.3230000138282776 -0.5120000243186951,0.5360000133514404 C-0.3630000054836273,0.5789999961853027 -0.24500000476837158,0.6110000014305115 -0.1599999964237213,0.6320000290870667 C0.5550000071525574,0.8240000009536743 1.0880000591278076,0.9890000224113464 1.440000057220459,1.128000020980835 C1.7920000553131104,1.25600004196167 2.069000005722046,1.437000036239624 2.2720000743865967,1.6720000505447388 C2.4749999046325684,1.8960000276565552 2.5759999752044678,2.2109999656677246 2.5759999752044678,2.615999937057495 C2.5759999752044678,2.936000108718872 2.500999927520752,3.2190001010894775 2.3519999980926514,3.4639999866485596 C2.2130000591278076,3.7090001106262207 1.9789999723434448,3.9010000228881836 1.6480000019073486,4.039999961853027 C1.3279999494552612,4.178999900817871 0.9010000228881836,4.248000144958496 0.36800000071525574,4.248000144958496 C-0.26100000739097595,4.248000144958496 -0.7889999747276306,4.1519999504089355 -1.215999960899353,3.9600000381469727 C-1.6430000066757202,3.7679998874664307 -1.9730000495910645,3.496000051498413 -2.2079999446868896,3.1440000534057617 C-2.431999921798706,2.7920000553131104 -2.555000066757202,2.365000009536743 -2.5759999752044678,1.8639999628067017 C-2.5759999752044678,1.8639999628067017 -4.688000202178955,1.8639999628067017 -4.688000202178955,1.8639999628067017 C-4.656000137329102,2.7070000171661377 -4.421000003814697,3.437000036239624 -3.9839999675750732,4.056000232696533 C-3.546999931335449,4.664000034332275 -2.9489998817443848,5.132999897003174 -2.191999912261963,5.464000225067139z"></path></g></g><g transform="matrix(1,0,0,1,334.48101806640625,119.79800415039062)" opacity="1" style="display: block;"><g opacity="1" transform="matrix(2,0,0,2,0,0)"><path fill="rgb(0,0,0)" fill-opacity="1" d=" M1.815000057220459,4.565000057220459 C1.3600000143051147,5.019999980926514 0.7590000033378601,5.247000217437744 0.010999999940395355,5.247000217437744 C-1.1180000305175781,5.247000217437744 -1.9179999828338623,4.7779998779296875 -2.38700008392334,3.8389999866485596 C-2.8420000076293945,2.885999917984009 -3.069000005722046,1.6100000143051147 -3.069000005722046,0.010999999940395355 C-3.069000005722046,-1.0160000324249268 -2.9739999771118164,-1.9179999828338623 -2.7829999923706055,-2.694999933242798 C-2.5920000076293945,-3.4719998836517334 -2.2699999809265137,-4.0879998207092285 -1.815000057220459,-4.543000221252441 C-1.3600000143051147,-5.01200008392334 -0.7519999742507935,-5.247000217437744 0.010999999940395355,-5.247000217437744 C1.1109999418258667,-5.247000217437744 1.8960000276565552,-4.769999980926514 2.365000009536743,-3.816999912261963 C2.8340001106262207,-2.878000020980835 3.069000005722046,-1.6019999980926514 3.069000005722046,0.010999999940395355 C3.069000005722046,1.0379999876022339 2.9739999771118164,1.940000057220459 2.7829999923706055,2.7170000076293945 C2.5920000076293945,3.49399995803833 2.2699999809265137,4.110000133514404 1.815000057220459,4.565000057220459z M-3.5969998836517334,6.919000148773193 C-2.628999948501587,7.593999862670898 -1.4259999990463257,7.931000232696533 0.010999999940395355,7.931000232696533 C1.434000015258789,7.931000232696533 2.621999979019165,7.593999862670898 3.575000047683716,6.919000148773193 C4.543000221252441,6.230000019073486 5.26200008392334,5.290999889373779 5.730999946594238,4.103000164031982 C6.199999809265137,2.9149999618530273 6.434999942779541,1.5509999990463257 6.434999942779541,0.010999999940395355 C6.434999942779541,-1.5290000438690186 6.199999809265137,-2.8929998874664307 5.730999946594238,-4.080999851226807 C5.26200008392334,-5.283999919891357 4.543000221252441,-6.2220001220703125 3.575000047683716,-6.896999835968018 C2.621999979019165,-7.585999965667725 1.434000015258789,-7.931000232696533 0.010999999940395355,-7.931000232696533 C-1.4259999990463257,-7.931000232696533 -2.628999948501587,-7.585999965667725 -3.5969998836517334,-6.896999835968018 C-4.565000057220459,-6.2220001220703125 -5.283999919891357,-5.283999919891357 -5.752999782562256,-4.080999851226807 C-6.208000183105469,-2.8929998874664307 -6.434999942779541,-1.5290000438690186 -6.434999942779541,0.010999999940395355 C-6.434999942779541,1.5509999990463257 -6.208000183105469,2.9149999618530273 -5.752999782562256,4.103000164031982 C-5.283999919891357,5.290999889373779 -4.565000057220459,6.230000019073486 -3.5969998836517334,6.919000148773193z"></path></g></g><g transform="matrix(1,0,0,1,305.30499267578125,119.79800415039062)" opacity="1" style="display: block;"><g opacity="1" transform="matrix(2,0,0,2,0,0)"><path fill="rgb(0,0,0)" fill-opacity="1" d=" M1.815000057220459,4.565000057220459 C1.3600000143051147,5.019999980926514 0.7590000033378601,5.247000217437744 0.010999999940395355,5.247000217437744 C-1.1180000305175781,5.247000217437744 -1.9179999828338623,4.7779998779296875 -2.38700008392334,3.8389999866485596 C-2.8420000076293945,2.885999917984009 -3.069000005722046,1.6100000143051147 -3.069000005722046,0.010999999940395355 C-3.069000005722046,-1.0160000324249268 -2.9739999771118164,-1.9179999828338623 -2.7829999923706055,-2.694999933242798 C-2.5920000076293945,-3.4719998836517334 -2.2699999809265137,-4.0879998207092285 -1.815000057220459,-4.543000221252441 C-1.3600000143051147,-5.01200008392334 -0.7519999742507935,-5.247000217437744 0.010999999940395355,-5.247000217437744 C1.1109999418258667,-5.247000217437744 1.8960000276565552,-4.769999980926514 2.365000009536743,-3.816999912261963 C2.8340001106262207,-2.878000020980835 3.069000005722046,-1.6019999980926514 3.069000005722046,0.010999999940395355 C3.069000005722046,1.0379999876022339 2.9739999771118164,1.940000057220459 2.7829999923706055,2.7170000076293945 C2.5920000076293945,3.49399995803833 2.2699999809265137,4.110000133514404 1.815000057220459,4.565000057220459z M-3.5969998836517334,6.919000148773193 C-2.628999948501587,7.593999862670898 -1.4259999990463257,7.931000232696533 0.010999999940395355,7.931000232696533 C1.434000015258789,7.931000232696533 2.621999979019165,7.593999862670898 3.575000047683716,6.919000148773193 C4.543000221252441,6.230000019073486 5.26200008392334,5.290999889373779 5.730999946594238,4.103000164031982 C6.199999809265137,2.9149999618530273 6.434999942779541,1.5509999990463257 6.434999942779541,0.010999999940395355 C6.434999942779541,-1.5290000438690186 6.199999809265137,-2.8929998874664307 5.730999946594238,-4.080999851226807 C5.26200008392334,-5.283999919891357 4.543000221252441,-6.2220001220703125 3.575000047683716,-6.896999835968018 C2.621999979019165,-7.585999965667725 1.434000015258789,-7.931000232696533 0.010999999940395355,-7.931000232696533 C-1.4259999990463257,-7.931000232696533 -2.628999948501587,-7.585999965667725 -3.5969998836517334,-6.896999835968018 C-4.565000057220459,-6.2220001220703125 -5.283999919891357,-5.283999919891357 -5.752999782562256,-4.080999851226807 C-6.208000183105469,-2.8929998874664307 -6.434999942779541,-1.5290000438690186 -6.434999942779541,0.010999999940395355 C-6.434999942779541,1.5509999990463257 -6.208000183105469,2.9149999618530273 -5.752999782562256,4.103000164031982 C-5.283999919891357,5.290999889373779 -4.565000057220459,6.230000019073486 -3.5969998836517334,6.919000148773193z"></path></g></g><g transform="matrix(1,0,0,1,287.093017578125,132.00799560546875)" opacity="1" style="display: block;"><g opacity="1" transform="matrix(2,0,0,2,0,0)"><path fill="rgb(0,0,0)" fill-opacity="1" d=" M1.496000051498413,-1.496000051498413 C1.496000051498413,-1.496000051498413 -1.496000051498413,-1.496000051498413 -1.496000051498413,-1.496000051498413 C-1.496000051498413,-1.496000051498413 -1.496000051498413,1.496000051498413 -1.496000051498413,1.496000051498413 C-1.496000051498413,1.496000051498413 1.496000051498413,1.496000051498413 1.496000051498413,1.496000051498413 C1.496000051498413,1.496000051498413 1.496000051498413,-1.496000051498413 1.496000051498413,-1.496000051498413z"></path></g></g><g transform="matrix(1,0,0,1,268.8080139160156,119.79800415039062)" opacity="1" style="display: block;"><g opacity="1" transform="matrix(2,0,0,2,0,0)"><path fill="rgb(0,0,0)" fill-opacity="1" d=" M1.6169999837875366,5.0929999351501465 C1.2059999704360962,5.328000068664551 0.7149999737739563,5.445000171661377 0.14300000667572021,5.445000171661377 C-0.4440000057220459,5.445000171661377 -0.949999988079071,5.328000068664551 -1.375,5.0929999351501465 C-1.7999999523162842,4.857999801635742 -2.122999906539917,4.535999774932861 -2.3429999351501465,4.125 C-2.562999963760376,3.700000047683716 -2.6730000972747803,3.2160000801086426 -2.6730000972747803,2.6730000972747803 C-2.6730000972747803,2.130000114440918 -2.562999963760376,1.6460000276565552 -2.3429999351501465,1.2209999561309814 C-2.1080000400543213,0.7960000038146973 -1.777999997138977,0.4659999907016754 -1.3530000448226929,0.23100000619888306 C-0.9129999876022339,-0.017999999225139618 -0.4000000059604645,-0.14300000667572021 0.18700000643730164,-0.14300000667572021 C1.0230000019073486,-0.14300000667572021 1.6829999685287476,0.11400000005960464 2.1670000553131104,0.6269999742507935 C2.6510000228881836,1.1399999856948853 2.8929998874664307,1.815000057220459 2.8929998874664307,2.6510000228881836 C2.8929998874664307,3.2079999446868896 2.7829999923706055,3.700000047683716 2.562999963760376,4.125 C2.3580000400543213,4.535999774932861 2.0420000553131104,4.857999801635742 1.6169999837875366,5.0929999351501465z M-4.565000057220459,5.775000095367432 C-3.552999973297119,7.211999893188477 -1.9320000410079956,7.931000232696533 0.296999990940094,7.931000232696533 C1.4700000286102295,7.931000232696533 2.490000009536743,7.703999996185303 3.3550000190734863,7.249000072479248 C4.235000133514404,6.78000020980835 4.9019999504089355,6.133999824523926 5.35699987411499,5.313000202178955 C5.826000213623047,4.492000102996826 6.060999870300293,3.5460000038146973 6.060999870300293,2.4749999046325684 C6.060999870300293,1.4919999837875366 5.841000080108643,0.6200000047683716 5.401000022888184,-0.14300000667572021 C4.97599983215332,-0.9200000166893005 4.374000072479248,-1.5290000438690186 3.5969998836517334,-1.968999981880188 C2.819999933242798,-2.4089999198913574 1.9249999523162842,-2.628999948501587 0.9129999876022339,-2.628999948501587 C0.3700000047683716,-2.628999948501587 -0.13600000739097595,-2.562999963760376 -0.6050000190734863,-2.430999994277954 C-1.059999942779541,-2.313999891281128 -1.4630000591278076,-2.138000011444092 -1.815000057220459,-1.902999997138977 C-2.1670000553131104,-1.6679999828338623 -2.4820001125335693,-1.3899999856948853 -2.760999917984009,-1.0670000314712524 C-2.760999917984009,-1.0670000314712524 -2.8269999027252197,-1.1109999418258667 -2.8269999027252197,-1.1109999418258667 C-2.8269999027252197,-1.1109999418258667 -2.8269999027252197,-1.3530000448226929 -2.8269999027252197,-1.3530000448226929 C-2.8269999027252197,-2.130000114440918 -2.7320001125335693,-2.8269999027252197 -2.5409998893737793,-3.443000078201294 C-2.3359999656677246,-4.059000015258789 -2.013000011444092,-4.543000221252441 -1.5729999542236328,-4.894999980926514 C-1.1180000305175781,-5.26200008392334 -0.5320000052452087,-5.445000171661377 0.18700000643730164,-5.445000171661377 C0.8619999885559082,-5.445000171661377 1.3680000305175781,-5.276000022888184 1.7050000429153442,-4.939000129699707 C2.056999921798706,-4.616000175476074 2.2699999809265137,-4.21999979019165 2.3429999351501465,-3.750999927520752 C2.3429999351501465,-3.750999927520752 5.64300012588501,-3.750999927520752 5.64300012588501,-3.750999927520752 C5.511000156402588,-4.543000221252441 5.196000099182129,-5.254000186920166 4.697000026702881,-5.885000228881836 C4.2129998207092285,-6.53000020980835 3.5820000171661377,-7.0289998054504395 2.805000066757202,-7.38100004196167 C2.0420000553131104,-7.748000144958496 1.184000015258789,-7.931000232696533 0.23100000619888306,-7.931000232696533 C-1.059999942779541,-7.931000232696533 -2.181999921798706,-7.623000144958496 -3.134999990463257,-7.006999969482422 C-4.073999881744385,-6.406000137329102 -4.800000190734863,-5.495999813079834 -5.313000202178955,-4.2789998054504395 C-5.811999797821045,-3.062000036239624 -6.060999870300293,-1.5880000591278076 -6.060999870300293,0.14300000667572021 C-6.060999870300293,2.4600000381469727 -5.561999797821045,4.3379998207092285 -4.565000057220459,5.775000095367432z"></path></g></g><g transform="matrix(1,0,0,1,241.52801513671875,120.12800598144531)" opacity="1" style="display: block;"><g opacity="1" transform="matrix(2,0,0,2,0,0)"><path fill="rgb(0,0,0)" fill-opacity="1" d=" M-3.124000072479248,7.150000095367432 C-2.2149999141693115,7.560999870300293 -1.121999979019165,7.765999794006348 0.15399999916553497,7.765999794006348 C1.253999948501587,7.765999794006348 2.24399995803833,7.552999973297119 3.124000072479248,7.127999782562256 C4.004000186920166,6.703000068664551 4.692999839782715,6.078999996185303 5.191999912261963,5.257999897003174 C5.690999984741211,4.421999931335449 5.940000057220459,3.424999952316284 5.940000057220459,2.2660000324249268 C5.940000057220459,1.2389999628067017 5.7270002365112305,0.3449999988079071 5.302000045776367,-0.4180000126361847 C4.890999794006348,-1.1950000524520874 4.304999828338623,-1.7970000505447388 3.5420000553131104,-2.2219998836517334 C2.7939999103546143,-2.6470000743865967 1.9290000200271606,-2.859999895095825 0.9459999799728394,-2.859999895095825 C0.24199999868869781,-2.859999895095825 -0.3889999985694885,-2.756999969482422 -0.9459999799728394,-2.552000045776367 C-1.4889999628067017,-2.3469998836517334 -1.9800000190734863,-2.052999973297119 -2.4200000762939453,-1.6720000505447388 C-2.4200000762939453,-1.6720000505447388 -2.4200000762939453,-1.715999960899353 -2.4200000762939453,-1.715999960899353 C-2.4200000762939453,-1.715999960899353 -1.7380000352859497,-5.104000091552734 -1.7380000352859497,-5.104000091552734 C-1.7380000352859497,-5.104000091552734 5.236000061035156,-5.104000091552734 5.236000061035156,-5.104000091552734 C5.236000061035156,-5.104000091552734 5.236000061035156,-7.765999794006348 5.236000061035156,-7.765999794006348 C5.236000061035156,-7.765999794006348 -4.026000022888184,-7.765999794006348 -4.026000022888184,-7.765999794006348 C-4.026000022888184,-7.765999794006348 -5.742000102996826,0.6819999814033508 -5.742000102996826,0.6819999814033508 C-5.742000102996826,0.6819999814033508 -2.618000030517578,0.6819999814033508 -2.618000030517578,0.6819999814033508 C-2.2950000762939453,0.28600001335144043 -1.906999945640564,-0.007000000216066837 -1.4520000219345093,-0.1979999989271164 C-0.996999979019165,-0.40299999713897705 -0.5210000276565552,-0.5059999823570251 -0.02199999988079071,-0.5059999823570251 C0.8429999947547913,-0.5059999823570251 1.496000051498413,-0.2709999978542328 1.9359999895095825,0.1979999989271164 C2.3910000324249268,0.6669999957084656 2.618000030517578,1.3489999771118164 2.618000030517578,2.24399995803833 C2.618000030517578,2.859999895095825 2.507999897003174,3.388000011444092 2.2880001068115234,3.828000068664551 C2.068000078201294,4.252999782562256 1.7599999904632568,4.576000213623047 1.3639999628067017,4.796000003814697 C0.9679999947547913,5.015999794006348 0.49900001287460327,5.125999927520752 -0.04399999976158142,5.125999927520752 C-0.8799999952316284,5.125999927520752 -1.5329999923706055,4.906000137329102 -2.002000093460083,4.466000080108643 C-2.4570000171661377,4.026000022888184 -2.7130000591278076,3.4760000705718994 -2.7720000743865967,2.815999984741211 C-2.7720000743865967,2.815999984741211 -5.940000057220459,2.815999984741211 -5.940000057220459,2.815999984741211 C-5.910999774932861,3.7839999198913574 -5.660999774932861,4.642000198364258 -5.191999912261963,5.389999866485596 C-4.708000183105469,6.138000011444092 -4.019000053405762,6.724999904632568 -3.124000072479248,7.150000095367432z"></path></g></g><g transform="matrix(1,0,0,1,214.5780029296875,119.79800415039062)" opacity="1" style="display: block;"><g opacity="1" transform="matrix(2,0,0,2,0,0)"><path fill="rgb(0,0,0)" fill-opacity="1" d=" M1.3309999704360962,-1.7929999828338623 C0.9789999723434448,-1.6319999694824219 0.5389999747276306,-1.5509999990463257 0.010999999940395355,-1.5509999990463257 C-0.781000018119812,-1.5509999990463257 -1.3819999694824219,-1.7269999980926514 -1.7929999828338623,-2.0789999961853027 C-2.2039999961853027,-2.446000099182129 -2.4089999198913574,-2.944000005722046 -2.4089999198913574,-3.575000047683716 C-2.4089999198913574,-3.9709999561309814 -2.321000099182129,-4.322999954223633 -2.1449999809265137,-4.63100004196167 C-1.968999981880188,-4.939000129699707 -1.6979999542236328,-5.173999786376953 -1.3309999704360962,-5.335000038146973 C-0.9639999866485596,-5.511000156402588 -0.5170000195503235,-5.598999977111816 0.010999999940395355,-5.598999977111816 C0.7879999876022339,-5.598999977111816 1.3819999694824219,-5.415999889373779 1.7929999828338623,-5.048999786376953 C2.2179999351501465,-4.682000160217285 2.430999994277954,-4.190999984741211 2.430999994277954,-3.575000047683716 C2.430999994277954,-3.1640000343322754 2.3359999656677246,-2.805000066757202 2.1449999809265137,-2.496999979019165 C1.968999981880188,-2.2039999961853027 1.6979999542236328,-1.968999981880188 1.3309999704360962,-1.7929999828338623z M1.5069999694824219,5.13700008392334 C1.0820000171661377,5.3420000076293945 0.5830000042915344,5.445000171661377 0.010999999940395355,5.445000171661377 C-0.5759999752044678,5.445000171661377 -1.0820000171661377,5.3420000076293945 -1.5069999694824219,5.13700008392334 C-1.9320000410079956,4.916999816894531 -2.255000114440918,4.63100004196167 -2.4749999046325684,4.2789998054504395 C-2.694999933242798,3.9119999408721924 -2.805000066757202,3.486999988555908 -2.805000066757202,3.003000020980835 C-2.805000066757202,2.5339999198913574 -2.694999933242798,2.115999937057495 -2.4749999046325684,1.7489999532699585 C-2.255000114440918,1.3819999694824219 -1.9320000410079956,1.1039999723434448 -1.5069999694824219,0.9129999876022339 C-1.0820000171661377,0.7080000042915344 -0.5759999752044678,0.6050000190734863 0.010999999940395355,0.6050000190734863 C0.5830000042915344,0.6050000190734863 1.0820000171661377,0.7080000042915344 1.5069999694824219,0.9129999876022339 C1.9320000410079956,1.1039999723434448 2.255000114440918,1.3819999694824219 2.4749999046325684,1.7489999532699585 C2.694999933242798,2.115999937057495 2.805000066757202,2.5339999198913574 2.805000066757202,3.003000020980835 C2.805000066757202,3.486999988555908 2.694999933242798,3.9119999408721924 2.4749999046325684,4.2789998054504395 C2.255000114440918,4.63100004196167 1.9320000410079956,4.916999816894531 1.5069999694824219,5.13700008392334z M-3.134999990463257,7.4029998779296875 C-2.2109999656677246,7.755000114440918 -1.1619999408721924,7.931000232696533 0.010999999940395355,7.931000232696533 C1.1699999570846558,7.931000232696533 2.2039999961853027,7.755000114440918 3.11299991607666,7.4029998779296875 C4.0370001792907715,7.051000118255615 4.769999980926514,6.53000020980835 5.313000202178955,5.841000080108643 C5.855999946594238,5.13700008392334 6.126999855041504,4.2789998054504395 6.126999855041504,3.2669999599456787 C6.126999855041504,2.328000068664551 5.86299991607666,1.5509999990463257 5.335000038146973,0.9350000023841858 C4.807000160217285,0.3190000057220459 4.118000030517578,-0.1720000058412552 3.2669999599456787,-0.5389999747276306 C3.2669999599456787,-0.5389999747276306 3.2669999599456787,-0.5830000042915344 3.2669999599456787,-0.5830000042915344 C3.9119999408721924,-0.9350000023841858 4.433000087738037,-1.3680000305175781 4.828999996185303,-1.88100004196167 C5.224999904632568,-2.3940000534057617 5.422999858856201,-3.0399999618530273 5.422999858856201,-3.816999912261963 C5.422999858856201,-4.668000221252441 5.188000202178955,-5.401000022888184 4.718999862670898,-6.017000198364258 C4.25,-6.6479997634887695 3.6040000915527344,-7.124000072479248 2.7829999923706055,-7.447000026702881 C1.9620000123977661,-7.769999980926514 1.0379999876022339,-7.931000232696533 0.010999999940395355,-7.931000232696533 C-1.0299999713897705,-7.931000232696533 -1.9620000123977661,-7.769999980926514 -2.7829999923706055,-7.447000026702881 C-3.6040000915527344,-7.124000072479248 -4.25,-6.6479997634887695 -4.718999862670898,-6.017000198364258 C-5.188000202178955,-5.401000022888184 -5.422999858856201,-4.668000221252441 -5.422999858856201,-3.816999912261963 C-5.422999858856201,-3.0399999618530273 -5.224999904632568,-2.38700008392334 -4.828999996185303,-1.8589999675750732 C-4.433000087738037,-1.3459999561309814 -3.9119999408721924,-0.9200000166893005 -3.2669999599456787,-0.5830000042915344 C-3.2669999599456787,-0.5830000042915344 -3.2669999599456787,-0.5389999747276306 -3.2669999599456787,-0.5389999747276306 C-3.809999942779541,-0.30399999022483826 -4.294000148773193,-0.017999999225139618 -4.718999862670898,0.3190000057220459 C-5.130000114440918,0.6420000195503235 -5.4670000076293945,1.0520000457763672 -5.730999946594238,1.5509999990463257 C-5.994999885559082,2.049999952316284 -6.126999855041504,2.621999979019165 -6.126999855041504,3.2669999599456787 C-6.126999855041504,4.2789998054504395 -5.855999946594238,5.13700008392334 -5.313000202178955,5.841000080108643 C-4.769999980926514,6.53000020980835 -4.044000148773193,7.051000118255615 -3.134999990463257,7.4029998779296875z"></path></g></g><g transform="matrix(1,0,0,1,187.052001953125,120.26000213623047)" opacity="1" style="display: block;"><g opacity="1" transform="matrix(2,0,0,2,0,0)"><path fill="rgb(0,0,0)" fill-opacity="1" d=" M0.8140000104904175,-9.569999694824219 C0.8140000104904175,-9.569999694824219 -0.593999981880188,-9.569999694824219 -0.593999981880188,-9.569999694824219 C-0.593999981880188,-9.569999694824219 -0.593999981880188,9.569999694824219 -0.593999981880188,9.569999694824219 C-0.593999981880188,9.569999694824219 0.8140000104904175,9.569999694824219 0.8140000104904175,9.569999694824219 C0.8140000104904175,9.569999694824219 0.8140000104904175,-9.569999694824219 0.8140000104904175,-9.569999694824219z M-3.0360000133514404,7.061999797821045 C-2.0390000343322754,7.4730000495910645 -0.9020000100135803,7.677999973297119 0.37400001287460327,7.677999973297119 C1.621000051498413,7.677999973297119 2.684000015258789,7.486999988555908 3.563999891281128,7.105999946594238 C4.443999767303467,6.724999904632568 5.104000091552734,6.203999996185303 5.544000148773193,5.544000148773193 C5.999000072479248,4.86899995803833 6.22599983215332,4.077000141143799 6.22599983215332,3.1679999828338623 C6.22599983215332,2.24399995803833 6.013000011444092,1.4889999628067017 5.5879998207092285,0.9020000100135803 C5.177000045776367,0.3149999976158142 4.619999885559082,-0.1469999998807907 3.9159998893737793,-0.48399999737739563 C3.2269999980926514,-0.8360000252723694 2.3320000171661377,-1.180999994277954 1.2319999933242798,-1.5180000066757202 C1.0269999504089355,-1.590999960899353 0.7990000247955322,-1.656999945640564 0.550000011920929,-1.715999960899353 C0.5059999823570251,-1.7309999465942383 0.45500001311302185,-1.7450000047683716 0.3959999978542328,-1.7599999904632568 C-0.3959999978542328,-2.009000062942505 -0.996999979019165,-2.2070000171661377 -1.4079999923706055,-2.3540000915527344 C-1.8040000200271606,-2.515000104904175 -2.111999988555908,-2.7130000591278076 -2.3320000171661377,-2.947999954223633 C-2.5369999408721924,-3.183000087738037 -2.640000104904175,-3.4830000400543213 -2.640000104904175,-3.8499999046325684 C-2.640000104904175,-4.39300012588501 -2.4200000762939453,-4.802999973297119 -1.9800000190734863,-5.081999778747559 C-1.524999976158142,-5.375 -0.9240000247955322,-5.521999835968018 -0.17599999904632568,-5.521999835968018 C0.7329999804496765,-5.521999835968018 1.4450000524520874,-5.316999912261963 1.9579999446868896,-4.906000137329102 C2.4709999561309814,-4.510000228881836 2.7790000438690186,-3.9159998893737793 2.881999969482422,-3.124000072479248 C2.881999969482422,-3.124000072479248 5.940000057220459,-3.124000072479248 5.940000057220459,-3.124000072479248 C5.8520002365112305,-4.635000228881836 5.2729997634887695,-5.829999923706055 4.202000141143799,-6.710000038146973 C3.1459999084472656,-7.590000152587891 1.7230000495910645,-8.029999732971191 -0.06599999964237213,-8.029999732971191 C-1.2100000381469727,-8.029999732971191 -2.2070000171661377,-7.854000091552734 -3.058000087738037,-7.501999855041504 C-3.9089999198913574,-7.150000095367432 -4.568999767303467,-6.63700008392334 -5.038000106811523,-5.961999893188477 C-5.493000030517578,-5.2870001792907715 -5.71999979019165,-4.494999885559082 -5.71999979019165,-3.5859999656677246 C-5.71999979019165,-2.75 -5.506999969482422,-2.0460000038146973 -5.081999778747559,-1.4739999771118164 C-4.6570000648498535,-0.9169999957084656 -4.098999977111816,-0.4620000123977661 -3.4100000858306885,-0.10999999940395355 C-2.7209999561309814,0.22699999809265137 -1.8769999742507935,0.5350000262260437 -0.8799999952316284,0.8140000104904175 C-0.718999981880188,0.8730000257492065 -0.4620000123977661,0.9459999799728394 -0.10999999940395355,1.034000039100647 C0.6819999814033508,1.253999948501587 1.2910000085830688,1.4520000219345093 1.715999960899353,1.628000020980835 C2.1559998989105225,1.8040000200271606 2.500999927520752,2.0390000343322754 2.75,2.3320000171661377 C3.0139999389648438,2.6110000610351562 3.1459999084472656,2.9700000286102295 3.1459999084472656,3.4100000858306885 C3.1459999084472656,3.9670000076293945 2.9260001182556152,4.400000095367432 2.4860000610351562,4.708000183105469 C2.0460000038146973,5.015999794006348 1.3639999628067017,5.170000076293945 0.4399999976158142,5.170000076293945 C-0.24899999797344208,5.170000076293945 -0.8579999804496765,5.081999778747559 -1.3860000371932983,4.906000137329102 C-1.9140000343322754,4.715000152587891 -2.3389999866485596,4.414999961853027 -2.6619999408721924,4.004000186920166 C-2.9700000286102295,3.5789999961853027 -3.1459999084472656,3.0360000133514404 -3.190000057220459,2.375999927520752 C-3.190000057220459,2.375999927520752 -6.22599983215332,2.375999927520752 -6.22599983215332,2.375999927520752 C-6.210999965667725,3.505000114440918 -5.925000190734863,4.466000080108643 -5.368000030517578,5.257999897003174 C-4.796000003814697,6.050000190734863 -4.019000053405762,6.651000022888184 -3.0360000133514404,7.061999797821045z"></path></g></g></g></g></g></svg>