<svg xmlns="http://www.w3.org/2000/svg" width="30" fill="none" class="text-icon__icon" height="29"><path d="M7.57 21.624c.356.356 1.424.756 3.604 0a12.24 12.24 0 0 0 1.824-.756 28.182 28.182 0 0 1-2.491-2.18c-.801-.801-1.513-1.646-2.18-2.492a12.233 12.233 0 0 0-.756 1.824c-.757 2.18-.356 3.248 0 3.604Zm-.578-7.43c-2.18-3.648-2.67-7.162-.934-8.897C7.793 3.562 11.308 4.05 15 6.23c3.648-2.18 7.163-2.67 8.898-.934 1.735 1.735 1.245 5.25-.935 8.897 2.18 3.693 2.67 7.207.934 8.943-1.734 1.735-5.249 1.245-8.897-.935-3.693 2.18-7.207 2.67-8.942.934-1.735-1.735-1.246-5.25.934-8.942Zm1.38-1.957a21.895 21.895 0 0 1 2.135-2.491c.845-.801 1.646-1.513 2.491-2.18a20.784 20.784 0 0 0-1.824-.801c-2.18-.712-3.248-.311-3.603.044-.356.356-.757 1.38 0 3.56.177.622.444 1.245.8 1.868ZM15 8.767c-1.023.712-2.002 1.557-2.98 2.491-.935.979-1.78 1.958-2.448 2.936.668 1.024 1.513 2.002 2.447 2.981.979.934 1.958 1.78 2.981 2.447.979-.667 1.957-1.513 2.936-2.447.934-.979 1.78-1.957 2.491-2.98-.711-.98-1.557-1.958-2.49-2.937-.98-.934-1.958-1.78-2.937-2.491Zm6.629 3.47a12.25 12.25 0 0 0 .756-1.824c.756-2.18.356-3.248 0-3.604-.356-.355-1.424-.756-3.604 0-.578.178-1.2.445-1.824.757.846.667 1.691 1.379 2.492 2.18.8.8 1.512 1.646 2.18 2.491Zm0 3.96c-.668.845-1.38 1.69-2.18 2.49-.801.801-1.646 1.513-2.492 2.18a12.25 12.25 0 0 0 1.824.757c2.18.756 3.248.356 3.604 0 .356-.356.756-1.424 0-3.604a12.24 12.24 0 0 0-.756-1.824Zm-8.053-2.003c0-.756.623-1.423 1.424-1.423.756 0 1.424.667 1.424 1.423 0 .801-.668 1.424-1.424 1.424-.8 0-1.424-.623-1.424-1.424Z" fill="#3D4148"/></svg>