<svg xmlns="http://www.w3.org/2000/svg" xmlns:xlink="http://www.w3.org/1999/xlink" viewBox="0 0 756 269" width="756" height="269" preserveAspectRatio="xMidYMid meet" style="width: 100%; height: 100%; transform: translate3d(0px, 0px, 0px); content-visibility: visible;" class=""><defs><clipPath id="__lottie_element_4"><rect width="756" height="269" x="0" y="0"></rect></clipPath><clipPath id="__lottie_element_6"><path d="M0,0 L712,0 L712,188 L0,188z"></path></clipPath><clipPath id="__lottie_element_10"><path d="M0,0 L712,0 L712,188 L0,188z"></path></clipPath><clipPath id="__lottie_element_70"><path d="M0,0 L40,0 L40,40 L0,40z"></path></clipPath><clipPath id="__lottie_element_77"><path d="M0,0 L106,0 L106,106 L0,106z"></path></clipPath><clipPath id="__lottie_element_81"><path d="M0,0 L50,0 L50,50 L0,50z"></path></clipPath></defs><g clip-path="url(#__lottie_element_4)"><g clip-path="url(#__lottie_element_6)" transform="matrix(1,0,0,1,25,36.5)" opacity="1" style="display: block;"><g clip-path="url(#__lottie_element_10)" transform="matrix(1,0,0,1,0,0)" opacity="1" style="display: block;"><g transform="matrix(1,0,0,1,356,94)" opacity="1" style="display: block;"><g opacity="1" transform="matrix(2,0,0,2,0,0)"><path fill="#FFFFFF" fill-opacity="1" d=" M176.5,-26.5 C176.5,-26.5 176.5,26.5 176.5,26.5 C176.5,37.53799819946289 167.53799438476562,46.5 156.5,46.5 C156.5,46.5 -156.5,46.5 -156.5,46.5 C-167.53799438476562,46.5 -176.5,37.53799819946289 -176.5,26.5 C-176.5,26.5 -176.5,-26.5 -176.5,-26.5 C-176.5,-37.53799819946289 -167.53799438476562,-46.5 -156.5,-46.5 C-156.5,-46.5 156.5,-46.5 156.5,-46.5 C167.53799438476562,-46.5 176.5,-37.53799819946289 176.5,-26.5z"></path><path stroke-linecap="butt" stroke-linejoin="miter" fill-opacity="0" stroke-miterlimit="4" stroke="#EBEEF4" stroke-opacity="1" stroke-width="1" d=" M176.5,-26.5 C176.5,-26.5 176.5,26.5 176.5,26.5 C176.5,37.53799819946289 167.53799438476562,46.5 156.5,46.5 C156.5,46.5 -156.5,46.5 -156.5,46.5 C-167.53799438476562,46.5 -176.5,37.53799819946289 -176.5,26.5 C-176.5,26.5 -176.5,-26.5 -176.5,-26.5 C-176.5,-37.53799819946289 -167.53799438476562,-46.5 -156.5,-46.5 C-156.5,-46.5 156.5,-46.5 156.5,-46.5 C167.53799438476562,-46.5 176.5,-37.53799819946289 176.5,-26.5z" class=""></path></g></g><g clip-path="url(#__lottie_element_77)" transform="matrix(1,0,0,1,43,41)" opacity="1" style="display: block;"><g transform="matrix(1,0,0,1,53,53)" opacity="1" style="display: block;"><g opacity="1" transform="matrix(2,0,0,2,0,0)"><path fill="#C9A2EF" fill-opacity="1" d=" M26.5,-14.5 C26.5,-14.5 26.5,14.5 26.5,14.5 C26.5,21.122800827026367 21.122800827026367,26.5 14.5,26.5 C14.5,26.5 -14.5,26.5 -14.5,26.5 C-21.122800827026367,26.5 -26.5,21.122800827026367 -26.5,14.5 C-26.5,14.5 -26.5,-14.5 -26.5,-14.5 C-26.5,-21.122800827026367 -21.122800827026367,-26.5 -14.5,-26.5 C-14.5,-26.5 14.5,-26.5 14.5,-26.5 C21.122800827026367,-26.5 26.5,-21.122800827026367 26.5,-14.5z"></path></g></g><g clip-path="url(#__lottie_element_81)" transform="matrix(1,0,0,1,28,28)" opacity="1" style="display: block;"><g transform="matrix(1,0,0,1,25,25)" opacity="1" style="display: block;"><g opacity="1" transform="matrix(2,0,0,2,0,0)"></g></g><g transform="matrix(1,0,0,1,25,25)" opacity="1" style="display: block;"><g opacity="1" transform="matrix(2,0,0,2,0,0)"><path fill="#52396A" fill-opacity="1" d=" M11.25,8.96500015258789 C11.25,8.456999778747559 10.819999694824219,8.027000427246094 10.312000274658203,8.027000427246094 C10.312000274658203,8.027000427246094 -0.8199999928474426,8.027000427246094 -0.8199999928474426,8.027000427246094 C-0.8199999928474426,8.027000427246094 1.9529999494552612,0.4099999964237213 1.9529999494552612,0.4099999964237213 C1.9529999494552612,0.4099999964237213 0.19499999284744263,-0.2150000035762787 0.19499999284744263,-0.2150000035762787 C0.19499999284744263,-0.2150000035762787 -2.812000036239624,8.027000427246094 -2.812000036239624,8.027000427246094 C-2.812000036239624,8.027000427246094 -10.312000274658203,8.027000427246094 -10.312000274658203,8.027000427246094 C-10.859000205993652,8.027000427246094 -11.25,8.456999778747559 -11.25,8.96500015258789 C-11.25,9.51200008392334 -10.859000205993652,9.902000427246094 -10.312000274658203,9.902000427246094 C-10.312000274658203,9.902000427246094 10.312000274658203,9.902000427246094 10.312000274658203,9.902000427246094 C10.819999694824219,9.902000427246094 11.25,9.51200008392334 11.25,8.96500015258789z M9.218999862670898,-0.2540000081062317 C9.218999862670898,-0.2540000081062317 6.640999794006348,-1.190999984741211 6.640999794006348,-1.190999984741211 C7.0320000648498535,-2.5190000534057617 7.2270002365112305,-3.8480000495910645 7.2270002365112305,-5.215000152587891 C8.39900016784668,-3.8480000495910645 9.10200023651123,-2.0899999141693115 9.218999862670898,-0.2540000081062317z M5.311999797821045,-5.76200008392334 C5.389999866485596,-4.434000015258789 5.235000133514404,-3.1050000190734863 4.882999897003174,-1.8550000190734863 C4.882999897003174,-1.8550000190734863 -0.4300000071525574,-3.7699999809265137 -0.4300000071525574,-3.7699999809265137 C0.07800000160932541,-4.980999946594238 0.8209999799728394,-6.073999881744385 1.718999981880188,-7.051000118255615 C2.2660000324249268,-7.5980000495910645 3.046999931335449,-7.793000221252441 3.75,-7.559000015258789 C3.7890000343322754,-7.559000015258789 3.828000068664551,-7.559000015258789 3.867000102996826,-7.519999980926514 C3.9839999675750732,-7.480999946594238 4.1020002365112305,-7.440999984741211 4.218999862670898,-7.4019999504089355 C4.843999862670898,-7.090000152587891 5.2729997634887695,-6.465000152587891 5.311999797821045,-5.76200008392334z M-4.882999897003174,-5.409999847412109 C-3.5940001010894775,-6.7769999504089355 -1.875,-7.715000152587891 0,-7.948999881744385 C-0.8980000019073486,-6.894000053405762 -1.6410000324249268,-5.684000015258789 -2.2269999980926514,-4.434000015258789 C-2.2269999980926514,-4.434000015258789 -4.882999897003174,-5.409999847412109 -4.882999897003174,-5.409999847412109z M4.492000102996826,-9.277000427246094 C4.453000068664551,-9.315999984741211 4.414000034332275,-9.315999984741211 4.335999965667725,-9.354999542236328 C0.07800000160932541,-10.83899974822998 -4.570000171661377,-9.199999809265137 -7.070000171661377,-5.684000015258789 C-7.5,-5.059000015258789 -7.186999797821045,-4.23799991607666 -6.484000205993652,-3.9649999141693115 C-6.484000205993652,-3.9649999141693115 0.625,-1.3869999647140503 0.625,-1.3869999647140503 C0.625,-1.3869999647140503 2.382999897003174,-0.7620000243186951 2.382999897003174,-0.7620000243186951 C2.382999897003174,-0.7620000243186951 9.491999626159668,1.8550000190734863 9.491999626159668,1.8550000190734863 C10.194999694824219,2.0889999866485596 10.97700023651123,1.659999966621399 11.055000305175781,0.9179999828338623 C11.406999588012695,-3.3010001182556152 9.02299976348877,-7.4019999504089355 4.960999965667725,-9.121000289916992 C4.804999828338623,-9.15999984741211 4.6479997634887695,-9.23799991607666 4.492000102996826,-9.277000427246094z"></path></g></g></g></g><g clip-path="url(#__lottie_element_70)" transform="matrix(1,0,0,1,629,41)" opacity="1" style="display: block;"><g transform="matrix(1,0,0,1,20,20)" opacity="1" style="display: block;"><g opacity="1" transform="matrix(2,0,0,2,0,0)"></g></g></g><g transform="matrix(1,0,0,1,301.02301025390625,63.560001373291016)" opacity="1" style="display: block;"><g opacity="1" transform="matrix(2,0,0,2,0,0)"><path fill="rgb(0,0,0)" fill-opacity="1" d=" M-0.9919999837875366,-5.71999979019165 C-0.9919999837875366,-5.71999979019165 -0.9919999837875366,-2.7760000228881836 -0.9919999837875366,-2.7760000228881836 C-0.9919999837875366,-2.7760000228881836 -0.5120000243186951,2.440000057220459 -0.5120000243186951,2.440000057220459 C-0.5120000243186951,2.440000057220459 0.4959999918937683,2.440000057220459 0.4959999918937683,2.440000057220459 C0.4959999918937683,2.440000057220459 0.9919999837875366,-2.7760000228881836 0.9919999837875366,-2.7760000228881836 C0.9919999837875366,-2.7760000228881836 0.9919999837875366,-5.71999979019165 0.9919999837875366,-5.71999979019165 C0.9919999837875366,-5.71999979019165 -0.9919999837875366,-5.71999979019165 -0.9919999837875366,-5.71999979019165z M0.9599999785423279,3.799999952316284 C0.9599999785423279,3.799999952316284 -0.9599999785423279,3.799999952316284 -0.9599999785423279,3.799999952316284 C-0.9599999785423279,3.799999952316284 -0.9599999785423279,5.71999979019165 -0.9599999785423279,5.71999979019165 C-0.9599999785423279,5.71999979019165 0.9599999785423279,5.71999979019165 0.9599999785423279,5.71999979019165 C0.9599999785423279,5.71999979019165 0.9599999785423279,3.799999952316284 0.9599999785423279,3.799999952316284z"></path></g></g><g transform="matrix(1,0,0,1,288.3440246582031,66.58399963378906)" opacity="1" style="display: block;"><g opacity="1" transform="matrix(2,0,0,2,0,0)"><path fill="rgb(0,0,0)" fill-opacity="1" d=" M-1.7999999523162842,-3.9679999351501465 C-1.7999999523162842,-3.9679999351501465 -3.624000072479248,-3.9679999351501465 -3.624000072479248,-3.9679999351501465 C-3.624000072479248,-3.9679999351501465 -3.624000072479248,4.208000183105469 -3.624000072479248,4.208000183105469 C-3.624000072479248,4.208000183105469 -1.7999999523162842,4.208000183105469 -1.7999999523162842,4.208000183105469 C-1.7999999523162842,4.208000183105469 -1.7999999523162842,-3.9679999351501465 -1.7999999523162842,-3.9679999351501465z M1.4160000085830688,-2.2079999446868896 C1.6720000505447388,-1.909000039100647 1.7999999523162842,-1.4670000076293945 1.7999999523162842,-0.8799999952316284 C1.7999999523162842,-0.8799999952316284 1.7999999523162842,4.208000183105469 1.7999999523162842,4.208000183105469 C1.7999999523162842,4.208000183105469 3.624000072479248,4.208000183105469 3.624000072479248,4.208000183105469 C3.624000072479248,4.208000183105469 3.624000072479248,-1.4240000247955322 3.624000072479248,-1.4240000247955322 C3.624000072479248,-2.319999933242798 3.372999906539917,-3.007999897003174 2.871999979019165,-3.48799991607666 C2.38100004196167,-3.9679999351501465 1.7309999465942383,-4.208000183105469 0.9200000166893005,-4.208000183105469 C0.26899999380111694,-4.208000183105469 -0.2800000011920929,-4.085000038146973 -0.7279999852180481,-3.8399999141693115 C-1.1649999618530273,-3.5950000286102295 -1.5119999647140503,-3.2799999713897705 -1.7680000066757202,-2.8959999084472656 C-1.7680000066757202,-2.8959999084472656 -2.375999927520752,-2.8959999084472656 -2.375999927520752,-2.8959999084472656 C-2.375999927520752,-2.8959999084472656 -2.375999927520752,-0.7360000014305115 -2.375999927520752,-0.7360000014305115 C-2.375999927520752,-0.7360000014305115 -1.7999999523162842,-0.7360000014305115 -1.7999999523162842,-0.7360000014305115 C-1.7999999523162842,-1.13100004196167 -1.7200000286102295,-1.472000002861023 -1.559999942779541,-1.7599999904632568 C-1.3890000581741333,-2.059000015258789 -1.1490000486373901,-2.2829999923706055 -0.8399999737739563,-2.431999921798706 C-0.531000018119812,-2.5920000076293945 -0.17299999296665192,-2.671999931335449 0.23199999332427979,-2.671999931335449 C0.7649999856948853,-2.671999931335449 1.159999966621399,-2.5169999599456787 1.4160000085830688,-2.2079999446868896z"></path></g></g><g transform="matrix(1,0,0,1,270.1280212402344,66.82400512695312)" opacity="1" style="display: block;"><g opacity="1" transform="matrix(2,0,0,2,0,0)"><path fill="rgb(0,0,0)" fill-opacity="1" d=" M1.25600004196167,2.5199999809265137 C0.9150000214576721,2.755000114440918 0.49900001287460327,2.871999979019165 0.00800000037997961,2.871999979019165 C-0.7390000224113464,2.871999979019165 -1.309000015258789,2.6110000610351562 -1.7039999961853027,2.0880000591278076 C-2.0880000591278076,1.565000057220459 -2.2799999713897705,0.871999979019165 -2.2799999713897705,0.00800000037997961 C-2.2799999713897705,-0.5569999814033508 -2.194999933242798,-1.059000015258789 -2.0239999294281006,-1.496000051498413 C-1.8530000448226929,-1.9329999685287476 -1.597000002861023,-2.2690000534057617 -1.25600004196167,-2.503999948501587 C-0.9150000214576721,-2.749000072479248 -0.49300000071525574,-2.871999979019165 0.00800000037997961,-2.871999979019165 C0.7440000176429749,-2.871999979019165 1.3040000200271606,-2.6110000610351562 1.687999963760376,-2.0880000591278076 C2.0829999446868896,-1.565000057220459 2.2799999713897705,-0.871999979019165 2.2799999713897705,-0.00800000037997961 C2.2799999713897705,0.5680000185966492 2.194999933242798,1.0750000476837158 2.0239999294281006,1.5119999647140503 C1.8530000448226929,1.9390000104904175 1.597000002861023,2.2750000953674316 1.25600004196167,2.5199999809265137z M-2.2320001125335693,3.799999952316284 C-1.6030000448226929,4.163000106811523 -0.8610000014305115,4.343999862670898 -0.00800000037997961,4.343999862670898 C0.8450000286102295,4.343999862670898 1.5809999704360962,4.163000106811523 2.200000047683716,3.799999952316284 C2.8289999961853027,3.427000045776367 3.309000015258789,2.9149999618530273 3.640000104904175,2.2639999389648438 C3.9809999465942383,1.6030000448226929 4.1519999504089355,0.8450000286102295 4.1519999504089355,-0.00800000037997961 C4.1519999504089355,-0.8610000014305115 3.9809999465942383,-1.6130000352859497 3.640000104904175,-2.2639999389648438 C3.309000015258789,-2.924999952316284 2.8289999961853027,-3.437000036239624 2.200000047683716,-3.799999952316284 C1.5809999704360962,-4.163000106811523 0.8510000109672546,-4.343999862670898 0.00800000037997961,-4.343999862670898 C-0.8450000286102295,-4.343999862670898 -1.5870000123977661,-4.1570000648498535 -2.2160000801086426,-3.7839999198913574 C-2.8450000286102295,-3.4210000038146973 -3.325000047683716,-2.9089999198913574 -3.6559998989105225,-2.247999906539917 C-3.986999988555908,-1.597000002861023 -4.1519999504089355,-0.8450000286102295 -4.1519999504089355,0.00800000037997961 C-4.1519999504089355,0.8610000014305115 -3.986999988555908,1.61899995803833 -3.6559998989105225,2.2799999713897705 C-3.325000047683716,2.930999994277954 -2.8510000705718994,3.437000036239624 -2.2320001125335693,3.799999952316284z"></path></g></g><g transform="matrix(1,0,0,1,257.3030090332031,63.656002044677734)" opacity="1" style="display: block;"><g opacity="1" transform="matrix(2,0,0,2,0,0)"><path fill="rgb(0,0,0)" fill-opacity="1" d=" M0.984000027179718,-5.671999931335449 C0.984000027179718,-5.671999931335449 -0.984000027179718,-5.671999931335449 -0.984000027179718,-5.671999931335449 C-0.984000027179718,-5.671999931335449 -0.984000027179718,-3.8320000171661377 -0.984000027179718,-3.8320000171661377 C-0.984000027179718,-3.8320000171661377 0.984000027179718,-3.8320000171661377 0.984000027179718,-3.8320000171661377 C0.984000027179718,-3.8320000171661377 0.984000027179718,-5.671999931335449 0.984000027179718,-5.671999931335449z M0.9200000166893005,-2.503999948501587 C0.9200000166893005,-2.503999948501587 -0.9039999842643738,-2.503999948501587 -0.9039999842643738,-2.503999948501587 C-0.9039999842643738,-2.503999948501587 -0.9039999842643738,5.671999931335449 -0.9039999842643738,5.671999931335449 C-0.9039999842643738,5.671999931335449 0.9200000166893005,5.671999931335449 0.9200000166893005,5.671999931335449 C0.9200000166893005,5.671999931335449 0.9200000166893005,-2.503999948501587 0.9200000166893005,-2.503999948501587z"></path></g></g><g transform="matrix(1,0,0,1,248.27301025390625,64.40800476074219)" opacity="1" style="display: block;"><g opacity="1" transform="matrix(2,0,0,2,0,0)"><path fill="rgb(0,0,0)" fill-opacity="1" d=" M2.247999906539917,-2.880000114440918 C2.247999906539917,-2.880000114440918 -2.2799999713897705,-2.880000114440918 -2.2799999713897705,-2.880000114440918 C-2.2799999713897705,-2.880000114440918 -2.2799999713897705,-1.4079999923706055 -2.2799999713897705,-1.4079999923706055 C-2.2799999713897705,-1.4079999923706055 2.247999906539917,-1.4079999923706055 2.247999906539917,-1.4079999923706055 C2.247999906539917,-1.4079999923706055 2.247999906539917,-2.880000114440918 2.247999906539917,-2.880000114440918z M-0.10400000214576721,5.184000015258789 C0.22699999809265137,5.333000183105469 0.6430000066757202,5.4079999923706055 1.1440000534057617,5.4079999923706055 C1.5169999599456787,5.4079999923706055 1.8960000276565552,5.370999813079834 2.2799999713897705,5.296000003814697 C2.2799999713897705,5.296000003814697 2.2799999713897705,3.888000011444092 2.2799999713897705,3.888000011444092 C2.013000011444092,3.930999994277954 1.7890000343322754,3.9519999027252197 1.6080000400543213,3.9519999027252197 C1.3839999437332153,3.9519999027252197 1.2079999446868896,3.924999952316284 1.0800000429153442,3.871999979019165 C0.9520000219345093,3.808000087738037 0.8610000014305115,3.7070000171661377 0.8080000281333923,3.568000078201294 C0.7549999952316284,3.4189999103546143 0.7279999852180481,3.200000047683716 0.7279999852180481,2.9119999408721924 C0.7279999852180481,2.9119999408721924 0.7279999852180481,-5.4079999923706055 0.7279999852180481,-5.4079999923706055 C0.7279999852180481,-5.4079999923706055 -1.1119999885559082,-5.4079999923706055 -1.1119999885559082,-5.4079999923706055 C-1.1119999885559082,-5.4079999923706055 -1.1119999885559082,2.9119999408721924 -1.1119999885559082,2.9119999408721924 C-1.1119999885559082,3.5409998893737793 -1.0269999504089355,4.0370001792907715 -0.8560000061988831,4.400000095367432 C-0.6850000023841858,4.763000011444092 -0.4350000023841858,5.02400016784668 -0.10400000214576721,5.184000015258789z"></path></g></g><g transform="matrix(1,0,0,1,234.8240203857422,66.80799865722656)" opacity="1" style="display: block;"><g opacity="1" transform="matrix(2,0,0,2,0,0)"><path fill="rgb(0,0,0)" fill-opacity="1" d=" M0.47200000286102295,2.7039999961853027 C0.13099999725818634,2.864000082015991 -0.2590000033378601,2.944000005722046 -0.6959999799728394,2.944000005722046 C-1.1330000162124634,2.944000005722046 -1.4589999914169312,2.8529999256134033 -1.6720000505447388,2.671999931335449 C-1.8849999904632568,2.4800000190734863 -1.9919999837875366,2.197000026702881 -1.9919999837875366,1.8240000009536743 C-1.9919999837875366,1.5570000410079956 -1.9329999685287476,1.3389999866485596 -1.815999984741211,1.1679999828338623 C-1.687999963760376,0.9869999885559082 -1.4910000562667847,0.8320000171661377 -1.2239999771118164,0.7039999961853027 C-0.9570000171661377,0.5759999752044678 -0.6000000238418579,0.46399998664855957 -0.15199999511241913,0.36800000071525574 C0.2639999985694885,0.28299999237060547 0.6159999966621399,0.19699999690055847 0.9039999842643738,0.1120000034570694 C1.1920000314712524,0.027000000700354576 1.4049999713897705,-0.06400000303983688 1.5440000295639038,-0.1599999964237213 C1.5440000295639038,-0.1599999964237213 1.5440000295639038,0.8799999952316284 1.5440000295639038,0.8799999952316284 C1.5440000295639038,1.2960000038146973 1.4479999542236328,1.6640000343322754 1.25600004196167,1.9839999675750732 C1.0750000476837158,2.2929999828338623 0.8130000233650208,2.5329999923706055 0.47200000286102295,2.7039999961853027z M-3.1760001182556152,3.696000099182129 C-2.696000099182129,4.123000144958496 -2.0510001182556152,4.335999965667725 -1.2400000095367432,4.335999965667725 C-0.6110000014305115,4.335999965667725 -0.061000000685453415,4.218999862670898 0.40799999237060547,3.9839999675750732 C0.8769999742507935,3.749000072479248 1.2510000467300415,3.4189999103546143 1.527999997138977,2.992000102996826 C1.527999997138977,2.992000102996826 1.559999942779541,2.992000102996826 1.559999942779541,2.992000102996826 C1.6130000352859497,3.4189999103546143 1.746999979019165,3.7230000495910645 1.9600000381469727,3.9040000438690186 C2.1730000972747803,4.085000038146973 2.493000030517578,4.176000118255615 2.9200000762939453,4.176000118255615 C3.2079999446868896,4.176000118255615 3.5280001163482666,4.138999938964844 3.880000114440918,4.064000129699707 C3.880000114440918,4.064000129699707 3.880000114440918,3.0399999618530273 3.880000114440918,3.0399999618530273 C3.815999984741211,3.0399999618530273 3.752000093460083,3.0450000762939453 3.687999963760376,3.055999994277954 C3.5490000247955322,3.055999994277954 3.453000068664551,2.992000102996826 3.4000000953674316,2.864000082015991 C3.3469998836517334,2.7360000610351562 3.319999933242798,2.5280001163482666 3.319999933242798,2.240000009536743 C3.319999933242798,2.240000009536743 3.319999933242798,-1.3600000143051147 3.319999933242798,-1.3600000143051147 C3.319999933242798,-2.4159998893737793 3.0429999828338623,-3.1730000972747803 2.48799991607666,-3.631999969482422 C1.9329999685287476,-4.10099983215332 1.1649999618530273,-4.335999965667725 0.18400000035762787,-4.335999965667725 C-1.031999945640564,-4.335999965667725 -1.944000005722046,-4.074999809265137 -2.552000045776367,-3.552000045776367 C-3.1600000858306885,-3.0290000438690186 -3.484999895095825,-2.3469998836517334 -3.5280001163482666,-1.503999948501587 C-3.5280001163482666,-1.503999948501587 -1.7039999961853027,-1.503999948501587 -1.7039999961853027,-1.503999948501587 C-1.6720000505447388,-1.8450000286102295 -1.597000002861023,-2.122999906539917 -1.4800000190734863,-2.3359999656677246 C-1.3630000352859497,-2.5490000247955322 -1.1759999990463257,-2.7039999961853027 -0.9200000166893005,-2.799999952316284 C-0.6639999747276306,-2.8959999084472656 -0.3230000138282776,-2.944000005722046 0.10400000214576721,-2.944000005722046 C0.6159999966621399,-2.944000005722046 0.984000027179718,-2.8529999256134033 1.2079999446868896,-2.671999931335449 C1.4320000410079956,-2.500999927520752 1.5440000295639038,-2.260999917984009 1.5440000295639038,-1.9520000219345093 C1.5440000295639038,-1.7170000076293945 1.475000023841858,-1.531000018119812 1.3359999656677246,-1.3919999599456787 C1.1970000267028809,-1.2640000581741333 1.0160000324249268,-1.1629999876022339 0.7919999957084656,-1.0880000591278076 C0.5680000185966492,-1.0130000114440918 0.2529999911785126,-0.9330000281333923 -0.15199999511241913,-0.8479999899864197 C-0.3009999990463257,-0.8270000219345093 -0.4350000023841858,-0.800000011920929 -0.5519999861717224,-0.7680000066757202 C-1.2769999504089355,-0.6290000081062317 -1.8799999952316284,-0.45899999141693115 -2.359999895095825,-0.25600001215934753 C-2.8289999961853027,-0.06400000303983688 -3.203000068664551,0.21299999952316284 -3.4800000190734863,0.5759999752044678 C-3.746999979019165,0.9390000104904175 -3.880000114440918,1.4079999923706055 -3.880000114440918,1.9839999675750732 C-3.880000114440918,2.687999963760376 -3.6449999809265137,3.259000062942505 -3.1760001182556152,3.696000099182129z"></path></g></g><g transform="matrix(1,0,0,1,217.52301025390625,66.82400512695312)" opacity="1" style="display: block;"><g opacity="1" transform="matrix(2,0,0,2,0,0)"><path fill="rgb(0,0,0)" fill-opacity="1" d=" M-2,3.7839999198913574 C-1.38100004196167,4.146999835968018 -0.6610000133514404,4.328000068664551 0.1599999964237213,4.328000068664551 C0.8640000224113464,4.328000068664551 1.4880000352859497,4.189000129699707 2.0320000648498535,3.9119999408721924 C2.5869998931884766,3.624000072479248 3.0239999294281006,3.234999895095825 3.3440001010894775,2.74399995803833 C3.674999952316284,2.243000030517578 3.8610000610351562,1.6770000457763672 3.9040000438690186,1.0479999780654907 C3.9040000438690186,1.0479999780654907 2.0320000648498535,1.0479999780654907 2.0320000648498535,1.0479999780654907 C2,1.3680000305175781 1.9199999570846558,1.6670000553131104 1.7920000553131104,1.944000005722046 C1.6749999523162842,2.2109999656677246 1.4769999980926514,2.434999942779541 1.2000000476837158,2.615999937057495 C0.9330000281333923,2.7869999408721924 0.5809999704360962,2.871999979019165 0.14399999380111694,2.871999979019165 C-0.34700000286102295,2.871999979019165 -0.7570000290870667,2.74399995803833 -1.0880000591278076,2.48799991607666 C-1.4079999923706055,2.2320001125335693 -1.6430000066757202,1.8910000324249268 -1.7920000553131104,1.4639999866485596 C-1.940999984741211,1.0269999504089355 -2.0160000324249268,0.5410000085830688 -2.0160000324249268,0.00800000037997961 C-2.0160000324249268,-0.5360000133514404 -1.940999984741211,-1.0210000276565552 -1.7920000553131104,-1.4479999542236328 C-1.6430000066757202,-1.8849999904632568 -1.4079999923706055,-2.2320001125335693 -1.0880000591278076,-2.48799991607666 C-0.7570000290870667,-2.74399995803833 -0.34700000286102295,-2.871999979019165 0.14399999380111694,-2.871999979019165 C0.5809999704360962,-2.871999979019165 0.9330000281333923,-2.7809998989105225 1.2000000476837158,-2.5999999046325684 C1.4670000076293945,-2.428999900817871 1.6640000343322754,-2.2109999656677246 1.7920000553131104,-1.944000005722046 C1.9199999570846558,-1.6770000457763672 2,-1.3949999809265137 2.0320000648498535,-1.0959999561309814 C2.0320000648498535,-1.0959999561309814 3.9040000438690186,-1.0959999561309814 3.9040000438690186,-1.0959999561309814 C3.8289999961853027,-1.725000023841858 3.631999969482422,-2.2799999713897705 3.312000036239624,-2.759999990463257 C2.992000102996826,-3.250999927520752 2.555000066757202,-3.634999990463257 2,-3.9119999408721924 C1.4559999704360962,-4.189000129699707 0.8320000171661377,-4.328000068664551 0.12800000607967377,-4.328000068664551 C-0.6830000281333923,-4.328000068664551 -1.3919999599456787,-4.140999794006348 -2,-3.7679998874664307 C-2.6080000400543213,-3.4049999713897705 -3.0769999027252197,-2.8929998874664307 -3.4079999923706055,-2.2320001125335693 C-3.739000082015991,-1.5809999704360962 -3.9040000438690186,-0.8349999785423279 -3.9040000438690186,0.00800000037997961 C-3.9040000438690186,0.8510000109672546 -3.739000082015991,1.6030000448226929 -3.4079999923706055,2.2639999389648438 C-3.0769999027252197,2.9149999618530273 -2.6080000400543213,3.4210000038146973 -2,3.7839999198913574z"></path></g></g><g transform="matrix(1,0,0,1,200.25302124023438,66.80799865722656)" opacity="1" style="display: block;"><g opacity="1" transform="matrix(2,0,0,2,0,0)"><path fill="rgb(0,0,0)" fill-opacity="1" d=" M0.47200000286102295,2.7039999961853027 C0.13099999725818634,2.864000082015991 -0.2590000033378601,2.944000005722046 -0.6959999799728394,2.944000005722046 C-1.1330000162124634,2.944000005722046 -1.4589999914169312,2.8529999256134033 -1.6720000505447388,2.671999931335449 C-1.8849999904632568,2.4800000190734863 -1.9919999837875366,2.197000026702881 -1.9919999837875366,1.8240000009536743 C-1.9919999837875366,1.5570000410079956 -1.9329999685287476,1.3389999866485596 -1.815999984741211,1.1679999828338623 C-1.687999963760376,0.9869999885559082 -1.4910000562667847,0.8320000171661377 -1.2239999771118164,0.7039999961853027 C-0.9570000171661377,0.5759999752044678 -0.6000000238418579,0.46399998664855957 -0.15199999511241913,0.36800000071525574 C0.2639999985694885,0.28299999237060547 0.6159999966621399,0.19699999690055847 0.9039999842643738,0.1120000034570694 C1.1920000314712524,0.027000000700354576 1.4049999713897705,-0.06400000303983688 1.5440000295639038,-0.1599999964237213 C1.5440000295639038,-0.1599999964237213 1.5440000295639038,0.8799999952316284 1.5440000295639038,0.8799999952316284 C1.5440000295639038,1.2960000038146973 1.4479999542236328,1.6640000343322754 1.25600004196167,1.9839999675750732 C1.0750000476837158,2.2929999828338623 0.8130000233650208,2.5329999923706055 0.47200000286102295,2.7039999961853027z M-3.1760001182556152,3.696000099182129 C-2.696000099182129,4.123000144958496 -2.0510001182556152,4.335999965667725 -1.2400000095367432,4.335999965667725 C-0.6110000014305115,4.335999965667725 -0.061000000685453415,4.218999862670898 0.40799999237060547,3.9839999675750732 C0.8769999742507935,3.749000072479248 1.2510000467300415,3.4189999103546143 1.527999997138977,2.992000102996826 C1.527999997138977,2.992000102996826 1.559999942779541,2.992000102996826 1.559999942779541,2.992000102996826 C1.6130000352859497,3.4189999103546143 1.746999979019165,3.7230000495910645 1.9600000381469727,3.9040000438690186 C2.1730000972747803,4.085000038146973 2.493000030517578,4.176000118255615 2.9200000762939453,4.176000118255615 C3.2079999446868896,4.176000118255615 3.5280001163482666,4.138999938964844 3.880000114440918,4.064000129699707 C3.880000114440918,4.064000129699707 3.880000114440918,3.0399999618530273 3.880000114440918,3.0399999618530273 C3.815999984741211,3.0399999618530273 3.752000093460083,3.0450000762939453 3.687999963760376,3.055999994277954 C3.5490000247955322,3.055999994277954 3.453000068664551,2.992000102996826 3.4000000953674316,2.864000082015991 C3.3469998836517334,2.7360000610351562 3.319999933242798,2.5280001163482666 3.319999933242798,2.240000009536743 C3.319999933242798,2.240000009536743 3.319999933242798,-1.3600000143051147 3.319999933242798,-1.3600000143051147 C3.319999933242798,-2.4159998893737793 3.0429999828338623,-3.1730000972747803 2.48799991607666,-3.631999969482422 C1.9329999685287476,-4.10099983215332 1.1649999618530273,-4.335999965667725 0.18400000035762787,-4.335999965667725 C-1.031999945640564,-4.335999965667725 -1.944000005722046,-4.074999809265137 -2.552000045776367,-3.552000045776367 C-3.1600000858306885,-3.0290000438690186 -3.484999895095825,-2.3469998836517334 -3.5280001163482666,-1.503999948501587 C-3.5280001163482666,-1.503999948501587 -1.7039999961853027,-1.503999948501587 -1.7039999961853027,-1.503999948501587 C-1.6720000505447388,-1.8450000286102295 -1.597000002861023,-2.122999906539917 -1.4800000190734863,-2.3359999656677246 C-1.3630000352859497,-2.5490000247955322 -1.1759999990463257,-2.7039999961853027 -0.9200000166893005,-2.799999952316284 C-0.6639999747276306,-2.8959999084472656 -0.3230000138282776,-2.944000005722046 0.10400000214576721,-2.944000005722046 C0.6159999966621399,-2.944000005722046 0.984000027179718,-2.8529999256134033 1.2079999446868896,-2.671999931335449 C1.4320000410079956,-2.500999927520752 1.5440000295639038,-2.260999917984009 1.5440000295639038,-1.9520000219345093 C1.5440000295639038,-1.7170000076293945 1.475000023841858,-1.531000018119812 1.3359999656677246,-1.3919999599456787 C1.1970000267028809,-1.2640000581741333 1.0160000324249268,-1.1629999876022339 0.7919999957084656,-1.0880000591278076 C0.5680000185966492,-1.0130000114440918 0.2529999911785126,-0.9330000281333923 -0.15199999511241913,-0.8479999899864197 C-0.3009999990463257,-0.8270000219345093 -0.4350000023841858,-0.800000011920929 -0.5519999861717224,-0.7680000066757202 C-1.2769999504089355,-0.6290000081062317 -1.8799999952316284,-0.45899999141693115 -2.359999895095825,-0.25600001215934753 C-2.8289999961853027,-0.06400000303983688 -3.203000068664551,0.21299999952316284 -3.4800000190734863,0.5759999752044678 C-3.746999979019165,0.9390000104904175 -3.880000114440918,1.4079999923706055 -3.880000114440918,1.9839999675750732 C-3.880000114440918,2.687999963760376 -3.6449999809265137,3.259000062942505 -3.1760001182556152,3.696000099182129z"></path></g></g><g transform="matrix(1,0,0,1,183.24002075195312,63.560001373291016)" opacity="1" style="display: block;"><g opacity="1" transform="matrix(2,0,0,2,0,0)"><path fill="rgb(0,0,0)" fill-opacity="1" d=" M-2.7679998874664307,-5.71999979019165 C-2.7679998874664307,-5.71999979019165 -5.02400016784668,-5.71999979019165 -5.02400016784668,-5.71999979019165 C-5.02400016784668,-5.71999979019165 -1.055999994277954,5.71999979019165 -1.055999994277954,5.71999979019165 C-1.055999994277954,5.71999979019165 1.1519999504089355,5.71999979019165 1.1519999504089355,5.71999979019165 C1.1519999504089355,5.71999979019165 5.02400016784668,-5.71999979019165 5.02400016784668,-5.71999979019165 C5.02400016784668,-5.71999979019165 2.864000082015991,-5.71999979019165 2.864000082015991,-5.71999979019165 C2.864000082015991,-5.71999979019165 0.06400000303983688,3.4639999866485596 0.06400000303983688,3.4639999866485596 C0.06400000303983688,3.4639999866485596 0.03200000151991844,3.4639999866485596 0.03200000151991844,3.4639999866485596 C0.03200000151991844,3.4639999866485596 -2.7679998874664307,-5.71999979019165 -2.7679998874664307,-5.71999979019165z"></path></g></g><g transform="matrix(1,0,0,1,370.04998779296875,119.4679946899414)" opacity="1" style="display: block;"><g opacity="1" transform="matrix(2,0,0,2,0,0)"><path fill="rgb(0,0,0)" fill-opacity="1" d=" M-5.191999912261963,5.170000076293945 C-5.544000148773193,5.918000221252441 -5.71999979019165,6.7829999923706055 -5.71999979019165,7.765999794006348 C-5.71999979019165,7.765999794006348 5.6539998054504395,7.765999794006348 5.6539998054504395,7.765999794006348 C5.6539998054504395,7.765999794006348 5.6539998054504395,5.104000091552734 5.6539998054504395,5.104000091552734 C5.6539998054504395,5.104000091552734 -1.2760000228881836,5.104000091552734 -1.2760000228881836,5.104000091552734 C-1.2760000228881836,5.104000091552734 -1.2760000228881836,5.059999942779541 -1.2760000228881836,5.059999942779541 C-1.128999948501587,4.810999870300293 -0.9390000104904175,4.576000213623047 -0.7039999961853027,4.355999946594238 C-0.4690000116825104,4.120999813079834 -0.2199999988079071,3.9010000228881836 0.04399999976158142,3.696000099182129 C0.3230000138282776,3.490999937057495 0.6380000114440918,3.2709999084472656 0.9900000095367432,3.0360000133514404 C0.9900000095367432,3.0360000133514404 1.1440000534057617,2.9700000286102295 1.1440000534057617,2.9700000286102295 C1.1440000534057617,2.9700000286102295 1.3639999628067017,2.815999984741211 1.3639999628067017,2.815999984741211 C2.259000062942505,2.200000047683716 2.999000072479248,1.628000020980835 3.5859999656677246,1.100000023841858 C4.186999797821045,0.5720000267028809 4.692999839782715,-0.050999999046325684 5.104000091552734,-0.7699999809265137 C5.514999866485596,-1.4889999628067017 5.71999979019165,-2.2880001068115234 5.71999979019165,-3.1679999828338623 C5.71999979019165,-4.120999813079834 5.493000030517578,-4.942999839782715 5.038000106811523,-5.631999969482422 C4.583000183105469,-6.335999965667725 3.953000068664551,-6.863999843597412 3.1459999084472656,-7.216000080108643 C2.3540000915527344,-7.583000183105469 1.4450000524520874,-7.765999794006348 0.4180000126361847,-7.765999794006348 C-0.8870000243186951,-7.765999794006348 -1.9800000190734863,-7.52400016784668 -2.859999895095825,-7.039999961853027 C-3.7249999046325684,-6.571000099182129 -4.370999813079834,-5.895999908447266 -4.796000003814697,-5.015999794006348 C-5.2210001945495605,-4.151000022888184 -5.434000015258789,-3.13100004196167 -5.434000015258789,-1.9579999446868896 C-5.434000015258789,-1.9579999446868896 -2.2660000324249268,-1.9579999446868896 -2.2660000324249268,-1.9579999446868896 C-2.2660000324249268,-2.6619999408721924 -2.177999973297119,-3.249000072479248 -2.002000093460083,-3.7179999351501465 C-1.8109999895095825,-4.186999797821045 -1.524999976158142,-4.539000034332275 -1.1440000534057617,-4.77400016784668 C-0.7480000257492065,-5.008999824523926 -0.25699999928474426,-5.125999927520752 0.33000001311302185,-5.125999927520752 C0.8140000104904175,-5.125999927520752 1.2029999494552612,-5.031000137329102 1.496000051498413,-4.840000152587891 C1.8040000200271606,-4.664000034332275 2.0239999294281006,-4.414999961853027 2.1559998989105225,-4.0920000076293945 C2.302999973297119,-3.7690000534057617 2.375999927520752,-3.3949999809265137 2.375999927520752,-2.9700000286102295 C2.375999927520752,-2.500999927520752 2.2660000324249268,-2.068000078201294 2.0460000038146973,-1.6720000505447388 C1.840999960899353,-1.2910000085830688 1.5470000505447388,-0.9309999942779541 1.1660000085830688,-0.593999981880188 C0.7850000262260437,-0.2709999978542328 0.2639999985694885,0.11699999868869781 -0.3959999978542328,0.5720000267028809 C-0.5429999828338623,0.6600000262260437 -0.6890000104904175,0.7630000114440918 -0.8360000252723694,0.8799999952316284 C-2.052999973297119,1.7309999465942383 -2.992000102996826,2.4709999561309814 -3.6519999504089355,3.1019999980926514 C-4.311999797821045,3.7179999351501465 -4.824999809265137,4.4070000648498535 -5.191999912261963,5.170000076293945z"></path></g></g><g transform="matrix(1,0,0,1,343.6809997558594,119.7979965209961)" opacity="1" style="display: block;"><g opacity="1" transform="matrix(2,0,0,2,0,0)"><path fill="rgb(0,0,0)" fill-opacity="1" d=" M-3.1679999828338623,7.270999908447266 C-2.2149999141693115,7.710999965667725 -1.0709999799728394,7.931000232696533 0.2639999985694885,7.931000232696533 C1.437000036239624,7.931000232696533 2.4570000171661377,7.755000114440918 3.322000026702881,7.4029998779296875 C4.202000141143799,7.035999774932861 4.876999855041504,6.507999897003174 5.3460001945495605,5.818999767303467 C5.815000057220459,5.114999771118164 6.050000190734863,4.263999938964844 6.050000190734863,3.2669999599456787 C6.050000190734863,2.3580000400543213 5.829999923706055,1.5950000286102295 5.389999866485596,0.9789999723434448 C4.965000152587891,0.3479999899864197 4.2829999923706055,-0.11400000005960464 3.3440001010894775,-0.40700000524520874 C3.3440001010894775,-0.40700000524520874 3.3440001010894775,-0.45100000500679016 3.3440001010894775,-0.45100000500679016 C4.047999858856201,-0.7879999876022339 4.5980000495910645,-1.2280000448226929 4.99399995803833,-1.7710000276565552 C5.389999866485596,-2.313999891281128 5.5879998207092285,-2.9739999771118164 5.5879998207092285,-3.750999927520752 C5.5879998207092285,-4.616000175476074 5.3460001945495605,-5.363999843597412 4.861999988555908,-5.994999885559082 C4.377999782562256,-6.625999927520752 3.7249999046325684,-7.1020002365112305 2.9040000438690186,-7.425000190734863 C2.0829999446868896,-7.76200008392334 1.1729999780654907,-7.931000232696533 0.17599999904632568,-7.931000232696533 C-1.0119999647140503,-7.931000232696533 -2.0460000038146973,-7.7179999351501465 -2.9260001182556152,-7.293000221252441 C-3.7909998893737793,-6.881999969482422 -4.459000110626221,-6.296000003814697 -4.927999973297119,-5.5329999923706055 C-5.382999897003174,-4.784999847412109 -5.610000133514404,-3.927000045776367 -5.610000133514404,-2.9590001106262207 C-5.610000133514404,-2.9590001106262207 -2.441999912261963,-2.9590001106262207 -2.441999912261963,-2.9590001106262207 C-2.441999912261963,-3.7219998836517334 -2.2290000915527344,-4.301000118255615 -1.8040000200271606,-4.697000026702881 C-1.3639999628067017,-5.0929999351501465 -0.7260000109672546,-5.290999889373779 0.10999999940395355,-5.290999889373779 C0.593999981880188,-5.290999889373779 0.996999979019165,-5.210000038146973 1.3200000524520874,-5.048999786376953 C1.6430000066757202,-4.9019999504089355 1.8769999742507935,-4.690000057220459 2.0239999294281006,-4.410999774932861 C2.184999942779541,-4.146999835968018 2.2660000324249268,-3.8320000171661377 2.2660000324249268,-3.4649999141693115 C2.2660000324249268,-2.996000051498413 2.1630001068115234,-2.6070001125335693 1.9579999446868896,-2.2990000247955322 C1.753000020980835,-1.9910000562667847 1.4589999914169312,-1.7640000581741333 1.0779999494552612,-1.6169999837875366 C0.7110000252723694,-1.4850000143051147 0.2930000126361847,-1.4190000295639038 -0.17599999904632568,-1.4190000295639038 C-0.17599999904632568,-1.4190000295639038 -1.121999979019165,-1.4190000295639038 -1.121999979019165,-1.4190000295639038 C-1.121999979019165,-1.4190000295639038 -1.121999979019165,0.9350000023841858 -1.121999979019165,0.9350000023841858 C-1.121999979019165,0.9350000023841858 -0.08799999952316284,0.9350000023841858 -0.08799999952316284,0.9350000023841858 C0.49900001287460327,0.9350000023841858 0.996999979019165,1.0080000162124634 1.4079999923706055,1.1549999713897705 C1.819000005722046,1.2869999408721924 2.1410000324249268,1.5219999551773071 2.375999927520752,1.8589999675750732 C2.6110000610351562,2.181999921798706 2.7279999256134033,2.614000082015991 2.7279999256134033,3.1570000648498535 C2.7279999256134033,3.611999988555908 2.640000104904175,4 2.4639999866485596,4.322999954223633 C2.2880001068115234,4.63100004196167 2.009000062942505,4.873000144958496 1.628000020980835,5.048999786376953 C1.246999979019165,5.210000038146973 0.7409999966621399,5.290999889373779 0.10999999940395355,5.290999889373779 C-0.593999981880188,5.290999889373779 -1.1729999780654907,5.173999786376953 -1.628000020980835,4.939000129699707 C-2.068000078201294,4.703999996185303 -2.3910000324249268,4.367000102996826 -2.5959999561309814,3.927000045776367 C-2.7869999408721924,3.486999988555908 -2.881999969482422,2.944000005722046 -2.881999969482422,2.2990000247955322 C-2.881999969482422,2.2990000247955322 -6.050000190734863,2.2990000247955322 -6.050000190734863,2.2990000247955322 C-6.050000190734863,3.486999988555908 -5.808000087738037,4.50600004196167 -5.323999881744385,5.35699987411499 C-4.824999809265137,6.192999839782715 -4.10699987411499,6.830999851226807 -3.1679999828338623,7.270999908447266z"></path></g></g><g transform="matrix(1,0,0,1,325.6940002441406,132.00799560546875)" opacity="1" style="display: block;"><g opacity="1" transform="matrix(2,0,0,2,0,0)"><path fill="rgb(0,0,0)" fill-opacity="1" d=" M1.496000051498413,-1.496000051498413 C1.496000051498413,-1.496000051498413 -1.496000051498413,-1.496000051498413 -1.496000051498413,-1.496000051498413 C-1.496000051498413,-1.496000051498413 -1.496000051498413,1.496000051498413 -1.496000051498413,1.496000051498413 C-1.496000051498413,1.496000051498413 1.496000051498413,1.496000051498413 1.496000051498413,1.496000051498413 C1.496000051498413,1.496000051498413 1.496000051498413,-1.496000051498413 1.496000051498413,-1.496000051498413z"></path></g></g><g transform="matrix(1,0,0,1,307.426025390625,119.7979965209961)" opacity="1" style="display: block;"><g opacity="1" transform="matrix(2,0,0,2,0,0)"><path fill="rgb(0,0,0)" fill-opacity="1" d=" M1.815000057220459,4.565000057220459 C1.3600000143051147,5.019999980926514 0.7590000033378601,5.247000217437744 0.010999999940395355,5.247000217437744 C-1.1180000305175781,5.247000217437744 -1.9179999828338623,4.7779998779296875 -2.38700008392334,3.8389999866485596 C-2.8420000076293945,2.885999917984009 -3.069000005722046,1.6100000143051147 -3.069000005722046,0.010999999940395355 C-3.069000005722046,-1.0160000324249268 -2.9739999771118164,-1.9179999828338623 -2.7829999923706055,-2.694999933242798 C-2.5920000076293945,-3.4719998836517334 -2.2699999809265137,-4.0879998207092285 -1.815000057220459,-4.543000221252441 C-1.3600000143051147,-5.01200008392334 -0.7519999742507935,-5.247000217437744 0.010999999940395355,-5.247000217437744 C1.1109999418258667,-5.247000217437744 1.8960000276565552,-4.769999980926514 2.365000009536743,-3.816999912261963 C2.8340001106262207,-2.878000020980835 3.069000005722046,-1.6019999980926514 3.069000005722046,0.010999999940395355 C3.069000005722046,1.0379999876022339 2.9739999771118164,1.940000057220459 2.7829999923706055,2.7170000076293945 C2.5920000076293945,3.49399995803833 2.2699999809265137,4.110000133514404 1.815000057220459,4.565000057220459z M-3.5969998836517334,6.919000148773193 C-2.628999948501587,7.593999862670898 -1.4259999990463257,7.931000232696533 0.010999999940395355,7.931000232696533 C1.434000015258789,7.931000232696533 2.621999979019165,7.593999862670898 3.575000047683716,6.919000148773193 C4.543000221252441,6.230000019073486 5.26200008392334,5.290999889373779 5.730999946594238,4.103000164031982 C6.199999809265137,2.9149999618530273 6.434999942779541,1.5509999990463257 6.434999942779541,0.010999999940395355 C6.434999942779541,-1.5290000438690186 6.199999809265137,-2.8929998874664307 5.730999946594238,-4.080999851226807 C5.26200008392334,-5.283999919891357 4.543000221252441,-6.2220001220703125 3.575000047683716,-6.896999835968018 C2.621999979019165,-7.585999965667725 1.434000015258789,-7.931000232696533 0.010999999940395355,-7.931000232696533 C-1.4259999990463257,-7.931000232696533 -2.628999948501587,-7.585999965667725 -3.5969998836517334,-6.896999835968018 C-4.565000057220459,-6.2220001220703125 -5.283999919891357,-5.283999919891357 -5.752999782562256,-4.080999851226807 C-6.208000183105469,-2.8929998874664307 -6.434999942779541,-1.5290000438690186 -6.434999942779541,0.010999999940395355 C-6.434999942779541,1.5509999990463257 -6.208000183105469,2.9149999618530273 -5.752999782562256,4.103000164031982 C-5.283999919891357,5.290999889373779 -4.565000057220459,6.230000019073486 -3.5969998836517334,6.919000148773193z"></path></g></g><g transform="matrix(1,0,0,1,278.25,119.7979965209961)" opacity="1" style="display: block;"><g opacity="1" transform="matrix(2,0,0,2,0,0)"><path fill="rgb(0,0,0)" fill-opacity="1" d=" M1.815000057220459,4.565000057220459 C1.3600000143051147,5.019999980926514 0.7590000033378601,5.247000217437744 0.010999999940395355,5.247000217437744 C-1.1180000305175781,5.247000217437744 -1.9179999828338623,4.7779998779296875 -2.38700008392334,3.8389999866485596 C-2.8420000076293945,2.885999917984009 -3.069000005722046,1.6100000143051147 -3.069000005722046,0.010999999940395355 C-3.069000005722046,-1.0160000324249268 -2.9739999771118164,-1.9179999828338623 -2.7829999923706055,-2.694999933242798 C-2.5920000076293945,-3.4719998836517334 -2.2699999809265137,-4.0879998207092285 -1.815000057220459,-4.543000221252441 C-1.3600000143051147,-5.01200008392334 -0.7519999742507935,-5.247000217437744 0.010999999940395355,-5.247000217437744 C1.1109999418258667,-5.247000217437744 1.8960000276565552,-4.769999980926514 2.365000009536743,-3.816999912261963 C2.8340001106262207,-2.878000020980835 3.069000005722046,-1.6019999980926514 3.069000005722046,0.010999999940395355 C3.069000005722046,1.0379999876022339 2.9739999771118164,1.940000057220459 2.7829999923706055,2.7170000076293945 C2.5920000076293945,3.49399995803833 2.2699999809265137,4.110000133514404 1.815000057220459,4.565000057220459z M-3.5969998836517334,6.919000148773193 C-2.628999948501587,7.593999862670898 -1.4259999990463257,7.931000232696533 0.010999999940395355,7.931000232696533 C1.434000015258789,7.931000232696533 2.621999979019165,7.593999862670898 3.575000047683716,6.919000148773193 C4.543000221252441,6.230000019073486 5.26200008392334,5.290999889373779 5.730999946594238,4.103000164031982 C6.199999809265137,2.9149999618530273 6.434999942779541,1.5509999990463257 6.434999942779541,0.010999999940395355 C6.434999942779541,-1.5290000438690186 6.199999809265137,-2.8929998874664307 5.730999946594238,-4.080999851226807 C5.26200008392334,-5.283999919891357 4.543000221252441,-6.2220001220703125 3.575000047683716,-6.896999835968018 C2.621999979019165,-7.585999965667725 1.434000015258789,-7.931000232696533 0.010999999940395355,-7.931000232696533 C-1.4259999990463257,-7.931000232696533 -2.628999948501587,-7.585999965667725 -3.5969998836517334,-6.896999835968018 C-4.565000057220459,-6.2220001220703125 -5.283999919891357,-5.283999919891357 -5.752999782562256,-4.080999851226807 C-6.208000183105469,-2.8929998874664307 -6.434999942779541,-1.5290000438690186 -6.434999942779541,0.010999999940395355 C-6.434999942779541,1.5509999990463257 -6.208000183105469,2.9149999618530273 -5.752999782562256,4.103000164031982 C-5.283999919891357,5.290999889373779 -4.565000057220459,6.230000019073486 -3.5969998836517334,6.919000148773193z"></path></g></g><g transform="matrix(1,0,0,1,250.26600646972656,120.12799072265625)" opacity="1" style="display: block;"><g opacity="1" transform="matrix(2,0,0,2,0,0)"><path fill="rgb(0,0,0)" fill-opacity="1" d=" M-3.124000072479248,7.150000095367432 C-2.2149999141693115,7.560999870300293 -1.121999979019165,7.765999794006348 0.15399999916553497,7.765999794006348 C1.253999948501587,7.765999794006348 2.24399995803833,7.552999973297119 3.124000072479248,7.127999782562256 C4.004000186920166,6.703000068664551 4.692999839782715,6.078999996185303 5.191999912261963,5.257999897003174 C5.690999984741211,4.421999931335449 5.940000057220459,3.424999952316284 5.940000057220459,2.2660000324249268 C5.940000057220459,1.2389999628067017 5.7270002365112305,0.3449999988079071 5.302000045776367,-0.4180000126361847 C4.890999794006348,-1.1950000524520874 4.304999828338623,-1.7970000505447388 3.5420000553131104,-2.2219998836517334 C2.7939999103546143,-2.6470000743865967 1.9290000200271606,-2.859999895095825 0.9459999799728394,-2.859999895095825 C0.24199999868869781,-2.859999895095825 -0.3889999985694885,-2.756999969482422 -0.9459999799728394,-2.552000045776367 C-1.4889999628067017,-2.3469998836517334 -1.9800000190734863,-2.052999973297119 -2.4200000762939453,-1.6720000505447388 C-2.4200000762939453,-1.6720000505447388 -2.4200000762939453,-1.715999960899353 -2.4200000762939453,-1.715999960899353 C-2.4200000762939453,-1.715999960899353 -1.7380000352859497,-5.104000091552734 -1.7380000352859497,-5.104000091552734 C-1.7380000352859497,-5.104000091552734 5.236000061035156,-5.104000091552734 5.236000061035156,-5.104000091552734 C5.236000061035156,-5.104000091552734 5.236000061035156,-7.765999794006348 5.236000061035156,-7.765999794006348 C5.236000061035156,-7.765999794006348 -4.026000022888184,-7.765999794006348 -4.026000022888184,-7.765999794006348 C-4.026000022888184,-7.765999794006348 -5.742000102996826,0.6819999814033508 -5.742000102996826,0.6819999814033508 C-5.742000102996826,0.6819999814033508 -2.618000030517578,0.6819999814033508 -2.618000030517578,0.6819999814033508 C-2.2950000762939453,0.28600001335144043 -1.906999945640564,-0.007000000216066837 -1.4520000219345093,-0.1979999989271164 C-0.996999979019165,-0.40299999713897705 -0.5210000276565552,-0.5059999823570251 -0.02199999988079071,-0.5059999823570251 C0.8429999947547913,-0.5059999823570251 1.496000051498413,-0.2709999978542328 1.9359999895095825,0.1979999989271164 C2.3910000324249268,0.6669999957084656 2.618000030517578,1.3489999771118164 2.618000030517578,2.24399995803833 C2.618000030517578,2.859999895095825 2.507999897003174,3.388000011444092 2.2880001068115234,3.828000068664551 C2.068000078201294,4.252999782562256 1.7599999904632568,4.576000213623047 1.3639999628067017,4.796000003814697 C0.9679999947547913,5.015999794006348 0.49900001287460327,5.125999927520752 -0.04399999976158142,5.125999927520752 C-0.8799999952316284,5.125999927520752 -1.5329999923706055,4.906000137329102 -2.002000093460083,4.466000080108643 C-2.4570000171661377,4.026000022888184 -2.7130000591278076,3.4760000705718994 -2.7720000743865967,2.815999984741211 C-2.7720000743865967,2.815999984741211 -5.940000057220459,2.815999984741211 -5.940000057220459,2.815999984741211 C-5.910999774932861,3.7839999198913574 -5.660999774932861,4.642000198364258 -5.191999912261963,5.389999866485596 C-4.708000183105469,6.138000011444092 -4.019000053405762,6.724999904632568 -3.124000072479248,7.150000095367432z"></path></g></g><g transform="matrix(1,0,0,1,232.19601440429688,135.44000244140625)" opacity="1" style="display: block;"><g opacity="1" transform="matrix(2,0,0,2,0,0)"><path fill="rgb(0,0,0)" fill-opacity="1" d=" M-0.4399999976158142,1.1660000085830688 C-0.675000011920929,1.4739999771118164 -1.0269999504089355,1.6790000200271606 -1.496000051498413,1.781999945640564 C-1.496000051498413,1.781999945640564 -1.496000051498413,3.2119998931884766 -1.496000051498413,3.2119998931884766 C-0.5130000114440918,3.0360000133514404 0.22699999809265137,2.6470000743865967 0.7260000109672546,2.0460000038146973 C1.2389999628067017,1.4450000524520874 1.496000051498413,0.6890000104904175 1.496000051498413,-0.2199999988079071 C1.496000051498413,-0.2199999988079071 1.496000051498413,-3.2119998931884766 1.496000051498413,-3.2119998931884766 C1.496000051498413,-3.2119998931884766 -1.496000051498413,-3.2119998931884766 -1.496000051498413,-3.2119998931884766 C-1.496000051498413,-3.2119998931884766 -1.496000051498413,-0.2199999988079071 -1.496000051498413,-0.2199999988079071 C-1.496000051498413,-0.2199999988079071 -0.08799999952316284,-0.2199999988079071 -0.08799999952316284,-0.2199999988079071 C-0.08799999952316284,0.3959999978542328 -0.20499999821186066,0.8579999804496765 -0.4399999976158142,1.1660000085830688z"></path></g></g><g transform="matrix(1,0,0,1,214.05599975585938,119.7979965209961)" opacity="1" style="display: block;"><g opacity="1" transform="matrix(2,0,0,2,0,0)"><path fill="rgb(0,0,0)" fill-opacity="1" d=" M0.7919999957084656,-3.9049999713897705 C0.7919999957084656,-3.9049999713897705 0.7919999957084656,1.6390000581741333 0.7919999957084656,1.6390000581741333 C0.7919999957084656,1.6390000581741333 -3.6740000247955322,1.6390000581741333 -3.6740000247955322,1.6390000581741333 C-3.6740000247955322,1.6390000581741333 0.7919999957084656,-3.9049999713897705 0.7919999957084656,-3.9049999713897705z M-6.22599983215332,4.2789998054504395 C-6.22599983215332,4.2789998054504395 0.7919999957084656,4.2789998054504395 0.7919999957084656,4.2789998054504395 C0.7919999957084656,4.2789998054504395 0.7919999957084656,7.60099983215332 0.7919999957084656,7.60099983215332 C0.7919999957084656,7.60099983215332 4.026000022888184,7.60099983215332 4.026000022888184,7.60099983215332 C4.026000022888184,7.60099983215332 4.026000022888184,4.2789998054504395 4.026000022888184,4.2789998054504395 C4.026000022888184,4.2789998054504395 6.22599983215332,4.2789998054504395 6.22599983215332,4.2789998054504395 C6.22599983215332,4.2789998054504395 6.22599983215332,1.6390000581741333 6.22599983215332,1.6390000581741333 C6.22599983215332,1.6390000581741333 4.026000022888184,1.6390000581741333 4.026000022888184,1.6390000581741333 C4.026000022888184,1.6390000581741333 4.026000022888184,-7.60099983215332 4.026000022888184,-7.60099983215332 C4.026000022888184,-7.60099983215332 0.7919999957084656,-7.60099983215332 0.7919999957084656,-7.60099983215332 C0.7919999957084656,-7.60099983215332 -6.22599983215332,1.1549999713897705 -6.22599983215332,1.1549999713897705 C-6.22599983215332,1.1549999713897705 -6.22599983215332,4.2789998054504395 -6.22599983215332,4.2789998054504395z"></path></g></g><g transform="matrix(1,0,0,1,186.552001953125,120.25999450683594)" opacity="1" style="display: block;"><g opacity="1" transform="matrix(2,0,0,2,0,0)"><path fill="rgb(0,0,0)" fill-opacity="1" d=" M0.8140000104904175,-9.569999694824219 C0.8140000104904175,-9.569999694824219 -0.593999981880188,-9.569999694824219 -0.593999981880188,-9.569999694824219 C-0.593999981880188,-9.569999694824219 -0.593999981880188,9.569999694824219 -0.593999981880188,9.569999694824219 C-0.593999981880188,9.569999694824219 0.8140000104904175,9.569999694824219 0.8140000104904175,9.569999694824219 C0.8140000104904175,9.569999694824219 0.8140000104904175,-9.569999694824219 0.8140000104904175,-9.569999694824219z M-3.0360000133514404,7.061999797821045 C-2.0390000343322754,7.4730000495910645 -0.9020000100135803,7.677999973297119 0.37400001287460327,7.677999973297119 C1.621000051498413,7.677999973297119 2.684000015258789,7.486999988555908 3.563999891281128,7.105999946594238 C4.443999767303467,6.724999904632568 5.104000091552734,6.203999996185303 5.544000148773193,5.544000148773193 C5.999000072479248,4.86899995803833 6.22599983215332,4.077000141143799 6.22599983215332,3.1679999828338623 C6.22599983215332,2.24399995803833 6.013000011444092,1.4889999628067017 5.5879998207092285,0.9020000100135803 C5.177000045776367,0.3149999976158142 4.619999885559082,-0.1469999998807907 3.9159998893737793,-0.48399999737739563 C3.2269999980926514,-0.8360000252723694 2.3320000171661377,-1.180999994277954 1.2319999933242798,-1.5180000066757202 C1.0269999504089355,-1.590999960899353 0.7990000247955322,-1.656999945640564 0.550000011920929,-1.715999960899353 C0.5059999823570251,-1.7309999465942383 0.45500001311302185,-1.7450000047683716 0.3959999978542328,-1.7599999904632568 C-0.3959999978542328,-2.009000062942505 -0.996999979019165,-2.2070000171661377 -1.4079999923706055,-2.3540000915527344 C-1.8040000200271606,-2.515000104904175 -2.111999988555908,-2.7130000591278076 -2.3320000171661377,-2.947999954223633 C-2.5369999408721924,-3.183000087738037 -2.640000104904175,-3.4830000400543213 -2.640000104904175,-3.8499999046325684 C-2.640000104904175,-4.39300012588501 -2.4200000762939453,-4.802999973297119 -1.9800000190734863,-5.081999778747559 C-1.524999976158142,-5.375 -0.9240000247955322,-5.521999835968018 -0.17599999904632568,-5.521999835968018 C0.7329999804496765,-5.521999835968018 1.4450000524520874,-5.316999912261963 1.9579999446868896,-4.906000137329102 C2.4709999561309814,-4.510000228881836 2.7790000438690186,-3.9159998893737793 2.881999969482422,-3.124000072479248 C2.881999969482422,-3.124000072479248 5.940000057220459,-3.124000072479248 5.940000057220459,-3.124000072479248 C5.8520002365112305,-4.635000228881836 5.2729997634887695,-5.829999923706055 4.202000141143799,-6.710000038146973 C3.1459999084472656,-7.590000152587891 1.7230000495910645,-8.029999732971191 -0.06599999964237213,-8.029999732971191 C-1.2100000381469727,-8.029999732971191 -2.2070000171661377,-7.854000091552734 -3.058000087738037,-7.501999855041504 C-3.9089999198913574,-7.150000095367432 -4.568999767303467,-6.63700008392334 -5.038000106811523,-5.961999893188477 C-5.493000030517578,-5.2870001792907715 -5.71999979019165,-4.494999885559082 -5.71999979019165,-3.5859999656677246 C-5.71999979019165,-2.75 -5.506999969482422,-2.0460000038146973 -5.081999778747559,-1.4739999771118164 C-4.6570000648498535,-0.9169999957084656 -4.098999977111816,-0.4620000123977661 -3.4100000858306885,-0.10999999940395355 C-2.7209999561309814,0.22699999809265137 -1.8769999742507935,0.5350000262260437 -0.8799999952316284,0.8140000104904175 C-0.718999981880188,0.8730000257492065 -0.4620000123977661,0.9459999799728394 -0.10999999940395355,1.034000039100647 C0.6819999814033508,1.253999948501587 1.2910000085830688,1.4520000219345093 1.715999960899353,1.628000020980835 C2.1559998989105225,1.8040000200271606 2.500999927520752,2.0390000343322754 2.75,2.3320000171661377 C3.0139999389648438,2.6110000610351562 3.1459999084472656,2.9700000286102295 3.1459999084472656,3.4100000858306885 C3.1459999084472656,3.9670000076293945 2.9260001182556152,4.400000095367432 2.4860000610351562,4.708000183105469 C2.0460000038146973,5.015999794006348 1.3639999628067017,5.170000076293945 0.4399999976158142,5.170000076293945 C-0.24899999797344208,5.170000076293945 -0.8579999804496765,5.081999778747559 -1.3860000371932983,4.906000137329102 C-1.9140000343322754,4.715000152587891 -2.3389999866485596,4.414999961853027 -2.6619999408721924,4.004000186920166 C-2.9700000286102295,3.5789999961853027 -3.1459999084472656,3.0360000133514404 -3.190000057220459,2.375999927520752 C-3.190000057220459,2.375999927520752 -6.22599983215332,2.375999927520752 -6.22599983215332,2.375999927520752 C-6.210999965667725,3.505000114440918 -5.925000190734863,4.466000080108643 -5.368000030517578,5.257999897003174 C-4.796000003814697,6.050000190734863 -4.019000053405762,6.651000022888184 -3.0360000133514404,7.061999797821045z"></path></g></g></g></g></g></svg>