<svg xmlns="http://www.w3.org/2000/svg" width="756" height="269" style="width:100%;height:100%;transform:translate3d(0,0,0);content-visibility:visible"><defs><clipPath id="a"><path d="M0 0h756v269H0z"/></clipPath><clipPath id="b"><path d="M0 0h712v188H0z"/></clipPath><clipPath id="c"><path d="M0 0h712v188H0z"/></clipPath><clipPath id="f"><path d="M0 0h40v40H0z"/></clipPath><clipPath id="d"><path d="M0 0h106v106H0z"/></clipPath><clipPath id="e"><path d="M0 0h50v50H0z"/></clipPath></defs><g clip-path="url(#a)"><g clip-path="url(#b)" transform="translate(25 36.5)" style="display:block"><g clip-path="url(#c)" style="display:block"><g style="display:block"><path fill="#FFF" d="M709 41v106c0 22.076-17.924 40-40 40H43c-22.076 0-40-17.924-40-40V41C3 18.924 20.924 1 43 1h626c22.076 0 40 17.924 40 40z"/><path stroke="#EBEEF4" d="M709 41v106c0 22.076-17.924 40-40 40H43c-22.076 0-40-17.924-40-40V41C3 18.924 20.924 1 43 1h626c22.076 0 40 17.924 40 40z" fill="none" stroke-width="2"/></g><g clip-path="url(#d)" transform="translate(43 41)" style="display:block"><path fill="#C9A2EF" d="M26.5-14.5v29c0 6.623-5.377 12-12 12h-29c-6.623 0-12-5.377-12-12v-29c0-6.623 5.377-12 12-12h29c6.623 0 12 5.377 12 12z" transform="matrix(2 0 0 2 53 53)" style="display:block"/><g clip-path="url(#e)" transform="translate(28 28)" style="display:block"><path fill="#52396A" d="M11.25 8.965a.951.951 0 0 0-.938-.938H-.82L1.953.41.195-.215l-3.007 8.242h-7.5a.926.926 0 0 0-.938.938c0 .547.391.937.938.937h20.624c.508 0 .938-.39.938-.937zM9.219-.254l-2.578-.937c.391-1.328.586-2.657.586-4.024C8.399-3.848 9.102-2.09 9.219-.254zM5.312-5.762a11.894 11.894 0 0 1-.429 3.907L-.43-3.77C.078-4.981.821-6.074 1.719-7.051c.547-.547 1.328-.742 2.031-.508.039 0 .078 0 .117.039l.352.118a1.97 1.97 0 0 1 1.093 1.64zm-10.195.352C-3.594-6.777-1.875-7.715 0-7.949c-.898 1.055-1.641 2.265-2.227 3.515l-2.656-.976zm9.375-3.867c-.039-.039-.078-.039-.156-.078C.078-10.839-4.57-9.2-7.07-5.684c-.43.625-.117 1.446.586 1.719L.625-1.387l1.758.625 7.109 2.617c.703.234 1.485-.195 1.563-.937A10.017 10.017 0 0 0 4.961-9.121c-.156-.039-.313-.117-.469-.156z" transform="matrix(2 0 0 2 25 25)" style="display:block"/></g></g><path d="M-.992-5.72v2.944l.48 5.216H.496l.496-5.216V-5.72H-.992zM.96 3.8H-.96v1.92H.96V3.8z" transform="matrix(2 0 0 2 301.023 63.56)" style="display:block"/><path d="M-1.8-3.968h-1.824v8.176H-1.8v-8.176zm3.216 1.76c.256.299.384.741.384 1.328v5.088h1.824v-5.632c0-.896-.251-1.584-.752-2.064-.491-.48-1.141-.72-1.952-.72-.651 0-1.2.123-1.648.368-.437.245-.784.56-1.04.944h-.608v2.16h.576c0-.395.08-.736.24-1.024.171-.299.411-.523.72-.672a2.3 2.3 0 0 1 1.072-.24c.533 0 .928.155 1.184.464z" transform="matrix(2 0 0 2 288.344 66.584)" style="display:block"/><path d="M1.256 2.52c-.341.235-.757.352-1.248.352-.747 0-1.317-.261-1.712-.784-.384-.523-.576-1.216-.576-2.08 0-.565.085-1.067.256-1.504.171-.437.427-.773.768-1.008.341-.245.763-.368 1.264-.368.736 0 1.296.261 1.68.784.395.523.592 1.216.592 2.08 0 .576-.085 1.083-.256 1.52a2.225 2.225 0 0 1-.768 1.008zM-2.232 3.8c.629.363 1.371.544 2.224.544.853 0 1.589-.181 2.208-.544a3.702 3.702 0 0 0 1.44-1.536c.341-.661.512-1.419.512-2.272 0-.853-.171-1.605-.512-2.256A3.587 3.587 0 0 0 2.2-3.8C1.581-4.163.851-4.344.008-4.344c-.853 0-1.595.187-2.224.56a3.587 3.587 0 0 0-1.44 1.536c-.331.651-.496 1.403-.496 2.256 0 .853.165 1.611.496 2.272A3.629 3.629 0 0 0-2.232 3.8z" transform="matrix(2 0 0 2 270.128 66.824)" style="display:block"/><path d="M.984-5.672H-.984v1.84H.984v-1.84zM.92-2.504H-.904v8.176H.92v-8.176z" transform="matrix(2 0 0 2 257.303 63.656)" style="display:block"/><path d="M2.248-2.88H-2.28v1.472h4.528V-2.88zM-.104 5.184c.331.149.747.224 1.248.224.373 0 .752-.037 1.136-.112V3.888a4.346 4.346 0 0 1-.672.064c-.224 0-.4-.027-.528-.08a.544.544 0 0 1-.272-.304c-.053-.149-.08-.368-.08-.656v-8.32h-1.84v8.32c0 .629.085 1.125.256 1.488.171.363.421.624.752.784z" transform="matrix(2 0 0 2 248.273 64.408)" style="display:block"/><path d="M.472 2.704c-.341.16-.731.24-1.168.24-.437 0-.763-.091-.976-.272-.213-.192-.32-.475-.32-.848 0-.267.059-.485.176-.656.128-.181.325-.336.592-.464C-.957.576-.6.464-.152.368A12.96 12.96 0 0 0 .904.112c.288-.085.501-.176.64-.272V.88c0 .416-.096.784-.288 1.104a1.838 1.838 0 0 1-.784.72zm-3.648.992c.48.427 1.125.64 1.936.64.629 0 1.179-.117 1.648-.352a2.804 2.804 0 0 0 1.12-.992h.032c.053.427.187.731.4.912.213.181.533.272.96.272.288 0 .608-.037.96-.112V3.04a1.13 1.13 0 0 0-.192.016.288.288 0 0 1-.288-.192c-.053-.128-.08-.336-.08-.624v-3.6c0-1.056-.277-1.813-.832-2.272-.555-.469-1.323-.704-2.304-.704-1.216 0-2.128.261-2.736.784-.608.523-.933 1.205-.976 2.048h1.824c.032-.341.107-.619.224-.832.117-.213.304-.368.56-.464.256-.096.597-.144 1.024-.144.512 0 .88.091 1.104.272.224.171.336.411.336.72 0 .235-.069.421-.208.56-.139.128-.32.229-.544.304a8.897 8.897 0 0 1-.944.24 3.245 3.245 0 0 0-.4.08c-.725.139-1.328.309-1.808.512a2.623 2.623 0 0 0-1.12.832c-.267.363-.4.832-.4 1.408 0 .704.235 1.275.704 1.712z" transform="matrix(2 0 0 2 234.824 66.808)" style="display:block"/><path d="M-2 3.784c.619.363 1.339.544 2.16.544.704 0 1.328-.139 1.872-.416a3.397 3.397 0 0 0 1.312-1.168 3.449 3.449 0 0 0 .56-1.696H2.032a2.78 2.78 0 0 1-.24.896 1.543 1.543 0 0 1-.592.672c-.267.171-.619.256-1.056.256-.491 0-.901-.128-1.232-.384a2.208 2.208 0 0 1-.704-1.024A4.493 4.493 0 0 1-2.016.008c0-.544.075-1.029.224-1.456.149-.437.384-.784.704-1.04.331-.256.741-.384 1.232-.384.437 0 .789.091 1.056.272.267.171.464.389.592.656.128.267.208.549.24.848h1.872a3.754 3.754 0 0 0-.592-1.664A3.276 3.276 0 0 0 2-3.912C1.456-4.189.832-4.328.128-4.328c-.811 0-1.52.187-2.128.56a3.644 3.644 0 0 0-1.408 1.536c-.331.651-.496 1.397-.496 2.24 0 .843.165 1.595.496 2.256.331.651.8 1.157 1.408 1.52z" transform="matrix(2 0 0 2 217.523 66.824)" style="display:block"/><path d="M.472 2.704c-.341.16-.731.24-1.168.24-.437 0-.763-.091-.976-.272-.213-.192-.32-.475-.32-.848 0-.267.059-.485.176-.656.128-.181.325-.336.592-.464C-.957.576-.6.464-.152.368A12.96 12.96 0 0 0 .904.112c.288-.085.501-.176.64-.272V.88c0 .416-.096.784-.288 1.104a1.838 1.838 0 0 1-.784.72zm-3.648.992c.48.427 1.125.64 1.936.64.629 0 1.179-.117 1.648-.352a2.804 2.804 0 0 0 1.12-.992h.032c.053.427.187.731.4.912.213.181.533.272.96.272.288 0 .608-.037.96-.112V3.04a1.13 1.13 0 0 0-.192.016.288.288 0 0 1-.288-.192c-.053-.128-.08-.336-.08-.624v-3.6c0-1.056-.277-1.813-.832-2.272-.555-.469-1.323-.704-2.304-.704-1.216 0-2.128.261-2.736.784-.608.523-.933 1.205-.976 2.048h1.824c.032-.341.107-.619.224-.832.117-.213.304-.368.56-.464.256-.096.597-.144 1.024-.144.512 0 .88.091 1.104.272.224.171.336.411.336.72 0 .235-.069.421-.208.56-.139.128-.32.229-.544.304a8.897 8.897 0 0 1-.944.24 3.245 3.245 0 0 0-.4.08c-.725.139-1.328.309-1.808.512a2.623 2.623 0 0 0-1.12.832c-.267.363-.4.832-.4 1.408 0 .704.235 1.275.704 1.712z" transform="matrix(2 0 0 2 200.253 66.808)" style="display:block"/><path d="M-2.768-5.72h-2.256l3.968 11.44h2.208L5.024-5.72h-2.16l-2.8 9.184H.032l-2.8-9.184z" transform="matrix(2 0 0 2 183.24 63.56)" style="display:block"/><path d="M-5.192 5.17c-.352.748-.528 1.613-.528 2.596H5.654V5.104h-6.93V5.06c.147-.249.337-.484.572-.704.235-.235.484-.455.748-.66.279-.205.594-.425.946-.66l.154-.066.22-.154C2.259 2.2 2.999 1.628 3.586 1.1A7.268 7.268 0 0 0 5.104-.77c.411-.719.616-1.518.616-2.398 0-.953-.227-1.775-.682-2.464-.455-.704-1.085-1.232-1.892-1.584-.792-.367-1.701-.55-2.728-.55-1.305 0-2.398.242-3.278.726a4.456 4.456 0 0 0-1.936 2.024c-.425.865-.638 1.885-.638 3.058h3.168c0-.704.088-1.291.264-1.76.191-.469.477-.821.858-1.056.396-.235.887-.352 1.474-.352.484 0 .873.095 1.166.286.308.176.528.425.66.748.147.323.22.697.22 1.122 0 .469-.11.902-.33 1.298a3.956 3.956 0 0 1-.88 1.078C.785-.271.264.117-.396.572a4.05 4.05 0 0 0-.44.308c-1.217.851-2.156 1.591-2.816 2.222a6.924 6.924 0 0 0-1.54 2.068z" transform="matrix(2 0 0 2 370.05 119.468)" style="display:block"/><path d="M-3.168 7.271c.953.44 2.097.66 3.432.66 1.173 0 2.193-.176 3.058-.528.88-.367 1.555-.895 2.024-1.584.469-.704.704-1.555.704-2.552 0-.909-.22-1.672-.66-2.288C4.965.348 4.283-.114 3.344-.407v-.044c.704-.337 1.254-.777 1.65-1.32.396-.543.594-1.203.594-1.98 0-.865-.242-1.613-.726-2.244-.484-.631-1.137-1.107-1.958-1.43-.821-.337-1.731-.506-2.728-.506-1.188 0-2.222.213-3.102.638-.865.411-1.533.997-2.002 1.76-.455.748-.682 1.606-.682 2.574h3.168c0-.763.213-1.342.638-1.738.44-.396 1.078-.594 1.914-.594.484 0 .887.081 1.21.242.323.147.557.359.704.638.161.264.242.579.242.946 0 .469-.103.858-.308 1.166a1.8 1.8 0 0 1-.88.682 3.692 3.692 0 0 1-1.254.198h-.946V.935h1.034c.587 0 1.085.073 1.496.22.411.132.733.367.968.704.235.323.352.755.352 1.298 0 .455-.088.843-.264 1.166-.176.308-.455.55-.836.726-.381.161-.887.242-1.518.242-.704 0-1.283-.117-1.738-.352a2.157 2.157 0 0 1-.968-1.012c-.191-.44-.286-.983-.286-1.628H-6.05c0 1.188.242 2.207.726 3.058.499.836 1.217 1.474 2.156 1.914z" transform="matrix(2 0 0 2 343.681 119.798)" style="display:block"/><path d="M1.496-1.496h-2.992v2.992h2.992v-2.992z" transform="matrix(2 0 0 2 325.694 132.008)" style="display:block"/><path d="M1.815 4.565c-.455.455-1.056.682-1.804.682-1.129 0-1.929-.469-2.398-1.408-.455-.953-.682-2.229-.682-3.828 0-1.027.095-1.929.286-2.706.191-.777.513-1.393.968-1.848.455-.469 1.063-.704 1.826-.704 1.1 0 1.885.477 2.354 1.43.469.939.704 2.215.704 3.828 0 1.027-.095 1.929-.286 2.706-.191.777-.513 1.393-.968 1.848zm-5.412 2.354c.968.675 2.171 1.012 3.608 1.012 1.423 0 2.611-.337 3.564-1.012.968-.689 1.687-1.628 2.156-2.816.469-1.188.704-2.552.704-4.092 0-1.54-.235-2.904-.704-4.092-.469-1.203-1.188-2.141-2.156-2.816-.953-.689-2.141-1.034-3.564-1.034-1.437 0-2.64.345-3.608 1.034-.968.675-1.687 1.613-2.156 2.816-.455 1.188-.682 2.552-.682 4.092 0 1.54.227 2.904.682 4.092.469 1.188 1.188 2.127 2.156 2.816z" transform="matrix(2 0 0 2 307.426 119.798)" style="display:block"/><path d="M1.815 4.565c-.455.455-1.056.682-1.804.682-1.129 0-1.929-.469-2.398-1.408-.455-.953-.682-2.229-.682-3.828 0-1.027.095-1.929.286-2.706.191-.777.513-1.393.968-1.848.455-.469 1.063-.704 1.826-.704 1.1 0 1.885.477 2.354 1.43.469.939.704 2.215.704 3.828 0 1.027-.095 1.929-.286 2.706-.191.777-.513 1.393-.968 1.848zm-5.412 2.354c.968.675 2.171 1.012 3.608 1.012 1.423 0 2.611-.337 3.564-1.012.968-.689 1.687-1.628 2.156-2.816.469-1.188.704-2.552.704-4.092 0-1.54-.235-2.904-.704-4.092-.469-1.203-1.188-2.141-2.156-2.816-.953-.689-2.141-1.034-3.564-1.034-1.437 0-2.64.345-3.608 1.034-.968.675-1.687 1.613-2.156 2.816-.455 1.188-.682 2.552-.682 4.092 0 1.54.227 2.904.682 4.092.469 1.188 1.188 2.127 2.156 2.816z" transform="matrix(2 0 0 2 278.25 119.798)" style="display:block"/><path d="M-3.124 7.15c.909.411 2.002.616 3.278.616 1.1 0 2.09-.213 2.97-.638a4.82 4.82 0 0 0 2.068-1.87c.499-.836.748-1.833.748-2.992 0-1.027-.213-1.921-.638-2.684a4.347 4.347 0 0 0-1.76-1.804C2.794-2.647 1.929-2.86.946-2.86c-.704 0-1.335.103-1.892.308a4.856 4.856 0 0 0-1.474.88v-.044l.682-3.388h6.974v-2.662h-9.262L-5.742.682h3.124a2.97 2.97 0 0 1 1.166-.88 3.441 3.441 0 0 1 1.43-.308c.865 0 1.518.235 1.958.704.455.469.682 1.151.682 2.046 0 .616-.11 1.144-.33 1.584a2.27 2.27 0 0 1-.924.968c-.396.22-.865.33-1.408.33-.836 0-1.489-.22-1.958-.66-.455-.44-.711-.99-.77-1.65H-5.94c.029.968.279 1.826.748 2.574.484.748 1.173 1.335 2.068 1.76z" transform="matrix(2 0 0 2 250.266 120.128)" style="display:block"/><path d="M-.44 1.166c-.235.308-.587.513-1.056.616v1.43C-.513 3.036.227 2.647.726 2.046c.513-.601.77-1.357.77-2.266v-2.992h-2.992V-.22h1.408c0 .616-.117 1.078-.352 1.386z" transform="matrix(2 0 0 2 232.196 135.44)" style="display:block"/><path d="M.792-3.905v5.544h-4.466L.792-3.905zm-7.018 8.184H.792v3.322h3.234V4.279h2.2v-2.64h-2.2v-9.24H.792l-7.018 8.756v3.124z" transform="matrix(2 0 0 2 214.056 119.798)" style="display:block"/><path d="M.814-9.57H-.594V9.57H.814V-9.57zm-3.85 16.632c.997.411 2.134.616 3.41.616 1.247 0 2.31-.191 3.19-.572.88-.381 1.54-.902 1.98-1.562.455-.675.682-1.467.682-2.376 0-.924-.213-1.679-.638-2.266C5.177.315 4.62-.147 3.916-.484c-.689-.352-1.584-.697-2.684-1.034a6.532 6.532 0 0 0-.682-.198 2.066 2.066 0 0 0-.154-.044 52.68 52.68 0 0 1-1.804-.594c-.396-.161-.704-.359-.924-.594-.205-.235-.308-.535-.308-.902 0-.543.22-.953.66-1.232.455-.293 1.056-.44 1.804-.44.909 0 1.621.205 2.134.616.513.396.821.99.924 1.782H5.94C5.852-4.635 5.273-5.83 4.202-6.71 3.146-7.59 1.723-8.03-.066-8.03c-1.144 0-2.141.176-2.992.528-.851.352-1.511.865-1.98 1.54-.455.675-.682 1.467-.682 2.376 0 .836.213 1.54.638 2.112.425.557.983 1.012 1.672 1.364.689.337 1.533.645 2.53.924.161.059.418.132.77.22.792.22 1.401.418 1.826.594.44.176.785.411 1.034.704.264.279.396.638.396 1.078 0 .557-.22.99-.66 1.298-.44.308-1.122.462-2.046.462-.689 0-1.298-.088-1.826-.264a2.786 2.786 0 0 1-1.276-.902c-.308-.425-.484-.968-.528-1.628h-3.036c.015 1.129.301 2.09.858 2.882.572.792 1.349 1.393 2.332 1.804z" transform="matrix(2 0 0 2 186.552 120.26)" style="display:block"/></g></g></g></svg>