<svg xmlns="http://www.w3.org/2000/svg" width="409" height="409" style="width:100%;height:100%;transform:translate3d(0,0,0);content-visibility:visible"><defs><clipPath id="a"><path d="M0 0h409v409H0z"/></clipPath></defs><g clip-path="url(#a)"><path d="M177.375-36.75C88.125-17 4.5 61.5 15 152.5 92.5 135 181.5 60 177.375-36.75z" transform="translate(204.5 204.5)" style="display:block"/><path d="M180.375-38.25C72-9 25.5 53.5 15 152.5c79.5-8.5 168-96 165.375-190.75z" transform="matrix(-1 0 0 1 204.5 204.5)" style="display:block"/><g fill="none" style="display:block"><path d="M202.728 63.329c28.322 0 51.318 22.996 51.318 51.318s-22.996 51.318-51.318 51.318-51.318-22.996-51.318-51.318 22.996-51.318 51.318-51.318z"/><path stroke="#000" stroke-width="26" d="M202.728 63.329c28.322 0 51.318 22.996 51.318 51.318s-22.996 51.318-51.318 51.318-51.318-22.996-51.318-51.318 22.996-51.318 51.318-51.318z"/></g></g></svg>