<svg xmlns="http://www.w3.org/2000/svg" xmlns:xlink="http://www.w3.org/1999/xlink" viewBox="0 0 409 409" width="409" height="409" preserveAspectRatio="xMidYMid meet" style="width: 100%; height: 100%; transform: translate3d(0px, 0px, 0px); content-visibility: visible;"><defs><clipPath id="__lottie_element_2"><rect width="409" height="409" x="0" y="0"></rect></clipPath></defs><g clip-path="url(#__lottie_element_2)"><g transform="matrix(1,0,0,1,204.5,204.5)" opacity="1" style="display: block;"><g opacity="1" transform="matrix(1,0,0,1,0,0)"><path fill="rgb(0,0,0)" fill-opacity="1" d=" M177.375,-36.75 C88.125,-17 4.5,61.5 15,152.5 C92.5,135 181.5,60 177.375,-36.75z"></path></g></g><g transform="matrix(-1,0,0,1,204.5,204.5)" opacity="1" style="display: block;"><g opacity="1" transform="matrix(1,0,0,1,0,0)"><path fill="rgb(0,0,0)" fill-opacity="1" d=" M180.375,-38.25 C72,-9 25.5,53.5 15,152.5 C94.5,144 183,56.5 180.375,-38.25z"></path></g></g><g transform="matrix(1,0,0,1,203.5,204.5)" opacity="1" style="display: block;"><g opacity="1" transform="matrix(1,0,0,1,-0.7720000147819519,-89.85299682617188)"><path fill="rgb(0,0,0)" fill-opacity="0" d=" M0,-51.31800079345703 C28.322404861450195,-51.31800079345703 51.31800079345703,-28.322404861450195 51.31800079345703,0 C51.31800079345703,28.322404861450195 28.322404861450195,51.31800079345703 0,51.31800079345703 C-28.322404861450195,51.31800079345703 -51.31800079345703,28.322404861450195 -51.31800079345703,0 C-51.31800079345703,-28.322404861450195 -28.322404861450195,-51.31800079345703 0,-51.31800079345703z"></path><path stroke-linecap="butt" stroke-linejoin="miter" fill-opacity="0" stroke-miterlimit="4" stroke="#000000" stroke-opacity="1" stroke-width="26px" d=" M0,-51.31800079345703 C28.322404861450195,-51.31800079345703 51.31800079345703,-28.322404861450195 51.31800079345703,0 C51.31800079345703,28.322404861450195 28.322404861450195,51.31800079345703 0,51.31800079345703 C-28.322404861450195,51.31800079345703 -51.31800079345703,28.322404861450195 -51.31800079345703,0 C-51.31800079345703,-28.322404861450195 -28.322404861450195,-51.31800079345703 0,-51.31800079345703z"></path></g></g></g></svg>