<svg xmlns:xlink="http://www.w3.org/1999/xlink" xmlns="http://www.w3.org/2000/svg" width="9" viewBox="0 0 9 10" fill="none" height="10" ><path d="M8.32031 1.90104L5.19531 5.02604L8.29427 8.125C8.55469 8.35938 8.55469 8.75 8.29427 8.98438C8.0599 9.24479 7.66927 9.24479 7.4349 8.98438L4.3099 5.88542L1.21094 8.98438C0.976562 9.24479 0.585938 9.24479 0.351563 8.98438C0.0911458 8.75 0.0911458 8.35938 0.351563 8.09896L3.45052 5L0.351563 1.90104C0.0911458 1.66667 0.0911458 1.27604 0.351563 1.01563C0.585938 0.78125 0.976563 0.78125 1.23698 1.01563L4.33594 4.14063L7.4349 1.04167C7.66927 0.78125 8.0599 0.78125 8.32031 1.04167C8.55469 1.27604 8.55469 1.66667 8.32031 1.90104Z" fill="currentColor"></path></svg>