<svg xmlns:xlink="http://www.w3.org/1999/xlink" xmlns="http://www.w3.org/2000/svg" width="163" viewBox="0 0 163 33" fill="none" class="logo-path__wrap" height="33" ><path d="M54.8056 31.4143H59.457V14.5929H63.1685V10.5484H59.457V9.32616C59.457 5.53089 60.6781 4.30065 63.9478 4.30065H65.3376V0.135498H63.7469C58.2359 0.135498 54.8136 3.44028 54.8136 9.89706V10.5484H51.793V14.5929H54.8136V31.4143H54.8056Z" fill="#000" class="logo-path"></path><path d="M65.0483 31.4143H69.6998V19.6506C69.6998 16.3056 70.9209 14.8743 74.1504 14.8743H75.2911V10.5483H73.6202C68.1493 10.5483 65.0483 13.9818 65.0483 19.0797V31.4143Z" fill="#000" class="logo-path"></path><path d="M86.466 31.8646C92.0975 31.8646 95.078 28.9216 95.078 23.1644V10.5483H90.4265V23.4137C90.4265 26.437 89.2054 27.8683 86.466 27.8683C83.7265 27.8683 82.5054 26.437 82.5054 23.4137V10.5483H77.854V23.1644C77.854 28.9216 80.8345 31.8646 86.466 31.8646Z" fill="#000" class="logo-path"></path><path d="M103.36 10.5483H98.709V31.4143H103.36V10.5483Z" fill="#000" class="logo-path"></path><path d="M101.039 7.52501C102.548 7.52501 103.77 6.30101 103.77 4.79113C103.77 3.28125 102.548 2.05725 101.039 2.05725C99.5305 2.05725 98.3076 3.28125 98.3076 4.79113C98.3076 6.30101 99.5305 7.52501 101.039 7.52501Z" fill="#000" class="logo-path"></path><path d="M116.945 31.4143H118.005V27.2491H117.764C114.583 27.2491 113.483 25.8581 113.483 22.4327V14.5929H116.664V10.5483H113.483V4.09961H108.831V10.5483H105.811V14.5929H108.831V22.883C108.831 28.5196 111.932 31.4143 116.953 31.4143H116.945Z" fill="#000" class="logo-path"></path><path d="M122.006 31.4143H126.658V14.5929H130.369V10.5484H126.658V9.32616C126.658 5.53089 127.879 4.30065 131.148 4.30065H132.538V0.135498H130.948C125.437 0.135498 122.014 3.44028 122.014 9.89706V10.5484H118.994V14.5929H122.014V31.4143H122.006Z" fill="#000" class="logo-path"></path><path d="M141.432 31.8646C147.063 31.8646 150.044 28.9216 150.044 23.1644V10.5483H145.392V23.4137C145.392 26.437 144.171 27.8683 141.432 27.8683C138.692 27.8683 137.471 26.437 137.471 23.4137V10.5483H132.82V23.1644C132.82 28.9216 135.8 31.8646 141.432 31.8646Z" fill="#000" class="logo-path"></path><path d="M161.58 31.4142H162.64V27.2491H162.399C159.258 27.2491 158.117 26.0269 158.117 22.7543V2.20996H153.466V22.7543C153.466 28.5115 156.567 31.4142 161.588 31.4142H161.58Z" fill="#000" class="logo-path"></path><path d="M18.3873 32.1088C8.63191 30.8085 1.09222 22.4957 1.00488 12.4008C10.7635 13.701 18.3032 22.017 18.3873 32.1088Z" fill="#000"></path><path d="M21.0654 32.1088C30.8208 30.8085 38.3637 22.4957 38.4478 12.4008C28.6892 13.701 21.1495 22.017 21.0654 32.1088Z" fill="#000"></path><path d="M19.7295 13.7237C16.0486 13.7237 13.0566 10.7286 13.0566 7.05089C13.0566 3.37323 16.0486 0.378052 19.7295 0.378052C23.4104 0.378052 26.4023 3.37323 26.4023 7.05089C26.4023 10.7286 23.4071 13.7237 19.7295 13.7237ZM19.7295 3.0239C17.5106 3.0239 15.7025 4.82877 15.7025 7.05089C15.7025 9.27302 17.5074 11.0779 19.7295 11.0779C21.9516 11.0779 23.7565 9.27302 23.7565 7.05089C23.7565 4.82877 21.9516 3.0239 19.7295 3.0239Z" fill="#000"></path></svg>