<svg xmlns:xlink="http://www.w3.org/1999/xlink" xmlns="http://www.w3.org/2000/svg" width="22" viewBox="0 0 22 20" fill="none" class="svg-icon mute" height="20" ><path d="M16 7.43934L18.25 9.68934M18.25 9.68934L20.5 11.9393M18.25 9.68934L20.5 7.43934M18.25 9.68934L16 11.9393M5.5 5.93934L10.22 1.21934C10.325 1.11452 10.4586 1.04318 10.6041 1.01433C10.7496 0.985474 10.9004 1.00041 11.0374 1.05725C11.1744 1.11408 11.2915 1.21026 11.3738 1.33363C11.4562 1.457 11.5001 1.60202 11.5 1.75034V17.6293C11.4999 17.7776 11.4558 17.9225 11.3734 18.0457C11.291 18.1689 11.1739 18.2649 11.0369 18.3216C10.9 18.3783 10.7493 18.3932 10.6039 18.3643C10.4585 18.3354 10.3249 18.2641 10.22 18.1593L5.5 13.4393H3.26C2.38 13.4393 1.556 12.9333 1.322 12.0853C1.10752 11.3048 0.999216 10.4988 1 9.68934C1 8.85934 1.112 8.05634 1.322 7.29434C1.556 6.44634 2.38 5.93934 3.26 5.93934H5.5Z" stroke="#000000" stroke-width="1.5px" stroke-linecap="round" stroke-linejoin="round" fill="none"></path></svg>