<svg xmlns:xlink="http://www.w3.org/1999/xlink" xmlns="http://www.w3.org/2000/svg" width="22" viewBox="0 0 22 20" fill="none" class="svg-icon play" height="20" ><path d="M17.864 3.32534C18.6997 4.16107 19.3627 5.15323 19.815 6.24516C20.2673 7.3371 20.5001 8.50743 20.5001 9.68934C20.5001 10.8712 20.2673 12.0416 19.815 13.1335C19.3627 14.2255 18.6997 15.2176 17.864 16.0533M15.213 5.97734C16.1974 6.96188 16.7504 8.29711 16.7504 9.68934C16.7504 11.0816 16.1974 12.4168 15.213 13.4013M5.5 5.93934L10.22 1.21934C10.3249 1.11458 10.4585 1.04326 10.6039 1.01438C10.7493 0.985491 10.9 1.00034 11.0369 1.05705C11.1739 1.11377 11.291 1.20979 11.3734 1.33301C11.4558 1.45622 11.4999 1.6011 11.5 1.74934V17.6293C11.4999 17.7776 11.4558 17.9225 11.3734 18.0457C11.291 18.1689 11.1739 18.2649 11.0369 18.3216C10.9 18.3783 10.7493 18.3932 10.6039 18.3643C10.4585 18.3354 10.3249 18.2641 10.22 18.1593L5.5 13.4393H3.26C2.38 13.4393 1.556 12.9323 1.322 12.0853C1.10752 11.3048 0.999216 10.4988 1 9.68934C1 8.85934 1.112 8.05634 1.322 7.29334C1.556 6.44534 2.38 5.93934 3.26 5.93934H5.5Z" stroke="#000000" stroke-width="1.5px" stroke-linecap="round" stroke-linejoin="round" fill="none"></path></svg>